<svg id="Layer_5" enable-background="new 0 0 64 64" height="512" viewBox="0 0 64 64" width="512" xmlns="http://www.w3.org/2000/svg"><g><g><path d="m2 10h60v36c0 1.105-.895 2-2 2h-56c-1.105 0-2-.895-2-2z" fill="#e6e9ed"/><path d="m44 26v6.09c-.93.16-1.81.56-2.56 1.16-1.12.89-2.36 1.58-3.69 2.04-1.32.47-2.73.71-4.15.71h-1.6v8h-24c-1.1 0-2-.9-2-2v-20h38z" fill="#ffeaa7"/><path d="m58 36v9.47c0 .85-.06 1.7-.18 2.53-.34 2.33-1.13 4.54-2.31 6.52-1.59 2.7-3.91 4.96-6.75 6.52-1.16.63-2.45.96-3.76.96s-2.6-.33-3.76-.96c-4.94-2.7-8.27-7.56-9.06-13.04-.12-.83-.18-1.68-.18-2.53v-1.47-8h1.6c1.42 0 2.83-.24 4.15-.71 1.33-.46 2.57-1.15 3.69-2.04.75-.6 1.63-1 2.56-1.16.33-.06.66-.09 1-.09 1.29 0 2.55.44 3.56 1.25 2.23 1.78 4.99 2.75 7.84 2.75z" fill="#48cfad"/><path d="m45 38c-2.48 0-4.74 1.01-6.36 2.64-1.63 1.62-2.64 3.88-2.64 6.36 0 4.97 4.03 9 9 9 2.48 0 4.74-1.01 6.36-2.64 1.63-1.62 2.64-3.88 2.64-6.36 0-4.97-4.03-9-9-9z" fill="#e6e9ed"/><path d="m18 37v2c0 .55-.45 1-1 1h-6c-.55 0-1-.45-1-1v-2c0-.55.45-1 1-1h6c.55 0 1 .45 1 1z" fill="#ff826e"/><path d="m6 22v-6c0-1.1.9-2 2-2h11c.63 0 1.22.3 1.6.8l2.4 3.2h19c1.1 0 2 .9 2 2v2z" fill="#fcd770"/><path d="m2 10v-6c0-1.1.9-2 2-2h56c1.1 0 2 .9 2 2v6z" fill="#5cd6b3"/></g><g><path d="m45 37c-5.514 0-10 4.486-10 10s4.486 10 10 10 10-4.486 10-10-4.486-10-10-10zm-8 10c0-1.846.634-3.542 1.688-4.898l11.209 11.209c-1.355 1.055-3.051 1.689-4.897 1.689-4.411 0-8-3.589-8-8zm14.312 4.898-11.21-11.21c1.356-1.054 3.052-1.688 4.898-1.688 4.411 0 8 3.589 8 8 0 1.846-.634 3.542-1.688 4.898z"/><path d="m5 5h2v2h-2z"/><path d="m9 5h2v2h-2z"/><path d="m13 5h2v2h-2z"/><path d="m17 17h2v2h-2z"/><path d="m9 17h2v2h-2z"/><path d="m13 17h2v2h-2z"/><path d="m60 1h-56c-1.654 0-3 1.346-3 3v42c0 1.654 1.346 3 3 3h27.342c1.042 5.44 4.453 10.209 9.424 12.92 1.294.706 2.758 1.08 4.234 1.08s2.94-.374 4.235-1.08c4.971-2.711 8.381-7.48 9.424-12.92h1.341c1.654 0 3-1.346 3-3v-42c0-1.654-1.346-3-3-3zm-56 2h56c.551 0 1 .449 1 1v5h-58v-5c0-.551.449-1 1-1zm39 18h-36v-5c0-.551.449-1 1-1h11c.313 0 .612.149.8.4l2.7 3.6h19.5c.551 0 1 .449 1 1zm-36 2h36v8.323c-.789.247-1.536.625-2.187 1.146-2.04 1.632-4.603 2.531-7.216 2.531h-2.597v8h-23c-.551 0-1-.448-1-1zm50 22.47c0 6.129-3.342 11.76-8.723 14.694-2.004 1.094-4.55 1.094-6.554 0-5.381-2.935-8.723-8.565-8.723-14.694v-8.47h.597c3.066 0 6.073-1.055 8.466-2.97 1.661-1.328 4.213-1.328 5.874 0 2.394 1.915 5.401 2.97 8.467 2.97h.596zm3 1.53h-1.069c.041-.507.069-1.016.069-1.53v-10.47h-2.597c-2.614 0-5.177-.899-7.217-2.532-1.183-.947-2.67-1.468-4.186-1.468v-11c0-1.654-1.346-3-3-3h-18.5l-2.1-2.801c-.564-.751-1.461-1.199-2.4-1.199h-11c-1.654 0-3 1.346-3 3v26c0 1.654 1.346 3 3 3h23v.47c0 .514.028 1.023.069 1.53h-27.069c-.551 0-1-.448-1-1v-35h58v35c0 .552-.449 1-1 1z"/><path d="m47 13h12v2h-12z"/><path d="m47 17h12v2h-12z"/><path d="m47 21h12v2h-12z"/><path d="m47 25h12v2h-12z"/><path d="m49 29h2v2h-2z"/><path d="m57 29h2v2h-2z"/><path d="m53 29h2v2h-2z"/><path d="m11 41h6c1.103 0 2-.897 2-2v-2c0-1.103-.897-2-2-2h-6c-1.103 0-2 .897-2 2v2c0 1.103.897 2 2 2zm0-4h6v2h-6z"/></g></g></svg>