<svg id="Layer_5" enable-background="new 0 0 64 64" height="512" viewBox="0 0 64 64" width="512" xmlns="http://www.w3.org/2000/svg"><g><g><path d="m44 42v6c0 4.42-8.51 8-19 8s-19-3.58-19-8v-6c0 4.42 8.51 8 19 8s19-3.58 19-8z" fill="#fcd770"/><path d="m44 48v6c0 4.42-8.51 8-19 8s-19-3.58-19-8v-6c0 4.42 8.51 8 19 8s19-3.58 19-8z" fill="#ffeaa7"/><path d="m44 36v6c0 4.42-8.51 8-19 8s-19-3.58-19-8v-6c0 4.42 8.51 8 19 8s19-3.58 19-8z" fill="#ffeaa7"/><path d="m39.01 36.86c1.75-.23 3.41-.77 4.91-1.55.04.23.08.45.08.69 0 4.42-8.51 8-19 8s-19-3.58-19-8c0-4.17 7.59-7.6 17.27-7.96.64 1.46 1.52 2.81 2.58 3.98-.29-.01-.56-.02-.85-.02-9.04 0-14.15 2.74-14.95 4 .8 1.26 5.91 4 14.95 4 7.31 0 12.04-1.79 14.01-3.14z" fill="#fcd770"/><path d="m37 37c.68 0 1.36-.05 2.01-.14-1.97 1.35-6.7 3.14-14.01 3.14-9.04 0-14.15-2.74-14.95-4 .8-1.26 5.91-4 14.95-4 .29 0 .56.01.85.02 2.74 3.06 6.72 4.98 11.15 4.98z" fill="#5cd6b3"/><path d="m28 2h-24c-1.1 0-2 .9-2 2v16c0 1.1.9 2 2 2h6l5.59 5.59c.26.26.62.41 1 .41.78 0 1.41-.63 1.41-1.41v-4.59h12v-13.27-4.73c0-1.1-.9-2-2-2z" fill="#ffeaa7"/><g fill="#ff826e"><path d="m6 10h4v8h-4z"/><path d="m14 6h4v12h-4z"/><path d="m26 11.8.01.01c-1.62 1.73-2.82 3.85-3.47 6.19h-.54v-10h4z"/></g><path d="m62 43.52c0 .96-.39 1.83-1.02 2.46s-1.5 1.02-2.46 1.02c-.97 0-1.89-.4-2.55-1.11-2.51-2.71-8.88-9.57-10.62-11.43 1.62-1.09 3.02-2.49 4.11-4.11l11.43 10.62c.71.66 1.11 1.58 1.11 2.55z" fill="#969faa"/><path d="m39.01 36.86c-.65.09-1.33.14-2.01.14-4.43 0-8.41-1.92-11.15-4.98-1.06-1.17-1.94-2.52-2.58-3.98-.82-1.85-1.27-3.89-1.27-6.04 0-1.38.19-2.73.54-4 .65-2.34 1.85-4.46 3.47-6.19 1.14-1.24 2.49-2.28 3.99-3.07v-.01c2.09-1.1 4.47-1.73 7-1.73 8.28 0 15 6.72 15 15 0 3.09-.94 5.97-2.54 8.35-1.09 1.62-2.49 3.02-4.11 4.11-.46.31-.93.59-1.43.84v.01c-1.5.78-3.16 1.32-4.91 1.55z" fill="#e6e9ed"/><circle cx="37" cy="22" fill="#69d6f4" r="11"/></g><g><path d="m61.568 40.234-10.837-10.063c1.431-2.395 2.269-5.184 2.269-8.171 0-8.822-7.178-16-16-16-2.122 0-4.145.424-6 1.178v-3.178c0-1.654-1.346-3-3-3h-24c-1.654 0-3 1.346-3 3v16c0 1.654 1.346 3 3 3h5.586l5.211 5.212c-5.965 1.539-9.797 4.405-9.797 7.788v18c0 5.047 8.785 9 20 9s20-3.953 20-9v-18c0-.056-.008-.104-.011-.158.062-.036.121-.074.182-.111l10.066 10.84c.844.908 2.039 1.429 3.282 1.429 2.47 0 4.481-2.011 4.481-4.482 0-1.242-.521-2.438-1.432-3.284zm-10.568-18.234c0 7.72-6.28 14-14 14s-14-6.28-14-14 6.28-14 14-14 14 6.28 14 14zm-25.582 11.007c2.358 2.48 5.496 4.197 9.021 4.768-2.398.703-5.585 1.225-9.439 1.225-7.512 0-11.948-1.911-13.508-3 1.56-1.089 5.996-3 13.508-3 .143 0 .28.004.418.007zm-.418-21.554c-.761.865-1.438 1.804-2 2.819v-5.272h2zm-21 9.547c-.552 0-1-.449-1-1v-16c0-.551.448-1 1-1h24c.552 0 1 .449 1 1v4.165c-.701.407-1.371.86-2 1.365v-2.53h-6v10h-2v-12h-6v12h-2v-8h-6v10h16.292c-.124.653-.199 1.322-.241 2h-4.051v5.586c0 .338-.469.531-.707.293l-5.879-5.879zm13-4h-2v-10h2zm-8-6v6h-2v-6zm10 15.586v-3.586h2.051c.089 1.432.361 2.812.804 4.118-1.038.07-2.043.173-3.014.307.098-.262.159-.543.159-.839zm3.67 2.488c.335.676.705 1.331 1.128 1.949-8.163.228-13.502 2.725-14.589 4.442l-.338.535.339.535c1.14 1.8 6.946 4.465 15.79 4.465 7.014 0 11.985-1.628 14.394-3.199 1.196-.181 2.349-.488 3.444-.919-1.234 3.646-9.947 6.118-17.838 6.118-8.514 0-18-2.875-18-7 0-2.985 5.978-6.42 15.67-6.926zm2.33 31.926c-8.514 0-18-2.875-18-7v-2.036c3.206 3.004 9.97 5.036 18 5.036s14.794-2.032 18-5.036v2.036c0 4.125-9.486 7-18 7zm0-6c-8.514 0-18-2.875-18-7v-2.036c3.206 3.004 9.97 5.036 18 5.036s14.794-2.032 18-5.036v2.036c0 4.125-9.486 7-18 7zm0-6c-8.514 0-18-2.875-18-7v-2.036c3.206 3.004 9.97 5.036 18 5.036s14.794-2.032 18-5.036v2.036c0 4.125-9.486 7-18 7zm33.519-3c-.688 0-1.35-.288-1.816-.79l-9.863-10.62c1.024-.802 1.947-1.725 2.749-2.749l10.618 9.858c.504.468.793 1.132.793 1.819 0 1.369-1.113 2.482-2.481 2.482z"/><path d="m37 34c6.617 0 12-5.383 12-12s-5.383-12-12-12-12 5.383-12 12 5.383 12 12 12zm0-22c5.514 0 10 4.486 10 10s-4.486 10-10 10-10-4.486-10-10 4.486-10 10-10z"/><path d="m43 22h2c0-4.411-3.589-8-8-8v2c3.309 0 6 2.691 6 6z"/></g></g></svg>