<svg id="Layer_5" enable-background="new 0 0 64 64" height="512" viewBox="0 0 64 64" width="512" xmlns="http://www.w3.org/2000/svg"><g><g><g><path d="m54.95 12.06c3.97.47 7.05 3.84 7.05 7.94 0 4.42-3.58 8-8 8h-25v-3c0-5.04-3.38-9.28-8-10.58v-.01l.06-.41c.49-4.5 4.31-8 8.94-8 1.69 0 3.26.47 4.61 1.28 1.94-3.16 5.41-5.28 9.39-5.28 5.76 0 10.48 4.43 10.95 10.06z" fill="#e6e9ed"/></g><g><path d="m62 44v4c0 2.21-1.79 4-4 4h-25.17c.76-1.85 1.17-3.88 1.17-6s-.41-4.15-1.17-6h25.17c2.21 0 4 1.79 4 4z" fill="#fcd770"/></g><g><circle cx="18" cy="46" fill="#69d6f4" r="16"/></g><g><path d="m18 42c1.66 0 3 1.34 3 3 0 .89-.39 1.67-1 2.22v2.78h-4v-2.78c-.61-.55-1-1.33-1-2.22 0-1.66 1.34-3 3-3z" fill="#fcd770"/></g><g><path d="m29 28v6.38c-1.18-1.12-2.53-2.06-4-2.77v-6.61c0-3.87-3.13-7-7-7-1.94 0-3.68.78-4.95 2.05s-2.05 3.01-2.05 4.95v6.61c-1.47.71-2.82 1.65-4 2.77v-9.38c0-3.04 1.23-5.79 3.22-7.78s4.74-3.22 7.78-3.22c1.04 0 2.05.14 3 .42 4.62 1.3 8 5.54 8 10.58z" fill="#969faa"/></g></g><g><path d="m58 39h-24.526c-.855-1.881-2.029-3.588-3.474-5.029v-4.971h24c4.962 0 9-4.038 9-9 0-4.286-3.019-7.939-7.143-8.802-.878-5.779-5.941-10.198-11.857-10.198-3.892 0-7.458 1.842-9.714 4.974-1.34-.64-2.805-.974-4.286-.974-4.881 0-8.99 3.498-9.828 8.207-.706-.13-1.43-.207-2.172-.207-6.617 0-12 5.383-12 12v8.971c-3.087 3.079-5 7.335-5 12.029 0 9.374 7.626 17 17 17 6.877 0 12.8-4.112 15.474-10h24.526c2.757 0 5-2.243 5-5v-4c0-2.757-2.243-5-5-5zm-40 22c-2.232 0-4.254-2.387-5.546-6h11.093c-1.293 3.613-3.315 6-5.547 6zm-6.159-8c-.534-2.104-.841-4.491-.841-7s.307-4.896.841-7h12.319c.533 2.104.84 4.491.84 7s-.307 4.896-.841 7zm-8.79-6h5.975c.063 2.139.322 4.16.752 6h-5.034c-.961-1.812-1.55-3.845-1.693-6zm9.851-15.089c-1.038 1.327-1.908 3.065-2.566 5.089h-4.307c1.736-2.304 4.114-4.087 6.873-5.089zm17.069 5.089h-4.307c-.658-2.023-1.528-3.762-2.566-5.089 2.759 1.002 5.137 2.785 6.873 5.089zm-2.997 8c-.063-2.139-.322-4.16-.752-6h5.034c.961 1.812 1.55 3.845 1.693 6zm-8.974-14c2.232 0 4.254 2.387 5.546 6h-11.092c1.292-3.613 3.314-6 5.546-6zm6-.886c-1.869-.708-3.886-1.114-6-1.114s-4.131.406-6 1.114v-5.114c0-3.309 2.691-6 6-6s6 2.691 6 6zm-14.222 8.886c-.43 1.84-.688 3.861-.752 6h-5.975c.143-2.155.732-4.188 1.693-6zm17.196 8h5.975c-.143 2.155-.732 4.188-1.693 6h-5.034c.43-1.84.689-3.861.752-6zm3.026-40c1.437 0 2.855.395 4.101 1.142l.851.51.517-.847c1.837-3.009 5.026-4.805 8.531-4.805 5.149 0 9.522 4.018 9.956 9.146l.069.813.81.096c3.515.418 6.165 3.403 6.165 6.945 0 3.86-3.14 7-7 7h-24v-2c0-5.171-3.294-9.576-7.889-11.259.61-3.867 3.932-6.741 7.889-6.741zm-22 18c0-5.514 4.486-10 10-10s10 4.486 10 10v7.283c-.638-.466-1.3-.899-2-1.274v-6.009c0-4.411-3.589-8-8-8s-8 3.589-8 8v6.008c-.7.375-1.362.808-2 1.274zm-1.971 30h4.307c.658 2.023 1.528 3.762 2.566 5.089-2.759-1.002-5.137-2.785-6.873-5.089zm17.069 5.089c1.038-1.327 1.908-3.066 2.566-5.089h4.307c-1.736 2.304-4.114 4.087-6.873 5.089zm37.902-12.089c0 1.654-1.346 3-3 3h-23.753c.488-1.582.753-3.26.753-5s-.265-3.418-.753-5h23.753c1.654 0 3 1.346 3 3z"/><path d="m39 47h2v2h-2z"/><path d="m39 43h2v2h-2z"/><path d="m37 45h2v2h-2z"/><path d="m41 45h2v2h-2z"/><path d="m47 47h2v2h-2z"/><path d="m47 43h2v2h-2z"/><path d="m45 45h2v2h-2z"/><path d="m49 45h2v2h-2z"/><path d="m55 47h2v2h-2z"/><path d="m55 43h2v2h-2z"/><path d="m53 45h2v2h-2z"/><path d="m57 45h2v2h-2z"/><path d="m47 25h7c2.757 0 5-2.243 5-5h-2c0 1.654-1.346 3-3 3h-7z"/><path d="m43 23h2v2h-2z"/><path d="m42.285 7.249-.57-1.917c-.816.243-1.585.614-2.287 1.103l1.145 1.641c.525-.368 1.101-.646 1.712-.827z"/><path d="m50 13h2c0-4.411-3.589-8-8-8v2c3.309 0 6 2.691 6 6z"/><path d="m18 41c-2.206 0-4 1.794-4 4 0 .966.36 1.902 1 2.63v3.37h6v-3.37c.64-.728 1-1.664 1-2.63 0-2.206-1.794-4-4-4zm1.331 5.479-.331.298v2.223h-2v-2.223l-.331-.298c-.431-.389-.669-.915-.669-1.479 0-1.103.897-2 2-2s2 .897 2 2c0 .564-.238 1.09-.669 1.479z"/></g></g></svg>