<svg id="Layer_5" enable-background="new 0 0 64 64" height="512" viewBox="0 0 64 64" width="512" xmlns="http://www.w3.org/2000/svg"><g><g><g><path d="m48 45h-10v-16h10z" fill="#f0bc5e"/></g></g><g><g><path d="m26 45h-10v-16h10z" fill="#f0bc5e"/></g></g><g><path d="m31 15c-.552 0-1-.449-1-1h-2c0 1.654 1.346 3 3 3v2h2v-2h3v-3c0-1.654-1.346-3-3-3h-2c-.552 0-1-.449-1-1v-1h3c.552 0 1 .449 1 1h2c0-1.654-1.346-3-3-3v-2h-2v2h-3v3c0 1.654 1.346 3 3 3h2c.552 0 1 .449 1 1v1z"/><path d="m59 47h-1v-20h3v-5.586l-18.035-10.1c-.357-5.745-5.131-10.314-10.965-10.314s-10.608 4.569-10.965 10.314l-18.035 10.1v5.586h3v20h-1c-2.206 0-4 1.794-4 4s1.794 4 4 4c.732 0 1.409-.212 2-.556v8.556h50v-8.556c.591.344 1.268.556 2 .556 2.206 0 4-1.794 4-4s-1.794-4-4-4zm-3 0h-4v-20h4zm-28-20v20h-14v-20zm2 0h4v20h-4zm6 0h14v20h-14zm20.168-6h-17.863c2.431-1.708 4.134-4.372 4.572-7.443zm-24.168-18c4.963 0 9 4.038 9 9s-4.037 9-9 9-9-4.038-9-9 4.037-9 9-9zm-6.305 18h-17.863l13.291-7.443c.438 3.071 2.141 5.735 4.572 7.443zm-20.695 2h54v2h-23-8-23zm3 4h4v20h-4zm13 34h-6v-5c0-1.654 1.346-3 3-3s3 1.346 3 3zm14 0h-6v-5c0-1.654 1.346-3 3-3s3 1.346 3 3zm14 0h-6v-5c0-1.654 1.346-3 3-3s3 1.346 3 3zm10-8c-1.103 0-2-.897-2-2h-2v10h-4v-5c0-2.757-2.243-5-5-5s-5 2.243-5 5v5h-4v-5c0-2.757-2.243-5-5-5s-5 2.243-5 5v5h-4v-5c0-2.757-2.243-5-5-5s-5 2.243-5 5v5h-4v-10h-2c0 1.103-.897 2-2 2s-2-.897-2-2 .897-2 2-2h23 8 23c1.103 0 2 .897 2 2s-.897 2-2 2z"/></g></g></svg>