<svg id="Layer_5" enable-background="new 0 0 64 64" height="512" viewBox="0 0 64 64" width="512" xmlns="http://www.w3.org/2000/svg"><g><g><g><path d="m60 56v2c0 2.21-1.79 4-4 4h-42c-2.21 0-4-1.79-4-4v-2h4 6 18 20z" fill="#969faa"/></g><g><path d="m14 8h-4.54c.34-.59.54-1.27.54-2s-.2-1.41-.54-2h4.54z" fill="#aab2bd"/></g><g><path d="m20 4h4.54c-.34.59-.54 1.27-.54 2s.2 1.41.54 2h-4.54z" fill="#aab2bd"/></g><g><path d="m36 18v4h-14v-6h14z" fill="#ccd1d9"/></g><g><path d="m20 14c1.1 0 2 .9 2 2v6c0 1.1-.9 2-2 2h-6c-1.1 0-2-.9-2-2v-6c0-1.1.9-2 2-2z" fill="#aab2bd"/></g><g><path d="m20 36v4l-6-2v-4z" fill="#ccd1d9"/></g><g><path d="m20 44v4l-6-2v-4z" fill="#ccd1d9"/></g><g><path d="m20 52v4h-6v-6z" fill="#ccd1d9"/></g><g><path d="m20 24v8l-6-2v-6z" fill="#ccd1d9"/></g><g><path d="m20 8v6h-6v-6-4c0-1.1.9-2 2-2h2c1.1 0 2 .9 2 2z" fill="#ccd1d9"/></g><g><path d="m20 32v4l-6-2v-4z" fill="#aab2bd"/></g><g><path d="m20 40v4l-6-2v-4z" fill="#aab2bd"/></g><g><path d="m20 48v4l-6-2v-4z" fill="#aab2bd"/></g><g><path d="m9.46 4c.34.59.54 1.27.54 2s-.2 1.41-.54 2c-.69 1.2-1.98 2-3.46 2-2.21 0-4-1.79-4-4s1.79-4 4-4c1.48 0 2.77.8 3.46 2z" fill="#5cd6b3"/></g><g><path d="m24.54 4c.69-1.2 1.98-2 3.46-2 2.21 0 4 1.79 4 4s-1.79 4-4 4c-1.48 0-2.77-.8-3.46-2-.34-.59-.54-1.27-.54-2s.2-1.41.54-2z" fill="#5cd6b3"/></g><g><path d="m36 10v6 2 4 8h12l1.45-2.89c.34-.68 1.03-1.11 1.79-1.11h8.76v-8-8z" fill="#fcd770"/></g><g><path d="m58 54v2h-20v-2c0-1.1.9-2 2-2h16c1.1 0 2 .9 2 2z" fill="#ccd1d9"/></g><g><path d="m62 34v12c0 1.1-.9 2-2 2h-24c-1.1 0-2-.9-2-2v-12z" fill="#e6e9ed"/></g><g><path d="m62 28v6h-28v-2c0-1.1.9-2 2-2h12l1.45-2.89c.34-.68 1.03-1.11 1.79-1.11h8.76c1.1 0 2 .9 2 2z" fill="#ff826e"/></g></g><g><path d="m61 25.184v-16.184h-26v6h-12.184c-.302-.847-.969-1.514-1.816-1.816v-4.184h3.026c.914 1.207 2.348 2 3.974 2 2.757 0 5-2.243 5-5s-2.243-5-5-5c-1.627 0-3.061.793-3.974 2h-3.21c-.414-1.161-1.514-2-2.816-2h-2c-1.302 0-2.402.839-2.816 2h-3.21c-.913-1.207-2.347-2-3.974-2-2.757 0-5 2.243-5 5s2.243 5 5 5c1.627 0 3.061-.793 3.974-2h3.026v4.184c-1.161.414-2 1.514-2 2.816v6c0 1.302.839 2.402 2 2.816v30.184h-4v3c0 2.757 2.243 5 5 5h42c2.757 0 5-2.243 5-5v-3h-2v-1c0-1.654-1.346-3-3-3h-16c-1.654 0-3 1.346-3 3v1h-16v-30.184c.847-.302 1.514-.969 1.816-1.816h12.184v6.184c-1.161.414-2 1.514-2 2.816v14c0 1.654 1.346 3 3 3h24c1.654 0 3-1.346 3-3v-18c0-1.302-.839-2.402-2-2.816zm-2-14.184v14h-7.764c-1.144 0-2.172.636-2.684 1.658l-1.17 2.342h-10.382v-18zm-31-8c1.654 0 3 1.346 3 3s-1.346 3-3 3-3-1.346-3-3 1.346-3 3-3zm-4.899 4h-2.101v-2h2.101c-.066.323-.101.658-.101 1s.035.677.101 1zm-7.101-4h2c.552 0 1 .448 1 1v9h-4v-9c0-.552.448-1 1-1zm-10 6c-1.654 0-3-1.346-3-3s1.346-3 3-3 3 1.346 3 3-1.346 3-3 3zm4.899-2c.066-.323.101-.658.101-1s-.035-.677-.101-1h2.101v2zm4.101 34.28v-1.893l4 1.333v1.893zm4 3.44v1.893l-4-1.333v-1.893zm-4-7.44v-1.893l4 1.333v1.893zm0-4v-1.893l4 1.333v1.893zm0 14.107 4 1.333v1.893l-4-1.333zm0-18.107v-4.28h4v5.613zm44 28.72c0 1.654-1.346 3-3 3h-42c-1.654 0-3-1.346-3-3v-1h48zm-20-4c0-.552.448-1 1-1h16c.552 0 1 .448 1 1v1h-18zm-24 1v-3.613l4 1.333v2.28zm6-33c0 .552-.448 1-1 1h-6c-.552 0-1-.448-1-1v-6c0-.552.448-1 1-1h6c.552 0 1 .448 1 1zm2-1v-4h12v4zm13 10h12.618l1.724-3.447c.17-.341.512-.553.894-.553h8.764c.552 0 1 .448 1 1v5h-26v-1c0-.552.448-1 1-1zm24 16h-24c-.552 0-1-.448-1-1v-11h26v11c0 .552-.448 1-1 1z"/><path d="m53 29h2v2h-2z"/><path d="m57 29h2v2h-2z"/><path d="m39 13h18v2h-18z"/><path d="m39 17h14v2h-14z"/><path d="m55 17h2v2h-2z"/><path d="m39 21h8v2h-8z"/><path d="m39 25h8v2h-8z"/></g></g></svg>