<svg id="Layer_5" enable-background="new 0 0 64 64" height="512" viewBox="0 0 64 64" width="512" xmlns="http://www.w3.org/2000/svg"><g><g><path d="m53 14c-.73 0-1.43.09-2.11.26v-.01c-.86-6.9-6.75-12.25-13.89-12.25-5.45 0-10.17 3.11-12.48 7.66-1.58-1.05-3.48-1.66-5.52-1.66-5.52 0-10 4.48-10 10-3.87 0-7 3.13-7 7s3.13 7 7 7h43 1c4.97 0 9-4.03 9-9s-4.03-9-9-9z" fill="#e6e9ed"/><g fill="#fcd770"><circle cx="4" cy="48" r="2"/><circle cx="4" cy="58" r="2"/><circle cx="60" cy="58" r="2"/><circle cx="60" cy="48" r="2"/></g><path d="m36.95 56.65c.03.23.05.47.05.71 0 2.56-2.08 4.64-4.64 4.64h-.72c-1.28 0-2.44-.52-3.28-1.36s-1.36-2-1.36-3.28c0-.24.02-.48.05-.71l1.69-10.98c1.06.22 2.14.33 3.26.33s2.2-.11 3.26-.33z" fill="#969faa"/><path d="m44 30h4c0 .68-.04 1.34-.12 2h-.01c-.84 6.82-5.97 12.3-12.61 13.67-1.06.22-2.14.33-3.26.33s-2.2-.11-3.26-.33c-6.64-1.37-11.77-6.85-12.62-13.67-.08-.66-.12-1.32-.12-2 0-7.46 5.1-13.72 12-15.5 1.28-.33 2.62-.5 4-.5v4c-6.63 0-12 5.37-12 12 0 3.32 1.34 6.32 3.51 8.49s5.17 3.51 8.49 3.51 6.32-1.34 8.49-3.51 3.51-5.17 3.51-8.49z" fill="#fcd770"/><path d="m32 30h12c0 3.32-1.34 6.32-3.51 8.49l-.01-.01z" fill="#69d6f4"/><path d="m40.48 38.48.01.01c-2.17 2.17-5.17 3.51-8.49 3.51s-6.32-1.34-8.49-3.51l.01-.01 8.48-8.48z" fill="#e6e9ed"/><path d="m32 18v12l-8.48 8.48-.01.01c-2.17-2.17-3.51-5.17-3.51-8.49 0-6.63 5.37-12 12-12z" fill="#ff826e"/><path d="m36 10c8.84 0 16 7.16 16 16h-16z" fill="#5cd6b3"/></g><g><path d="m53 26c0-9.374-7.626-17-17-17h-1v18h18zm-16-1v-13.967c7.476.495 13.473 6.491 13.967 13.967z"/><path d="m39 21h2v2h-2z"/><path d="m43 21h2v2h-2z"/><path d="m47 21h2v2h-2z"/><path d="m54 49h3.184c.414 1.161 1.514 2 2.816 2 1.654 0 3-1.346 3-3s-1.346-3-3-3c-1.302 0-2.402.839-2.816 2h-3.184c-.552 0-1-.448-1-1v-13c5.514 0 10-4.486 10-10s-4.486-10-10-10c-.424 0-.853.029-1.283.086-1.368-6.96-7.518-12.086-14.717-12.086-5.321 0-10.157 2.763-12.863 7.278-1.558-.824-3.307-1.278-5.137-1.278-5.749 0-10.474 4.435-10.953 10.062-3.963.473-7.047 3.85-7.047 7.938 0 4.411 3.589 8 8 8h2v13c0 .552-.448 1-1 1h-3.184c-.414-1.161-1.514-2-2.816-2-1.654 0-3 1.346-3 3s1.346 3 3 3c1.302 0 2.402-.839 2.816-2h3.184c1.654 0 3-1.346 3-3v-13h2v23c0 .552-.448 1-1 1h-7.184c-.414-1.161-1.514-2-2.816-2-1.654 0-3 1.346-3 3s1.346 3 3 3c1.302 0 2.402-.839 2.816-2h7.184c1.654 0 3-1.346 3-3v-18.017c2.194 4.106 6.028 7.196 10.618 8.423l-1.552 10.09c-.045.285-.066.572-.066.859 0 3.113 2.532 5.645 5.645 5.645h.711c3.112 0 5.644-2.532 5.644-5.645 0-.287-.021-.574-.065-.859l-1.552-10.09c4.59-1.228 8.423-4.317 10.618-8.423v18.017c0 1.654 1.346 3 3 3h7.184c.414 1.161 1.514 2 2.816 2 1.654 0 3-1.346 3-3s-1.346-3-3-3c-1.302 0-2.402.839-2.816 2h-7.185c-.552 0-1-.448-1-1v-23h2v13c0 1.654 1.346 3 3 3zm6-2c.552 0 1 .448 1 1s-.448 1-1 1-1-.448-1-1 .448-1 1-1zm-56 2c-.552 0-1-.448-1-1s.448-1 1-1 1 .448 1 1-.448 1-1 1zm0 10c-.552 0-1-.448-1-1s.448-1 1-1 1 .448 1 1-.448 1-1 1zm56-2c.552 0 1 .448 1 1s-.448 1-1 1-1-.448-1-1 .448-1 1-1zm-57-32c0-3.309 2.691-6 6-6 1.602 0 3.109.624 4.243 1.758l1.414-1.415c-1.262-1.26-2.872-2.04-4.61-2.267.464-4.53 4.302-8.076 8.953-8.076 2.828 0 5.436 1.29 7.154 3.539l1.59-1.215c-.567-.742-1.218-1.39-1.927-1.953 2.337-3.95 6.548-6.371 11.183-6.371 6.547 0 12.093 4.89 12.899 11.375l.264 1.084.963-.231c5.166-1.243 9.874 2.747 9.874 7.772 0 4.411-3.589 8-8 8h-4.051c.02-.333.051-.662.051-1v-1h-16v-16h-1c-9.374 0-17 7.626-17 17 0 .338.031.667.051 1h-6.051c-3.309 0-6-2.691-6-6zm28 4.586-7.448 7.448c-1.591-1.909-2.552-4.361-2.552-7.034 0-5.728 4.402-10.442 10-10.949zm1 1.828 7.034 7.034c-1.909 1.591-4.361 2.552-7.034 2.552s-5.125-.961-7.034-2.552zm8.448 5.62-6.034-6.034h8.535c-.207 2.283-1.11 4.366-2.501 6.034zm-4.49 19.767c.028.183.042.369.042.554 0 2.01-1.635 3.645-3.645 3.645h-.711c-2.009 0-3.644-1.635-3.644-3.645 0-.186.014-.371.042-.555l1.537-9.994c.793.115 1.597.194 2.421.194s1.628-.079 2.421-.193zm-3.958-11.801c-8.271 0-15-6.729-15-15 0-7.935 6.193-14.45 14-14.967v2.017c-6.701.515-12 6.119-12 12.95 0 7.168 5.832 13 13 13 6.83 0 12.435-5.299 12.949-12h2.017c-.516 7.807-7.031 14-14.966 14z"/></g></g></svg>