<svg id="Layer_5" enable-background="new 0 0 64 64" height="512" viewBox="0 0 64 64" width="512" xmlns="http://www.w3.org/2000/svg"><g><g><g><path d="m48 51c-8.271 0-15-6.729-15-15s6.729-15 15-15 15 6.729 15 15-6.729 15-15 15zm0-25c-5.514 0-10 4.486-10 10s4.486 10 10 10 10-4.486 10-10-4.486-10-10-10z" fill="#f0bc5e"/></g></g><g><g><path d="m39 13h-30v-8h30z" fill="#f0bc5e"/></g></g><g><path d="m9 16h30v5h-30z" fill="#f0bc5e"/></g><g><path d="m57.427 46.977-1.969.345 1.777 10.132-3.398-1.643-2.563 2.259-1.454-8.285-1.82.32-1.82-.32-1.454 8.285-2.563-2.259-3.398 1.643 1.777-10.132-1.969-.345-2.453 13.977 5.717-2.765 4.243 3.741 1.92-10.945 1.92 10.945 4.243-3.741 5.717 2.765z"/><path d="m47 39c-.551 0-1-.449-1-1h-2c0 1.654 1.346 3 3 3v2h2v-2h3v-3c0-1.654-1.346-3-3-3h-2c-.551 0-1-.449-1-1v-1h3c.551 0 1 .449 1 1h2c0-1.654-1.346-3-3-3v-2h-2v2h-3v3c0 1.654 1.346 3 3 3h2c.551 0 1 .449 1 1v1z"/><path d="m48 47c2.535 0 5.01-.885 6.97-2.491l-1.269-1.547c-1.602 1.314-3.627 2.038-5.701 2.038-4.962 0-9-4.038-9-9 0-2.074.724-4.099 2.038-5.701l-1.546-1.269c-1.607 1.959-2.492 4.434-2.492 6.97 0 6.065 4.935 11 11 11z"/><path d="m59 36c0-6.065-4.935-11-11-11-2.535 0-5.01.885-6.97 2.491l1.269 1.547c1.602-1.314 3.627-2.038 5.701-2.038 4.962 0 9 4.038 9 9 0 2.074-.724 4.099-2.038 5.701l1.547 1.269c1.606-1.96 2.491-4.435 2.491-6.97z"/><path d="m21.414 37-18.414-18.414v-14.586c0-.551.449-1 1-1h34.586l18.414 18.414v2.615c.72.543 1.389 1.147 2 1.808v-21.837c0-1.654-1.346-3-3-3h-52c-1.654 0-3 1.346-3 3v32c0 1.654 1.346 3 3 3h29.302c-.133-.651-.207-1.322-.252-2zm34.586-34c.551 0 1 .449 1 1v8.586l-9.586-9.586zm-11.414 0 12.414 12.414v3.172l-15.586-15.586zm-26 34h-3.172l-12.414-12.414v-3.172zm-15.586-1v-8.586l9.586 9.586h-8.586c-.551 0-1-.449-1-1z"/><path d="m9 15h30v2h-30z"/><path d="m37 19h2v2h-2z"/><path d="m9 19h26v2h-26z"/><path d="m21 23v12h10v-12zm8 10h-6v-8h6z"/></g></g></svg>