<svg id="Layer_5" enable-background="new 0 0 64 64" height="512" viewBox="0 0 64 64" width="512" xmlns="http://www.w3.org/2000/svg"><g><g><path d="m29 46h10v13h-10z" fill="#f0bc5e"/></g><g><path d="m5 23h38v10h-38z" fill="#f0bc5e"/></g><g><g><path d="m51 17c-2.206 0-4-1.794-4-4s1.794-4 4-4 4 1.794 4 4-1.794 4-4 4z" fill="#f0bc5e"/></g></g><g><path d="m17 45c.552 0 1 .448 1 1h2c0-1.654-1.346-3-3-3v-2h-2v2h-3v3c0 1.654 1.346 3 3 3h2c.552 0 1 .448 1 1v1h-3c-.552 0-1-.448-1-1h-2c0 1.654 1.346 3 3 3v2h2v-2h3v-3c0-1.654-1.346-3-3-3h-2c-.552 0-1-.448-1-1v-1z"/><path d="m16 37c-6.065 0-11 4.935-11 11s4.935 11 11 11 11-4.935 11-11-4.935-11-11-11zm0 20c-4.963 0-9-4.037-9-9s4.037-9 9-9 9 4.037 9 9-4.037 9-9 9z"/><path d="m55 42v-12h2v-6.407c3.664-2.135 6-6.225 6-10.593 0-6.617-5.383-12-12-12-4.43 0-8.298 2.419-10.377 6h-27.037l-12.586 12.586v43.414h51v-7.73l7.741-13.27zm1.259 2-5.259 9.016-5.259-9.016h3.259v-14h4v14zm-1.259-16h-8v-4h8zm-4-25c5.514 0 10 4.486 10 10 0 3.765-2.068 7.267-5.276 9h-3.724v-5.142c-.322.084-.653.142-1 .142s-.678-.058-1-.142v5.142h-3.724c-3.208-1.733-5.276-5.235-5.276-9 0-5.514 4.486-10 10-10zm-38 7.414v8.586h-8.586zm-10 50.586v-40h12v-12h24.7c-.445 1.253-.7 2.596-.7 4 0 4.368 2.336 8.458 6 10.593v6.407h2v12h-4.741l7.741 13.27v5.73z"/><path d="m37 57h2v2h-2z"/><path d="m29 57h2v2h-2z"/><path d="m33 57h2v2h-2z"/><path d="m29 53h10v2h-10z"/><path d="m29 49h10v2h-10z"/><path d="m29 45h10v2h-10z"/><path d="m37 11h-20v10h20zm-2 8h-16v-6h16z"/><path d="m5 23h2v2h-2z"/><path d="m9 23h34v2h-34z"/><path d="m5 27h38v2h-38z"/><path d="m5 31h26v2h-26z"/><path d="m33 31h2v2h-2z"/><path d="m41 31h2v2h-2z"/><path d="m37 31h2v2h-2z"/></g></g></svg>