<svg id="Layer_5" enable-background="new 0 0 64 64" height="512" viewBox="0 0 64 64" width="512" xmlns="http://www.w3.org/2000/svg"><g><g><path d="m54 16c-.78 0-1.53.11-2.24.32-.73-2.5-3.03-4.32-5.76-4.32-1.05 0-2.04.27-2.9.75-2.18-6.25-8.11-10.75-15.1-10.75-8.25 0-15.05 6.25-15.91 14.28-.67-.18-1.37-.28-2.09-.28-4.42 0-8 3.58-8 8s3.58 8 8 8h2v-2c0-2.21 1.79-4 4-4h11.4 5.03 15.57c2.21 0 4 1.79 4 4v2h2c4.42 0 8-3.58 8-8s-3.58-8-8-8z" fill="#e6e9ed"/><path d="m44 60v2h-24v-2c0-1.1.9-2 2-2h2 16 2c1.1 0 2 .9 2 2z" fill="#969faa"/><path d="m24 54h16v4h-16z" fill="#aab2bd"/><path d="m52 48v2c0 2.21-1.79 4-4 4h-8-16-8c-2.21 0-4-1.79-4-4v-2z" fill="#ccd1d9"/><path d="m48 26h-15.57-5.03-11.4c-2.21 0-4 1.79-4 4v2 16h40v-16-2c0-2.21-1.79-4-4-4z" fill="#69d6f4"/><path d="m40 34h8v10h-8z" fill="#fcd770"/><g fill="#ff826e"><path d="m34 8c1.66 0 3 1.34 3 3s-1.34 3-3 3c-.09 0-.19 0-.28-.02-1.06-.09-1.95-.73-2.4-1.64-.2-.4-.32-.86-.32-1.34 0-1.66 1.34-3 3-3z"/><path d="m24.68 15.66c.2.4.32.86.32 1.34 0 1.05-.53 1.96-1.34 2.5-.48.31-1.05.5-1.66.5-1.66 0-3-1.34-3-3s1.34-3 3-3c1.18 0 2.19.67 2.68 1.66z"/><path d="m32 30c2.21 0 4 1.79 4 4s-1.79 4-4 4-4-1.79-4-4c0-1.48.81-2.78 2.01-3.47.59-.34 1.27-.53 1.99-.53z"/></g></g><g><path d="m54 15c-.551 0-1.089.064-1.617.16-1.11-2.486-3.608-4.16-6.383-4.16-.8 0-1.595.139-2.346.405-2.636-6.266-8.797-10.405-15.654-10.405-8.344 0-15.348 5.991-16.737 14.098-.416-.059-.837-.098-1.263-.098-4.963 0-9 4.037-9 9s4.037 9 9 9h1v17c0 2.757 2.243 5 5 5h7v2h-1c-1.654 0-3 1.346-3 3v3h26v-3c0-1.654-1.346-3-3-3h-1v-2h7c2.757 0 5-2.243 5-5v-17h1c4.963 0 9-4.037 9-9s-4.037-9-9-9zm-32 4c-1.103 0-2-.897-2-2s.897-2 2-2 2 .897 2 2-.897 2-2 2zm4-2c0-.287-.033-.566-.091-.836l5.091-2.546c.438.501.992.891 1.629 1.125l-1.099 10.257h-3.55l-3.047-5.302c.657-.712 1.067-1.655 1.067-2.698zm8-4c-1.103 0-2-.897-2-2s.897-2 2-2 2 .897 2 2-.897 2-2 2zm-2.684 14-.224 2.092c-.226.042-.44.112-.655.183l-1.307-2.275zm.684 4c1.654 0 3 1.346 3 3s-1.346 3-3 3-3-1.346-3-3 1.346-3 3-3zm-3.297-.729c-1.036.917-1.703 2.24-1.703 3.729 0 2.757 2.243 5 5 5s5-2.243 5-5c0-2.378-1.673-4.366-3.901-4.87l.228-2.13h14.673c1.654 0 3 1.346 3 3v17h-38v-17c0-1.654 1.346-3 3-3h10.823zm14.297 29.729v1h-22v-1c0-.552.448-1 1-1h20c.552 0 1 .448 1 1zm-4-3h-14v-2h14zm9-4h-32c-1.654 0-3-1.346-3-3v-1h38v1c0 1.654-1.346 3-3 3zm6-22h-1v-1c0-2.757-2.243-5-5-5h-14.459l1.078-10.063c1.911-.3 3.381-1.943 3.381-3.937 0-2.206-1.794-4-4-4s-4 1.794-4 4c0 .287.033.566.091.836l-5.091 2.546c-.734-.84-1.8-1.382-3-1.382-2.206 0-4 1.794-4 4s1.794 4 4 4c.439 0 .854-.088 1.249-.219l2.425 4.219h-9.674c-2.757 0-5 2.243-5 5v1h-1c-3.859 0-7-3.141-7-7s3.141-7 7-7c1.707 0 3.352.621 4.629 1.75l1.324-1.5c-.815-.719-1.746-1.278-2.745-1.659 1.163-7.229 7.376-12.591 14.792-12.591 6.37 0 12.059 4.05 14.155 10.076l.39 1.121 1.038-.574c.738-.407 1.573-.623 2.417-.623 1.897 0 3.613 1.094 4.454 2.742-2.138.914-3.885 2.626-4.798 4.883l1.854.75c1.075-2.657 3.623-4.375 6.49-4.375 3.859 0 7 3.141 7 7s-3.141 7-7 7z"/><path d="m15 29h2v2h-2z"/><path d="m19 29h6v2h-6z"/><path d="m15 33h10v2h-10z"/><path d="m15 37h10v2h-10z"/><path d="m15 41h10v2h-10z"/><path d="m49 33h-10v12h10zm-2 10h-6v-8h6z"/><path d="m39 29h2v2h-2z"/><path d="m43 29h6v2h-6z"/><path d="m54 19v2c1.654 0 3 1.346 3 3h2c0-2.757-2.243-5-5-5z"/><path d="m16.179 12.583 1.818.834c1.789-3.898 5.716-6.417 10.003-6.417v-2c-5.066 0-9.706 2.977-11.821 7.583z"/></g></g></svg>