<svg id="Layer_5" enable-background="new 0 0 64 64" height="512" viewBox="0 0 64 64" width="512" xmlns="http://www.w3.org/2000/svg"><g><g><g><path d="m42 62h-30c0-1.1.45-2.1 1.17-2.83.73-.72 1.73-1.17 2.83-1.17h2 14 6c2.21 0 4 1.79 4 4z" fill="#969faa"/></g><g><path d="m18 20h-11c-.55 0-1 .45-1 1v22c0 .55.45 1 1 1h11 12c0-1.1.9-2 2-2v-4c-1.1 0-2-.9-2-2v-2c0-1.1.9-2 2-2h2v-12z" fill="#69d6f4"/></g><g><path d="m58 10h-8v-8z" fill="#5cd6b3"/></g><path d="m62 36v-2c0-1.1-.9-2-2-2h-2v-14-8h-8v-8h-16v14h-28c-2.21 0-4 1.79-4 4v28c0 2.21 1.79 4 4 4h14l-2 6h14 6 22c1.1 0 2-.9 2-2v-2c0-1.1-.9-2-2-2v-4c1.1 0 2-.9 2-2v-2c0-1.1-.9-2-2-2v-4c1.1 0 2-.9 2-2zm-30 6c-1.1 0-2 .9-2 2h-12-11c-.55 0-1-.45-1-1v-22c0-.55.45-1 1-1h11 16v12h-2c-1.1 0-2 .9-2 2v2c0 1.1.9 2 2 2z" fill="#e6e9ed"/></g><g><g><path d="m43 63h-32v-1c0-2.757 2.243-5 5-5h22c2.757 0 5 2.243 5 5zm-29.829-2h27.658c-.413-1.164-1.525-2-2.829-2h-22c-1.304 0-2.416.836-2.829 2z"/></g><g><path d="m15.838 54h6.325v1.999h-6.325z" transform="matrix(.317 -.949 .949 .317 -39.186 55.615)"/></g><g><path d="m5 47h8v2h-8z"/></g><g><path d="m15 47h2v2h-2z"/></g><g><path d="m34 53h-28c-2.757 0-5-2.243-5-5v-28c0-2.757 2.243-5 5-5h28v2h-28c-1.654 0-3 1.346-3 3v28c0 1.654 1.346 3 3 3h28z"/></g><g><path d="m30 45h-23c-1.103 0-2-.897-2-2v-22c0-1.103.897-2 2-2h27v2h-27v22h23z"/></g><g><path d="m60 59h-28c-1.654 0-3-1.346-3-3v-2c0-1.654 1.346-3 3-3h28c1.654 0 3 1.346 3 3v2c0 1.654-1.346 3-3 3zm-28-6c-.552 0-1 .448-1 1v2c0 .552.448 1 1 1h28c.552 0 1-.448 1-1v-2c0-.552-.448-1-1-1z"/></g><g><path d="m59 48h2v4h-2z"/></g><g><path d="m31 48h2v4h-2z"/></g><g><path d="m60 49h-28c-1.654 0-3-1.346-3-3v-2c0-1.654 1.346-3 3-3h28c1.654 0 3 1.346 3 3v2c0 1.654-1.346 3-3 3zm-28-6c-.552 0-1 .448-1 1v2c0 .552.448 1 1 1h28c.552 0 1-.448 1-1v-2c0-.552-.448-1-1-1z"/></g><g><path d="m60 39h-28c-1.654 0-3-1.346-3-3v-2c0-1.654 1.346-3 3-3h28c1.654 0 3 1.346 3 3v2c0 1.654-1.346 3-3 3zm-28-6c-.552 0-1 .448-1 1v2c0 .552.448 1 1 1h28c.552 0 1-.448 1-1v-2c0-.552-.448-1-1-1z"/></g><g><path d="m59 38h2v4h-2z"/></g><g><path d="m31 38h2v4h-2z"/></g><g><path d="m59 32h-2v-21.586l-7.414-7.414h-14.586v29h-2v-31h17.414l8.586 8.586z"/></g><g><path d="m13 31h-2c-1.103 0-2-.897-2-2v-4c0-1.103.897-2 2-2h2c1.103 0 2 .897 2 2v4c0 1.103-.897 2-2 2zm-2-6v4h2v-4z"/></g><g><path d="m17 23h2v8h-2z"/></g><g><path d="m13 41h-2c-1.103 0-2-.897-2-2v-4c0-1.103.897-2 2-2h2c1.103 0 2 .897 2 2v4c0 1.103-.897 2-2 2zm-2-6v4h2v-4z"/></g><g><path d="m17 33h2v8h-2z"/></g><g><path d="m25 41h-2c-1.103 0-2-.897-2-2v-4c0-1.103.897-2 2-2h2c1.103 0 2 .897 2 2v4c0 1.103-.897 2-2 2zm-2-6v4h2v-4z"/></g><g><path d="m21 23h2v8h-2z"/></g><g><path d="m25 23h2v8h-2z"/></g><g><path d="m58 11h-9v-9h2v7h7z"/></g><g><path d="m47 11h-10v-6h10zm-8-2h6v-2h-6z"/></g><g><path d="m37 13h2v2h-2z"/></g><g><path d="m41 13h14v2h-14z"/></g><g><path d="m37 17h18v2h-18z"/></g><g><path d="m37 21h8v2h-8z"/></g><g><path d="m37 25h8v2h-8z"/></g><g><path d="m55 29h-8v-8h8zm-6-2h4v-4h-4z"/></g></g></g></svg>