<svg id="Layer_5" enable-background="new 0 0 64 64" height="512" viewBox="0 0 64 64" width="512" xmlns="http://www.w3.org/2000/svg"><g><g><path d="m33 19h-2c-6.065 0-11 4.935-11 11v10c0 2.025.557 3.988 1.603 5.707l7.397-1.707v-2.683c-2.363-1.124-4-3.527-4-6.317v-5h-.243c2.716 0 5.322-1.079 7.243-3 1.921 1.921 4.526 3 7.243 3h-.243v5c0 2.791-1.637 5.193-4 6.317v2.683l7.397 1.707c1.046-1.719 1.603-3.682 1.603-5.707v-10c0-6.065-4.935-11-11-11z" fill="#f0bc5e"/></g><g><path d="m59 57.101v-40.101h1.618l2.5-5-5.5-11h-51.236l-5.5 11 2.5 5h1.618v40.101c-2.279.465-4 2.485-4 4.899v1h62v-1c0-2.414-1.721-4.434-4-4.899zm-6.382-42.101-1-2h8.764l-1 2zm-15.838-4h-9.56l1.6-8h6.36zm.44-8h9.036l2.4 8h-9.836zm-12.04 8h-9.836l2.4-8h9.036zm-.798 2-1 2h-6.764l-1-2zm12 0-1 2h-6.764l-1-2zm12 0-1 2h-6.764l-1-2zm12-2h-9.638l-2.4-8h8.038zm-52.764-8h8.038l-2.4 8h-9.638zm-4 10h8.764l-1 2h-6.764zm9 4 1.382-2.764 1.382 2.764h9.236l1.382-2.764 1.382 2.764h9.236l1.382-2.764 1.382 2.764h9.236l1.382-2.764 1.382 2.764h5.618v40h-8v-5.227c0-3.278-2.231-6.083-5.426-6.821l-7.574-1.747v-1.287c2.387-1.386 4-3.964 4-6.918v-4h4v-2h-4.757c-2.469 0-4.79-.961-6.536-2.707l-.707-.707-.707.707c-1.746 1.746-4.067 2.707-6.536 2.707h-4.757v2h4v4c0 2.953 1.613 5.532 4 6.918v1.287l-7.574 1.748c-3.195.737-5.426 3.542-5.426 6.82v5.227h-8v-40zm4.382 40v-5.227c0-2.342 1.594-4.345 3.876-4.872l.124-.028v10.127zm6-10.589 2-.462v5.051h14v-5.051l2 .462v10.589h-18zm3-15.487c2.216-.243 4.292-1.124 6-2.567 1.708 1.443 3.784 2.324 6 2.567v4.076c0 3.309-2.691 6-6 6s-6-2.691-6-6zm4 11.813c.641.166 1.308.263 2 .263s1.359-.097 2-.263v.263c0 1.103-.897 2-2 2s-2-.897-2-2zm2 4.263c1.427 0 2.673-.758 3.381-1.886l1.619.374v3.512h-10v-3.512l1.619-.374c.708 1.128 1.954 1.886 3.381 1.886zm11-.127.124.029c2.282.526 3.876 2.529 3.876 4.871v5.227h-4zm-39.829 14.127c.413-1.164 1.525-2 2.829-2h52c1.304 0 2.416.836 2.829 2z"/><path d="m32 39c2.206 0 4-1.794 4-4h-2c0 1.103-.897 2-2 2s-2-.897-2-2h-2c0 2.206 1.794 4 4 4z"/><circle cx="35" cy="32" r="1"/><circle cx="29" cy="32" r="1"/><path d="m37 53h2v2h-2z"/><path d="m25 53h2v2h-2z"/><path d="m29 53h2v2h-2z"/><path d="m33 53h2v2h-2z"/></g><g><g><path d="m17 29h-8v-10h8z" fill="#f0bc5e"/></g></g><g><g><path d="m55 29h-8v-10h8z" fill="#f0bc5e"/></g></g></g></svg>