<svg id="Layer_5" enable-background="new 0 0 64 64" height="512" viewBox="0 0 64 64" width="512" xmlns="http://www.w3.org/2000/svg"><g><g><g><path d="m62 20v6l-2.37.75c-.5 2.46-1.47 4.75-2.81 6.77l1.15 2.21-4.24 4.24-2.21-1.15c-2.02 1.34-4.31 2.31-6.77 2.81l-.75 2.37h-6l-.75-2.37c-2.46-.5-5.23-1.29-7.25-2.63v-1c0-1.1-.9-2-2-2h-3.94l1.12-2.48c-1.34-2.02-2.31-4.31-2.81-6.77l-2.37-.75v-6l2.37-.75c.23-1.12.55-2.21.97-3.25.49-1.24 1.11-2.42 1.84-3.52l-1.15-2.21 1.97-1.97 2.27-2.27 2.21 1.15c2.02-1.34 4.31-2.31 6.77-2.81l.75-2.37h6l.75 2.37c2.46.5 4.75 1.47 6.77 2.81l2.21-1.15 4.24 4.24-1.15 2.21c1.34 2.02 2.31 4.31 2.81 6.77z" fill="#48cfad"/></g><g><path d="m56 23c0 8.28-6.72 15-15 15s-15-6.72-15-15 6.72-15 15-15 15 6.72 15 15z" fill="#ffeaa7"/></g><g><path d="m25.18 12.48c-.73 1.1-1.35 2.28-1.84 3.52h-17.34c-2.21 0-4-1.79-4-4v-6c0-2.21 1.79-4 4-4h16c2.21 0 4 1.79 4 4v2.3l-1.97 1.97z" fill="#e6e9ed"/></g><g><path d="m58 62h-20c-2.21 0-4-1.79-4-4v-10h24c2.21 0 4 1.79 4 4v6c0 2.21-1.79 4-4 4z" fill="#e6e9ed"/></g><g><circle cx="38" cy="16" fill="#ff826e" r="2"/></g><g><circle cx="41" cy="23" fill="#ff826e" r="2"/></g><g><circle cx="46" cy="30" fill="#ff826e" r="2"/></g><g><path d="m4 42h24v4h-24z" fill="#ffeaa7"/></g><g><path d="m4 52h24v4h-24z" fill="#ffeaa7"/></g><g><path d="m30 58v2c0 1.1-.9 2-2 2h-24c-1.1 0-2-.9-2-2v-2c0-1.1.9-2 2-2h24c1.1 0 2 .9 2 2z" fill="#fcd770"/></g><g><path d="m30 48v2c0 1.1-.9 2-2 2h-24c-1.1 0-2-.9-2-2v-2c0-1.1.9-2 2-2h24c1.1 0 2 .9 2 2z" fill="#fcd770"/></g><g><path d="m30 39v1c0 1.1-.9 2-2 2h-24c-1.1 0-2-.9-2-2v-2c0-1.1.9-2 2-2h20.06 3.94c1.1 0 2 .9 2 2z" fill="#fcd770"/></g></g><g><path d="m60.481 18.473c-.495-2.143-1.337-4.171-2.507-6.044l1.222-2.345-5.28-5.28-2.345 1.222c-1.873-1.17-3.901-2.012-6.044-2.507l-.794-2.519h-7.467l-.794 2.519c-2.143.495-4.171 1.337-6.044 2.507l-2.345-1.222-1.093 1.094c-.056-2.709-2.268-4.898-4.99-4.898h-16c-2.757 0-5 2.243-5 5v6c0 2.757 2.243 5 5 5h15.924c-.152.485-.29.975-.405 1.473l-2.519.794v7.467l2.519.794c.498 2.155 1.347 4.194 2.527 6.076l-.628 1.396h-19.418c-1.654 0-3 1.346-3 3v2c0 1.302.839 2.402 2 2.816v2.369c-1.161.413-2 1.513-2 2.815v2c0 1.302.839 2.402 2 2.816v2.369c-1.161.413-2 1.513-2 2.815v2c0 1.654 1.346 3 3 3h24c1.654 0 3-1.346 3-3v-2c0-1.302-.839-2.402-2-2.816v-2.369c1.161-.414 2-1.514 2-2.816v-2c0-1.302-.839-2.402-2-2.816v-2.369c.955-.34 1.687-1.143 1.918-2.144 1.493.735 3.327 1.335 5.557 1.815l.792 2.515h7.467l.794-2.519c2.143-.495 4.171-1.337 6.044-2.507l2.345 1.222 5.28-5.28-1.222-2.345c1.17-1.873 2.012-3.901 2.507-6.044l2.518-.794v-7.467zm-54.481-3.473c-1.654 0-3-1.346-3-3v-6c0-1.654 1.346-3 3-3h16c1.654 0 3 1.346 3 3v1.888l-2 2v-4.888h-2v8h2v-2.539l1.025 1.968c-.516.826-.957 1.688-1.344 2.571zm-1 30v-2h22v2zm0 10v-2h22v2zm24 5c0 .552-.448 1-1 1h-24c-.552 0-1-.448-1-1v-2c0-.552.448-1 1-1h24c.552 0 1 .448 1 1zm0-10c0 .552-.448 1-1 1h-24c-.552 0-1-.448-1-1v-2c0-.552.448-1 1-1h24c.552 0 1 .448 1 1zm0-10c0 .552-.448 1-1 1h-24c-.552 0-1-.448-1-1v-2c0-.552.448-1 1-1h24c.552 0 1 .448 1 1zm32-14.733-2.237.705-.116.58c-.46 2.296-1.354 4.453-2.659 6.411l-.328.492 1.086 2.084-3.206 3.206-2.084-1.086-.492.328c-1.958 1.305-4.115 2.199-6.411 2.659l-.58.116-.706 2.238h-4.533l-.705-2.237-.58-.116c-2.741-.549-4.902-1.292-6.448-2.206v-.441c0-1.654-1.346-3-3-3h-2.389l.709-1.576-.307-.461c-1.305-1.958-2.199-4.115-2.659-6.411l-.116-.58-2.239-.705v-4.533l2.237-.705.116-.58c.46-2.296 1.354-4.453 2.659-6.411l.328-.492-1.086-2.084 3.206-3.206 2.084 1.086.492-.328c1.958-1.305 4.115-2.199 6.411-2.659l.58-.116.706-2.239h4.533l.705 2.237.58.116c2.296.46 4.453 1.354 6.411 2.659l.492.328 2.084-1.086 3.206 3.206-1.086 2.084.328.492c1.305 1.958 2.199 4.115 2.659 6.411l.116.58 2.239.706z"/><path d="m41 7c-8.822 0-16 7.178-16 16s7.178 16 16 16 16-7.178 16-16-7.178-16-16-16zm0 30c-7.72 0-14-6.28-14-14s6.28-14 14-14 14 6.28 14 14-6.28 14-14 14z"/><path d="m41 20c-1.302 0-2.402.839-2.816 2h-7.184v2h7.184c.414 1.161 1.514 2 2.816 2s2.402-.839 2.816-2h7.184v-2h-7.184c-.414-1.161-1.514-2-2.816-2zm0 4c-.552 0-1-.448-1-1s.448-1 1-1 1 .448 1 1-.448 1-1 1z"/><path d="m38 13c-1.302 0-2.402.839-2.816 2h-4.184v2h4.184c.414 1.161 1.514 2 2.816 2s2.402-.839 2.816-2h10.184v-2h-10.184c-.414-1.161-1.514-2-2.816-2zm0 4c-.552 0-1-.448-1-1s.448-1 1-1 1 .448 1 1-.448 1-1 1z"/><path d="m46 27c-1.302 0-2.402.839-2.816 2h-12.184v2h12.184c.414 1.161 1.514 2 2.816 2s2.402-.839 2.816-2h2.184v-2h-2.184c-.414-1.161-1.514-2-2.816-2zm0 4c-.552 0-1-.448-1-1s.448-1 1-1 1 .448 1 1-.448 1-1 1z"/><path d="m9 5h-2c-1.103 0-2 .897-2 2v4c0 1.103.897 2 2 2h2c1.103 0 2-.897 2-2v-4c0-1.103-.897-2-2-2zm-2 6v-4h2l.002 4z"/><path d="m13 5h2v8h-2z"/><path d="m17 5h2v8h-2z"/><path d="m41 51h-2c-1.103 0-2 .897-2 2v4c0 1.103.897 2 2 2h2c1.103 0 2-.897 2-2v-4c0-1.103-.897-2-2-2zm0 6h-2v-4h2z"/><path d="m49 51h-2c-1.103 0-2 .897-2 2v4c0 1.103.897 2 2 2h2c1.103 0 2-.897 2-2v-4c0-1.103-.897-2-2-2zm0 6h-2v-4h2z"/><path d="m53 51h2v8h-2z"/><path d="m57 51h2v8h-2z"/><path d="m58 47h-25v11c0 2.757 2.243 5 5 5h20c2.757 0 5-2.243 5-5v-6c0-2.757-2.243-5-5-5zm3 11c0 1.654-1.346 3-3 3h-20c-1.654 0-3-1.346-3-3v-9h23c1.654 0 3 1.346 3 3z"/></g></g></svg>