<svg id="Layer_5" enable-background="new 0 0 64 64" height="512" viewBox="0 0 64 64" width="512" xmlns="http://www.w3.org/2000/svg"><g><g><path d="m56 20c-.1 0-.2 0-.3.01.2-.97.3-1.98.3-3.01 0-8.28-6.72-15-15-15-5.2 0-9.78 2.65-12.47 6.66-2.06-1.66-4.68-2.66-7.53-2.66-6.63 0-12 5.37-12 12 0 .72.06 1.43.19 2.12-.39-.08-.78-.12-1.19-.12-3.31 0-6 2.69-6 6s2.69 6 6 6h48c3.31 0 6-2.69 6-6s-2.69-6-6-6z" fill="#e6e9ed"/><path d="m51 32v3l-2.45.82c-.42 1.86-1.16 3.61-2.15 5.18l1.16 2.31-3.56 3.56-.69.69-2.31-1.16c-.94.59-1.94 1.1-3 1.49-.7.27-1.43.49-2.18.66l-.82 2.45h-3-3l-.82-2.45c-.75-.17-1.48-.39-2.18-.66-1.06-.39-2.06-.9-3-1.49l-2.31 1.16-.69-.69-3.56-3.56 1.16-2.31c-.99-1.57-1.73-3.32-2.15-5.18l-2.45-.82v-3-3l2.45-.82c.42-1.86 1.16-3.61 2.15-5.18l-1.16-2.31 4.25-4.25 2.31 1.16c1.57-.99 3.32-1.73 5.18-2.15l.82-2.45h6l.82 2.45c1.86.42 3.61 1.16 5.18 2.15l2.31-1.16 4.25 4.25-1.16 2.31c.99 1.57 1.73 3.32 2.15 5.18l2.45.82z" fill="#fcd770"/><circle cx="32" cy="32" fill="#69d6f4" r="13"/><g fill="#ff826e"><circle cx="4" cy="52" r="2"/><circle cx="52" cy="60" r="2"/><circle cx="12" cy="60" r="2"/><circle cx="60" cy="52" r="2"/></g></g><g><path d="m32 18c-7.72 0-14 6.28-14 14s6.28 14 14 14 14-6.28 14-14-6.28-14-14-14zm0 26c-1.051 0-2.362-1.809-3.19-5h6.38c-.828 3.191-2.139 5-3.19 5zm-3.612-7c-.198-1.2-.327-2.542-.369-4h7.961c-.042 1.458-.17 2.8-.369 4zm-8.337-4h5.969c.041 1.352.16 2.704.363 4h-5.277c-.57-1.236-.937-2.582-1.055-4zm11.949-13c1.051 0 2.362 1.809 3.19 5h-6.38c.828-3.191 2.139-5 3.19-5zm3.612 7c.198 1.2.327 2.542.369 4h-7.961c.042-1.458.17-2.8.369-4zm-9.593 4h-5.969c.118-1.418.485-2.764 1.055-4h5.277c-.202 1.296-.322 2.649-.363 4zm11.962 2h5.969c-.118 1.418-.485 2.764-1.055 4h-5.277c.202-1.296.322-2.648.363-4zm0-2c-.041-1.351-.16-2.704-.363-4h5.277c.57 1.236.937 2.582 1.055 4zm3.746-6h-4.504c-.406-1.724-.967-3.269-1.681-4.465 2.518.779 4.675 2.374 6.185 4.465zm-13.27-4.465c-.714 1.197-1.275 2.741-1.681 4.465h-4.504c1.511-2.091 3.668-3.686 6.185-4.465zm-6.184 18.465h4.504c.406 1.724.967 3.269 1.681 4.465-2.518-.779-4.675-2.374-6.185-4.465zm13.27 4.465c.714-1.197 1.275-2.741 1.681-4.465h4.504c-1.511 2.091-3.668 3.686-6.185 4.465z"/><path d="m31 61h2v2h-2z"/><path d="m60 49c-1.302 0-2.402.839-2.816 2h-11.184c-.551 0-1-.448-1-1v-2.715l3.773-3.774-1.23-2.461c.819-1.403 1.44-2.899 1.851-4.46l2.606-.869v-2.721h4c3.86 0 7-3.141 7-7 0-3.569-2.686-6.517-6.143-6.942.087-.678.143-1.363.143-2.058 0-8.822-7.178-16-16-16-4.997 0-9.666 2.32-12.689 6.257-2.147-1.462-4.706-2.257-7.311-2.257-7.168 0-13 5.832-13 13 0 .334.019.669.044 1.002-.015 0-.029-.002-.044-.002-3.86 0-7 3.141-7 7s3.14 7 7 7h4v2.721l2.606.869c.411 1.561 1.032 3.057 1.851 4.46l-1.23 2.461 3.773 3.773v2.716c0 .552-.449 1-1 1h-11.184c-.414-1.161-1.514-2-2.816-2-1.654 0-3 1.346-3 3s1.346 3 3 3c1.302 0 2.402-.839 2.816-2h11.184c1.654 0 3-1.346 3-3v-1.482l1.951-.976c.663.387 1.348.726 2.049 1.023v9.435c0 .552-.449 1-1 1h-9.184c-.414-1.161-1.514-2-2.816-2-1.654 0-3 1.346-3 3s1.346 3 3 3c1.302 0 2.402-.839 2.816-2h9.184c1.654 0 3-1.346 3-3v-8.73c.137.04.272.087.411.123l.868 2.607h2.721v7h2v-7h2.721l.869-2.606c.138-.036.273-.083.411-.123v8.729c0 1.654 1.346 3 3 3h9.184c.414 1.161 1.514 2 2.816 2 1.654 0 3-1.346 3-3s-1.346-3-3-3c-1.302 0-2.402.839-2.816 2h-9.185c-.551 0-1-.448-1-1v-9.435c.701-.297 1.386-.636 2.049-1.023l1.951.976v1.482c0 1.654 1.346 3 3 3h11.184c.414 1.161 1.514 2 2.816 2 1.654 0 3-1.346 3-3s-1.346-3-3-3zm-56 4c-.551 0-1-.448-1-1s.449-1 1-1 1 .448 1 1-.449 1-1 1zm8 8c-.551 0-1-.448-1-1s.449-1 1-1 1 .448 1 1-.449 1-1 1zm40-2c.551 0 1 .448 1 1s-.449 1-1 1-1-.448-1-1 .449-1 1-1zm-44-28c-2.757 0-5-2.243-5-5s2.243-5 5-5c1.238 0 2.425.456 3.345 1.283l1.338-1.486c-.755-.68-1.642-1.175-2.594-1.473-.053-.439-.089-.881-.089-1.324 0-6.065 4.935-11 11-11 2.539 0 4.926.845 6.903 2.442l.851.687.609-.908c2.608-3.896 6.959-6.221 11.637-6.221 7.72 0 14 6.28 14 14 0 3.058-.968 5.962-2.798 8.399l1.599 1.201c1.264-1.682 2.161-3.56 2.679-5.552 2.529.246 4.52 2.359 4.52 4.952 0 2.757-2.243 5-5 5h-4v-2.721l-2.606-.869c-.411-1.561-1.032-3.057-1.851-4.46l1.23-2.461-5.261-5.263-2.462 1.231c-1.403-.819-2.899-1.44-4.46-1.852l-.869-2.605h-7.441l-.869 2.606c-1.561.411-3.057 1.032-4.46 1.852l-2.461-1.231-5.262 5.263 1.23 2.461c-.819 1.403-1.44 2.899-1.851 4.46l-2.607.868v2.721zm32.948 14.256-.476.298c-1.514.948-3.156 1.63-4.881 2.026l-.547.126-.765 2.294h-4.559l-.765-2.294-.547-.126c-1.725-.396-3.367-1.078-4.881-2.026l-.476-.298-2.168 1.084-3.223-3.224 1.083-2.167-.298-.477c-.949-1.514-1.63-3.156-2.026-4.881l-.125-.548-2.294-.764v-4.559l2.294-.765.125-.548c.396-1.725 1.078-3.367 2.026-4.881l.298-.477-1.083-2.167 3.223-3.224 2.168 1.084.476-.298c1.514-.948 3.156-1.63 4.881-2.026l.547-.126.766-2.292h4.559l.765 2.294.547.126c1.725.396 3.367 1.078 4.881 2.026l.476.298 2.168-1.084 3.223 3.224-1.083 2.167.298.477c.949 1.514 1.63 3.156 2.026 4.881l.125.548 2.294.764v4.559l-2.294.765-.125.548c-.396 1.725-1.078 3.367-2.026 4.881l-.298.477 1.083 2.167-3.223 3.224zm19.052 7.744c-.551 0-1-.448-1-1s.449-1 1-1 1 .448 1 1-.449 1-1 1z"/><path d="m51 17h2c0-6.617-5.383-12-12-12v2c5.514 0 10 4.486 10 10z"/><path d="m21 11v-2c-4.962 0-9 4.037-9 9h2c0-3.859 3.14-7 7-7z"/></g></g></svg>