<svg id="Layer_5" enable-background="new 0 0 64 64" height="512" viewBox="0 0 64 64" width="512" xmlns="http://www.w3.org/2000/svg"><g><g><g><path d="m30 2h-20c-1.1 0-2 .9-2 2v28h17.53c1.86 0 3.61.71 4.92 1.94.89-.2 1.55-.99 1.55-1.94v-28c0-1.1-.9-2-2-2z" fill="#fcd770"/></g><g><path d="m32 62h-28c-1.1 0-2-.9-2-2v-22c0-1.1.9-2 2-2h2v22h19.53c2.74 0 5.24 1.55 6.47 4z" fill="#5cd6b3"/></g><g><path d="m62 38v22c0 1.1-.9 2-2 2h-28c1.23-2.45 3.73-4 6.47-4h19.53v-22h2c1.1 0 2 .9 2 2z" fill="#5cd6b3"/></g><g><path d="m52 27.65c-.96.23-1.97.35-3 .35s-2.04-.12-3-.35c-5.73-1.35-10-6.5-10-12.65 0-7.18 5.82-13 13-13s13 5.82 13 13c0 6.15-4.27 11.3-10 12.65z" fill="#e6e9ed"/></g><g><circle cx="49" cy="15" fill="#69d6f4" r="9"/></g><g><path d="m38.47 32c-2.74 0-5.24 1.55-6.47 4-.4-.78-.92-1.48-1.55-2.06-1.31-1.23-3.06-1.94-4.92-1.94h-17.53-2v4 22h19.53c2.74 0 5.24 1.55 6.47 4 1.23-2.45 3.73-4 6.47-4h19.53v-22-4z" fill="#f0d0b4"/></g><g><path d="m52 32v11c0 .83-.34 1.58-.88 2.12s-1.29.88-2.12.88c-1.66 0-3-1.34-3-3v-11-4.35c.96.23 1.97.35 3 .35s2.04-.12 3-.35z" fill="#969faa"/></g><g><path d="m20 48h8v6h-8z" fill="#fcd770"/></g><g><path d="m10 36h10v8h-10z" fill="#ff826e"/></g></g><g><path d="m60 35h-1v-4h-6v-2.59c5.775-1.726 10-7.081 10-13.41 0-7.72-6.28-14-14-14s-14 6.28-14 14c0 6.329 4.225 11.684 10 13.41v2.59h-6.528c-2.252 0-4.331.909-5.851 2.453.24-.433.379-.928.379-1.453v-28c0-1.654-1.346-3-3-3h-20c-1.654 0-3 1.346-3 3v27h-2v4h-1c-1.654 0-3 1.346-3 3v22c0 1.654 1.346 3 3 3h56c1.654 0 3-1.346 3-3v-22c0-1.654-1.346-3-3-3zm-23-20c0-6.617 5.383-12 12-12s12 5.383 12 12-5.383 12-12 12-12-5.383-12-12zm12 14c.681 0 1.345-.065 2-.16v14.16c0 1.103-.897 2-2 2s-2-.897-2-2v-14.16c.655.095 1.319.16 2 .16zm-10.528 4h6.528v10c0 2.206 1.794 4 4 4s4-1.794 4-4v-10h4v24h-18.528c-2.07 0-3.993.771-5.472 2.093v-22.825c1.093-2.016 3.165-3.268 5.472-3.268zm-7.472-16h-22v-6h22zm0 2v6h-22v-6zm-21-16h20c.552 0 1 .448 1 1v5h-22v-5c0-.552.448-1 1-1zm-1 24h22v5c0 .311-.152.582-.38.767-1.422-1.122-3.196-1.767-5.092-1.767h-16.528zm-2 6h18.528c2.307 0 4.379 1.252 5.472 3.268v22.824c-1.479-1.321-3.401-2.092-5.472-2.092h-18.528zm-4 27v-22c0-.552.448-1 1-1h1v22h20.528c1.777 0 3.419.739 4.579 2h-26.107c-.552 0-1-.448-1-1zm58 0c0 .552-.448 1-1 1h-26.107c1.16-1.261 2.802-2 4.579-2h20.528v-22h1c.552 0 1 .448 1 1z"/><path d="m59 15c0-5.514-4.486-10-10-10s-10 4.486-10 10 4.486 10 10 10 10-4.486 10-10zm-18 0c0-4.411 3.589-8 8-8s8 3.589 8 8-3.589 8-8 8-8-3.589-8-8z"/><path d="m19 5h2v2h-2z"/><path d="m11 5h2v2h-2z"/><path d="m15 5h2v2h-2z"/><path d="m15 21h2v2h-2z"/><path d="m19 21h2v2h-2z"/><path d="m11 21h2v2h-2z"/><path d="m27 13h2v2h-2z"/><path d="m23 13h2v2h-2z"/><path d="m19 13h2v2h-2z"/><path d="m21 35h-12v10h12zm-2 8h-8v-6h8z"/><path d="m29 47h-10v8h10zm-2 6h-6v-4h6z"/><path d="m9 47h8v2h-8z"/><path d="m9 51h8v2h-8z"/><path d="m23 43h6v2h-6z"/><path d="m23 39h6v2h-6z"/><path d="m35 37h8v2h-8z"/><path d="m35 41h8v2h-8z"/><path d="m35 45h8v2h-8z"/><path d="m35 49h20v2h-20z"/><path d="m35 53h2v2h-2z"/><path d="m39 53h16v2h-16z"/></g></g></svg>