<svg id="Layer_5" enable-background="new 0 0 64 64" height="512" viewBox="0 0 64 64" width="512" xmlns="http://www.w3.org/2000/svg"><g><g><path d="m19.05 18c-.03-.33-.05-.66-.05-1 0-.69.08-1.36.22-2 .91-4.01 4.5-7 8.78-7 1.48 0 2.87.36 4.1 1 .94-2.03 2.42-3.78 4.28-5 1.89-1.26 4.17-2 6.62-2 6.63 0 12 5.37 12 12h.1c3.72.05 6.85 3.18 6.9 6.9.05 3.91-3.1 7.1-7 7.1h-1-10-1-5c0-1.1-.9-2-2-2h-21c-.63-.83-1-1.87-1-3 0-2.76 2.24-5 5-5z" fill="#e6e9ed"/><path d="m38 56v4c0 1.1-.9 2-2 2h-32c-1.1 0-2-.9-2-2v-4l.21-.11c1.41-.7 2.15-2.36 1.61-3.96-.28-.83-.92-1.48-1.7-1.87l-.12-.06v-12l.21-.11c1.41-.7 2.15-2.36 1.61-3.96-.28-.83-.92-1.48-1.7-1.87l-.12-.06v-4c0-1.1.9-2 2-2h11 21c1.1 0 2 .9 2 2v4l-.21.11c-1.1.54-1.79 1.66-1.79 2.89s.69 2.35 1.79 2.89l.21.11v12l-.21.11c-1.1.54-1.79 1.66-1.79 2.89s.69 2.35 1.79 2.89z" fill="#aab2bd"/><path d="m8 32h24v24h-24z" fill="#ffeaa7"/><path d="m14 36h4 4 4 2v2 4 4 4 2h-2-4-4-4-2v-2-4-4-4-2z" fill="#fcd770"/><g fill="#ff826e"><circle cx="10" cy="7" r="2"/><circle cx="4" cy="15" r="2"/><circle cx="54" cy="52" r="2"/><circle cx="46" cy="46" r="2"/></g></g><g><path d="m33 31h-26v26h26zm-2 6h-2v-2h-2v-2h4zm-2 10h2v2h-2zm0-2v-2h2v2zm0-4v-2h2v2zm-12 12v2h-2v-2zm2 0h2v2h-2zm4 0h2v2h-2zm-10-2v-14h14v14zm8-16h-2v-2h2zm2-2h2v2h-2zm-6 2h-2v-2h2zm-4-2v2h-2v2h-2v-4zm-2 16h-2v-2h2zm0-4h-2v-2h2zm0-4h-2v-2h2zm-2 10h2v2h2v2h-4zm18 4v-2h2v-2h2v4z"/><path d="m54 29h1c2.158 0 4.181-.847 5.696-2.383s2.333-3.571 2.303-5.73c-.056-4.005-3.146-7.353-7.047-7.827-.485-6.729-6.101-12.06-12.952-12.06-2.483 0-4.86.724-6.892 2h-14.522l-3 3h-5.77c-.414-1.161-1.514-2-2.816-2-1.654 0-3 1.346-3 3s1.346 3 3 3c1.302 0 2.402-.839 2.816-2h6.598l3-3h11.228c-.77.8-1.446 1.701-1.997 2.691-1.162-.459-2.384-.691-3.645-.691-4.469 0-8.261 2.948-9.539 7h-11.645c-.414-1.161-1.514-2-2.816-2-1.654 0-3 1.346-3 3s1.346 3 3 3c1.302 0 2.402-.839 2.816-2h11.235c-.033.329-.051.662-.051 1 0 .03.005.059.005.09-2.836.476-5.005 2.941-5.005 5.91 0 .693.123 1.364.348 2h-9.348c-1.654 0-3 1.346-3 3v4.618l.674.337c.583.292 1.021.764 1.201 1.294.368 1.088-.1 2.245-1.111 2.751l-.764.382v13.236l.674.337c.583.292 1.021.764 1.201 1.294.368 1.088-.1 2.245-1.111 2.751l-.764.382v4.618c0 1.654 1.346 3 3 3h32c1.654 0 3-1.346 3-3v-4.618l-.764-.382c-.762-.381-1.236-1.147-1.236-2s.474-1.619 1.236-2l.764-.382v-13.236l-.764-.382c-.762-.381-1.236-1.147-1.236-2s.474-1.619 1.236-2l.764-.382v-3.618h5c.551 0 1 .448 1 1v13.184c-1.161.414-2 1.514-2 2.816 0 1.654 1.346 3 3 3s3-1.346 3-3c0-1.302-.839-2.402-2-2.816v-13.184c0-1.654-1.346-3-3-3h-5.184c-.414-1.161-1.514-2-2.816-2h-20.454c-.352-.606-.546-1.286-.546-2 0-2.206 1.794-4 4-4s4 1.794 4 4h2c0-2.965-2.164-5.429-4.995-5.909 0-.031-.005-.06-.005-.091 0-4.411 3.589-8 8-8 1.276 0 2.503.298 3.646.886l.929.478.437-.949c1.792-3.897 5.713-6.415 9.988-6.415 5.759 0 10.49 4.451 10.954 10.093-1.711.237-3.315.972-4.571 2.211-1.537 1.515-2.383 3.538-2.383 5.696h2c0-1.618.635-3.136 1.787-4.272s2.68-1.796 4.298-1.727c3.162.044 5.87 2.752 5.914 5.913.022 1.62-.591 3.146-1.728 4.299s-2.653 1.787-4.271 1.787h-1c-1.654 0-3 1.346-3 3v9.414l2 2v7.77c-1.161.414-2 1.514-2 2.816 0 1.654 1.346 3 3 3s3-1.346 3-3c0-1.302-.839-2.402-2-2.816v-8.598l-2-2v-8.586c0-.552.449-1 1-1zm-44-21c-.551 0-1-.448-1-1s.449-1 1-1 1 .448 1 1-.449 1-1 1zm-6 8c-.551 0-1-.448-1-1s.449-1 1-1 1 .448 1 1-.449 1-1 1zm42 31c-.551 0-1-.448-1-1s.449-1 1-1 1 .448 1 1-.449 1-1 1zm-9-19v3.401c-1.243.769-2 2.115-2 3.599s.757 2.83 2 3.599v10.803c-1.243.769-2 2.115-2 3.599s.757 2.83 2 3.599v3.4c0 .552-.449 1-1 1h-32c-.551 0-1-.448-1-1v-3.401c1.676-1.035 2.418-3.072 1.769-4.99-.303-.896-.923-1.663-1.769-2.199v-10.811c1.676-1.035 2.418-3.072 1.769-4.99-.303-.896-.923-1.663-1.769-2.199v-3.41c0-.552.449-1 1-1h32c.551 0 1 .448 1 1zm17 25c-.551 0-1-.448-1-1s.449-1 1-1 1 .448 1 1-.449 1-1 1z"/><path d="m15 39h10v2h-10z"/><path d="m15 43h10v2h-10z"/><path d="m15 47h2v2h-2z"/><path d="m19 47h6v2h-6z"/><path d="m46.375 5.654c-1.072-.434-2.208-.654-3.375-.654-3.203 0-6.19 1.724-7.795 4.499l1.731 1.002c1.249-2.159 3.572-3.501 6.064-3.501.909 0 1.792.171 2.625.508z"/><path d="m50.795 9.499c-.563-.973-1.293-1.822-2.169-2.524l-1.251 1.561c.683.547 1.251 1.208 1.689 1.966z"/><path d="m57 21c0 1.103-.897 2-2 2v2c2.206 0 4-1.794 4-4z"/><path d="m31.601 12.2c-1.045-.785-2.29-1.2-3.601-1.2-2.386 0-4.545 1.413-5.5 3.6l1.833.801c.637-1.459 2.076-2.401 3.667-2.401.874 0 1.704.276 2.4.8z"/><path d="m27 19h2v2h-2z"/><path d="m31 19h2v2h-2z"/><path d="m39 19h2v2h-2z"/><path d="m43 19h2v2h-2z"/><path d="m35 19h2v2h-2z"/></g></g></svg>