<svg id="Layer_5" enable-background="new 0 0 64 64" height="512" viewBox="0 0 64 64" width="512" xmlns="http://www.w3.org/2000/svg"><g><g><g><path d="m20 57c-7.168 0-13-5.832-13-13s5.832-13 13-13 13 5.832 13 13-5.832 13-13 13z" fill="#f0bc5e"/></g></g><g><path d="m21 37.142v-2.142h-2v2h-3v4c0 2.206 1.794 4 4 4 1.103 0 2 .897 2 2v2h-2c-1.103 0-2-.897-2-2v-1h-2v1c0 1.859 1.279 3.411 3 3.858v2.142h2v-2h3v-4c0-2.206-1.794-4-4-4-1.103 0-2-.897-2-2v-2h2c1.103 0 2 .897 2 2v1h2v-1c0-1.859-1.279-3.411-3-3.858z"/><path d="m61 31c1.103 0 2-.897 2-2v-2c0-1.103-.897-2-2-2h-2v-10h2v-1c0-7.168-5.832-13-13-13h-10c-7.168 0-13 5.832-13 13v1h2v10h-3.295-.705-6.705l-.951 2.666c-1.255.357-2.462.857-3.601 1.492l-2.559-1.212-5.24 5.239 1.213 2.559c-.634 1.138-1.134 2.345-1.491 3.601l-2.666.95v7.41l2.666.951c.357 1.256.857 2.463 1.491 3.601l-1.213 2.559 5.24 5.24 2.559-1.213c1.138.634 2.345 1.134 3.601 1.491l.951 2.666h7.41l.951-2.666c1.256-.357 2.463-.857 3.601-1.491l2.559 1.213 5.24-5.24-1.213-2.559c.634-1.138 1.134-2.345 1.491-3.601l2.666-.951v-1.705h24v-3c0-1.654-1.346-3-3-3v-9zm-4-6h-2v-10h2zm-10 0h-8v-2c0-2.206 1.794-4 4-4s4 1.794 4 4zm-4-8c-3.309 0-6 2.691-6 6v2h-4v-10h20v10h-4v-2c0-3.309-2.691-6-6-6zm-.003-13.749c1.117.957 3.7 3.81 3.969 9.749h-7.934c.268-5.949 2.835-8.788 3.965-9.749zm15.958 9.749h-9.99c-.211-5.087-1.962-8.24-3.433-10h2.468c5.729 0 10.448 4.401 10.955 10zm-20.955-10h2.468c-1.47 1.76-3.222 4.913-3.433 10h-9.99c.507-5.599 5.226-10 10.955-10zm-9 12h2v10h-2zm32 12v2h-29.13l-1.055-1.055-2.559 1.212c-1.139-.635-2.346-1.135-3.601-1.492l-.236-.665zm-15 13v-9h8v9zm-7.827 0-1.839-.656c-.357-1.256-.857-2.463-1.491-3.601l1.213-2.559-2.185-2.184h6.129v9zm3.827-9h2v9h-2zm-5 15.295-2.336.834-.13.519c-.358 1.429-.923 2.791-1.678 4.049l-.275.459 1.063 2.242-3.246 3.246-2.242-1.063-.459.275c-1.258.755-2.62 1.319-4.049 1.678l-.519.13-.834 2.336h-4.59l-.834-2.336-.519-.13c-1.429-.358-2.791-.923-4.049-1.678l-.459-.275-2.242 1.063-3.246-3.246 1.063-2.242-.275-.459c-.755-1.258-1.319-2.62-1.678-4.049l-.13-.519-2.336-.834v-4.59l2.336-.834.13-.519c.358-1.429.923-2.791 1.678-4.049l.275-.459-1.063-2.242 3.246-3.246 2.242 1.063.459-.275c1.26-.756 2.622-1.32 4.049-1.677l.519-.13.834-2.337h4.59l.834 2.337.519.13c1.427.357 2.789.921 4.049 1.677l.459.275 2.242-1.063 3.246 3.246-1.063 2.242.275.459c.755 1.258 1.319 2.62 1.678 4.049l.13.519 2.336.834zm24-3.295v1h-22v-2h21c.552 0 1 .448 1 1zm-3-3h-2v-9h2z"/></g></g></svg>