<svg id="Layer_5" enable-background="new 0 0 64 64" height="512" viewBox="0 0 64 64" width="512" xmlns="http://www.w3.org/2000/svg"><g><g><path d="m47 60v2h-30v-2c0-1.1.9-2 2-2h3 20 3c1.1 0 2 .9 2 2z" fill="#969faa"/><path d="m22 52h20v6h-20z" fill="#aab2bd"/><path d="m58 14h-52c-2.21 0-4 1.79-4 4v30c0 2.21 1.79 4 4 4h16 20 16c2.21 0 4-1.79 4-4v-30c0-2.21-1.79-4-4-4z" fill="#ccd1d9"/><path d="m35 44h-6-6v2c0 1.1.9 2 2 2h4 6 4c1.1 0 2-.9 2-2v-2z" fill="#ffc729"/><path d="m10 18v26h-3c-.55 0-1-.45-1-1v-24c0-.55.45-1 1-1z" fill="#69d6f4"/><path d="m58 19v24c0 .55-.45 1-1 1h-3v-26h3c.55 0 1 .45 1 1z" fill="#69d6f4"/><path d="m10 10h44v34h-44z" fill="#ffeaa7"/><path d="m50 15v8c0 .55-.45 1-1 1h-6-8c-.55 0-1-.45-1-1v-1-7c0-.55.45-1 1-1h14c.55 0 1 .45 1 1z" fill="#ff826e"/><path d="m10 10v-6c0-1.1.9-2 2-2h40c1.1 0 2 .9 2 2v6z" fill="#5cd6b3"/></g><g><path d="m13 5h2v2h-2z"/><path d="m21 5h2v2h-2z"/><path d="m17 5h2v2h-2z"/><path d="m58 13h-3v-9c0-1.654-1.346-3-3-3h-40c-1.654 0-3 1.346-3 3v9h-3c-2.757 0-5 2.243-5 5v30c0 2.757 2.243 5 5 5h15v4h-2c-1.654 0-3 1.346-3 3v3h32v-3c0-1.654-1.346-3-3-3h-2v-4h15c2.757 0 5-2.243 5-5v-30c0-2.757-2.243-5-5-5zm-34 32h4v2h-3c-.551 0-1-.448-1-1zm6 0h4v2h-4zm6 0h4v1c0 .552-.449 1-1 1h-3zm-25-2v-32h42v32zm-2 0h-2v-24h2zm46-24h2v24h-2zm-43-16h40c.551 0 1 .448 1 1v5h-42v-5c0-.552.449-1 1-1zm34 57v1h-28v-1c0-.552.449-1 1-1h26c.551 0 1 .448 1 1zm-5-3h-18v-4h18zm20-9c0 1.654-1.346 3-3 3h-52c-1.654 0-3-1.346-3-3v-30c0-1.654 1.346-3 3-3h3v2h-2c-1.103 0-2 .897-2 2v24c0 1.103.897 2 2 2h15v1c0 1.654 1.346 3 3 3h14c1.654 0 3-1.346 3-3v-1h15c1.103 0 2-.897 2-2v-24c0-1.103-.897-2-2-2h-2v-2h3c1.654 0 3 1.346 3 3z"/><path d="m46.781 28.375-1.562 1.25 3.5 4.375-3.5 4.375 1.562 1.25 4.5-5.625z"/><path d="m37.219 28.375-4.5 5.625 4.5 5.625 1.562-1.25-3.5-4.375 3.5-4.375z"/><path d="m34.929 33h14.142v2h-14.142z" transform="matrix(.142 -.99 .99 .142 2.394 70.761)"/><path d="m15 20c0 1.654 1.346 3 3 3h1v-2h-1c-.551 0-1-.448-1-1 0-.771-.301-1.468-.78-2 .48-.532.78-1.229.78-2 0-.552.449-1 1-1h1v-2h-1c-1.654 0-3 1.346-3 3 0 .552-.449 1-1 1h-1v2h1c.551 0 1 .448 1 1z"/><path d="m29 32c0-1.654-1.346-3-3-3h-1v2h1c.551 0 1 .448 1 1 0 .771.301 1.468.78 2-.48.532-.78 1.229-.78 2 0 .552-.449 1-1 1h-1v2h1c1.654 0 3-1.346 3-3 0-.552.449-1 1-1h1v-2h-1c-.551 0-1-.448-1-1z"/><path d="m13 37h10v2h-10z"/><path d="m13 33h10v2h-10z"/><path d="m13 29h10v2h-10z"/><path d="m13 25h10v2h-10z"/><path d="m21 17h10v2h-10z"/><path d="m21 21h10v2h-10z"/><path d="m21 13h10v2h-10z"/><path d="m35 25h14c1.103 0 2-.897 2-2v-8c0-1.103-.897-2-2-2h-14c-1.103 0-2 .897-2 2v8c0 1.103.897 2 2 2zm0-10h14l.001 8h-14.001z"/></g></g></svg>