<svg id="Layer_5" enable-background="new 0 0 64 64" height="512" viewBox="0 0 64 64" width="512" xmlns="http://www.w3.org/2000/svg"><g><g><g><path d="m54 10v-8h-25v50 10h33v-52z" fill="#e6e9ed"/></g><g><path d="m58 42v6c0 1.1-.9 2-2 2h-21c-1.1 0-2-.9-2-2v-.75l6.44-7.25h16.56c1.1 0 2 .9 2 2z" fill="#48cfad"/></g><g><path d="m58 16v6c0 1.1-.9 2-2 2h-16.56l-6.44-7.25v-.75c0-1.1.9-2 2-2h21c1.1 0 2 .9 2 2z" fill="#48cfad"/></g><g><path d="m62 10h-8v-8z" fill="#5cd6b3"/></g><g><path d="m55 28v2l-5 6h-7v-8z" fill="#fcd770"/></g><g><path d="m43 28v8l-3.56 4-6.44 7.25-4.13 4.64-.38.43c-.95 1.07-2.31 1.68-3.74 1.68h-2.75c2.76 0 5-2.24 5-5v-34c0-1.38-.56-2.63-1.46-3.54-.91-.9-2.16-1.46-3.54-1.46h2.75c1.43 0 2.79.61 3.74 1.68l.38.43 4.13 4.64 6.44 7.25z" fill="#fcd770"/></g><g><path d="m23 16.808c-1.574-.518-3.252-.808-5-.808-8.837 0-16 7.163-16 16s7.163 16 16 16c1.748 0 3.426-.29 5-.808z" fill="#69d6f4"/></g><g><path d="m27 15v34c0 2.76-2.24 5-5 5h-4c2.76 0 5-2.24 5-5v-1.8-7.2-8-8-7.28-1.72c0-1.38-.56-2.63-1.46-3.54-.91-.9-2.16-1.46-3.54-1.46h4c1.38 0 2.63.56 3.54 1.46.9.91 1.46 2.16 1.46 3.54z" fill="#ffeaa7"/></g><g><path d="m23 15v1.72h-.24c-1.51-.47-3.1-.72-4.76-.72-1.75 0-3.43.28-5 .8v-1.8c0-2.76 2.24-5 5-5 1.38 0 2.63.56 3.54 1.46.9.91 1.46 2.16 1.46 3.54z" fill="#ccd1d9"/></g><g><path d="m23 47.2v1.8c0 2.76-2.24 5-5 5-1.38 0-2.63-.56-3.54-1.46-.9-.91-1.46-2.16-1.46-3.54v-1.8c1.57.52 3.25.8 5 .8s3.43-.28 5-.8z" fill="#ccd1d9"/></g></g><g><path d="m54.414 1h-26.414v8.963c-.96-.618-2.082-.963-3.245-.963h-2.755-4c-3.309 0-6 2.691-6 6v1.114c-6.417 2.433-11 8.626-11 15.886s4.583 13.453 11 15.886v1.114c0 3.309 2.691 6 6 6h4 2.755c1.163 0 2.285-.345 3.245-.963v8.963h35v-53.414zm.586 3.414 4.586 4.586h-4.586zm-29 44.586c0 2.033-1.529 3.697-3.494 3.949.927-1.057 1.494-2.436 1.494-3.949v-34c0-1.513-.567-2.892-1.494-3.949 1.965.252 3.494 1.916 3.494 3.949zm-13.546-8h9.546v5.449c-1.299.359-2.639.551-4 .551-2.232 0-4.254-2.387-5.546-6zm-9.403-8h5.975c.063 2.139.322 4.16.752 6h-5.034c-.961-1.812-1.55-3.845-1.693-6zm14.949-16c1.361 0 2.703.191 4 .55v5.45h-9.546c1.292-3.613 3.314-6 5.546-6zm4 8v6h-10.976c.07-2.142.354-4.179.816-6zm-12.974 6h-5.975c.143-2.155.732-4.188 1.693-6h5.034c-.43 1.84-.689 3.861-.752 6zm1.998 2h10.976v6h-10.159c-.462-1.821-.747-3.858-.817-6zm2.976-18c0-2.206 1.794-4 4-4s4 1.794 4 4v.48c-1.304-.315-2.644-.48-4-.48-1.38 0-2.715.183-4 .495zm-1.098 2.911c-1.038 1.327-1.908 3.066-2.566 5.089h-4.308c1.737-2.304 4.115-4.087 6.874-5.089zm-6.874 23.089h4.308c.658 2.023 1.528 3.762 2.566 5.089-2.759-1.002-5.137-2.785-6.874-5.089zm7.972 8v-.495c1.285.312 2.62.495 4 .495 1.355 0 2.695-.16 4-.474v.474c0 2.206-1.794 4-4 4s-4-1.794-4-4zm13.013 3.289c.622-.946.987-2.075.987-3.289v-34c0-1.214-.365-2.343-.987-3.289.265.182.515.386.732.631l14.255 16.038v7.24l-14.256 16.038c-.217.244-.467.449-.731.631zm6.987-35.919v-.37c0-.552.449-1 1-1h21c.551 0 1 .448 1 1v6c0 .552-.449 1-1 1h-16.107zm0 31.26 5.893-6.63h16.107c.551 0 1 .448 1 1v6c0 .552-.449 1-1 1h-21c-.551 0-1-.448-1-1zm-4 13.37v-8.87l2.387-2.686c.512.923 1.485 1.556 2.613 1.556h21c1.654 0 3-1.346 3-3v-6c0-1.654-1.346-3-3-3h-14.329l1.778-2h7.019l5.532-6.638v-3.362h-12.551l-1.778-2h14.329c1.654 0 3-1.346 3-3v-6c0-1.654-1.346-3-3-3h-21c-1.128 0-2.101.633-2.613 1.555l-2.387-2.685v-8.87h23v8h8v50zm14-32h10v.638l-4.468 5.362h-5.532z"/><path d="m32 5h19v2h-19z"/><path d="m32 9h19v2h-19z"/><path d="m32 57h2v2h-2z"/><path d="m36 57h23v2h-23z"/><path d="m32 53h27v2h-27z"/></g></g></svg>