<svg id="Layer_5" enable-background="new 0 0 64 64" height="512" viewBox="0 0 64 64" width="512" xmlns="http://www.w3.org/2000/svg"><g><g><path d="m43 20h12v8h-12z" fill="#f0bc5e"/></g><g><path d="m17 19h12v9h-12z" fill="#f0bc5e"/></g><g><g><path d="m16 63c-8.271 0-15-6.729-15-15s6.729-15 15-15 15 6.729 15 15-6.729 15-15 15zm0-25c-5.514 0-10 4.486-10 10s4.486 10 10 10 10-4.486 10-10-4.486-10-10-10z" fill="#f0bc5e"/></g></g><g><path d="m15 51c-.551 0-1-.448-1-1h-2c0 1.654 1.346 3 3 3v2h2v-2h3v-3c0-1.654-1.346-3-3-3h-2c-.551 0-1-.448-1-1v-1h3c.551 0 1 .448 1 1h2c0-1.654-1.346-3-3-3v-2h-2v2h-3v3c0 1.654 1.346 3 3 3h2c.551 0 1 .448 1 1v1z"/><path d="m19 17h34v-8h-34zm2-6h30v4h-30z"/><path d="m31 28c0 2.757 2.243 5 5 5s5-2.243 5-5-2.243-5-5-5-5 2.243-5 5zm8 0c0 1.654-1.346 3-3 3s-3-1.346-3-3 1.346-3 3-3 3 1.346 3 3z"/><path d="m17 19h2v2h-2z"/><path d="m21 19h34v2h-34z"/><path d="m43 23h12v2h-12z"/><path d="m43 27h12v2h-12z"/><path d="m17 23h12v2h-12z"/><path d="m17 27h12v2h-12z"/><path d="m58 1h-44c-2.757 0-5 2.243-5 5v28.744c.639-.339 1.31-.623 2-.868v-27.876c0-1.654 1.346-3 3-3h44c1.654 0 3 1.346 3 3v30c0 1.654-1.346 3-3 3h-30.028c.477.632.912 1.296 1.285 2h28.743c2.757 0 5-2.243 5-5v-30c0-2.757-2.243-5-5-5z"/><path d="m17 5v1c0 1.654-1.346 3-3 3h-1v24.302c.651-.133 1.322-.207 2-.252v-22.151c1.956-.398 3.501-1.943 3.899-3.899h34.201c.398 1.956 1.943 3.501 3.899 3.899v20.201c-1.956.398-3.501 1.943-3.899 3.899h-29.649c.98.564 1.887 1.237 2.712 2h28.837v-1c0-1.654 1.346-3 3-3h1v-23.999h-1c-1.654 0-3-1.346-3-3v-1z"/><path d="m16 57c-4.962 0-9-4.037-9-9 0-2.074.724-4.099 2.038-5.702l-1.547-1.268c-1.606 1.96-2.491 4.435-2.491 6.97 0 6.065 4.935 11 11 11 2.536 0 5.011-.885 6.97-2.491l-1.269-1.547c-1.602 1.314-3.627 2.038-5.701 2.038z"/><path d="m16 37c-2.536 0-5.011.885-6.97 2.491l1.269 1.547c1.602-1.314 3.627-2.038 5.701-2.038 4.962 0 9 4.037 9 9 0 2.074-.724 4.099-2.038 5.702l1.547 1.268c1.606-1.96 2.491-4.435 2.491-6.97 0-6.065-4.935-11-11-11z"/></g></g></svg>