<svg id="Layer_5" enable-background="new 0 0 64 64" height="512" viewBox="0 0 64 64" width="512" xmlns="http://www.w3.org/2000/svg"><g><g><g><path d="m60 54h2c0 2.21-.9 4.21-2.34 5.66-1.45 1.44-3.45 2.34-5.66 2.34h-44c-4.42 0-8-3.58-8-8h2 19c0 2.21 1.79 4 4 4h10c2.21 0 4-1.79 4-4z" fill="#969faa"/></g><g><path d="m23 54h18c0 2.21-1.79 4-4 4h-10c-2.21 0-4-1.79-4-4z" fill="#fcd770"/></g><g><path d="m56 14h-48c-2.21 0-4 1.79-4 4v36h19 18 19v-36c0-2.21-1.79-4-4-4z" fill="#e6e9ed"/></g><g><path d="m55 18h-46c-.55 0-1 .45-1 1v30c0 .55.45 1 1 1h46c.55 0 1-.45 1-1v-30c0-.55-.45-1-1-1z" fill="#69d6f4"/></g><g><circle cx="21" cy="43" fill="#ff826e" r="3"/></g><g><path d="m52 18v16c0 1.1-.9 2-2 2h-36c-1.1 0-2-.9-2-2v-16-4-10c0-1.1.9-2 2-2h36c1.1 0 2 .9 2 2v10z" fill="#f0d0b4"/></g><g><path d="m48 14h-8v-8c4.42 0 8 3.58 8 8z" fill="#5cd6b3"/></g><g><path d="m40 14h8c0 4.42-3.58 8-8 8s-8-3.58-8-8 3.58-8 8-8z" fill="#ff826e"/></g><g><path d="m16 24h12v8h-12z" fill="#e6e9ed"/></g><g><path d="m24 12h4v8h-4z" fill="#fcd770"/></g><g><path d="m16 6h4v14h-4z" fill="#fcd770"/></g></g><g><path d="m61 53v-35c0-2.757-2.243-5-5-5h-3v-9c0-1.654-1.346-3-3-3h-36c-1.654 0-3 1.346-3 3v9h-3c-2.757 0-5 2.243-5 5v35h-2v1c0 4.963 4.037 9 9 9h44c4.963 0 9-4.037 9-9v-1zm-47-16h36c1.654 0 3-1.346 3-3v-15h2v30h-46v-30h2v15c0 1.654 1.346 3 3 3zm-1-33c0-.551.448-1 1-1h36c.552 0 1 .449 1 1v30c0 .552-.448 1-1 1h-36c-.552 0-1-.448-1-1zm-8 14c0-1.654 1.346-3 3-3h3v2h-2c-1.103 0-2 .897-2 2v30c0 1.103.897 2 2 2h46c1.103 0 2-.897 2-2v-30c0-1.103-.897-2-2-2h-2v-2h3c1.654 0 3 1.346 3 3v35h-54zm34.816 37c-.414 1.161-1.514 2-2.816 2h-10c-1.302 0-2.402-.839-2.816-2zm14.184 6h-44c-3.521 0-6.442-2.612-6.929-6h19.03c.465 2.279 2.484 4 4.899 4h10c2.414 0 4.434-1.721 4.899-4h19.03c-.487 3.388-3.408 6-6.929 6z"/><path d="m11 44h6.142c.447 1.721 1.999 3 3.858 3s3.411-1.279 3.858-3h14.142v-2h-14.142c-.447-1.721-1.999-3-3.858-3s-3.411 1.279-3.858 3h-6.142zm10-3c1.103 0 2 .897 2 2s-.897 2-2 2-2-.897-2-2 .897-2 2-2z"/><path d="m47 42h2v2h-2z"/><path d="m43 42h2v2h-2z"/><path d="m51 42h2v2h-2z"/><path d="m40 23c4.963 0 9-4.038 9-9s-4.037-9-9-9-9 4.038-9 9 4.037 9 9 9zm6.92-10h-5.92v-5.92c3.059.441 5.479 2.861 5.92 5.92zm-7.92-5.92v7.92h7.92c-.488 3.387-3.401 6-6.92 6-3.859 0-7-3.14-7-7 0-3.519 2.614-6.432 6-6.92z"/><path d="m21 5h-6v16h6zm-2 14h-2v-12h2z"/><path d="m29 11h-6v10h6zm-2 8h-2v-6h2z"/><path d="m29 23h-14v10h14zm-2 8h-10v-6h10z"/><path d="m31 31h2v2h-2z"/><path d="m35 31h14v2h-14z"/><path d="m31 27h18v2h-18z"/></g></g></svg>