<svg id="Layer_5" enable-background="new 0 0 64 64" height="512" viewBox="0 0 64 64" width="512" xmlns="http://www.w3.org/2000/svg"><g><g><g fill="#aab2bd"><path d="m22 56v2c0 2.21-1.79 4-4 4h-12c-2.21 0-4-1.79-4-4v-2z"/><path d="m62 56v2c0 2.21-1.79 4-4 4h-12c-2.21 0-4-1.79-4-4v-2z"/><path d="m62 34v2h-20v-2c0-2.21 1.79-4 4-4l1.59 1.59c.26.26.62.41 1 .41.78 0 1.41-.63 1.41-1.41v-.59h8c2.21 0 4 1.79 4 4z"/><path d="m22 34v2h-20v-2c0-2.21 1.79-4 4-4h2v.15c0 1.02.83 1.85 1.85 1.85.71 0 1.35-.4 1.66-1.02l.49-.98h6c2.21 0 4 1.79 4 4z"/></g><path d="m22 36v20h-20v-20z" fill="#69d6f4"/><path d="m62 36v20h-20v-20z" fill="#69d6f4"/><path d="m58 52h-12c0-1.66.67-3.16 1.76-4.24 1.08-1.09 2.58-1.76 4.24-1.76 3.31 0 6 2.69 6 6z" fill="#fcd770"/><path d="m18 52h-12c0-1.66.67-3.16 1.76-4.24 1.08-1.09 2.58-1.76 4.24-1.76 3.31 0 6 2.69 6 6z" fill="#ff826e"/><circle cx="12" cy="43" fill="#f0d0b4" r="3"/><circle cx="52" cy="43" fill="#f0d0b4" r="3"/><path d="m38 4v6h-10c-1.1 0-2 .9-2 2v10h-10l-4 8-.49.98c-.31.62-.95 1.02-1.66 1.02-1.02 0-1.85-.83-1.85-1.85v-.15-26c0-1.1.9-2 2-2h26c1.1 0 2 .9 2 2z" fill="#ffeaa7"/><path d="m54 12v12c0 1.1-.9 2-2 2h-2v4 .59c0 .78-.63 1.41-1.41 1.41-.38 0-.74-.15-1-.41l-1.59-1.59-4-4h-14c-1.1 0-2-.9-2-2v-2-10c0-1.1.9-2 2-2h10 14c1.1 0 2 .9 2 2z" fill="#e6e9ed"/><circle cx="48" cy="18" fill="#ff826e" r="2"/><circle cx="40" cy="18" fill="#ff826e" r="2"/><circle cx="32" cy="18" fill="#ff826e" r="2"/></g><g><path d="m59 53v-1c0-2.801-1.658-5.216-4.04-6.334.64-.709 1.04-1.638 1.04-2.666 0-2.206-1.794-4-4-4s-4 1.794-4 4c0 1.028.4 1.957 1.04 2.666-2.382 1.118-4.04 3.533-4.04 6.334v1zm-9-10c0-1.103.897-2 2-2s2 .897 2 2-.897 2-2 2-2-.897-2-2zm2 4c2.415 0 4.435 1.721 4.899 4h-9.799c.465-2.279 2.485-4 4.9-4z"/><path d="m58 29h-7v-2h1c1.654 0 3-1.346 3-3v-12c0-1.654-1.346-3-3-3h-13v-5c0-1.654-1.346-3-3-3h-26c-1.654 0-3 1.346-3 3v25h-1c-2.757 0-5 2.243-5 5v24c0 2.757 2.243 5 5 5h12c2.757 0 5-2.243 5-5v-24c0-2.757-2.243-5-5-5h-4.382l3-6h8.382v1c0 1.654 1.346 3 3 3h13.586l2.42 2.42c-1.766.773-3.006 2.532-3.006 4.58v24c0 2.757 2.243 5 5 5h12c2.757 0 5-2.243 5-5v-24c0-2.757-2.243-5-5-5zm-55 8h18v18h-18zm15 24h-12c-1.654 0-3-1.346-3-3v-1h18v1c0 1.654-1.346 3-3 3zm0-30c1.654 0 3 1.346 3 3v1h-18v-1c0-1.654 1.346-3 3-3h1.145c.366 1.155 1.435 2 2.709 2 1.087 0 2.065-.604 2.553-1.578l.211-.422zm-2.618-10-4.764 9.527c-.145.292-.438.473-.764.473-.47 0-.854-.383-.854-.854v-26.146c0-.551.448-1 1-1h26c.552 0 1 .449 1 1v5h-9c-1.654 0-3 1.346-3 3v9zm12.618 4c-.552 0-1-.449-1-1v-12c0-.551.448-1 1-1h24c.552 0 1 .449 1 1v12c0 .551-.448 1-1 1h-3v5.586c0 .338-.469.531-.707.293l-5.879-5.879zm17.624 6.038 1.254 1.254c.449.45 1.071.708 1.708.708 1.189 0 2.174-.866 2.372-2h7.042c1.654 0 3 1.346 3 3v1h-18v-1c0-1.525 1.148-2.774 2.624-2.962zm15.376 5.962v18h-18v-18zm-3 24h-12c-1.654 0-3-1.346-3-3v-1h18v1c0 1.654-1.346 3-3 3z"/><path d="m14.96 45.666c.64-.709 1.04-1.638 1.04-2.666 0-2.206-1.794-4-4-4s-4 1.794-4 4c0 1.028.4 1.957 1.04 2.666-2.382 1.118-4.04 3.533-4.04 6.334v1h14v-1c0-2.801-1.658-5.216-4.04-6.334zm-4.96-2.666c0-1.103.897-2 2-2s2 .897 2 2-.897 2-2 2-2-.897-2-2zm-2.899 8c.465-2.279 2.484-4 4.899-4s4.435 1.721 4.899 4z"/><path d="m32 15c-1.654 0-3 1.346-3 3s1.346 3 3 3 3-1.346 3-3-1.346-3-3-3zm0 4c-.552 0-1-.449-1-1s.448-1 1-1 1 .449 1 1-.448 1-1 1z"/><path d="m40 15c-1.654 0-3 1.346-3 3s1.346 3 3 3 3-1.346 3-3-1.346-3-3-3zm0 4c-.552 0-1-.449-1-1s.448-1 1-1 1 .449 1 1-.448 1-1 1z"/><path d="m51 18c0-1.654-1.346-3-3-3s-3 1.346-3 3 1.346 3 3 3 3-1.346 3-3zm-3 1c-.552 0-1-.449-1-1s.448-1 1-1 1 .449 1 1-.448 1-1 1z"/><path d="m11 5h2v2h-2z"/><path d="m15 5h20v2h-20z"/><path d="m11 9h12v2h-12z"/><path d="m11 13h12v2h-12z"/><path d="m11 17h12v2h-12z"/><path d="m30.293 51.707 1.414-1.414-1.293-1.293h8.586v-2h-13.414z"/><path d="m25 45h13.414l-4.707-4.707-1.414 1.414 1.293 1.293h-8.586z"/></g></g></svg>