<svg id="Layer_5" enable-background="new 0 0 64 64" height="512" viewBox="0 0 64 64" width="512" xmlns="http://www.w3.org/2000/svg"><g><g><path d="m18 39c0-1.657 1.343-3 3-3h1.838c-.536-1.226-.838-2.577-.838-4h-19v17.971l16.338.016 2.662-7.987h-1c-1.657 0-3-1.343-3-3z" fill="#f0bc5e"/></g><g><path d="m32 22c1.045 0 2.053.162 3 .459v-12.459h-32v17.971l19.843.019c1.546-3.525 5.062-5.99 9.157-5.99z" fill="#f0bc5e"/></g><g><path d="m58.066 51.684-1.898.632.736 2.208c.064.191.096.391.096.593 0 1.038-.845 1.883-1.883 1.883h-5.117v2h5.117c2.141 0 3.883-1.742 3.883-3.883 0-.418-.066-.83-.198-1.226z"/><path d="m21.199 53.89c-.042.126-.077.254-.106.384l1.953.434c.014-.063.031-.126.052-.187l.538-1.616-1.898-.632z"/><path d="m22.636 48.744h2v1.999h-2z" transform="matrix(.317 -.949 .949 .317 -31.031 56.419)"/><path d="m23.9 44.949h2v1.999h-2z" transform="matrix(.317 -.949 .949 .317 -26.567 55.025)"/><path d="m59.374 42.962c2.029-.192 3.626-1.885 3.626-3.962 0-2.206-1.794-4-4-4h-.261c-.727-7.617-3.085-15.122-6.879-21.76-.789-1.382-2.268-2.24-3.86-2.24s-3.071.858-3.86 2.24c-1.932 3.381-3.491 6.988-4.657 10.718-2.02-1.889-4.657-2.958-7.483-2.958-4.264 0-7.961 2.444-9.786 6h-19.214c-1.103 0-2 .897-2 2v2c0 1.103.897 2 2 2h18.051c.061.68.191 1.347.376 2h-.427c-2.206 0-4 1.794-4 4 0 2.077 1.597 3.77 3.626 3.962l-2.013 6.038h-15.613c-1.103 0-2 .897-2 2v2c0 1.103.897 2 2 2h14.009c0 .039-.009.078-.009.117 0 4.347 3.536 7.883 7.883 7.883h30.234c4.347 0 7.883-3.536 7.883-7.883 0-.85-.137-1.689-.405-2.493zm-12.374-25.962h2v2h-2zm2 4v2h-2v-2zm-6 4h2v2h-2zm10 2h-2v-2h2zm-4 0h-2v-2h2zm-6 2h2v2h-2zm4 0h2v2h-2zm4 0h2v2h-2zm4-3.085c.475 1.676.872 3.372 1.178 5.085h-1.178zm-2-2.915h-2v-2h2zm-8 0h-2v-2h2zm-4 8h-1.178c.306-1.713.703-3.409 1.178-5.085zm-1.504 2h1.504v2h-1.728c.066-.668.132-1.335.224-2zm3.504 0h2v2h-2zm4 0h2v2h-2zm4 0h2v2h-2zm4 0h1.504c.092.665.158 1.332.225 2h-1.729zm-2.482-14h-1.518v-3.129c.538 1.026 1.049 2.067 1.518 3.129zm-3.518-5.764v1.764h-2v-1.764c.312-.141.647-.236 1-.236s.688.095 1 .236zm-4 2.635v3.129h-1.518c.469-1.062.98-2.103 1.518-3.129zm-42 13.129h18.426c-.183.645-.313 1.313-.376 2h-18.05zm20 3c0-4.962 4.037-9 9-9 2.67 0 5.135 1.162 6.85 3.185-.772 2.893-1.305 5.844-1.589 8.815h-13.739c-.34-.96-.522-1.965-.522-3zm-4 7c0-1.103.897-2 2-2h38c1.103 0 2 .897 2 2s-.897 2-2 2h-38c-1.103 0-2-.897-2-2zm-16 14v-2h14.946l-.541 1.624c-.041.123-.058.252-.093.376zm52.117 8h-30.234c-3.244 0-5.883-2.639-5.883-5.883 0-.634.102-1.26.302-1.86l3.418-10.257h34.56l3.419 10.257c.2.6.302 1.226.302 1.86-.001 3.244-2.64 5.883-5.884 5.883z"/><path d="m34 26c0 .408-.779 1-2 1s-2-.592-2-1h-2c0 1.682 1.757 3 4 3s4-1.318 4-3z"/><path d="m3 11h32c1.103 0 2-.897 2-2v-2c0-1.103-.897-2-2-2h-16.382l-2-4h-11.618v4h-2c-1.103 0-2 .897-2 2v2c0 1.103.897 2 2 2zm4-8h8.382l1 2h-9.382zm-4 4h32l.001 2h-32.001z"/><path d="m46 57h2v2h-2z"/><path d="m42 57h2v2h-2z"/></g></g></svg>