<svg id="Layer_5" enable-background="new 0 0 64 64" height="512" viewBox="0 0 64 64" width="512" xmlns="http://www.w3.org/2000/svg"><g><g><path d="m10 58h10v4h-10z" fill="#aab2bd"/><path d="m44 58h10v4h-10z" fill="#aab2bd"/><path d="m28 54v2c0 1.1-.9 2-2 2h-6-10-6c-1.1 0-2-.9-2-2v-2z" fill="#ccd1d9"/><path d="m62 54v2c0 1.1-.9 2-2 2h-6-10-6c-1.1 0-2-.9-2-2v-2z" fill="#ccd1d9"/><path d="m28 44.92v9.08h-26v-12c0-1.1.9-2 2-2h20.25c.54 2.1 1.91 3.87 3.75 4.92z" fill="#69d6f4"/><path d="m62 42v12h-26v-9.08c.61-.34 1.17-.77 1.66-1.26.99-1 1.72-2.25 2.09-3.66h20.25c1.1 0 2 .9 2 2z" fill="#69d6f4"/><path d="m24 38h16c0 .69-.09 1.36-.25 2-.37 1.41-1.1 2.66-2.09 3.66-.49.49-1.05.92-1.66 1.26-1.17.69-2.54 1.08-4 1.08s-2.83-.39-4-1.08c-1.84-1.05-3.21-2.82-3.75-4.92-.16-.64-.25-1.31-.25-2z" fill="#aab2bd"/><path d="m24 34h16v4h-16z" fill="#ccd1d9"/><path d="m48 18v.39c0 1.93-.35 3.83-1.02 5.61-.59 1.58-1.43 3.05-2.49 4.38l-4.49 5.62h-16l-4.49-5.62c-1.06-1.33-1.9-2.8-2.49-4.38-.67-1.78-1.02-3.68-1.02-5.61v-.39c0-4.42 1.79-8.42 4.68-11.32 2.9-2.89 6.9-4.68 11.32-4.68 8.84 0 16 7.16 16 16z" fill="#ffeaa7"/><circle cx="32" cy="18" fill="#69d6f4" r="12"/><g fill="#ff826e"><circle cx="4" cy="8" r="2"/><circle cx="4" cy="18" r="2"/><circle cx="4" cy="28" r="2"/><circle cx="60" cy="18" r="2"/><circle cx="60" cy="8" r="2"/><circle cx="60" cy="28" r="2"/></g></g><g><path d="m53 43h2v2h-2z"/><path d="m57 43h2v2h-2z"/><path d="m49 43h2v2h-2z"/><path d="m13.344 49h2v2h-2z"/><path d="m5.344 49h2v2h-2z"/><path d="m9.344 49h2v2h-2z"/><path d="m32 5c-7.168 0-13 5.832-13 13s5.832 13 13 13 13-5.832 13-13-5.832-13-13-13zm0 24c-1.359 0-2.806-1.499-3.792-4h7.584c-.986 2.501-2.433 4-3.792 4zm-4.419-6c-.295-1.2-.493-2.541-.556-4h9.949c-.062 1.459-.261 2.8-.556 4zm-6.53-4h3.976c.056 1.413.223 2.758.495 4h-3.307c-.627-1.221-1.035-2.57-1.164-4zm10.949-12c1.359 0 2.806 1.499 3.792 4h-7.584c.986-2.501 2.433-4 3.792-4zm4.419 6c.295 1.2.493 2.541.556 4h-9.949c.062-1.459.261-2.8.556-4zm-11.393 4h-3.976c.13-1.43.537-2.779 1.164-4h3.307c-.271 1.242-.439 2.587-.495 4zm13.948 2h3.976c-.13 1.43-.537 2.779-1.164 4h-3.307c.271-1.242.439-2.587.495-4zm0-2c-.056-1.413-.223-2.758-.495-4h3.307c.626 1.221 1.034 2.57 1.164 4zm1.505-6h-2.556c-.387-1.144-.864-2.168-1.421-3.026 1.546.697 2.908 1.734 3.977 3.026zm-12.981-3.026c-.556.858-1.033 1.882-1.421 3.026h-2.556c1.069-1.292 2.431-2.329 3.977-3.026zm-3.977 17.026h2.556c.387 1.144.864 2.168 1.421 3.026-1.546-.697-2.908-1.734-3.977-3.026zm12.981 3.026c.557-.858 1.034-1.882 1.421-3.026h2.556c-1.069 1.292-2.431 2.329-3.977 3.026z"/><path d="m57.184 19c.414 1.161 1.514 2 2.816 2 1.654 0 3-1.346 3-3s-1.346-3-3-3c-1.302 0-2.402.839-2.816 2h-8.235c-.081-1.382-.309-2.725-.702-4h2.517c1.144 0 2.171-.636 2.683-1.658l.895-1.789c.17-.341.513-.553.894-.553h1.948c.414 1.161 1.514 2 2.816 2 1.654 0 3-1.346 3-3s-1.346-3-3-3c-1.302 0-2.402.839-2.816 2h-1.948c-1.144 0-2.171.636-2.683 1.658l-.895 1.789c-.17.341-.513.553-.894.553h-3.29c-2.674-5.888-8.597-10-15.474-10s-12.8 4.112-15.474 10h-3.29c-.381 0-.724-.212-.894-.553l-.895-1.789c-.511-1.022-1.539-1.658-2.683-1.658h-1.948c-.414-1.161-1.514-2-2.816-2-1.654 0-3 1.346-3 3s1.346 3 3 3c1.302 0 2.402-.839 2.816-2h1.948c.381 0 .724.212.894.553l.895 1.789c.511 1.022 1.539 1.658 2.683 1.658h2.517c-.393 1.275-.621 2.618-.702 4h-8.235c-.414-1.161-1.514-2-2.816-2-1.654 0-3 1.346-3 3s1.346 3 3 3c1.302 0 2.402-.839 2.816-2h8.21c.05 1.358.259 2.701.627 4h-2.417c-1.144 0-2.171.636-2.683 1.658l-.895 1.789c-.17.341-.513.553-.894.553h-1.948c-.414-1.161-1.514-2-2.816-2-1.654 0-3 1.346-3 3s1.346 3 3 3c1.302 0 2.402-.839 2.816-2h1.948c1.144 0 2.171-.636 2.683-1.658l.895-1.789c.17-.341.513-.553.894-.553h3.119c.604 1.431 1.392 2.785 2.371 4.008l4.274 5.343v3.649c0 .338.022.671.059 1h-19.059c-1.654 0-3 1.346-3 3v14c0 1.654 1.346 3 3 3h5v2h-2v2h16v-2h-2v-2h5c1.654 0 3-1.346 3-3v-9.525c.94.334 1.947.525 3 .525s2.06-.191 3-.525v9.525c0 1.654 1.346 3 3 3h5v2h-2v2h16v-2h-2v-2h5c1.654 0 3-1.346 3-3v-14c0-1.654-1.346-3-3-3h-19.059c.037-.329.059-.662.059-1v-3.649l4.275-5.343c.978-1.223 1.767-2.577 2.371-4.008h3.119c.381 0 .724.212.894.553l.895 1.789c.51 1.022 1.538 1.658 2.682 1.658h1.948c.414 1.161 1.514 2 2.816 2 1.654 0 3-1.346 3-3s-1.346-3-3-3c-1.302 0-2.402.839-2.816 2h-1.948c-.381 0-.724-.212-.894-.553l-.895-1.789c-.511-1.022-1.539-1.658-2.683-1.658h-2.417c.367-1.299.577-2.642.627-4zm2.816-12c.551 0 1 .448 1 1s-.449 1-1 1-1-.448-1-1 .449-1 1-1zm-56 2c-.551 0-1-.448-1-1s.449-1 1-1 1 .448 1 1-.449 1-1 1zm0 20c-.551 0-1-.448-1-1s.449-1 1-1 1 .448 1 1-.449 1-1 1zm56-2c.551 0 1 .448 1 1s-.449 1-1 1-1-.448-1-1 .449-1 1-1zm0-10c.551 0 1 .448 1 1s-.449 1-1 1-1-.448-1-1 .449-1 1-1zm-56 2c-.551 0-1-.448-1-1s.449-1 1-1 1 .448 1 1-.449 1-1 1zm21 16h14v2h-14zm-6 26h-8v-2h8zm7-4h-22c-.551 0-1-.448-1-1v-1h24v1c0 .552-.449 1-1 1zm1-4h-24v-11c0-.552.449-1 1-1h19.525c.653 1.839 1.88 3.408 3.475 4.478zm-1.92-14h13.84c-.488 3.386-3.401 6-6.92 6s-6.432-2.614-6.92-6zm27.92 22h-8v-2h8zm7-4h-22c-.551 0-1-.448-1-1v-1h24v1c0 .552-.449 1-1 1zm0-16c.551 0 1 .448 1 1v11h-24v-7.522c1.595-1.07 2.822-2.639 3.475-4.478zm-16.287-13.242-4.193 5.242h-15.04l-4.194-5.242c-2.119-2.65-3.286-5.977-3.286-9.37v-.388c0-8.271 6.729-15 15-15s15 6.729 15 15v.388c0 3.393-1.167 6.72-3.287 9.37z"/></g></g></svg>