<svg id="Layer_5" enable-background="new 0 0 64 64" height="512" viewBox="0 0 64 64" width="512" xmlns="http://www.w3.org/2000/svg"><g><g><g><path d="m32 45c-7.168 0-13-5.832-13-13s5.832-13 13-13 13 5.832 13 13-5.832 13-13 13z" fill="#f0bc5e"/></g></g><g><path d="m33 25v-2h-2v2h-2v14h2v2h2v-2c2.206 0 4-1.794 4-4 0-1.193-.525-2.267-1.357-3 .832-.733 1.357-1.807 1.357-3 0-2.206-1.794-4-4-4zm0 12h-2v-4h2c1.103 0 2 .897 2 2s-.897 2-2 2zm0-6h-2v-4h2c1.103 0 2 .897 2 2s-.897 2-2 2z"/><path d="m46.816 21h10.369c.414 1.161 1.514 2 2.816 2 1.654 0 3-1.346 3-3s-1.346-3-3-3c-1.302 0-2.402.839-2.816 2h-2.77l4.301-4.301c.39.188.822.301 1.284.301 1.654 0 3-1.346 3-3s-1.346-3-3-3-3 1.346-3 3c0 .462.113.894.301 1.285l-5.715 5.715h-4.77c-.302-.847-.969-1.514-1.816-1.816v-4.77l5.715-5.715c.391.188.823.301 1.285.301 1.654 0 3-1.346 3-3s-1.346-3-3-3-3 1.346-3 3c0 .462.113.894.301 1.285l-4.301 4.301v-2.77c1.161-.414 2-1.514 2-2.816 0-1.654-1.346-3-3-3s-3 1.346-3 3c0 1.302.839 2.402 2 2.816v10.369c-.503.18-.94.488-1.279.888-2.841-1.984-6.247-3.073-9.721-3.073s-6.88 1.089-9.721 3.072c-.339-.4-.776-.708-1.279-.888v-10.368c1.161-.414 2-1.514 2-2.816 0-1.654-1.346-3-3-3s-3 1.346-3 3c0 1.302.839 2.402 2 2.816v2.77l-4.301-4.301c.188-.391.301-.823.301-1.285 0-1.654-1.346-3-3-3s-3 1.346-3 3 1.346 3 3 3c.462 0 .894-.113 1.285-.301l5.715 5.715v4.77c-.847.302-1.514.969-1.816 1.816h-4.77l-5.715-5.715c.188-.391.301-.823.301-1.285 0-1.654-1.346-3-3-3s-3 1.346-3 3 1.346 3 3 3c.462 0 .894-.113 1.285-.301l4.301 4.301h-2.77c-.414-1.161-1.514-2-2.816-2-1.654 0-3 1.346-3 3s1.346 3 3 3c1.302 0 2.402-.839 2.816-2h10.369c.179.503.487.94.887 1.279-1.984 2.842-3.072 6.247-3.072 9.721s1.088 6.879 3.072 9.721c-.4.339-.708.776-.887 1.279h-10.369c-.414-1.161-1.514-2-2.816-2-1.654 0-3 1.346-3 3s1.346 3 3 3c1.302 0 2.402-.839 2.816-2h2.77l-4.301 4.301c-.391-.188-.823-.301-1.285-.301-1.654 0-3 1.346-3 3s1.346 3 3 3 3-1.346 3-3c0-.462-.113-.894-.301-1.285l5.715-5.715h4.77c.302.847.969 1.514 1.816 1.816v4.77l-5.715 5.715c-.391-.188-.823-.301-1.285-.301-1.654 0-3 1.346-3 3s1.346 3 3 3 3-1.346 3-3c0-.462-.113-.894-.301-1.285l4.301-4.301v2.77c-1.161.414-2 1.514-2 2.816 0 1.654 1.346 3 3 3s3-1.346 3-3c0-1.302-.839-2.402-2-2.816v-10.368c.503-.18.94-.488 1.279-.888 2.841 1.983 6.247 3.072 9.721 3.072s6.88-1.089 9.721-3.072c.339.4.776.708 1.279.888v10.369c-1.161.414-2 1.514-2 2.816 0 1.654 1.346 3 3 3s3-1.346 3-3c0-1.302-.839-2.402-2-2.816v-2.77l4.301 4.301c-.188.39-.301.822-.301 1.284 0 1.654 1.346 3 3 3s3-1.346 3-3-1.346-3-3-3c-.462 0-.894.113-1.285.301l-5.715-5.715v-4.77c.847-.302 1.514-.969 1.816-1.816h4.77l5.715 5.715c-.188.391-.301.823-.301 1.285 0 1.654 1.346 3 3 3s3-1.346 3-3-1.346-3-3-3c-.462 0-.894.113-1.285.301l-4.301-4.301h2.77c.414 1.161 1.514 2 2.816 2 1.654 0 3-1.346 3-3s-1.346-3-3-3c-1.302 0-2.402.839-2.816 2h-10.368c-.179-.503-.487-.94-.887-1.279 1.983-2.842 3.071-6.247 3.071-9.721s-1.088-6.879-3.072-9.721c.4-.339.708-.776.888-1.279zm13.184-10c.552 0 1 .449 1 1s-.448 1-1 1-1-.449-1-1 .448-1 1-1zm-8-8c.552 0 1 .449 1 1s-.448 1-1 1-1-.449-1-1 .448-1 1-1zm-41 1c0-.551.448-1 1-1s1 .449 1 1-.448 1-1 1-1-.449-1-1zm-8 8c0-.551.448-1 1-1s1 .449 1 1-.448 1-1 1-1-.449-1-1zm1 41c-.552 0-1-.449-1-1s.448-1 1-1 1 .449 1 1-.448 1-1 1zm8 8c-.552 0-1-.449-1-1s.448-1 1-1 1 .449 1 1-.448 1-1 1zm41-1c0 .551-.448 1-1 1s-1-.449-1-1 .448-1 1-1 1 .449 1 1zm8-8c0 .551-.448 1-1 1s-1-.449-1-1 .448-1 1-1 1 .449 1 1zm-1-33c.552 0 1 .449 1 1s-.448 1-1 1-1-.449-1-1 .448-1 1-1zm-16-16c.552 0 1 .449 1 1s-.448 1-1 1-1-.449-1-1 .448-1 1-1zm0 16c.552 0 1 .449 1 1s-.448 1-1 1-1-.449-1-1 .448-1 1-1zm-24-16c.552 0 1 .449 1 1s-.448 1-1 1-1-.449-1-1 .448-1 1-1zm0 16c.552 0 1 .449 1 1s-.448 1-1 1-1-.449-1-1 .448-1 1-1zm-16 2c-.552 0-1-.449-1-1s.448-1 1-1 1 .449 1 1-.448 1-1 1zm0 24c-.552 0-1-.449-1-1s.448-1 1-1 1 .449 1 1-.448 1-1 1zm16 16c-.552 0-1-.449-1-1s.448-1 1-1 1 .449 1 1-.448 1-1 1zm0-16c-.552 0-1-.449-1-1s.448-1 1-1 1 .449 1 1-.448 1-1 1zm24 16c-.552 0-1-.449-1-1s.448-1 1-1 1 .449 1 1-.448 1-1 1zm0-16c-.552 0-1-.449-1-1s.448-1 1-1 1 .449 1 1-.448 1-1 1zm16-2c.552 0 1 .449 1 1s-.448 1-1 1-1-.449-1-1 .448-1 1-1zm-16.025-1.997c-1.634.014-2.959 1.338-2.973 2.972-2.614 1.973-5.711 3.025-9.002 3.025s-6.388-1.052-9.003-3.025c-.014-1.634-1.339-2.959-2.973-2.972-1.972-2.616-3.024-5.713-3.024-9.003s1.052-6.387 3.025-9.003c1.634-.014 2.959-1.338 2.973-2.972 2.614-1.973 5.711-3.025 9.002-3.025s6.388 1.052 9.003 3.025c.014 1.634 1.339 2.959 2.973 2.972 1.972 2.616 3.024 5.713 3.024 9.003s-1.052 6.387-3.025 9.003z"/></g></g></svg>