<svg id="Layer_5" enable-background="new 0 0 64 64" height="512" viewBox="0 0 64 64" width="512" xmlns="http://www.w3.org/2000/svg"><g><g><g><path d="m60 54h-48-2c0 4.42 3.58 8 8 8h36c2.21 0 4.21-.9 5.66-2.34 1.44-1.45 2.34-3.45 2.34-5.66z" fill="#969faa"/></g><g><path d="m29 54h14c0 2.21-1.79 4-4 4h-6c-2.21 0-4-1.79-4-4z" fill="#fcd770"/></g><g><path d="m60 18v36h-17-14-17v-19.04-.01c.36.21.73.41 1.11.6.58.3 1.23.45 1.89.45.34 0 .67-.04 1-.12v13.12c0 .55.45 1 1 1h38c.55 0 1-.45 1-1v-30c0-.55-.45-1-1-1h-27-.01c.01-.14.01-.28.01-.42v-3.58h28c2.21 0 4 1.79 4 4z" fill="#e6e9ed"/></g><g><path d="m56 19v30c0 .55-.45 1-1 1h-38c-.55 0-1-.45-1-1v-13.12c.31-.07.61-.18.89-.33 6.68-3.34 10.95-10.1 11.1-17.55h.01 27c.55 0 1 .45 1 1z" fill="#69d6f4"/></g><g><path d="m52 43.27v2.73h-22v-2.73c0-1.9 1.34-3.54 3.21-3.92l3.61-.73c.36-.1.69-.26.97-.48l3.21 3.86 3.21-3.86c.28.22.61.38.97.48l3.61.73c1.87.38 3.21 2.02 3.21 3.92z" fill="#ff826e"/></g><g><path d="m44.21 38.14-3.21 3.86-3.21-3.86c.57-.42.97-1.03 1.13-1.72v-.01c.61.38 1.32.59 2.08.59s1.47-.21 2.08-.59v.01c.16.69.56 1.3 1.13 1.72z" fill="#f0d0b4"/></g><g><path d="m47.41 30.59c.37.36.59.86.59 1.41 0 1.1-.9 2-2 2h-1.13c.09-.32.13-.65.13-1v-3h1c.55 0 1.05.22 1.41.59z" fill="#f0d0b4"/></g><g><path d="m44.87 34c-.26 1.02-.91 1.88-1.79 2.41-.61.38-1.32.59-2.08.59s-1.47-.21-2.08-.59c-.27-.16-.52-.36-.75-.58-.49-.5-.86-1.13-1.04-1.83-.09-.32-.13-.65-.13-1v-2c0-.36.1-.71.27-1 .35-.6.99-1 1.73-1 1.32.66 2.77 1 4.24 1h1.76v3c0 .35-.04.68-.13 1z" fill="#f0d0b4"/></g><g><path d="m36 30h1.27c-.17.29-.27.64-.27 1v2c0 .35.04.68.13 1h-1.13c-.55 0-1.05-.22-1.41-.59-.37-.36-.59-.86-.59-1.41 0-1.1.9-2 2-2z" fill="#f0d0b4"/></g><g><path d="m48 29v3c0-.55-.22-1.05-.59-1.41-.36-.37-.86-.59-1.41-.59h-1-1.76c-1.47 0-2.92-.34-4.24-1-.74 0-1.38.4-1.73 1h-1.27c-1.1 0-2 .9-2 2v-3c0-3.87 3.13-7 7-7 1.94 0 3.68.78 4.95 2.05s2.05 3.01 2.05 4.95z" fill="#b27946"/></g><g><path d="m28 14v3.58c0 .14 0 .28-.01.42-.15 7.45-4.42 14.21-11.1 17.55-.28.15-.58.26-.89.33-.33.08-.66.12-1 .12-.66 0-1.31-.15-1.89-.45-.38-.19-.75-.39-1.11-.6-2.9-1.68-5.28-4.04-7-6.81-1.92-3.11-3-6.76-3-10.56v-11.58h3.34c3.63 0 7.1-1.44 9.66-4 1.28 1.28 2.79 2.28 4.43 2.96s3.41 1.04 5.23 1.04h3.34z" fill="#48cfad"/></g><g><path d="m21 19v8c0 1.1-.9 2-2 2h-8c-1.1 0-2-.9-2-2v-8c0-1.1.9-2 2-2h8c1.1 0 2 .9 2 2z" fill="#fcd770"/></g><g><circle cx="15" cy="22" fill="#e6e9ed" r="2"/></g></g><g><path d="m48.99 38.372-3.54-.712c-.502-.143-.914-.479-1.17-.917.548-.481.999-1.067 1.296-1.743h.424c1.654 0 3-1.346 3-3v-3c0-4.411-3.589-8-8-8s-8 3.589-8 8v3c0 1.654 1.346 3 3 3h.424c.297.677.749 1.263 1.297 1.744-.252.436-.649.768-1.095.897l-3.616.73c-2.324.469-4.01 2.53-4.01 4.901v3.728h24v-3.727c0-2.371-1.687-4.432-4.01-4.901zm-10.99-5.372v-2c0-.486.349-.893.809-.982 1.38.643 2.905.982 4.427.982h.764v2c0 1.654-1.346 3-3 3s-3-1.346-3-3zm8 0v-2c.551 0 1 .449 1 1s-.449 1-1 1zm-11-1c0-.551.449-1 1-1v2c-.551 0-1-.449-1-1zm1.78-3h-.78c-.352 0-.686.072-1 .184v-.184c0-3.309 2.691-6 6-6s6 2.691 6 6v.184c-.314-.112-.648-.184-1-.184h-1-1.764c-1.308 0-2.618-.309-3.789-.895l-.211-.105h-.236c-.883 0-1.67.391-2.22 1zm4.22 9c.541 0 1.052-.108 1.541-.268.096.165.204.321.323.47l-1.864 2.236-1.861-2.233c.118-.15.226-.307.322-.473.488.16.999.268 1.539.268zm10 7h-20v-1.727c0-1.422 1.012-2.659 2.406-2.941l3.692-.749c.155-.044.304-.101.451-.162l3.451 4.141 3.455-4.146c.168.072.342.134.523.185l3.617.73c1.393.283 2.405 1.52 2.405 2.942z"/><path d="m61 53v-35c0-2.757-2.243-5-5-5h-27v-8h-4.343c-3.381 0-6.559-1.316-8.95-3.707l-.707-.707-.707.707c-2.391 2.391-5.569 3.707-8.95 3.707h-4.343v12.583c0 7.4 3.791 14.104 10 17.929v17.488h-2v1c0 4.962 4.038 9 9 9h36c4.962 0 9-4.038 9-9v-1zm-44-16.406c.114-.047.231-.091.341-.146 6.767-3.383 11.119-9.983 11.61-17.448h26.049v30h-38zm-14-19.011v-10.583h2.343c3.591 0 6.984-1.282 9.657-3.63 2.673 2.348 6.066 3.63 9.657 3.63h2.343v10.583c0 7.278-4.043 13.82-10.553 17.075-.895.447-2 .447-2.895 0-6.509-3.254-10.552-9.797-10.552-17.075zm10 19.011c.633.261 1.316.406 2 .406v12c0 1.103.897 2 2 2h38c1.103 0 2-.897 2-2v-30c0-1.103-.897-2-2-2h-26v-2h27c1.654 0 3 1.346 3 3v35h-46zm28.816 18.406c-.414 1.161-1.514 2-2.816 2h-6c-1.302 0-2.402-.839-2.816-2zm12.184 6h-36c-3.521 0-6.442-2.612-6.929-6h17.03c.465 2.279 2.484 4 4.899 4h6c2.414 0 4.434-1.721 4.899-4h17.03c-.487 3.388-3.408 6-6.929 6z"/><path d="m22 27v-8c0-1.302-.839-2.402-2-2.816v-3.184c0-2.757-2.243-5-5-5s-5 2.243-5 5v3.184c-1.161.414-2 1.514-2 2.816v8c0 1.654 1.346 3 3 3h8c1.654 0 3-1.346 3-3zm-7-17c1.654 0 3 1.346 3 3v3h-6v-3c0-1.654 1.346-3 3-3zm-5 17v-8c0-.551.449-1 1-1h8c.551 0 1 .449 1 1v8c0 .551-.449 1-1 1h-8c-.551 0-1-.449-1-1z"/><path d="m15 19c-1.654 0-3 1.346-3 3 0 1.302.839 2.402 2 2.816v2.184h2v-2.184c1.161-.414 2-1.514 2-2.816 0-1.654-1.346-3-3-3zm0 4c-.551 0-1-.449-1-1s.449-1 1-1 1 .449 1 1-.449 1-1 1z"/><path d="m19 45h8v2h-8z"/><path d="m19 41h8v2h-8z"/><path d="m19 37h8v2h-8z"/></g></g></svg>