<svg id="Layer_5" enable-background="new 0 0 64 64" height="512" viewBox="0 0 64 64" width="512" xmlns="http://www.w3.org/2000/svg"><g><g><g><path d="m16 31c-8.271 0-15-6.729-15-15s6.729-15 15-15 15 6.729 15 15-6.729 15-15 15zm0-25c-5.514 0-10 4.486-10 10s4.486 10 10 10 10-4.486 10-10-4.486-10-10-10z" fill="#f0bc5e"/></g></g><g><g><path d="m48 63c-8.271 0-15-6.729-15-15s6.729-15 15-15 15 6.729 15 15-6.729 15-15 15zm0-25c-5.514 0-10 4.486-10 10s4.486 10 10 10 10-4.486 10-10-4.486-10-10-10z" fill="#f0bc5e"/></g></g><g><path d="m17 13c.551 0 1 .449 1 1h2c0-1.654-1.346-3-3-3v-2h-2v2h-3v3c0 1.654 1.346 3 3 3h2c.551 0 1 .449 1 1v1h-3c-.551 0-1-.449-1-1h-2c0 1.654 1.346 3 3 3v2h2v-2h3v-3c0-1.654-1.346-3-3-3h-2c-.551 0-1-.449-1-1v-1z"/><path d="m51.293 42.293-3.293 3.293-3.293-3.293-1.414 1.414 3.293 3.293h-1.586v2h2v2h-2v2h2v2h2v-2h2v-2h-2v-2h2v-2h-1.586l3.293-3.293z"/><path d="m24 32c0-1.474.417-2.911 1.192-4.172-.885.689-1.847 1.278-2.874 1.758-.197.787-.318 1.594-.318 2.414 0 5.514 4.486 10 10 10 .82 0 1.627-.121 2.415-.318.479-1.026 1.068-1.989 1.757-2.873-1.262.774-2.699 1.191-4.172 1.191-4.411 0-8-3.589-8-8z"/><path d="m27.828 25.192c1.261-.775 2.698-1.192 4.172-1.192 4.411 0 8 3.589 8 8 0 1.474-.417 2.91-1.192 4.172.885-.689 1.847-1.278 2.874-1.757.197-.788.318-1.595.318-2.415 0-5.514-4.486-10-10-10-.82 0-1.627.121-2.415.318-.479 1.027-1.068 1.989-1.757 2.874z"/><path d="m16.039 30.998c-.025.347-.039.678-.039 1.002 0 8.822 7.178 16 16 16 .323 0 .655-.014 1.002-.039.002-.688.065-1.361.157-2.025-.409.038-.798.064-1.159.064-7.72 0-14-6.28-14-14 0-.362.026-.75.064-1.159-.663.092-1.336.155-2.025.157z"/><path d="m47.961 33.002c.025-.347.039-.678.039-1.002 0-8.822-7.178-16-16-16-.324 0-.655.014-1.002.039-.002.688-.065 1.361-.157 2.025.409-.038.797-.064 1.159-.064 7.72 0 14 6.28 14 14 0 .362-.026.75-.064 1.159.663-.092 1.336-.155 2.025-.157z"/><path d="m10.128 29.801c-.086.795-.128 1.508-.128 2.199 0 12.131 9.869 22 22 22 .691 0 1.404-.042 2.199-.128-.268-.626-.479-1.28-.66-1.947-.545.048-1.052.075-1.539.075-11.028 0-20-8.972-20-20 0-.487.026-.994.075-1.539-.667-.181-1.32-.393-1.947-.66z"/><path d="m53.872 34.199c.086-.795.128-1.508.128-2.199 0-12.131-9.869-22-22-22-.691 0-1.404.042-2.199.128.268.626.479 1.28.66 1.946.545-.048 1.052-.074 1.539-.074 11.028 0 20 8.972 20 20 0 .487-.026.994-.075 1.539.667.181 1.32.393 1.947.66z"/><path d="m36.493 57.606-.381.07-.882 3.324h-6.46l-.881-3.324-.624-.114c-3.607-.663-6.97-2.056-9.993-4.138l-.522-.359-2.972 1.727-4.569-4.569 1.727-2.973-.359-.521c-2.082-3.022-3.474-6.384-4.139-9.992l-.115-.623-3.323-.884v-6.46l3.323-.881.071-.382c-.611-.511-1.174-1.076-1.696-1.676-.034.149-.071.297-.102.447l-3.596.952v9.539l3.593.953c.714 3.442 2.051 6.671 3.981 9.611l-1.867 3.214 6.745 6.745 3.214-1.867c2.941 1.931 6.169 3.268 9.612 3.98l.952 3.595h9.539l.953-3.595c.15-.032.298-.069.447-.102-.6-.523-1.165-1.086-1.676-1.697z"/><path d="m59.407 26.278c-.714-3.444-2.051-6.671-3.981-9.612l1.867-3.214-6.745-6.745-3.214 1.867c-2.94-1.93-6.168-3.267-9.612-3.981l-.952-3.593h-9.54l-.953 3.595c-.15.032-.298.068-.447.102.601.523 1.165 1.085 1.676 1.696l.382-.071.882-3.322h6.461l.881 3.323.623.115c3.609.665 6.971 2.057 9.993 4.139l.522.359 2.972-1.727 4.569 4.569-1.727 2.972.359.522c2.082 3.022 3.474 6.384 4.139 9.993l.115.623 3.323.882v6.461l-3.323.881-.071.382c.611.511 1.174 1.076 1.697 1.676.034-.149.07-.297.102-.447l3.595-.953v-9.54z"/><path d="m16 27c2.535 0 5.01-.885 6.97-2.491l-1.269-1.547c-1.602 1.314-3.627 2.038-5.701 2.038-4.962 0-9-4.038-9-9 0-2.074.724-4.099 2.038-5.701l-1.547-1.269c-1.606 1.96-2.491 4.435-2.491 6.97 0 6.065 4.935 11 11 11z"/><path d="m16 7c4.962 0 9 4.038 9 9 0 2.074-.724 4.099-2.038 5.701l1.547 1.269c1.606-1.96 2.491-4.435 2.491-6.97 0-6.065-4.935-11-11-11-2.535 0-5.01.885-6.97 2.491l1.269 1.547c1.602-1.314 3.627-2.038 5.701-2.038z"/><path d="m48 57c-4.962 0-9-4.037-9-9 0-2.074.724-4.099 2.038-5.702l-1.547-1.268c-1.606 1.96-2.491 4.435-2.491 6.97 0 6.065 4.935 11 11 11 2.536 0 5.011-.885 6.97-2.491l-1.269-1.547c-1.602 1.314-3.627 2.038-5.701 2.038z"/><path d="m48 37c-2.536 0-5.011.885-6.97 2.491l1.269 1.547c1.602-1.314 3.627-2.038 5.701-2.038 4.962 0 9 4.037 9 9 0 2.074-.724 4.099-2.038 5.702l1.547 1.268c1.606-1.96 2.491-4.435 2.491-6.97 0-6.065-4.935-11-11-11z"/></g></g></svg>