<svg id="Layer_5" enable-background="new 0 0 64 64" height="512" viewBox="0 0 64 64" width="512" xmlns="http://www.w3.org/2000/svg"><g><g><path d="m5.69 35.69c-1.08-.51-1.69-1.08-1.69-1.69 0-.6.62-1.17 1.69-1.69h.01c3.26.92 8.4 1.55 14.3 1.67v4c-6.35-.16-11.71-1.05-14.31-2.29z" fill="#5cd6b3"/><path d="m38.3 16.31c1.08.52 1.7 1.09 1.7 1.69s-.61 1.18-1.7 1.69c-2.87 1.37-9.09 2.31-16.3 2.31s-13.43-.94-16.3-2.31c-1.09-.51-1.7-1.09-1.7-1.69s.62-1.17 1.7-1.69c3.62 1.03 9.57 1.69 16.3 1.69s12.68-.66 16.3-1.69z" fill="#5cd6b3"/><path d="m20 41.98v8c-10.11-.2-18-1.91-18-3.98v-8c0 2.07 7.89 3.78 18 3.98z" fill="#fcd770"/><path d="m42 6v8c0 .86-1.37 1.66-3.7 2.31-3.62 1.03-9.57 1.69-16.3 1.69s-12.68-.66-16.3-1.69c-2.33-.65-3.7-1.45-3.7-2.31v-8c0 2.21 8.95 4 20 4s20-1.79 20-4z" fill="#fcd770"/><path d="m42 22v8c0 .86-1.37 1.66-3.7 2.31-3.62 1.03-9.57 1.69-16.3 1.69s-12.68-.66-16.3-1.69c-2.33-.65-3.7-1.45-3.7-2.31v-8c0 2.21 8.95 4 20 4s20-1.79 20-4z" fill="#fcd770"/><path d="m20 37.98v4c-10.11-.2-18-1.91-18-3.98 0-.86 1.38-1.66 3.69-2.31 2.6 1.24 7.96 2.13 14.31 2.29z" fill="#ffeaa7"/><path d="m38.3 19.69c2.32.65 3.7 1.45 3.7 2.31 0 2.07-7.89 3.78-18 3.98-.66.01-1.32.02-2 .02-11.05 0-20-1.79-20-4 0-.86 1.38-1.66 3.7-2.31 2.87 1.37 9.09 2.31 16.3 2.31s13.43-.94 16.3-2.31z" fill="#ffeaa7"/><ellipse cx="22" cy="6" fill="#ffeaa7" rx="20" ry="4"/><path d="m20 54h13c0 2.21 1.79 4 4 4h6c2.21 0 4-1.79 4-4h13 2v4c0 2.21-1.79 4-4 4h-36c-2.21 0-4-1.79-4-4v-4z" fill="#969faa"/><path d="m33 54h14c0 2.21-1.79 4-4 4h-6c-2.21 0-4-1.79-4-4z" fill="#fcd770"/><path d="m60 30v24h-13-14-13v-4.02-8-4-4-3.98c0-2.21 1.79-4 4-4h18 14c2.21 0 4 1.79 4 4z" fill="#ccd1d9"/><path d="m56 31v18c0 .55-.45 1-1 1h-30c-.55 0-1-.45-1-1v-18c0-.55.45-1 1-1h30c.55 0 1 .45 1 1z" fill="#69d6f4"/><g fill="#ff826e"><path d="m44 34v12h-4v-10-2z"/><path d="m40 36v10h-4v-8-2z"/><path d="m36 38v8h-4v-6-2z"/><path d="m28 40h4v6h-4z"/></g></g><g><path d="m61 53v-23c0-2.757-2.243-5-5-5h-13v-3c0-1.054-.823-1.908-2.547-2.631.352-.412.547-.867.547-1.369 0-.492-.186-.952-.551-1.378 1.555-.669 2.551-1.524 2.551-2.622v-8c0-4.943-20.143-5-21-5s-21 .057-21 5v8c0 1.098.996 1.953 2.551 2.622-.365.426-.551.886-.551 1.378 0 .502.195.956.547 1.369-1.724.723-2.547 1.577-2.547 2.631v8c0 1.101 1 1.959 2.547 2.628-.362.425-.547.883-.547 1.372 0 .507.199.96.545 1.369-1.723.723-2.545 1.577-2.545 2.631v8c0 4.035 13.404 4.808 18 4.954v2.046h-2v5c0 2.757 2.243 5 5 5h36c2.757 0 5-2.243 5-5v-5zm-21.553-28c.573-.193 1.096-.405 1.553-.638v.638zm-17.447-22c11.665 0 18.37 1.898 18.984 3-.614 1.102-7.319 3-18.984 3-11.805 0-18.526-1.943-19-2.943v-.019c.474-1.095 7.195-3.038 19-3.038zm-19 11v-5.638c5.109 2.599 18.309 2.638 19 2.638s13.895-.039 19.002-2.639l.005 5.591c-.442 1.094-7.17 3.048-19.007 3.048s-18.565-1.954-19-3zm19 5c.586 0 10.177-.028 16.192-1.622.667.364.794.607.809.608-.309 1.054-6.407 3.014-17.001 3.014-10.605 0-16.705-1.964-17.003-2.976.001-.003.101-.259.811-.646 6.016 1.594 15.606 1.622 16.192 1.622zm-16.372 1.756c3.918 1.713 11.37 2.244 16.372 2.244s12.454-.531 16.373-2.244c2.196.665 2.582 1.238 2.631 1.205-.474 1.095-7.198 3.039-19.004 3.039-11.8 0-18.52-1.941-19-2.939v-.022c.035-.06.438-.62 2.628-1.283zm-2.628 9.244v-5.638c4.022 2.046 13.049 2.505 17.05 2.608-.649.843-1.05 1.886-1.05 3.03v2.95c-10.429-.313-15.649-2.109-16-2.95zm16 4.955v1.985c-9.45-.353-13.791-2.205-14.003-2.915.001-.003.099-.256.798-.64 4.32 1.156 10.4 1.48 13.205 1.57zm-13.385 1.805c3.725 1.629 10.43 2.068 13.385 2.184v2.007c-10.389-.313-15.606-2.094-16-2.89v-.022c.035-.06.436-.618 2.615-1.279zm-2.615 9.24v-5.628c3.914 1.997 12.504 2.471 16 2.583v5.995c-10.429-.313-15.649-2.109-16-2.95zm18-16c0-1.654 1.346-3 3-3h32c1.654 0 3 1.346 3 3v23h-38zm24.816 25c-.414 1.161-1.514 2-2.816 2h-6c-1.302 0-2.402-.839-2.816-2zm15.184 3c0 1.654-1.346 3-3 3h-36c-1.654 0-3-1.346-3-3v-3h13.101c.465 2.279 2.484 4 4.899 4h6c2.414 0 4.434-1.721 4.899-4h13.101z"/><path d="m55 29h-30c-1.103 0-2 .897-2 2v18c0 1.103.897 2 2 2h30c1.103 0 2-.897 2-2v-18c0-1.103-.897-2-2-2zm0 20h-30v-18h30z"/><path d="m11 5h2v2h-2z"/><path d="m15 5h2v2h-2z"/><path d="m23 5h2v2h-2z"/><path d="m19 5h2v2h-2z"/><path d="m31 5h2v2h-2z"/><path d="m27 5h2v2h-2z"/><path d="m45 33h-6v2h-4v2h-4v2h-4v8h18zm-10 6v6h-2v-6zm-6 2h2v4h-2zm8 4v-8h2v8zm6 0h-2v-10h2z"/><path d="m47 33h6v2h-6z"/><path d="m47 37h6v2h-6z"/><path d="m47 41h6v2h-6z"/><path d="m47 45h6v2h-6z"/></g></g></svg>