<svg id="Layer_5" enable-background="new 0 0 64 64" height="512" viewBox="0 0 64 64" width="512" xmlns="http://www.w3.org/2000/svg"><g><g><g><path d="m62 24v16h-12v-8-8z" fill="#48cfad"/></g><g><path d="m50 20v-8-8h12v16z" fill="#48cfad"/></g><g><path d="m50 52v-8h12v16h-12z" fill="#48cfad"/></g><g><path d="m22 48c1.1 0 2 .9 2 2v2 6c0 1.1-.45 2.1-1.17 2.83-.73.72-1.73 1.17-2.83 1.17-2.21 0-4-1.79-4-4v-8c0-1.1.9-2 2-2h1 2z" fill="#969faa"/></g><g><path d="m23 41.74v4.26c0 1.1-.9 2-2 2h-2c-1.1 0-2-.9-2-2v-4.26c.97.17 1.98.26 3 .26s2.03-.09 3-.26z" fill="#ccd1d9"/></g><g><path d="m33.41 12c2.86 3.18 4.59 7.39 4.59 12 0 2.88-.68 5.59-1.88 8-2.51 5.07-7.35 8.78-13.12 9.74-.97.17-1.98.26-3 .26s-2.03-.09-3-.26c-8.51-1.42-15-8.82-15-17.74 0-6.97 3.96-13.01 9.75-16h.25v4h-1c-.55 0-1 .45-1 1v1.2c-2.47 2.53-4 5.99-4 9.8 0 7.73 6.27 14 14 14s14-6.27 14-14c0-3.82-1.53-7.28-4-9.8v-1.2c0-.55-.45-1-1-1h-1v-4h.25c1.96 1.01 3.71 2.37 5.16 4z" fill="#e6e9ed"/></g><g><path d="m29 18c.55 0 1-.45 1-1v-2.8c2.47 2.52 4 5.98 4 9.8 0 7.73-6.27 14-14 14s-14-6.27-14-14c0-3.81 1.53-7.27 4-9.8v2.8c0 .55.45 1 1 1h1v4h-1c-.55 0-1 .45-1 1v4c0 .55.45 1 1 1h18c.55 0 1-.45 1-1v-4c0-.55-.45-1-1-1h-1v-4z" fill="#69d6f4"/></g><g><path d="m12 8h16v4h-16z" fill="#ffeaa7"/></g><g><path d="m12 18h16v4h-16z" fill="#ffeaa7"/></g><g><path d="m30 23v4c0 .55-.45 1-1 1h-18c-.55 0-1-.45-1-1v-4c0-.55.45-1 1-1h1 16 1c.55 0 1 .45 1 1z" fill="#fcd770"/></g><g><path d="m30 14.2v2.8c0 .55-.45 1-1 1h-1-16-1c-.55 0-1-.45-1-1v-2.8-1.2c0-.55.45-1 1-1h1 16 1c.55 0 1 .45 1 1z" fill="#fcd770"/></g><g><path d="m30 7c0 .55-.45 1-1 1h-.75-.25-16-.25-.75c-.55 0-1-.45-1-1v-4c0-.55.45-1 1-1h18c.55 0 1 .45 1 1z" fill="#fcd770"/></g></g><g><path d="m63 21v-18h-14v8h-15.134c-.977-1.04-2.083-1.969-3.294-2.779.264-.339.428-.759.428-1.221v-4c0-1.103-.897-2-2-2h-18c-1.103 0-2 .897-2 2v4c0 .462.164.882.428 1.221-5.243 3.507-8.428 9.371-8.428 15.779 0 9.104 6.439 16.725 15 18.568v3.432c0 .537.153 1.034.401 1.471-.839.532-1.401 1.464-1.401 2.529v8c0 2.757 2.243 5 5 5s5-2.243 5-5v-5h24v8h14v-18h-14v8h-24v-1c0-1.065-.562-1.997-1.401-2.529.248-.437.401-.934.401-1.471v-3.432c5.5-1.184 10.125-4.75 12.727-9.568h12.273v8h14v-18h-14v8h-11.353c.864-2.169 1.353-4.527 1.353-7 0-4.031-1.259-7.849-3.496-11h13.496v8zm-12 24h10v14h-10zm0-20h10v14h-10zm-20.007-7.927c1.3 2.056 2.007 4.435 2.007 6.927 0 7.168-5.832 13-13 13s-13-5.832-13-13c0-2.489.706-4.872 2.007-6.93.038 1.07.914 1.93 1.993 1.93v2c-1.103 0-2 .897-2 2v4c0 1.103.897 2 2 2h18c1.103 0 2-.897 2-2v-4c0-1.103-.897-2-2-2v-2c1.078 0 1.953-.859 1.993-1.927zm-1.993 5.927.001 4h-18.001v-4zm-16-2v-2h14v2zm-2-4v-4h18l.001 4zm2-6v-2h14v2zm-2-8h18l.001 4h-18.001zm12 55c0 1.654-1.346 3-3 3s-3-1.346-3-3v-8c0-.552.449-1 1-1h1 2 1c.551 0 1 .448 1 1zm-1-12c0 .552-.449 1-1 1h-2c-.551 0-1-.448-1-1v-3.107c.658.069 1.324.107 2 .107s1.342-.038 2-.107zm-2-5c-9.374 0-17-7.626-17-17 0-5.92 3.035-11.323 8-14.419v1.419c-1.103 0-2 .897-2 2v.823c-2.575 2.781-4 6.372-4 10.177 0 8.271 6.729 15 15 15s15-6.729 15-15c0-3.81-1.425-7.393-4-10.173v-.827c0-1.103-.897-2-2-2v-1.419c4.965 3.096 8 8.5 8 14.419 0 9.374-7.626 17-17 17zm31-36h10v14h-10z"/><path d="m57 7h-4v2h2v6h-2v2h6v-2h-2z"/><path d="m57.8 32.4c.751-.563 1.2-1.46 1.2-2.4 0-1.654-1.346-3-3-3s-3 1.346-3 3v1h2v-1c0-.552.449-1 1-1s1 .448 1 1c0 .313-.149.612-.4.8l-3.6 2.7v3.5h6v-2h-4v-.5z"/><path d="m56 47h-3v2h3c.551 0 1 .448 1 1s-.449 1-1 1h-3v2h3c.551 0 1 .448 1 1s-.449 1-1 1h-3v2h3c1.654 0 3-1.346 3-3 0-.771-.301-1.468-.78-2 .48-.532.78-1.229.78-2 0-1.654-1.346-3-3-3z"/></g></g></svg>