<svg id="Layer_5" enable-background="new 0 0 64 64" height="512" viewBox="0 0 64 64" width="512" xmlns="http://www.w3.org/2000/svg"><g><g><g><path d="m62 10v20c0 1.1-.9 2-2 2h-15v-6h-5v-10h-18v-6z" fill="#e6e9ed"/></g><g><path d="m62 4v6h-40v-2c0-1.1.9-2 2-2h21l1.45-2.89c.34-.68 1.03-1.11 1.79-1.11h11.76c1.1 0 2 .9 2 2z" fill="#ff826e"/></g><g><path d="m40 16v10h-5v16h-4l9 12v8h-28v-10h-10v-36h20z" fill="#f0d0b4"/></g><g><path d="m16 52h20v6h-20z" fill="#fcd770"/></g><g><path d="m17 36h10v12h-10z" fill="#e6e9ed"/></g><g><path d="m6 20h14v12h-14z" fill="#fcd770"/></g><g><path d="m12 52v10l-10-10z" fill="#5cd6b3"/></g><g><path d="m49 42-9 12-9-12h4v-16h5 5v6 10z" fill="#5cd6b3"/></g></g><g><path d="m60 1h-11.764c-1.144 0-2.171.636-2.683 1.658l-1.171 2.342h-20.382c-1.654 0-3 1.346-3 3v7h-20v37.414l10.586 10.586h29.414v-8.666l10-13.334h-5v-8h14c1.654 0 3-1.346 3-3v-26c0-1.654-1.346-3-3-3zm-36 6h21.618l1.724-3.447c.17-.341.513-.553.894-.553h11.764c.551 0 1 .448 1 1v5h-38v-1c0-.552.449-1 1-1zm-13 52.586-6.586-6.586h6.586zm2 1.414v-10h-10v-34h36v8h-5v16h-5l7.5 10h-21.5v8h22v-7.333l2 2.667v6.666zm22-8v4h-18v-4zm12-10-7 9.333-7-9.333h3v-16h8v16zm13-12h-14v-6h-5v-10h-18v-4h38v19c0 .552-.449 1-1 1z"/><path d="m57 5h2v2h-2z"/><path d="m53 5h2v2h-2z"/><path d="m49 5h2v2h-2z"/><path d="m21 19h-16v14h16zm-2 12h-12v-10h12z"/><path d="m23 19h14v2h-14z"/><path d="m23 23h9v2h-9z"/><path d="m23 27h9v2h-9z"/><path d="m23 31h9v2h-9z"/><path d="m16 49h12v-14h-12zm2-12h8v10h-8z"/><path d="m5 35h9v2h-9z"/><path d="m5 39h9v2h-9z"/><path d="m5 43h9v2h-9z"/><path d="m5 47h9v2h-9z"/></g></g></svg>