<svg id="Layer_5" enable-background="new 0 0 64 64" height="512" viewBox="0 0 64 64" width="512" xmlns="http://www.w3.org/2000/svg"><g><g><path d="m42.946 38-4 12h17.054l-4-12z" fill="#f0bc5e"/></g><g><path d="m49 50-4 12h17.054l-4-12z" fill="#f0bc5e"/></g><g><path d="m29 50-4 12h17.054l-4-12z" fill="#f0bc5e"/></g><g><path d="m54 8-14 2.8 3.6 3.6-11.6 11.6-7-7-19 19 4 4 15-15 7 7 15.6-15.6 3.6 3.6z" fill="#f0bc5e"/></g><g><path d="m58.721 49h-2l-4-12h-33.442l-4 12h-10l-4.667 14h62.775zm-38-10h30.559l3.334 10h-37.227zm-17.333 22 3.333-10h30.559l3.333 10zm36-10h17.892l3.333 10h-17.892z"/><path d="m12 9h2v3h-2z"/><path d="m8.818 10.319h2v3h-2z" transform="matrix(.707 -.707 .707 .707 -5.481 10.404)"/><path d="m7 14h3v2h-3z"/><path d="m8.319 17.182h3v2h-3z" transform="matrix(.707 -.707 .707 .707 -9.981 12.268)"/><path d="m12 18h2v3h-2z"/><path d="m15.182 16.682h2v3h-2z" transform="matrix(.707 -.707 .707 .707 -8.117 16.767)"/><path d="m16 14h3v2h-3z"/><path d="m14.682 10.818h3v2h-3z" transform="matrix(.707 -.707 .707 .707 -3.617 14.904)"/><path d="m31 7h2v2h-2z"/><path d="m31 11h2v2h-2z"/><path d="m33 9h2v2h-2z"/><path d="m29 9h2v2h-2z"/><path d="m57 25h2v2h-2z"/><path d="m57 29h2v2h-2z"/><path d="m59 27h2v2h-2z"/><path d="m55 27h2v2h-2z"/><path d="m59 1h2v2h-2z"/><path d="m59 5h2v2h-2z"/><path d="m61 3h2v2h-2z"/><path d="m57 3h2v2h-2z"/><path d="m18 1h2v2h-2z"/><path d="m18 5h2v2h-2z"/><path d="m20 3h2v2h-2z"/><path d="m16 3h2v2h-2z"/><path d="m3 28h2v2h-2z"/><path d="m3 32h2v2h-2z"/><path d="m5 30h2v2h-2z"/><path d="m1 30h2v2h-2z"/><path d="m22 41h2v2h-2z"/><path d="m30 41h2v2h-2z"/><path d="m26 41h2v2h-2z"/><path d="m16 53h2v2h-2z"/><path d="m12 53h2v2h-2z"/><path d="m8 53h2v2h-2z"/></g></g></svg>