<svg id="Layer_5" enable-background="new 0 0 64 64" height="512" viewBox="0 0 64 64" width="512" xmlns="http://www.w3.org/2000/svg"><g><g><path d="m32 10h-21c-.55 0-1 .45-1 1v16h-4v-17c0-2.21 1.79-4 4-4h15v-3z" fill="#5cd6b3"/><path d="m58 37v17c0 2.21-1.79 4-4 4h-15v3l-7-7h21c.55 0 1-.45 1-1v-16z" fill="#5cd6b3"/><path d="m36 20v7.53c-1.06-.95-2.46-1.53-4-1.53-3.31 0-6 2.69-6 6 0 .7.12 1.37.34 2h-6.34v-5l2.71-.68c.04-.1.07-.2.12-.3l-1.44-2.38 4.25-4.25 2.38 1.44c.1-.05.2-.08.3-.12l.68-2.71z" fill="#fcd770"/><path d="m44 30v5l-2.71.68c-.04.1-.07.2-.12.3l1.44 2.38-4.25 4.25-2.38-1.44c-.1.05-.2.08-.3.12l-.68 2.71h-6-1v-7.53c1.06.95 2.46 1.53 4 1.53 3.31 0 6-2.69 6-6 0-.7-.12-1.38-.34-2z" fill="#fcd770"/><path d="m28 44v6h-2-7-3v-4.07-7.76-4.17h4 6.34 1.66v2.47z" fill="#e6e9ed"/><path d="m20 38h4v4h-4z" fill="#ff826e"/><path d="m50 2c-6.627 0-12 5.373-12 12h7 2 1v4.07 7.75c.652.11 1.317.18 2 .18 6.627 0 12-5.373 12-12s-5.373-12-12-12z" fill="#69d6f4"/><path d="m45 14h2 1v4.07 7.76 4.17h-4-6.34-1.66v-2.47-7.53-6h2z" fill="#e6e9ed"/><path d="m16 50v-4.07-7.75c-.652-.11-1.317-.18-2-.18-6.627 0-12 5.373-12 12s5.373 12 12 12 12-5.373 12-12h-7z" fill="#69d6f4"/></g><g><path d="m51 13h2v2h-2z"/><path d="m50 1c-6.831 0-12.436 5.299-12.949 12h-2.051v6h-6.781l-.603 2.416-2.134-1.281-5.347 5.347 1.281 2.134-2.416.603v4.781h-4v4.041c-.332-.025-.666-.041-1-.041-7.168 0-13 5.832-13 13s5.832 13 13 13c6.831 0 12.436-5.299 12.949-12h2.051v-6h6.781l.603-2.416 2.134 1.281 5.347-5.347-1.281-2.134 2.416-.603v-4.781h4v-4.041c.332.025.666.041 1 .041 7.168 0 13-5.832 13-13s-5.832-13-13-13zm-1 14v-2h-2-.979c.028-.784.088-1.54.177-2.26 1.215.164 2.489.26 3.802.26s2.587-.096 3.802-.26c.126 1.022.198 2.114.198 3.26s-.072 2.238-.198 3.26c-1.215-.164-2.489-.26-3.802-.26-.334 0-.666.023-1 .035zm1-12c1.311 0 2.728 2.271 3.473 5.766-1.112.147-2.278.234-3.473.234s-2.361-.087-3.473-.234c.745-3.495 2.162-5.766 3.473-5.766zm5.779 7.396c1.524-.335 2.896-.797 4.016-1.377.765 1.498 1.205 3.187 1.205 4.981s-.44 3.484-1.205 4.981c-1.12-.58-2.492-1.042-4.016-1.377.141-1.138.221-2.342.221-3.604s-.08-2.466-.221-3.604zm2.941-3.075c-.91.45-2.023.824-3.267 1.103-.396-1.899-.992-3.523-1.739-4.765 2.002.722 3.733 2.004 5.006 3.662zm-12.434-3.662c-.748 1.242-1.343 2.865-1.739 4.765-1.244-.279-2.357-.653-3.267-1.103 1.273-1.658 3.004-2.94 5.006-3.662zm-6.081 5.36c1.12.58 2.492 1.042 4.016 1.377-.103.832-.171 1.702-.199 2.604h-4.971c.129-1.423.533-2.765 1.154-3.981zm-3.205 22.981c0 2.757-2.243 5-5 5-1.093 0-2.136-.373-3-1.026v-2.974h-1.889c-.067-.328-.111-.661-.111-1 0-2.757 2.243-5 5-5 1.093 0 2.136.373 3 1.026v2.974h1.889c.067.328.111.661.111 1zm-16-2.219 2.446-.611.502-1.222-1.296-2.158 3.138-3.138 2.158 1.296 1.222-.502.611-2.446h5.219v4.678c-.93-.441-1.952-.678-3-.678-3.86 0-7 3.14-7 7 0 .337.037.67.084 1h-4.084zm-7 31.219c-1.311 0-2.728-2.271-3.473-5.766 1.112-.147 2.278-.234 3.473-.234s2.361.087 3.473.234c-.745 3.495-2.162 5.766-3.473 5.766zm0-8c-1.313 0-2.587.096-3.802.26-.126-1.022-.198-2.114-.198-3.26s.072-2.238.198-3.26c1.215.164 2.489.26 3.802.26.334 0 .666-.023 1-.035v4.035h2.979c-.028.784-.088 1.54-.177 2.26-1.215-.164-2.489-.26-3.802-.26zm1-13.952v5.917c-.334.012-.666.035-1 .035-1.195 0-2.361-.087-3.473-.234.745-3.495 2.162-5.766 3.473-5.766.334 0 .668.018 1 .048zm-4.714.611c-.748 1.242-1.343 2.865-1.739 4.765-1.244-.279-2.357-.653-3.267-1.103 1.273-1.658 3.004-2.94 5.006-3.662zm-6.081 5.36c1.12.58 2.492 1.042 4.016 1.377-.141 1.138-.221 2.342-.221 3.604s.08 2.466.221 3.604c-1.524.335-2.896.797-4.016 1.377-.765-1.497-1.205-3.187-1.205-4.981s.44-3.483 1.205-4.981zm1.075 11.66c.91-.45 2.023-.824 3.267-1.103.396 1.899.992 3.523 1.739 4.765-2.002-.722-3.733-2.004-5.006-3.662zm12.434 3.662c.748-1.241 1.343-2.865 1.739-4.765 1.244.279 2.356.652 3.267 1.103-1.273 1.658-3.004 2.94-5.006 3.662zm6.081-5.36c-1.12-.58-2.492-1.042-4.016-1.377.103-.833.171-1.702.2-2.604h4.971c-.13 1.423-.534 2.765-1.155 3.981zm3.205-5.981h-10v-14h10zm16-14.781-1.949.487-.534.206-.466 1.138 1.296 2.16-3.138 3.138-2.158-1.296-1.222.502-.61 2.446h-5.219v-4.678c.93.441 1.952.678 3 .678 3.86 0 7-3.14 7-7 0-.337-.037-.67-.084-1h4.084zm4-5.219h-10v-14h10zm2-4.048v-5.917c.334-.012.666-.035 1-.035 1.195 0 2.361.087 3.473.234-.745 3.495-2.162 5.766-3.473 5.766-.334 0-.668-.018-1-.048zm4.714-.611c.748-1.241 1.343-2.865 1.739-4.765 1.244.279 2.356.652 3.267 1.103-1.273 1.658-3.004 2.94-5.006 3.662z"/><path d="m53 41h2v2h-2z"/><path d="m57 54c0 1.654-1.346 3-3 3h-16v1.586l-3.586-3.586h18.586c1.103 0 2-.897 2-2v-8h-2v8h-23.414l10.414 10.414v-4.414h14c2.757 0 5-2.243 5-5v-15h-2z"/><path d="m9 21h2v2h-2z"/><path d="m7 10c0-1.654 1.346-3 3-3h16v-1.586l3.586 3.586h-18.586c-1.103 0-2 .897-2 2v8h2v-8h23.414l-10.414-10.414v4.414h-14c-2.757 0-5 2.243-5 5v15h2z"/><path d="m39 17h6v2h-6z"/><path d="m39 21h6v2h-6z"/><path d="m39 25h6v2h-6z"/><path d="m25 37h-6v6h6zm-2 4h-2v-2h2z"/><path d="m19 45h6v2h-6z"/><path d="m53 37h2v2h-2z"/><path d="m9 25h2v2h-2z"/></g></g></svg>