<svg id="Layer_5" enable-background="new 0 0 64 64" height="512" viewBox="0 0 64 64" width="512" xmlns="http://www.w3.org/2000/svg"><g><g><g fill="#48cfad"><path d="m27 38h10v24h-10z"/><path d="m45 42h10v20h-10z"/><path d="m9 52h10v10h-10z"/></g><path d="m53 14c-.73 0-1.44.09-2.11.25-.86-6.9-6.75-12.25-13.89-12.25-5.45 0-10.17 3.11-12.48 7.66v.01c-1.58-1.06-3.47-1.67-5.52-1.67-5.52 0-10 4.48-10 10-3.87 0-7 3.13-7 7s3.13 7 7 7h47l1-.94c2.96-1.47 5-4.53 5-8.06 0-4.97-4.03-9-9-9z" fill="#e6e9ed"/><path d="m43 32h14v6h-14z" fill="#ffeaa7"/><path d="m39 34h-14v-2-4h14v4z" fill="#ffeaa7"/><path d="m7 42h14v6h-14z" fill="#ffeaa7"/><path d="m21 36v6h-14v-4h6l2-2z" fill="#fcd770"/><path d="m39 22v6h-14v-4h6l2-2z" fill="#fcd770"/><path d="m57 31.06v.94h-14v-4h6l2-2h6z" fill="#fcd770"/></g><g><path d="m9 33h15v2h16v-2h2v6h16v-7.365c3.09-1.787 5-5.028 5-8.635 0-5.514-4.486-10-10-10-.436 0-.867.038-1.294.094-1.367-6.962-7.506-12.094-14.706-12.094-5.317 0-10.151 2.76-12.858 7.271-1.538-.81-3.286-1.271-5.142-1.271-5.749 0-10.474 4.435-10.953 10.062-3.963.473-7.047 3.85-7.047 7.938 0 4.411 3.589 8 8 8zm29-6h-12v-2h5.414l2-2h4.586zm-12 6v-4h12v4zm30-2h-12v-2h5.414l2-2h4.586zm-12 6v-4h12v4zm-35-18c3.309 0 6 2.691 6 6h2c0-4.055-3.036-7.408-6.953-7.923.464-4.531 4.302-8.077 8.953-8.077 4.647 0 8.497 3.482 8.956 8.099l1.99-.197c-.307-3.087-1.858-5.752-4.125-7.539 2.34-3.946 6.548-6.363 11.179-6.363 6.263 0 11.599 4.481 12.757 10.549-1.601.55-3.059 1.497-4.211 2.784l1.49 1.334c1.518-1.695 3.692-2.667 5.964-2.667 4.411 0 8 3.589 8 8 0 2.472-1.126 4.727-3 6.226v-4.226h-7.414l-2 2h-6.586v4h-2v-10h-7.414l-2 2h-6.586v8h-15c-3.309 0-6-2.691-6-6s2.691-6 6-6z"/><path d="m56 41h-12v20h-6v-24h-12v24h-6v-10h-12v10h-7v2h62v-2h-7zm-10 2h8v18h-8zm-18-4h8v22h-8zm-18 14h8v8h-8z"/><path d="m6 37v12h16v-14h-7.414l-2 2zm2 10v-4h12v4zm7.414-10h4.586v4h-12v-2h5.414z"/><path d="m35.199 7.18-.397-1.96c-.755.153-1.496.387-2.202.695l.8 1.834c.577-.252 1.182-.444 1.799-.569z"/><path d="m45.588 13.3 1.908-.6c-1.446-4.605-5.664-7.7-10.496-7.7v2c3.954 0 7.405 2.532 8.588 6.3z"/><path d="m57 23h2c0-3.309-2.691-6-6-6v2c2.206 0 4 1.794 4 4z"/><path d="m23.931 17.166 1.973-.331c-.568-3.381-3.471-5.835-6.904-5.835v2c2.452 0 4.526 1.752 4.931 4.166z"/><path d="m9 29h7v-2h-7c-1.103 0-2-.897-2-2h-2c0 2.206 1.794 4 4 4z"/><path d="m18 27h2v2h-2z"/></g></g></svg>