<svg id="Layer_5" enable-background="new 0 0 64 64" height="512" viewBox="0 0 64 64" width="512" xmlns="http://www.w3.org/2000/svg"><g><g><g><path d="m37 40-5-8-5 8h-20v18c0 2.21 1.79 4 4 4h21 21c2.21 0 4-1.79 4-4v-18z" fill="#ecc19c"/></g><g><path d="m31 32h1l-5 8h-20-4l5-8h4z" fill="#cf9e76"/></g><g><path d="m56 32 5 8h-4-20l-5-8h2 18z" fill="#cf9e76"/></g><g><path d="m52 10v22h-18-2-1-19v-22z" fill="#e6e9ed"/></g><g><path d="m44 25v2c0 .55-.45 1-1 1h-8c-.55 0-1-.45-1-1v-2c0-.55.45-1 1-1h8c.55 0 1 .45 1 1z" fill="#fcd770"/></g><g><path d="m12 10v-6c0-1.1.9-2 2-2h7.76c.76 0 1.45.43 1.79 1.11l1.45 2.89h25c1.1 0 2 .9 2 2v2z" fill="#ff826e"/></g></g><g><g><path d="m53 32h-2v-24c0-.551-.448-1-1-1h-25.618l-1.724-3.447c-.171-.341-.513-.553-.894-.553h-7.764c-.552 0-1 .449-1 1v28h-2v-28c0-1.654 1.346-3 3-3h7.764c1.144 0 2.172.635 2.684 1.658l1.17 2.342h24.382c1.654 0 3 1.346 3 3z"/></g><g><path d="m21 7h-2v-2h2zm-4 0h-2v-2h2z"/></g><g><path d="m12 9h40v2h-40z"/></g><g><path d="m27.555 41h-26.36l6.25-10h26.555v2h-1.445zm-22.75-2h21.641l3.75-6h-21.641z"/></g><g><path d="m62.805 41h-26.36l-5-8h-.445v-2h25.555zm-25.25-2h21.641l-3.75-6h-21.641z"/></g><g><path d="m31 32h2v30h-2z"/></g><g><path d="m53 63h-42c-2.757 0-5-2.243-5-5v-18h2v18c0 1.654 1.346 3 3 3h42c1.654 0 3-1.346 3-3v-18h2v18c0 2.757-2.243 5-5 5z"/></g><g><path d="m43 29h-8c-1.103 0-2-.897-2-2v-2c0-1.103.897-2 2-2h8c1.103 0 2 .897 2 2v2c0 1.103-.897 2-2 2zm-8-4v2h8.001l-.001-2z"/></g><g><path d="m54 59h-2v-2h2zm-4 0h-2v-2h2zm-4 0h-2v-2h2z"/></g></g></g></svg>