<svg id="Layer_5" enable-background="new 0 0 64 64" height="512" viewBox="0 0 64 64" width="512" xmlns="http://www.w3.org/2000/svg"><g><g><circle cx="52" cy="32" fill="#f0bc5e" r="10"/></g><g><g><path d="m20 38c-7.168 0-13-5.832-13-13s5.832-13 13-13 13 5.832 13 13-5.832 13-13 13z" fill="#f0bc5e"/></g></g><g><circle cx="52" cy="11" fill="#f0bc5e" r="10"/></g><g><circle cx="52" cy="53" fill="#f0bc5e" r="10"/></g><g><path d="m19 34h2v-2c2.206 0 4-1.794 4-4 0-1.193-.525-2.267-1.357-3 .832-.733 1.357-1.807 1.357-3 0-2.206-1.794-4-4-4v-2h-2v2h-2v14h2zm0-14h2c1.103 0 2 .897 2 2s-.897 2-2 2h-2zm0 6h2c1.103 0 2 .897 2 2s-.897 2-2 2h-2z"/><path d="m53 37c-1.103 0-2-.897-2-2h2v-2h-2v-2h2v-2h-2c0-1.103.897-2 2-2s2 .897 2 2h2c0-2.206-1.794-4-4-4s-4 1.794-4 4h-2v2h2v2h-2v2h2c0 2.206 1.794 4 4 4s4-1.794 4-4h-2c0 1.103-.897 2-2 2z"/><path d="m22 61c-.552 0-1-.449-1-1v-1.051c4.717-.471 8.479-4.232 8.949-8.949h1.051c1.654 0 3-1.346 3-3 0-.771-.301-1.468-.78-2 .48-.532.78-1.229.78-2 0-1.329-.875-2.446-2.075-2.839 2.301-1.908 4.138-4.383 5.363-7.161h4.712v-2h-3.951c.614-1.923.951-3.948.951-6 0-5.396-2.307-10.557-6.33-14.159-3.286-2.942-7.346-4.574-11.67-4.792v-2.049c0-.551.448-1 1-1h24.018c1.67-1.25 3.736-2 5.982-2h-30c-1.654 0-3 1.346-3 3v2.051c-.388.02-.774.025-1.164.068-9.015.998-16.07 8.3-16.776 17.362-.498 6.372 2.259 12.735 7.013 16.68-1.199.394-2.073 1.51-2.073 2.839 0 .771.301 1.468.78 2-.479.532-.78 1.229-.78 2 0 1.654 1.346 3 3 3h1.051c.471 4.717 4.232 8.479 8.949 8.949v1.051c0 1.654 1.346 3 3 3h30c-2.246 0-4.312-.75-5.982-2zm-18.946-37.363c.621-7.976 7.07-14.652 15.003-15.529 4.912-.545 9.63.956 13.279 4.224 3.6 3.223 5.664 7.84 5.664 12.668 0 6.114-3.247 11.969-8.287 15h-17.425c-5.442-3.272-8.746-9.809-8.234-16.363zm5.946 18.363h22c.552 0 1 .449 1 1s-.448 1-1 1h-22c-.552 0-1-.449-1-1s.448-1 1-1zm-1 5c0-.551.448-1 1-1h22c.552 0 1 .449 1 1s-.448 1-1 1h-22c-.552 0-1-.449-1-1zm4.069 3h15.861c-.495 3.94-3.859 7-7.931 7s-7.435-3.06-7.93-7z"/><path d="m51 4v2h-3v3c0 1.654 1.346 3 3 3h2c.552 0 1 .449 1 1v1h-3c-.552 0-1-.449-1-1h-2c0 1.654 1.346 3 3 3v2h2v-2h3v-3c0-1.654-1.346-3-3-3h-2c-.552 0-1-.449-1-1v-1h3c.552 0 1 .449 1 1h2c0-1.654-1.346-3-3-3v-2z"/><path d="m55.293 47.293-3.293 3.293-3.293-3.293-1.414 1.414 3.293 3.293h-1.586v2h2v2h-2v2h2v2h2v-2h2v-2h-2v-2h2v-2h-1.586l3.293-3.293z"/></g></g></svg>