<svg id="Layer_5" enable-background="new 0 0 64 64" height="512" viewBox="0 0 64 64" width="512" xmlns="http://www.w3.org/2000/svg"><g><g><g><circle cx="32" cy="32" fill="#69d6f4" r="30"/></g><g><path d="m23.58 13.33c1.43.61 2.42 2.02 2.42 3.67 0 2.21-1.79 4-4 4-.06 0-.12 0-.18-.01-2.13-.09-3.82-1.84-3.82-3.99 0-2.21 1.79-4 4-4 .56 0 1.1.12 1.58.33z" fill="#fcd770"/></g><g><path d="m43 28c2.21 0 4 1.79 4 4s-1.79 4-4 4c-.03 0-.07 0-.1 0-2.16-.05-3.9-1.82-3.9-4s1.74-3.95 3.9-4z" fill="#fcd770"/></g><g><path d="m20 53c0 2.1-.72 4.04-1.94 5.57-1.64 2.09-4.19 3.43-7.06 3.43-4.97 0-9-4.03-9-9 0-2.87 1.34-5.42 3.43-7.06 1.53-1.22 3.47-1.94 5.57-1.94 2.66 0 5.06 1.16 6.71 3 1.42 1.59 2.29 3.7 2.29 6z" fill="#ffc729"/></g><g><circle cx="11" cy="53" fill="#fcd770" r="5"/></g><g><path d="m53 2c4.97 0 9 4.03 9 9 0 2.87-1.34 5.42-3.43 7.06-1.53 1.22-3.47 1.94-5.57 1.94-2.66 0-5.06-1.16-6.71-3-1.42-1.59-2.29-3.7-2.29-6 0-2.1.72-4.04 1.94-5.57 1.64-2.09 4.19-3.43 7.06-3.43z" fill="#ffc729"/></g><g><circle cx="53" cy="11" fill="#fcd770" r="5"/></g></g><g><path d="m11 47c-3.309 0-6 2.691-6 6s2.691 6 6 6 6-2.691 6-6-2.691-6-6-6zm0 10c-2.206 0-4-1.794-4-4s1.794-4 4-4 4 1.794 4 4-1.794 4-4 4z"/><path d="m53 17c3.309 0 6-2.691 6-6s-2.691-6-6-6-6 2.691-6 6 2.691 6 6 6zm0-10c2.206 0 4 1.794 4 4s-1.794 4-4 4-4-1.794-4-4 1.794-4 4-4z"/><path d="m63 11c0-5.514-4.486-10-10-10-2.888 0-5.485 1.238-7.313 3.202-4.237-2.089-8.948-3.202-13.687-3.202-17.094 0-31 13.907-31 31 0 4.739 1.113 9.449 3.202 13.687-1.964 1.827-3.202 4.425-3.202 7.313 0 5.514 4.486 10 10 10 2.888 0 5.485-1.238 7.313-3.202 4.237 2.089 8.948 3.202 13.687 3.202 17.094 0 31-13.907 31-31 0-4.739-1.113-9.449-3.202-13.687 1.964-1.827 3.202-4.425 3.202-7.313zm-10-8c4.411 0 8 3.589 8 8s-3.589 8-8 8-8-3.589-8-8 3.589-8 8-8zm-8.647 13h-2.152c-1.529-6.171-3.924-10.739-6.77-12.793 3.129.375 6.186 1.267 9.026 2.62-.918 1.512-1.457 3.278-1.457 5.173 0 1.822.498 3.527 1.353 5zm3.546 17h13.076c-.16 4.701-1.441 9.121-3.588 13h-14.732c.573-2.777.98-5.829 1.188-9.085 2.028-.348 3.647-1.908 4.056-3.915zm-15.899 27c-3.048 0-6.23-4.484-8.164-12h16.302c-1.852 7.224-4.882 12-8.138 12zm-8.635-14c-.798-3.747-1.295-8.131-1.356-13h16.091c.388 1.901 1.863 3.402 3.741 3.851-.213 3.274-.64 6.36-1.236 9.149zm-20.34-15c.16-4.701 1.441-9.121 3.588-13h10.487c.378 1.853 1.791 3.317 3.6 3.807-.414 2.948-.643 6.029-.683 9.193zm21.975-14c0 1.654-1.346 3-3 3s-3-1.346-3-3 1.346-3 3-3 3 1.346 3 3zm18 18c-1.654 0-3-1.346-3-3s1.346-3 3-3 3 1.346 3 3-1.346 3-3 3zm-4.899-4h-16.083c.041-3.126.269-6.168.685-9.071 2.093-.298 3.778-1.877 4.196-3.929h13.707c.596 2.789 1.023 5.875 1.236 9.149-1.878.449-3.353 1.95-3.741 3.851zm-11.202-15c-.265-1.302-1.038-2.422-2.102-3.142 1.912-5.561 4.576-8.858 7.203-8.858 3.255 0 6.284 4.776 8.137 12zm1.591-12.78c-2.155 1.555-4.054 4.574-5.544 8.875-.308-.058-.622-.095-.946-.095-2.414 0-4.434 1.721-4.899 4h-9.272c4.586-6.904 12.047-11.735 20.661-12.78zm-25.46 29.78h16.98c.059 4.712.532 9.116 1.335 13h-3.215c-1.816-1.849-4.34-3-7.129-3-1.895 0-3.663.54-5.174 1.459-1.726-3.606-2.663-7.451-2.797-11.459zm7.97 28c-4.411 0-8-3.589-8-8s3.589-8 8-8 8 3.589 8 8-3.589 8-8 8zm8.647-13h2.151c1.522 6.139 3.909 10.73 6.768 12.793-3.128-.375-6.185-1.267-9.025-2.62.92-1.512 1.459-3.278 1.459-5.173 0-1.822-.498-3.527-1.353-5zm15.79 12.789c2.844-2.055 5.237-6.621 6.765-12.789h13.969c-4.599 6.924-12.089 11.763-20.734 12.789zm25.533-29.789h-13.071c-.409-2.007-2.028-3.568-4.057-3.915-.208-3.256-.614-6.308-1.188-9.085h3.216c1.816 1.849 4.34 3 7.129 3 1.895 0 3.663-.54 5.174-1.459 1.726 3.606 2.663 7.451 2.797 11.459z"/><path d="m56.814 28.939 1.986-.241c-.084-.686-.195-1.375-.331-2.051l-1.961.396c.127.624.23 1.263.306 1.896z"/><path d="m57.981 24.63c-.186-.657-.401-1.321-.643-1.976l-1.877.691c.223.605.423 1.22.594 1.827z"/><path d="m6.967 21.866 1.854.751c.238-.588.504-1.178.79-1.753l-1.791-.891c-.309.622-.596 1.258-.853 1.893z"/><path d="m5.079 29.924 1.994.151c.049-.638.122-1.28.219-1.91l-1.977-.304c-.104.681-.184 1.375-.236 2.063z"/><path d="m5.711 25.823 1.947.455c.144-.615.315-1.238.51-1.854l-1.906-.604c-.211.665-.396 1.339-.551 2.003z"/><path d="m45.604 52.979 1.09 1.677c.578-.375 1.148-.778 1.696-1.197l-1.215-1.589c-.507.387-1.035.761-1.571 1.109z"/><path d="m42.23 54.818.82 1.824c.628-.283 1.254-.593 1.859-.923l-.957-1.756c-.56.306-1.139.594-1.722.855z"/><path d="m48.657 50.644 1.332 1.491c.511-.456 1.013-.941 1.494-1.441l-1.443-1.386c-.445.463-.911.913-1.383 1.336z"/><path d="m24 35h2v2h-2z"/><path d="m32 35h2v2h-2z"/><path d="m28 35h2v2h-2z"/><path d="m33 20h2v2h-2z"/><path d="m29 20h2v2h-2z"/><path d="m37 20h2v2h-2z"/></g></g></svg>