<svg id="Layer_5" enable-background="new 0 0 64 64" height="512" viewBox="0 0 64 64" width="512" xmlns="http://www.w3.org/2000/svg"><g><g><path d="m28 54v5h-18c-4.42 0-8-3.58-8-8s3.58-8 8-8c.72 0 1.42.1 2.09.28.33-3.06 1.52-5.86 3.32-8.16z" fill="#e6e9ed"/><path d="m51.76 43.32c.71-.21 1.46-.32 2.24-.32 4.42 0 8 3.58 8 8s-3.58 8-8 8h-18v-5l10-15c2.73 0 5.03 1.82 5.76 4.32z" fill="#e6e9ed"/><path d="m32 38c-9.94 0-18-2.69-18-6v1l1.41 2.12 12.59 18.88v5 3h2l6-3v-5l10-15 4-6v-1c0 3.31-8.06 6-18 6z" fill="#ffeaa7"/><path d="m32 34c9.94 0 18-2.69 18-6v4c0 3.31-8.06 6-18 6s-18-2.69-18-6v-4c0 3.31 8.06 6 18 6z" fill="#fcd770"/><path d="m43.83 23.48h-23.66c-3.78 1.1-6.17 2.72-6.17 4.52 0 3.31 8.06 6 18 6s18-2.69 18-6c0-1.8-2.39-3.42-6.17-4.52z" fill="#aab2bd"/><circle cx="32" cy="16" fill="#69d6f4" r="14"/><g fill="#ff826e"><circle cx="4" cy="20" r="2"/><circle cx="4" cy="12" r="2"/><circle cx="60" cy="12" r="2"/><circle cx="60" cy="20" r="2"/></g></g><g><path d="m57.184 21c.414 1.161 1.514 2 2.816 2 1.654 0 3-1.346 3-3s-1.346-3-3-3c-1.302 0-2.402.839-2.816 2h-10.486c.197-.97.302-1.973.302-3s-.105-2.03-.302-3h10.487c.414 1.161 1.514 2 2.816 2 1.654 0 3-1.346 3-3s-1.346-3-3-3c-1.302 0-2.402.839-2.816 2h-11.06c-2.066-5.816-7.609-10-14.125-10s-12.059 4.184-14.125 10h-11.059c-.414-1.161-1.514-2-2.816-2-1.654 0-3 1.346-3 3s1.346 3 3 3c1.302 0 2.402-.839 2.816-2h10.487c-.198.97-.303 1.973-.303 3s.105 2.03.302 3h-10.486c-.414-1.161-1.514-2-2.816-2-1.654 0-3 1.346-3 3s1.346 3 3 3c1.302 0 2.402-.839 2.816-2h11.059c.233.655.503 1.292.821 1.901-3.682 1.28-5.696 3.067-5.696 5.099v5.303l1.195 1.792c-1.501 2.089-2.509 4.477-2.944 7.002-.413-.059-.83-.097-1.251-.097-4.963 0-9 4.037-9 9s4.037 9 9 9h17v3h3.236l6-3h17.764c4.963 0 9-4.037 9-9s-4.037-9-9-9c-.553 0-1.093.058-1.619.154-.876-1.956-2.615-3.389-4.671-3.916l3.29-4.935v-5.303c0-2.032-2.014-3.819-5.696-5.099.318-.61.588-1.246.821-1.901zm2.816-2c.552 0 1 .449 1 1s-.448 1-1 1-1-.449-1-1 .448-1 1-1zm0-8c.552 0 1 .449 1 1s-.448 1-1 1-1-.449-1-1 .448-1 1-1zm-56 2c-.552 0-1-.449-1-1s.448-1 1-1 1 .449 1 1-.448 1-1 1zm0 8c-.552 0-1-.449-1-1s.448-1 1-1 1 .449 1 1-.448 1-1 1zm28-18c1.401 0 2.891 1.882 3.878 5h-7.756c.987-3.118 2.477-5 3.878-5zm4.401 7c.316 1.489.522 3.169.578 5h-9.957c.056-1.831.262-3.511.578-5zm8.548 5h-5.971c-.05-1.782-.226-3.466-.521-5h5.064c.793 1.517 1.291 3.208 1.428 5zm-7.97 2c-.056 1.831-.262 3.511-.578 5h-8.801c-.316-1.489-.522-3.169-.578-5zm-11.957-2h-5.971c.137-1.792.635-3.483 1.428-5h5.064c-.295 1.534-.471 3.218-.521 5zm0 2c.05 1.782.226 3.466.521 5h-5.064c-.793-1.517-1.291-3.208-1.428-5zm1.001 7c.488 1.721 1.131 3.193 1.899 4.335-2.456-.814-4.584-2.341-6.148-4.335zm2.099 0h7.756c-.987 3.118-2.477 5-3.878 5s-2.891-1.882-3.878-5zm9.855 0h4.248c-1.564 1.995-3.692 3.521-6.148 4.335.769-1.142 1.413-2.614 1.9-4.335zm5.544-2h-5.064c.296-1.534.471-3.218.521-5h5.971c-.137 1.792-.635 3.483-1.428 5zm-1.295-14h-4.248c-.488-1.721-1.131-3.193-1.899-4.335 2.455.814 4.583 2.34 6.147 4.335zm-14.304-4.335c-.768 1.142-1.412 2.614-1.899 4.335h-4.248c1.563-1.995 3.691-3.521 6.147-4.335zm7.543 49.335h-6.93l-10.867-16.3c3.705 1.511 9.11 2.3 14.332 2.3s10.627-.789 14.332-2.3zm-25.465 5c-3.859 0-7-3.141-7-7s3.141-7 7-7c1.707 0 3.352.621 4.629 1.75l1.324-1.5c-.817-.722-1.751-1.281-2.754-1.662.329-2.033 1.075-3.969 2.191-5.7l11.61 17.415v3.697zm25 .382-5.236 2.618h-.764v-6h6zm15.448-15.649c-3.201 1.381-5.448 4.565-5.448 8.267h2c0-3.859 3.141-7 7-7s7 3.141 7 7-3.141 7-7 7h-17v-3.697l9.507-14.261c1.688.175 3.176 1.197 3.941 2.691zm-18.448-5.733c-10.532 0-17-2.912-17-5v-.739c3.331 2.446 10.316 3.739 17 3.739s13.669-1.293 17-3.739v.739c0 2.088-6.468 5-17 5zm17-9c0 2.088-6.468 5-17 5s-17-2.912-17-5c0-.858 1.265-2.219 4.765-3.352 2.72 3.836 7.185 6.352 12.235 6.352s9.515-2.516 12.235-6.352c3.5 1.133 4.765 2.494 4.765 3.352z"/><path d="m59 51c0-2.757-2.243-5-5-5v2c1.654 0 3 1.346 3 3s-1.346 3-3 3h-9v2h9c2.757 0 5-2.243 5-5z"/><path d="m41 54h2v2h-2z"/><path d="m5 51h2c0-1.654 1.346-3 3-3v-2c-2.757 0-5 2.243-5 5z"/><path d="m23 54h2v2h-2z"/><path d="m19 54h2v2h-2z"/><path d="m15 54h2v2h-2z"/></g></g></svg>