<svg id="Layer_5" enable-background="new 0 0 64 64" height="512" viewBox="0 0 64 64" width="512" xmlns="http://www.w3.org/2000/svg"><g><g><g><path d="m49.22 29h-.44c-.665 0-1.331-.157-1.925-.455-4.845-2.422-7.855-7.292-7.855-12.71v-8.835h3.395c1.506 0 2.965-.442 4.219-1.277 1.417-.945 3.356-.945 4.773 0 1.253.835 2.712 1.277 4.218 1.277h3.395v8.835c0 5.417-3.01 10.288-7.855 12.71-.594.298-1.26.455-1.925.455z" fill="#f0bc5e"/></g></g><g><g><path d="m18 47c-9.374 0-17-7.626-17-17s7.626-17 17-17 17 7.626 17 17-7.626 17-17 17zm0-29c-6.617 0-12 5.383-12 12s5.383 12 12 12 12-5.383 12-12-5.383-12-12-12z" fill="#f0bc5e"/></g></g><g><path d="m19 23.142v-2.142h-2v2h-3v4c0 2.206 1.794 4 4 4 1.103 0 2 .897 2 2v2h-2c-1.103 0-2-.897-2-2v-1h-2v1c0 1.859 1.28 3.411 3 3.858v2.142h2v-2h3v-4c0-2.206-1.794-4-4-4-1.103 0-2-.897-2-2v-2h2c1.103 0 2 .897 2 2v1h2v-1c0-1.858-1.28-3.411-3-3.858z"/><path d="m63 15.835v-12.835h-7.395c-.714 0-1.405-.209-1.999-.605-2.736-1.826-6.477-1.824-9.212 0-.594.396-1.286.605-1.999.605h-7.395v12.835c0 6.19 3.072 11.816 8.138 15.165h-3.138c-1.654 0-3 1.346-3 3v2c0 .771.301 1.468.78 2-.48.532-.78 1.229-.78 2v2c0 .352.072.686.184 1h-8.252c-.737.62-1.537 1.162-2.372 1.652-.506.297-1.022.578-1.56.822v1.526h2v-2h2v2h2v-2h2v2h2v-2h2v2h2v-2h1 1v2h2v-2h1c.551 0 1 .448 1 1v2c0 .552-.449 1-1 1h-20c-.551 0-1-.448-1-1v-1.753c-.65.2-1.32.35-2 .471v1.282c0 .771.301 1.468.78 2-.48.532-.78 1.229-.78 2v2c0 .771.301 1.468.78 2-.48.532-.78 1.229-.78 2v2c0 1.654 1.346 3 3 3h20 16c1.654 0 3-1.346 3-3v-2c0-.771-.301-1.468-.78-2 .48-.532.78-1.229.78-2v-2c0-.771-.301-1.468-.78-2 .48-.532.78-1.229.78-2v-2c0-.771-.301-1.468-.78-2 .48-.532.78-1.229.78-2v-2c0-.771-.301-1.468-.78-2 .48-.532.78-1.229.78-2v-2c0-1.654-1.346-3-3-3h-5.138c5.066-3.349 8.138-8.975 8.138-15.165zm-23 27.165c-.551 0-1-.448-1-1v-2c0-.552.449-1 1-1h1v2h2v-2h2v2h2v-2h2v2h2v-2h2v2h2v-2h2v2h2v-2h1c.551 0 1 .448 1 1v2c0 .552-.449 1-1 1h-14-2zm21 3v2c0 .552-.449 1-1 1h-13.184c.114-.313.184-.647.184-1v-2c0-.352-.072-.686-.184-1h2.184v2h2v-2h2v2h2v-2h2v2h2v-2h1c.551 0 1 .448 1 1zm0 6v2c0 .552-.449 1-1 1h-13.184c.112-.314.184-.648.184-1v-2c0-.353-.07-.687-.184-1h2.184v2h2v-2h2v2h2v-2h2v2h2v-2h1c.551 0 1 .448 1 1zm-38 0c0-.552.449-1 1-1h1v2h2v-2h2v2h2v-2h2v2h2v-2h2v2h2v-2h2v2h2v-2h1c.551 0 1 .448 1 1v2c0 .552-.449 1-1 1h-20c-.551 0-1-.448-1-1zm1 9c-.551 0-1-.448-1-1v-2c0-.552.449-1 1-1h1v2h2v-2h2v2h2v-2h2v2h2v-2h2v2h2v-2h2v2h2v-2h1c.551 0 1 .448 1 1v2c0 .552-.449 1-1 1zm37-1c0 .552-.449 1-1 1h-13.184c.112-.314.184-.648.184-1v-2c0-.352-.072-.686-.184-1h2.184v2h2v-2h2v2h2v-2h2v2h2v-2h1c.551 0 1 .448 1 1zm0-26v2c0 .552-.449 1-1 1h-20c-.551 0-1-.448-1-1v-2c0-.552.449-1 1-1h1v2h2v-2h2v2h2v-2h1.78.22v2h2v-2h2v2h2v-2h2v2h2v-2h1c.551 0 1 .448 1 1zm-8.961-3.665c-.87.435-1.844.665-2.819.665h-.44c-.975 0-1.95-.23-2.82-.666-5.527-2.763-8.96-8.319-8.96-14.499v-10.835h5.395c1.11 0 2.185-.326 3.109-.941 2.076-1.385 4.915-1.385 6.993 0 .924.616 1.999.941 3.108.941h5.395v10.835c0 6.18-3.434 11.736-8.961 14.5z"/><path d="m31 30c0-7.168-5.832-13-13-13s-13 5.832-13 13 5.832 13 13 13 13-5.832 13-13zm-13 11c-6.065 0-11-4.935-11-11s4.935-11 11-11 11 4.935 11 11-4.935 11-11 11z"/><path d="m47 20.586-3.293-3.293-1.414 1.414 4.707 4.707 8.707-8.707-1.414-1.414z"/></g></g></svg>