<svg id="Layer_5" enable-background="new 0 0 64 64" height="512" viewBox="0 0 64 64" width="512" xmlns="http://www.w3.org/2000/svg"><g><g><path d="m48 17c-8.271 0-15 6.729-15 15 0 .669.05 1.34.138 2h6.485c.014 0 .027.002.041.002l-1.523-.972c-.041-.367-.061-.739-.061-1.11-.001-5.47 4.45-9.92 9.92-9.92s9.921 4.45 9.921 9.921c0 4.248-2.767 8.068-6.769 9.41l-.182-.116c.645 1.424 1.012 2.997 1.03 4.657v.593l.27-.08c6.317-1.875 10.73-7.789 10.73-14.385 0-8.271-6.729-15-15-15z" fill="#f0bc5e"/></g><g><path d="m53.701 38.962c-.645.529-1.351.96-2.105 1.289-.615-1.2-1.41-2.295-2.358-3.251h2.762v-3c0-1.654-1.346-3-3-3h-2c-.551 0-1-.449-1-1v-1h3c.551 0 1 .449 1 1h2c0-1.654-1.346-3-3-3v-2h-2v2h-3v3c0 1.654 1.346 3 3 3h2c.551 0 1 .449 1 1v1h-3.295c-2.06-1.26-4.485-2-7.082-2h-.564c-.036-.331-.059-.665-.059-1 0-2.074.724-4.099 2.038-5.701l-1.547-1.269c-1.606 1.96-2.491 4.435-2.491 6.97 0 .334.02.668.05 1h-6.65c-.337-1.111-.804-2.175-1.4-3.164v-8.836h3c3.86 0 7-3.14 7-7v-1h-5c-1.958 0-3.728.81-5 2.11v-4.11h5c4.962 0 9-4.038 9-9v-1h-7c-4.962 0-9 4.038-9 9v1 1.356c-1.651-2.044-4.174-3.356-7-3.356h-7v1c0 4.962 4.038 9 9 9h5v1 1 6.259c-1.146-1.175-2.503-2.159-4.026-2.888-.136-1.879-1.692-3.371-3.605-3.371h-2.737c-1.622 0-2.983 1.076-3.447 2.546-5.012 1.416-8.786 5.443-9.862 10.531-1.33.308-2.323 1.502-2.323 2.923v4c0 1.654 1.346 3 3 3h1.274c1.495 4.089 5.401 6.9 9.787 6.991.378 3.419 2.681 6.338 5.939 7.486v1.523c0 1.654 1.346 3 3 3h2c1.654 0 3-1.346 3-3v-1h8v1c0 1.654 1.346 3 3 3h2c1.654 0 3-1.346 3-3v-1.247c4.748-1.533 8-5.949 8-11v-1.893c-.014-1.311-.233-2.575-.622-3.767.93-.403 1.798-.933 2.592-1.584zm-19.701-23.962h2.899c-.464 2.279-2.485 4-4.899 4h-2.899c.464-2.279 2.484-4 4.899-4zm2-12h4.929c-.487 3.388-3.408 6-6.929 6h-4.929c.487-3.388 3.408-6 6.929-6zm-14 14c-3.521 0-6.442-2.612-6.929-6h4.929c3.521 0 6.442 2.612 6.929 6zm-5.369 6h2.737c.9 0 1.632.732 1.632 1.631 0 .151-.021.303-.063.448l-1.354 4.737c-.198.697-.843 1.184-1.598 1.184-.725 0-1.37-.487-1.569-1.184l-1.353-4.735c-.042-.147-.063-.298-.063-.45 0-.899.732-1.631 1.631-1.631zm-9.67 19.725-.207-.725h-2.754c-.551 0-1-.449-1-1v-4c0-.551.449-1 1-1h1.026l.131-.847c.68-4.39 3.83-8.077 7.989-9.5l1.347 4.714c.443 1.55 1.879 2.633 3.522 2.633 1.613 0 3.049-1.083 3.492-2.634l1.122-3.928c3.72 2.004 6.179 5.823 6.36 10.034.142 3.309-1.039 6.444-3.323 8.829-2.286 2.385-5.363 3.699-8.666 3.699h-1.72c-3.842 0-7.263-2.58-8.319-6.275zm44.039 5.029c0 4.396-2.978 8.21-7.242 9.276l-.758.189v2.781c0 .551-.449 1-1 1h-2c-.551 0-1-.449-1-1v-3h-12v3c0 .551-.449 1-1 1h-2c-.551 0-1-.449-1-1v-3.037l-.75-.193c-2.763-.712-4.769-3.016-5.166-5.774 3.821-.022 7.38-1.549 10.026-4.312 2.665-2.781 4.042-6.438 3.876-10.298-.02-.467-.072-.929-.139-1.386h8.776c6.21 0 11.313 4.881 11.376 10.871v1.883z"/><path d="m48 21c-2.535 0-5.01.885-6.97 2.491l1.269 1.547c1.602-1.314 3.627-2.038 5.701-2.038 4.962 0 9 4.038 9 9 0 2.074-.724 4.099-2.038 5.701l1.547 1.269c1.606-1.96 2.491-4.435 2.491-6.97 0-6.065-4.935-11-11-11z"/><path d="m11 31c-1.654 0-3 1.346-3 3s1.346 3 3 3 3-1.346 3-3-1.346-3-3-3zm0 4c-.551 0-1-.449-1-1s.449-1 1-1 1 .449 1 1-.449 1-1 1z"/><path d="m47 47.754c0 2.24-1.33 4.25-3.389 5.12l.778 1.843c2.801-1.184 4.611-3.917 4.611-6.963v-.754h-2z"/><path d="m27 37h-2c0 4.411-3.589 8-8 8v2c5.514 0 10-4.486 10-10z"/></g><g><g><path d="m45 45h-10c-1.654 0-3-1.346-3-3s1.346-3 3-3h10c1.654 0 3 1.346 3 3s-1.346 3-3 3z" fill="#f0bc5e"/></g></g></g></svg>