<svg id="Layer_5" enable-background="new 0 0 64 64" height="512" viewBox="0 0 64 64" width="512" xmlns="http://www.w3.org/2000/svg"><g><g><g><circle cx="43" cy="21" fill="#69d6f4" r="19"/></g><g><path d="m34 52v6c0 2.21-1.79 4-4 4h-24c-2.21 0-4-1.79-4-4v-36c0-2.21 1.79-4 4-4h6 6 6.24 5.76c2.21 0 4 1.79 4 4v15.74 8.26z" fill="#aab2bd"/></g><g><circle cx="60" cy="44" fill="#ff826e" r="2"/></g><g><circle cx="60" cy="60" fill="#ff826e" r="2"/></g><g><circle cx="54" cy="52" fill="#ff826e" r="2"/></g><g><path d="m6 26v31c0 .55.45 1 1 1h22c.55 0 1-.45 1-1v-31z" fill="#fcd770"/></g><g><path d="m30 23v3h-24v-3c0-.55.45-1 1-1h22c.55 0 1 .45 1 1z" fill="#ffc729"/></g><g><circle cx="18" cy="8" fill="#ff826e" r="2"/></g><g><circle cx="10" cy="4" fill="#ff826e" r="2"/></g></g><g><path d="m29 21h-22c-1.103 0-2 .897-2 2v34c0 1.103.897 2 2 2h22c1.103 0 2-.897 2-2v-34c0-1.103-.897-2-2-2zm0 2v2h-22v-2zm-22 18v-6h22v6zm22.001 2v6h-22.001v-6zm-22.001-10v-6h22v6zm0 24v-6h22.001v6z"/><path d="m13 53h2v2h-2z"/><path d="m17 53h2v2h-2z"/><path d="m9 53h2v2h-2z"/><path d="m25 45h2v2h-2z"/><path d="m21 45h2v2h-2z"/><path d="m17 45h2v2h-2z"/><path d="m13 37h2v2h-2z"/><path d="m9 37h2v2h-2z"/><path d="m17 37h2v2h-2z"/><path d="m25 29h2v2h-2z"/><path d="m21 29h2v2h-2z"/><path d="m17 29h2v2h-2z"/><path d="m46.414 47 2-2h8.77c.414 1.161 1.514 2 2.816 2 1.654 0 3-1.346 3-3s-1.346-3-3-3c-1.302 0-2.402.839-2.816 2h-9.598l-2 2h-10.586v-5.675c2.51 1.094 5.243 1.675 8 1.675 11.028 0 20-8.972 20-20s-8.972-20-20-20c-9.598 0-17.696 6.686-19.58 16h-4.42v-6.184c1.161-.414 2-1.514 2-2.816 0-1.654-1.346-3-3-3s-3 1.346-3 3c0 1.302.839 2.402 2 2.816v6.184h-4v-5.414l-2-2v-2.77c1.161-.414 2-1.514 2-2.816 0-1.654-1.346-3-3-3s-3 1.346-3 3c0 1.302.839 2.402 2 2.816v3.598l2 2v4.586h-5c-2.757 0-5 2.243-5 5v36c0 2.757 2.243 5 5 5h24c2.414 0 4.434-1.721 4.899-4h10.687l2 2h9.598c.414 1.161 1.514 2 2.816 2 1.654 0 3-1.346 3-3s-1.346-3-3-3c-1.302 0-2.402.839-2.816 2h-8.77l-2-2h-11.414v-4h16.184c.414 1.161 1.514 2 2.816 2 1.654 0 3-1.346 3-3s-1.346-3-3-3c-1.302 0-2.402.839-2.816 2h-16.184v-4zm13.586-4c.551 0 1 .448 1 1s-.449 1-1 1-1-.448-1-1 .449-1 1-1zm-42-36c.551 0 1 .449 1 1s-.449 1-1 1-1-.449-1-1 .449-1 1-1zm-8-4c.551 0 1 .449 1 1s-.449 1-1 1-1-.449-1-1 .449-1 1-1zm50 56c.551 0 1 .448 1 1s-.449 1-1 1-1-.448-1-1 .449-1 1-1zm-6-8c.551 0 1 .448 1 1s-.449 1-1 1-1-.448-1-1 .449-1 1-1zm-11-48c2.707 0 5.151 3.213 6.606 8h-13.212c1.455-4.787 3.899-8 6.606-8zm7.126 10c.487 2.141.786 4.51.85 7h-15.953c.064-2.49.363-4.859.85-7zm10.823 7h-7.974c-.059-2.489-.326-4.849-.784-7h6.909c1.064 2.13 1.711 4.496 1.849 7zm-17.949 19c-2.707 0-5.151-3.213-6.606-8h13.213c-1.456 4.787-3.9 8-6.607 8zm-7.126-10c-.487-2.141-.786-4.51-.85-7h15.953c-.064 2.49-.363 4.859-.85 7zm17.102-7h7.974c-.139 2.504-.786 4.87-1.849 7h-6.909c.458-2.151.725-4.511.784-7zm-17.976 11.103c.781 2.08 1.761 3.83 2.891 5.151-.995-.294-1.962-.674-2.891-1.135zm13.112 5.147c1.493-1.746 2.726-4.238 3.58-7.25h6.264c-2.31 3.445-5.78 6.043-9.844 7.25zm9.844-27.25h-6.264c-.854-3.012-2.087-5.504-3.58-7.25 4.064 1.207 7.534 3.805 9.844 7.25zm-20.055-7.265c-1.499 1.747-2.737 4.245-3.593 7.265h-6.291c2.319-3.489 5.805-6.075 9.884-7.265zm-11.03 9.265h6.937c-.341 1.601-.572 3.319-.697 5.117-.857-.688-1.929-1.117-3.111-1.117h-4.539c.318-1.41.794-2.748 1.41-4zm6.129 45c0 1.654-1.346 3-3 3h-24c-1.654 0-3-1.346-3-3v-36c0-1.654 1.346-3 3-3h24c1.654 0 3 1.346 3 3z"/></g></g></svg>