<svg id="Layer_5" enable-background="new 0 0 64 64" height="512" viewBox="0 0 64 64" width="512" xmlns="http://www.w3.org/2000/svg"><g><g><g fill="#aab2bd"><path d="m50 58h6v4h-6z"/><path d="m50 36h6v4h-6z"/><path d="m50 14h6v4h-6z"/></g><path d="m62 10v2c0 1.1-.9 2-2 2h-4-6-4c-1.1 0-2-.9-2-2v-2z" fill="#ccd1d9"/><path d="m62 32v2c0 1.1-.9 2-2 2h-4-6-4c-1.1 0-2-.9-2-2v-2z" fill="#ccd1d9"/><path d="m62 54v2c0 1.1-.9 2-2 2h-4-6-4c-1.1 0-2-.9-2-2v-2z" fill="#ccd1d9"/><path d="m62 48v6h-18v-6c0-1.1.9-2 2-2h14c1.1 0 2 .9 2 2z" fill="#69d6f4"/><path d="m62 26v6h-18v-6c0-1.1.9-2 2-2h14c1.1 0 2 .9 2 2z" fill="#69d6f4"/><path d="m62 4v6h-18v-6c0-1.1.9-2 2-2h14c1.1 0 2 .9 2 2z" fill="#69d6f4"/><path d="m9 46h6v14h-6z" fill="#aab2bd"/><path d="m14 26v6h-4v-6h-8v12l7 8h6l7-8v-2-4-4-2z" fill="#fcd770"/><path d="m10 22v4h-8v-4h2z" fill="#ffeaa7"/><path d="m22 22v4h-8v-4h6z" fill="#ffeaa7"/><path d="m14 26v6h-4v-6-4h4z" fill="#5cd6b3"/><path d="m20 14v8h-6-4-6v-8h4 4 4z" fill="#e6e9ed"/><path d="m4 10h16v4h-16z" fill="#5cd6b3"/></g><g><path d="m60 45h-14c-1.654 0-3 1.346-3 3v8c0 1.654 1.346 3 3 3h3v2h-2v2h12v-2h-2v-2h3c1.654 0 3-1.346 3-3v-8c0-1.654-1.346-3-3-3zm-14 2h14c.552 0 1 .448 1 1v5h-16v-5c0-.552.448-1 1-1zm9 14h-4v-2h4zm5-4h-14c-.552 0-1-.448-1-1v-1h16v1c0 .552-.448 1-1 1z"/><path d="m60 23h-14c-1.654 0-3 1.346-3 3v8c0 1.654 1.346 3 3 3h3v2h-2v2h12v-2h-2v-2h3c1.654 0 3-1.346 3-3v-8c0-1.654-1.346-3-3-3zm-14 2h14c.552 0 1 .448 1 1v5h-16v-5c0-.552.448-1 1-1zm9 14h-4v-2h4zm5-4h-14c-.552 0-1-.448-1-1v-1h16v1c0 .552-.448 1-1 1z"/><path d="m60 1h-14c-1.654 0-3 1.346-3 3v8c0 1.654 1.346 3 3 3h3v2h-2v2h12v-2h-2v-2h3c1.654 0 3-1.346 3-3v-8c0-1.654-1.346-3-3-3zm-14 2h14c.552 0 1 .448 1 1v5h-16v-5c0-.552.448-1 1-1zm9 14h-4v-2h4zm5-4h-14c-.552 0-1-.448-1-1v-1h16v1c0 .552-.448 1-1 1z"/><path d="m39 31h2v2h-2z"/><path d="m35 10v16c0 .552-.448 1-1 1h-11v-6h-2v-12h-18v12h-2v17.376l7 8v14.624h8v-14.624l7-8v-1.376h11c.552 0 1 .448 1 1v12c0 1.654 1.346 3 3 3h3v-2h-3c-.552 0-1-.448-1-1v-12c0-1.654-1.346-3-3-3h-11v-2h14v-2h-14v-2h11c1.654 0 3-1.346 3-3v-16c0-.552.448-1 1-1h3v-2h-3c-1.654 0-3 1.346-3 3zm-25.546 35-5.25-6h15.592l-5.25 6zm-6.454-8v-10h6v6h6v-6h6v10zm18-14v2h-6v-2zm-10 0h2v8h-2zm8-10h-2v-2h2zm-10 0v-2h2v2zm4-2h2v2h-2zm-6 0v2h-2v-2zm-2 4h14v6h-4-6-4zm4 8v2h-6v-2zm1 36v-12h4v12z"/></g></g></svg>