<svg id="Layer_5" enable-background="new 0 0 64 64" height="512" viewBox="0 0 64 64" width="512" xmlns="http://www.w3.org/2000/svg"><g><g><g><path d="m51 25c-6.617 0-12-5.383-12-12s5.383-12 12-12 12 5.383 12 12-5.383 12-12 12z" fill="#f0bc5e"/></g></g><g><path d="m28.612 36.567-5.228-4.672 4.796-5.795c.529-.658.82-1.477.82-2.304 0-2.093-1.794-3.796-4-3.796-1.309 0-1.986.721-2.48 1.247-.412.438-.597.616-1.022.616-.427 0-.611-.178-1.023-.617-.496-.525-1.173-1.246-2.481-1.246s-1.984.721-2.479 1.247c-.411.438-.595.616-1.02.616-.424 0-.607-.178-1.019-.616-.493-.526-1.169-1.247-2.476-1.247-2.206 0-4 1.703-4 3.796 0 .827.291 1.646.829 2.314l4.787 5.786-5.2 4.648c-3.442 2.852-5.416 7.041-5.416 11.495 0 8.249 6.75 14.961 15.046 14.961h1.908c8.296 0 15.046-6.712 15.046-14.961 0-4.454-1.974-8.643-5.388-11.472zm-19.612-12.771c0-.99.897-1.796 2-1.796.424 0 .607.178 1.019.616.494.526 1.171 1.247 2.478 1.247 1.308 0 1.984-.721 2.479-1.247.41-.438.593-.616 1.018-.616.426 0 .61.178 1.022.616.494.526 1.172 1.247 2.48 1.247s1.985-.721 2.479-1.246c.414-.439.598-.617 1.025-.617 1.103 0 2 .806 2 1.796 0 .379-.131.742-.37 1.039l-5.101 6.165h-7.058l-5.092-6.154c-.248-.308-.379-.671-.379-1.05zm9.954 37.204h-1.908c-7.193 0-13.046-5.814-13.046-12.961 0-3.856 1.71-7.485 4.72-9.979l5.662-5.06h7.236l5.69 5.083c2.982 2.471 4.692 6.1 4.692 9.956 0 7.147-5.853 12.961-13.046 12.961z"/><path d="m19 37v-2h-2v2h-4v6c0 2.206 1.794 4 4 4h2c1.103 0 2 .897 2 2v4h-4c-1.103 0-2-.897-2-2v-1h-2v1c0 2.206 1.794 4 4 4v2h2v-2h4v-6c0-2.206-1.794-4-4-4h-2c-1.103 0-2-.897-2-2v-4h4c1.103 0 2 .897 2 2v1h2v-1c0-2.206-1.794-4-4-4z"/><path d="m43.929 12h14.142v2h-14.142z" transform="matrix(.707 -.707 .707 .707 5.745 39.87)"/><path d="m55 14c-1.654 0-3 1.346-3 3s1.346 3 3 3 3-1.346 3-3-1.346-3-3-3zm0 4c-.552 0-1-.448-1-1s.448-1 1-1 1 .448 1 1-.448 1-1 1z"/><path d="m50 9c0-1.654-1.346-3-3-3s-3 1.346-3 3 1.346 3 3 3 3-1.346 3-3zm-4 0c0-.552.448-1 1-1s1 .448 1 1-.448 1-1 1-1-.448-1-1z"/></g><g><path d="m11.586 13.414c-.378-.378-.586-.88-.586-1.414s.208-1.036.586-1.414.88-.586 1.414-.586 1.036.208 1.414.586l1.586 1.586v-6.172c0-2.206 1.794-4 4-4h7c1.103 0 2 .897 2 2s-.897 2-2 2h-7v6.172l1.586-1.586c.378-.378.88-.586 1.414-.586s1.036.208 1.414.586c.78.779.78 2.049 0 2.828l-6.414 6.414z" fill="#f0bc5e"/></g><g><path d="m56.414 39.586c.378.378.586.88.586 1.414s-.208 1.036-.586 1.414-.88.586-1.414.586-1.036-.208-1.414-.586l-1.586-1.586v6.172c0 2.206-1.794 4-4 4h-7c-1.103 0-2-.897-2-2s.897-2 2-2h7v-6.172l-1.586 1.586c-.378.378-.88.586-1.414.586s-1.036-.208-1.414-.586c-.78-.779-.78-2.049 0-2.828l6.414-6.414z" fill="#f0bc5e"/></g></g></svg>