<svg id="Layer_5" enable-background="new 0 0 64 64" height="512" viewBox="0 0 64 64" width="512" xmlns="http://www.w3.org/2000/svg"><g><g><path d="m62 54v4c0 2.21-1.79 4-4 4h-52c-2.21 0-4-1.79-4-4v-4h20 20z" fill="#969faa"/><path d="m2 38v4 4 8h60v-8-4-4z" fill="#aab2bd"/><path d="m42 52v2h-20v-2c0-1.1.9-2 2-2h16c1.1 0 2 .9 2 2z" fill="#fcd770"/><path d="m62 14v24h-60v-24c0-2.21 1.79-4 4-4h14.69c-.45 1.25-.69 2.6-.69 4h-13c-.55 0-1 .45-1 1v18c0 .55.45 1 1 1h50c.55 0 1-.45 1-1v-18c0-.55-.45-1-1-1h-13c0-1.4-.24-2.75-.69-4h14.69c2.21 0 4 1.79 4 4z" fill="#ccd1d9"/><path d="m57 14h-50c-.55 0-1 .45-1 1v18c0 .55.45 1 1 1h50c.55 0 1-.45 1-1v-18c0-.55-.45-1-1-1z" fill="#69d6f4"/><path d="m42 24v6h-29c-.83 0-1.58-.34-2.12-.88s-.88-1.29-.88-2.12c0-1.66 1.34-3 3-3h12.37c1.89 1.27 4.17 2 6.63 2s4.74-.73 6.63-2c.01.01.01 0 .01 0z" fill="#e6e9ed"/><path d="m53.12 24.88c.54.54.88 1.29.88 2.12 0 1.66-1.34 3-3 3h-5v-6h5c.83 0 1.58.34 2.12.88z" fill="#e6e9ed"/><path d="m42 24h4v6h-4z" fill="#ff826e"/><circle cx="32" cy="14" fill="#fcd770" r="12"/><path d="m37.66 8.34c1.44 1.45 2.34 3.45 2.34 5.66s-.9 4.21-2.34 5.66c-1.45 1.44-3.45 2.34-5.66 2.34s-4.21-.9-5.66-2.34c-1.44-1.45-2.34-3.45-2.34-5.66s.9-4.21 2.34-5.66c1.45-1.44 3.45-2.34 5.66-2.34s4.21.9 5.66 2.34z" fill="#ffeaa7"/></g><g><path d="m49 57h2v2h-2z"/><path d="m57 57h2v2h-2z"/><path d="m53 57h2v2h-2z"/><path d="m58 9h-14.003c-1.963-4.693-6.6-8-11.997-8s-10.034 3.307-11.997 8h-14.003c-2.757 0-5 2.243-5 5v44c0 2.757 2.243 5 5 5h52c2.757 0 5-2.243 5-5v-44c0-2.757-2.243-5-5-5zm-1 6v18h-50v-18h12.051c.237 3.096 1.558 5.888 3.59 8h-9.641c-2.206 0-4 1.794-4 4s1.794 4 4 4h38c2.206 0 4-1.794 4-4s-1.794-4-4-4h-9.641c2.032-2.112 3.353-4.904 3.59-8zm-6 10c1.103 0 2 .897 2 2s-.897 2-2 2h-4v-4zm-6 4h-2v-4h2zm-21.941-14c.193 1.733.88 3.316 1.916 4.611l-1.423 1.423c-1.391-1.667-2.294-3.751-2.501-6.034zm8.941-8c3.859 0 7 3.141 7 7s-3.141 7-7 7-7-3.141-7-7 3.141-7 7-7zm1 17.949v-2.008c1.733-.193 3.316-.88 4.611-1.916l1.423 1.423c-1.668 1.391-3.751 2.294-6.034 2.501zm-8.034-2.501 1.423-1.423c1.295 1.036 2.878 1.723 4.611 1.916v2.008c-2.283-.207-4.366-1.11-6.034-2.501zm.138 2.552c2.002 1.26 4.362 2 6.896 2s4.894-.74 6.896-2h2.104v4h-28c-1.103 0-2-.897-2-2s.897-2 2-2zm15.344-3.966-1.423-1.423c1.036-1.295 1.723-2.878 1.916-4.611h2.008c-.207 2.283-1.11 4.366-2.501 6.034zm.493-8.034c-.193-1.733-.88-3.316-1.916-4.611l1.423-1.423c1.391 1.667 2.294 3.751 2.501 6.034zm-3.33-6.025c-1.295-1.036-2.878-1.723-4.611-1.916v-2.008c2.283.207 4.366 1.111 6.034 2.501zm-6.611-1.916c-1.733.193-3.316.88-4.611 1.916l-1.423-1.423c1.668-1.391 3.751-2.294 6.034-2.501zm-6.025 3.33c-1.036 1.295-1.723 2.878-1.916 4.611h-2.008c.207-2.283 1.111-4.366 2.501-6.034zm-18.975 2.611h13.363c-.154.65-.26 1.317-.313 2h-12.05c-1.103 0-2 .897-2 2v18c0 1.103.897 2 2 2h50c1.103 0 2-.897 2-2v-18c0-1.103-.897-2-2-2h-12.051c-.052-.683-.158-1.35-.313-2h13.364c1.654 0 3 1.346 3 3v23h-58v-23c0-1.654 1.346-3 3-3zm35 42h-18v-1c0-.552.448-1 1-1h16c.552 0 1 .448 1 1zm-1-4h-16c-1.654 0-3 1.346-3 3v1h-18v-14h58v14h-18v-1c0-1.654-1.346-3-3-3zm18 12h-52c-1.654 0-3-1.346-3-3v-3h58v3c0 1.654-1.346 3-3 3z"/><path d="m37 41h2v2h-2z"/><path d="m17 41h2v2h-2z"/><path d="m13 41h2v2h-2z"/><path d="m45 41h2v2h-2z"/><path d="m49 41h2v2h-2z"/><path d="m5 41h2v2h-2z"/><path d="m53 41h2v2h-2z"/><path d="m9 41h2v2h-2z"/><path d="m29 41h2v2h-2z"/><path d="m57 41h2v2h-2z"/><path d="m33 41h2v2h-2z"/><path d="m25 41h2v2h-2z"/><path d="m41 41h2v2h-2z"/><path d="m21 41h2v2h-2z"/><path d="m45 45h2v2h-2z"/><path d="m57 45h2v2h-2z"/><path d="m41 45h2v2h-2z"/><path d="m49 45h2v2h-2z"/><path d="m5 45h2v2h-2z"/><path d="m37 45h2v2h-2z"/><path d="m9 45h2v2h-2z"/><path d="m25 45h2v2h-2z"/><path d="m33 45h2v2h-2z"/><path d="m21 45h2v2h-2z"/><path d="m29 45h2v2h-2z"/><path d="m17 45h2v2h-2z"/><path d="m53 45h2v2h-2z"/><path d="m13 45h2v2h-2z"/><path d="m53 49h2v2h-2z"/><path d="m57 49h2v2h-2z"/><path d="m45 49h2v2h-2z"/><path d="m49 49h2v2h-2z"/><path d="m17 49h2v2h-2z"/><path d="m13 49h2v2h-2z"/><path d="m9 49h2v2h-2z"/><path d="m5 49h2v2h-2z"/></g></g></svg>