<svg id="Layer_5" enable-background="new 0 0 64 64" height="512" viewBox="0 0 64 64" width="512" xmlns="http://www.w3.org/2000/svg"><g><g><g><path d="m18 36v4h-6-4v-4z" fill="#aab2bd"/></g><g><path d="m27 58h10v4h-10z" fill="#aab2bd"/></g><g><path d="m56 36v4h-4-6v-4z" fill="#aab2bd"/></g><g><path d="m24 32v2c0 1.1-.9 2-2 2h-4-10-4c-1.1 0-2-.9-2-2v-2z" fill="#ccd1d9"/></g><g><path d="m43 54v2c0 1.1-.9 2-2 2h-4-10-4c-1.1 0-2-.9-2-2v-2z" fill="#ccd1d9"/></g><g><path d="m62 32v2c0 1.1-.9 2-2 2h-4-10-4c-1.1 0-2-.9-2-2v-2z" fill="#ccd1d9"/></g><g><path d="m43 50v4h-22v-4-4c0-1.1.9-2 2-2h18c1.1 0 2 .9 2 2z" fill="#69d6f4"/></g><g><circle cx="32" cy="18" fill="#4fc1e9" r="16"/></g><g><path d="m24 31.89v.11h-22v-8c0-1.1.9-2 2-2h8 4.5 5.5c1.1 0 2 .9 2 2v2z" fill="#69d6f4"/></g><g><path d="m62 24v8h-22v-.11-5.89-2c0-1.1.9-2 2-2h5.5 4.5 8c1.1 0 2 .9 2 2z" fill="#69d6f4"/></g></g><path d="m60 21h-7v-2c0-2.86-1.986-5.242-4.71-5.836-2.09-7.024-8.597-12.164-16.29-12.164s-14.2 5.14-16.29 12.164c-2.724.594-4.71 2.976-4.71 5.836v2h-7c-1.654 0-3 1.346-3 3v10c0 1.654 1.346 3 3 3h3v2h-2v2h6v4c0 3.309 2.691 6 6 6h3v5c0 1.654 1.346 3 3 3h3v2h-2v2h16v-2h-2v-2h3c1.654 0 3-1.346 3-3v-5h3c3.309 0 6-2.691 6-6v-4h6v-2h-2v-2h3c1.654 0 3-1.346 3-3v-10c0-1.654-1.346-3-3-3zm1 3v7h-20v-7c0-.552.448-1 1-1h18c.552 0 1 .448 1 1zm-25.898-13c.459 1.762.788 3.771.867 6h-7.939c.079-2.229.408-4.238.867-6zm-5.61-2c.832-2.417 1.833-4.209 2.508-5.264.675 1.055 1.676 2.847 2.508 5.264zm17.457 8h-8.979c-.072-2.208-.362-4.22-.787-6h8.074c.96 1.812 1.549 3.845 1.692 6zm-4.949 4c-1.654 0-3 1.346-3 3v1h-1.817c.425-1.78.716-3.792.787-6h8.996c-.044.674-.137 1.342-.27 2zm-13.102 4c-.459-1.762-.788-3.771-.867-6h7.939c-.079 2.229-.408 4.238-.867 6zm5.61 2c-.832 2.417-1.833 4.209-2.508 5.264-.675-1.055-1.676-2.847-2.508-5.264zm-8.478-10h-8.979c.143-2.155.732-4.188 1.693-6h8.074c-.426 1.78-.716 3.792-.788 6zm-8.725 4c-.134-.658-.226-1.326-.27-2h8.996c.072 2.208.362 4.22.787 6h-1.818v-1c0-1.654-1.346-3-3-3zm7.695 6h2.377c.81 2.56 1.821 4.534 2.608 5.83-1.739-.227-3.433-.754-4.986-1.571v-4.259zm11.623 0h2.377v4.26c-1.553.817-3.247 1.344-4.986 1.571.788-1.297 1.798-3.271 2.609-5.831zm14.377-8v2h-2.269c.175-.986.269-1.99.269-3 0-.88-.088-1.737-.217-2.582 1.325.656 2.217 2.014 2.217 3.582zm-7.028-10h-7.349c-.815-2.575-1.831-4.555-2.621-5.851 4.065.546 7.611 2.721 9.97 5.851zm-13.973-5.851c-.79 1.296-1.807 3.276-2.622 5.851h-7.349c2.359-3.13 5.905-5.305 9.971-5.851zm-16.999 15.851c0-1.567.892-2.926 2.217-3.582-.129.845-.217 1.702-.217 2.582 0 1.01.094 2.014.269 3h-2.269zm-9 4h18c.552 0 1 .448 1 1v7h-20v-7c0-.552.448-1 1-1zm-1 11v-1h20v1c0 .552-.448 1-1 1h-18c-.552 0-1-.448-1-1zm6 3h8v2h-8zm33 16h-20v-7c0-.552.448-1 1-1h18c.552 0 1 .448 1 1zm-6 8h-8v-2h8zm5-4h-18c-.552 0-1-.448-1-1v-1h20v1c0 .552-.448 1-1 1zm10-12c0 2.206-1.794 4-4 4h-3v-3c0-1.654-1.346-3-3-3h-18c-1.654 0-3 1.346-3 3v3h-3c-2.206 0-4-1.794-4-4v-4h8v-2h-2v-2h3c1.654 0 3-1.346 3-3v-.514c2.189.989 4.578 1.514 7 1.514s4.811-.525 7-1.514v.514c0 1.654 1.346 3 3 3h3v2h-2v2h8zm4-6h-8v-2h8zm5-4h-18c-.552 0-1-.448-1-1v-1h20v1c0 .552-.448 1-1 1z"/></g></svg>