<svg id="Layer_5" enable-background="new 0 0 64 64" height="512" viewBox="0 0 64 64" width="512" xmlns="http://www.w3.org/2000/svg"><g><g><g><path d="m30 51h-22c-1.654 0-3-1.346-3-3v-36c0-1.654 1.346-3 3-3h22c1.654 0 3 1.346 3 3v36c0 1.654-1.346 3-3 3z" fill="#f0bc5e"/></g></g><g><path d="m45.444 38h9.112c3.795-1.736 6.444-5.561 6.444-10 0-6.065-4.935-11-11-11s-11 4.935-11 11c0 4.439 2.649 8.264 6.444 10z" fill="#f0bc5e"/></g><g><path d="m32 1h-26c-2.757 0-5 2.243-5 5v52c0 2.757 2.243 5 5 5h26c2.757 0 5-2.243 5-5v-52c0-2.757-2.243-5-5-5zm3 57c0 1.654-1.346 3-3 3h-26c-1.654 0-3-1.346-3-3v-52c0-1.654 1.346-3 3-3h26c1.654 0 3 1.346 3 3z"/><path d="m18 5h6v2h-6z"/><path d="m14 5h2v2h-2z"/><path d="m23 53h-8c-1.103 0-2 .897-2 2v2c0 1.103.897 2 2 2h8c1.103 0 2-.897 2-2v-2c0-1.103-.897-2-2-2zm-8 4v-2h8l.001 2z"/><path d="m49 31c-.551 0-1-.448-1-1h-2c0 1.654 1.346 3 3 3v2h2v-2h3v-3c0-1.654-1.346-3-3-3h-2c-.551 0-1-.448-1-1v-1h3c.551 0 1 .448 1 1h2c0-1.654-1.346-3-3-3v-2h-2v2h-3v3c0 1.654 1.346 3 3 3h2c.551 0 1 .448 1 1v1z"/><path d="m63 48v-2c0-1.383-.945-2.539-2.22-2.884.139-.346.22-.721.22-1.116v-2c0-1.654-1.346-3-3-3h-16c-1.654 0-3 1.346-3 3v2c0 1.383.945 2.539 2.22 2.884-.139.346-.22.721-.22 1.116v2c0 .395.081.77.22 1.116-1.275.345-2.22 1.501-2.22 2.884v2c0 1.383.945 2.539 2.22 2.884-.139.346-.22.721-.22 1.116v2c0 1.654 1.346 3 3 3h16c1.654 0 3-1.346 3-3v-2c0-1.383-.945-2.539-2.22-2.884.139-.346.22-.721.22-1.116v-2c0-.395-.081-.77-.22-1.116 1.275-.346 2.22-1.501 2.22-2.884zm-22-8c0-.552.449-1 1-1h1v2h2v-2h2v2h2v-2h2v2h2v-2h2v2h2v-2h1c.551 0 1 .448 1 1v2c0 .552-.449 1-1 1h-14-2c-.551 0-1-.448-1-1zm0 12c0-.552.449-1 1-1h1v2h2v-2h2v2h2v-2h2v2h2v-2h2v2h2v-2h1c.551 0 1 .448 1 1v2c0 .552-.449 1-1 1h-14-2c-.551 0-1-.448-1-1zm20 8c0 .552-.449 1-1 1h-16c-.551 0-1-.448-1-1v-2c0-.552.449-1 1-1h1v2h2v-2h2v2h2v-2h2v2h2v-2h2v2h2v-2h1c.551 0 1 .448 1 1zm0-12c0 .552-.449 1-1 1h-2-14c-.551 0-1-.448-1-1v-2c0-.552.449-1 1-1h1v2h2v-2h2v2h2v-2h2v2h2v-2h2v2h2v-2h1c.551 0 1 .448 1 1z"/><path d="m29.707 13.707-1.414-1.414-8.293 8.293-3-3-6 6v-10.586h-2v22h20v-2h-2v-16.586zm-8.707 8.707v10.586h-2v-10.586l1 1zm-4 10.586h-2v-10.586l2-2zm-6-6.586 2-2v8.586h-2zm14 6.586h-2v-12.586l2-2z"/><path d="m9 37h2v2h-2z"/><path d="m9 41h2v2h-2z"/><path d="m9 45h2v2h-2z"/><path d="m13 37h16v2h-16z"/><path d="m13 41h16v2h-16z"/><path d="m13 45h16v2h-16z"/></g></g></svg>