<svg id="Layer_5" enable-background="new 0 0 64 64" height="512" viewBox="0 0 64 64" width="512" xmlns="http://www.w3.org/2000/svg"><g><g><g><path d="m60.92 32h-2.92c-2.21 0-4 1.79-4 4s1.79 4 4 4h2.92c-1.38 2.39-3.96 4-6.92 4s-5.54-1.61-6.93-4h-4.07-22-4.07c-1.39 2.39-3.97 4-6.93 4s-5.54-1.61-6.92-4h2.92c2.21 0 4-1.79 4-4s-1.79-4-4-4h-2.92c.36-.63.81-1.21 1.33-1.71 1.72-1.69 4.19-2.61 6.87-2.19 2.39.37 4.43 1.87 5.62 3.9h30.2c1.19-2.03 3.23-3.53 5.62-3.9 2.37-.37 4.58.31 6.25 1.64.78.62 1.45 1.39 1.95 2.26z" fill="#48cfad"/></g><g><path d="m9 18c0-5.52 4.48-10 10-10 2.05 0 3.94.61 5.52 1.67v-.01c2.31-4.55 7.03-7.66 12.48-7.66 7.14 0 13.03 5.35 13.89 12.25.67-.16 1.38-.25 2.11-.25 4.97 0 9 4.03 9 9 0 2.68-1.17 5.09-3.03 6.74-1.67-1.33-3.88-2.01-6.25-1.64-2.39.37-4.43 1.87-5.62 3.9h-30.2c-1.19-2.03-3.23-3.53-5.62-3.9-2.68-.42-5.15.5-6.87 2.19-1.47-1.28-2.41-3.18-2.41-5.29 0-3.87 3.13-7 7-7z" fill="#e6e9ed"/></g><g><path d="m21 40h22v4h-22z" fill="#ffeaa7"/></g><g><path d="m21 50h22v6h-22z" fill="#ffeaa7"/></g><g><path d="m46 46v2c0 1.1-.9 2-2 2h-1-22-1c-1.1 0-2-.9-2-2v-2c0-1.1.9-2 2-2h1 22 1c1.1 0 2 .9 2 2z" fill="#fcd770"/></g><g><path d="m46 58v2c0 1.1-.9 2-2 2h-24c-1.1 0-2-.9-2-2v-2c0-1.1.9-2 2-2h1 22 1c1.1 0 2 .9 2 2z" fill="#fcd770"/></g></g><g><path d="m58 33h4.656l-.87-1.501c-.386-.667-.861-1.251-1.38-1.782 1.659-1.83 2.594-4.223 2.594-6.717 0-5.514-4.486-10-10-10-.436 0-.867.038-1.294.094-1.367-6.962-7.506-12.094-14.706-12.094-5.317 0-10.151 2.76-12.858 7.271-1.538-.81-3.286-1.271-5.142-1.271-5.749 0-10.474 4.435-10.953 10.062-3.963.473-7.047 3.85-7.047 7.938 0 1.974.734 3.86 2.032 5.317-.299.368-.575.761-.818 1.182l-.87 1.501h4.656c1.654 0 3 1.346 3 3s-1.346 3-3 3h-4.656l.87 1.501c1.607 2.775 4.591 4.499 7.786 4.499 3.005 0 5.82-1.519 7.482-4h2.518v2c-1.654 0-3 1.346-3 3v2c0 1.654 1.346 3 3 3v4c-1.654 0-3 1.346-3 3v2c0 1.654 1.346 3 3 3h24c1.654 0 3-1.346 3-3v-2c0-1.654-1.346-3-3-3v-4c1.654 0 3-1.346 3-3v-2c0-1.654-1.346-3-3-3v-2h2.518c1.662 2.481 4.477 4 7.482 4 3.195 0 6.179-1.724 7.786-4.499l.87-1.501h-4.656c-1.654 0-3-1.346-3-3s1.346-3 3-3zm-49-14c3.309 0 6 2.691 6 6h2c0-4.055-3.036-7.408-6.953-7.923.464-4.531 4.302-8.077 8.953-8.077 4.647 0 8.497 3.482 8.956 8.099l1.99-.197c-.307-3.087-1.858-5.752-4.125-7.539 2.34-3.946 6.548-6.363 11.179-6.363 6.263 0 11.599 4.481 12.757 10.549-1.601.55-3.059 1.497-4.211 2.784l1.49 1.334c1.518-1.695 3.692-2.667 5.964-2.667 4.411 0 8 3.589 8 8 0 2.026-.773 3.968-2.139 5.44-1.819-1.171-4.037-1.678-6.297-1.328-2.441.38-4.603 1.786-6.012 3.888h-29.104c-1.409-2.103-3.571-3.508-6.012-3.888-2.55-.395-5.036.306-6.962 1.816-.941-1.085-1.474-2.474-1.474-3.928 0-3.309 2.691-6 6-6zm36 39v2c0 .551-.449 1-1 1h-24c-.551 0-1-.449-1-1v-2c0-.551.449-1 1-1h24c.551 0 1 .449 1 1zm-3-3h-20v-4h20zm3-9v2c0 .551-.449 1-1 1h-24c-.551 0-1-.449-1-1v-2c0-.551.449-1 1-1h24c.551 0 1 .449 1 1zm-3-3h-20v-2h20zm16-2h.887c-1.292 1.262-3.045 2-4.887 2-2.49 0-4.813-1.341-6.062-3.501l-.289-.499h-31.298l-.289.499c-1.249 2.16-3.572 3.501-6.062 3.501-1.842 0-3.595-.738-4.887-2h.887c2.757 0 5-2.243 5-5s-2.243-5-5-5h-.893c1.558-1.531 3.765-2.264 6.022-1.912 2.001.311 3.834 1.588 4.903 3.417l.289.495h31.357l.29-.495c1.069-1.828 2.901-3.105 4.903-3.417 2.257-.352 4.464.381 6.022 1.912h-.893c-2.757 0-5 2.243-5 5s2.243 5 5 5z"/><path d="m45.251 12.4 1.833-.801c-1.752-4.009-5.71-6.599-10.084-6.599v2c3.579 0 6.818 2.12 8.251 5.4z"/><path d="m22.333 14.272 1.335-1.489c-2.766-2.478-6.989-2.361-9.617.267l1.414 1.414c1.876-1.876 4.893-1.961 6.868-.192z"/><path d="m35.707 28.707 4.707-4.707-4.707-4.707-1.414 1.414 3.293 3.293-3.293 3.293z"/><path d="m28.293 28.707 1.414-1.414-3.293-3.293 3.293-3.293-1.414-1.414-4.707 4.707z"/><path d="m26.901 23h10.198v2h-10.198z" transform="matrix(.196 -.981 .981 .196 2.185 50.666)"/></g></g></svg>