<svg id="Layer_5" enable-background="new 0 0 64 64" height="512" viewBox="0 0 64 64" width="512" xmlns="http://www.w3.org/2000/svg"><g><g><path d="m8 49h-6v-7.97c0-3.57 2.37-6.71 5.8-7.69l8.2-2.34 2.84 4.74-2.84 4.26v9z" fill="#fcd770"/><path d="m26 49h-10v-9l2.84-4.26 3.16-4.74 4 1.14z" fill="#fcd770"/><circle cx="44" cy="11" fill="#69d6f4" r="9"/><path d="m11 17c-.83 0-1.58.34-2.12.88s-.88 1.29-.88 2.12v-7c0-6.08 4.92-11 11-11 3.04 0 5.79 1.23 7.78 3.22s3.22 4.74 3.22 7.78v7c0-1.66-1.34-3-3-3h-1l-2-3s-3 2-5 2-5-2-5-2l-2 3z" fill="#b27946"/><g fill="#f0d0b4"><path d="m22 28.13v2.87l-3.16 4.74-2.84-4.74v-2.87l3 1.87c1.11-.48 2.12-1.11 3-1.87z"/><path d="m12 17v2.38c0 1.25.2 2.47.59 3.62h-1.59c-1.66 0-3-1.34-3-3 0-.83.34-1.58.88-2.12s1.29-.88 2.12-.88z"/><path d="m27 17c1.66 0 3 1.34 3 3 0 .83-.34 1.58-.88 2.12s-1.29.88-2.12.88h-1.59c.39-1.15.59-2.37.59-3.62v-2.38z"/><path d="m25.41 23c-.65 1.98-1.83 3.76-3.41 5.13-.88.76-1.89 1.39-3 1.87l-3-1.87-2.09-2.39c-.56-.85-1.01-1.77-1.32-2.74-.39-1.15-.59-2.37-.59-3.62v-2.38l2-3s3 2 5 2 5-2 5-2l2 3v2.38c0 1.25-.2 2.47-.59 3.62z"/></g><path d="m58 28c2.21 0 4 1.79 4 4v18c0 2.21-1.79 4-4 4h-9l-1-8h-8l-1 8h-9c-2.21 0-4-1.79-4-4v-1-16.86-.14c0-2.21 1.79-4 4-4h14 4z" fill="#ccd1d9"/><path d="m40 46h8l1 8 1 8h-12l1-8z" fill="#969faa"/></g><g><path d="m58 27h-9v-1c0-.552.448-1 1-1h7c1.654 0 3-1.346 3-3v-1h-2v1c0 .552-.448 1-1 1h-7c-1.654 0-3 1.346-3 3v1h-2v-6.051c5.046-.504 9-4.773 9-9.949 0-5.514-4.486-10-10-10s-10 4.486-10 10c0 5.176 3.954 9.446 9 9.949v6.051h-13c-2.362 0-4.336 1.652-4.856 3.858l-2.144-.612v-1.682c1.367-1.272 2.434-2.831 3.119-4.564h.881c2.206 0 4-1.794 4-4v-7c0-6.617-5.383-12-12-12s-12 5.383-12 12v7c0 2.206 1.794 4 4 4h.881c.685 1.734 1.752 3.292 3.119 4.564v1.682l-7.473 2.134c-3.843 1.099-6.527 4.657-6.527 8.654v8.966h24c0 2.757 2.243 5 5 5h7.867l-.75 6h-4.117v2h22v-2h-4.117l-.75-6h7.867c2.757 0 5-2.243 5-5v-18c0-2.757-2.243-5-5-5zm-15.462-11h2.924c-.479 1.977-1.149 3-1.462 3s-.983-1.023-1.462-3zm1.462-13c.312 0 .983 1.023 1.462 3h-2.924c.479-1.977 1.15-3 1.462-3zm1.819 5c.077.614.134 1.277.161 2h-3.961c.027-.723.085-1.386.161-2zm6.112 4c-.088.698-.263 1.369-.52 2h-3.579c.074-.657.125-1.327.149-2zm0-2h-3.95c-.024-.673-.075-1.343-.149-2h3.579c.256.631.432 1.302.52 2zm-11.912 0h-3.95c.088-.698.263-1.369.52-2h3.579c-.074.657-.125 1.327-.149 2zm-3.95 2h3.95c.024.673.075 1.343.149 2h-3.579c-.256-.631-.432-1.302-.52-2zm5.95 0h3.961c-.027.723-.085 1.386-.161 2h-3.639c-.076-.614-.134-1.277-.161-2zm4.745 6.498c.312-.727.56-1.579.752-2.498h2.719c-.901 1.121-2.098 1.99-3.471 2.498zm3.471-12.498h-2.719c-.192-.919-.44-1.771-.752-2.498 1.373.508 2.57 1.377 3.471 2.498zm-8.999-2.498c-.312.727-.559 1.579-.752 2.498h-2.719c.901-1.121 2.098-1.99 3.471-2.498zm-3.471 12.498h2.719c.192.919.44 1.771.752 2.498-1.373-.508-2.57-1.377-3.471-2.498zm-10.765 6h-.279c.181-.849.279-1.724.279-2.616v-1.384c1.103 0 2 .897 2 2s-.897 2-2 2zm-8-19c5.514 0 10 4.486 10 10v3.556c-.591-.344-1.268-.556-2-.556h-.465l-2.258-3.386-.832.554c-.765.51-3.058 1.832-4.445 1.832s-3.68-1.322-4.445-1.832l-.833-.554-2.257 3.386h-.465c-.732 0-1.409.212-2 .556v-3.556c0-5.514 4.486-10 10-10zm-8 19c-1.103 0-2-.897-2-2s.897-2 2-2v1.384c0 .892.098 1.767.279 2.616zm2-2.616v-2.081l1.297-1.945c1.121.647 3.102 1.642 4.703 1.642s3.582-.995 4.703-1.643l1.297 1.946v2.081c0 4.081-2.341 7.771-6 9.519-3.659-1.748-6-5.438-6-9.519zm5.606 11.535.394.169.394-.169c.561-.24 1.096-.52 1.606-.831v.61l-2.114 3.17-1.886-3.145v-.635c.51.311 1.046.591 1.606.831zm-15.606 10.115c0-3.108 2.088-5.877 5.076-6.73l7.461-2.132 2.122 3.537-2.659 3.988v8.303h-6v-6h-2v6h-4zm14 6.966v-7.697l5.427-8.141 2.573.735v15.103zm22.133 13 1.75-14h6.234l1.75 14zm21.867-11c0 1.654-1.346 3-3 3h-8.117l-1-8h-9.766l-1 8h-8.117c-1.654 0-3-1.346-3-3v-18c0-1.654 1.346-3 3-3h28c1.654 0 3 1.346 3 3z"/><path d="m19 40h2v2h-2z"/><path d="m19 44h2v2h-2z"/><path d="m58 17h2v2h-2z"/><path d="m58 13h2v2h-2z"/><path d="m57 35h2v2h-2z"/><path d="m57 31h2v2h-2z"/><path d="m57 39h2v2h-2z"/><path d="m43 57h2v2h-2z"/><path d="m43 49h2v2h-2z"/><path d="m43 53h2v2h-2z"/></g></g></svg>