<svg id="Layer_5" enable-background="new 0 0 64 64" height="512" viewBox="0 0 64 64" width="512" xmlns="http://www.w3.org/2000/svg"><g><g><g><path d="m20 10v34h40c1.1 0 2-.9 2-2v-32z" fill="#e6e9ed"/></g><g><path d="m20 10v34h-16c-1.1 0-2-.9-2-2v-32z" fill="#ffeaa7"/></g><g><path d="m6 34h10v6h-10z" fill="#ff826e"/></g><g><path d="m6 24h10v6h-10z" fill="#ff826e"/></g><g><path d="m2 10v-6c0-1.1.9-2 2-2h56c1.1 0 2 .9 2 2v6h-42z" fill="#5cd6b3"/></g><g><path d="m6 14h10v6h-10z" fill="#ff826e"/></g><g><path d="m56 20v6h-26c-1.1 0-2 .9-2 2v4c0 1.1.9 2 2 2v6h-4c-1.1 0-2-.9-2-2v-18z" fill="#48cfad"/></g><g><path d="m56 16v4h-32v-2c0-1.1.9-2 2-2h17l1.41-1.41c.38-.38.89-.59 1.42-.59h8.17c1.1 0 2 .9 2 2z" fill="#ffeaa7"/></g><g><path d="m56 34v6h-24-2v-6z" fill="#ffeaa7"/></g><g><path d="m30 48h26v6h-26z" fill="#ffeaa7"/></g><g><path d="m58 56v4c0 1.1-.9 2-2 2h-26c-1.1 0-2-.9-2-2v-4c0-1.1.9-2 2-2h26c1.1 0 2 .9 2 2z" fill="#fcd770"/></g><g><path d="m58 44v2c0 1.1-.9 2-2 2h-26c-1.1 0-2-.9-2-2v-2-2c0-1.1.9-2 2-2h2 24c1.1 0 2 .9 2 2z" fill="#fcd770"/></g><g><path d="m58 28v4c0 1.1-.9 2-2 2h-26c-1.1 0-2-.9-2-2v-4c0-1.1.9-2 2-2h26c1.1 0 2 .9 2 2z" fill="#fcd770"/></g></g><g><path d="m60 1h-56c-1.654 0-3 1.346-3 3v38c0 1.654 1.346 3 3 3h23v1c0 1.302.839 2.402 2 2.816v4.369c-1.161.414-2 1.514-2 2.816v4c0 1.654 1.346 3 3 3h26c1.654 0 3-1.346 3-3v-4c0-1.302-.839-2.402-2-2.816v-4.369c1.161-.414 2-1.514 2-2.816v-1h1c1.654 0 3-1.346 3-3v-38c0-1.654-1.346-3-3-3zm-56 2h56c.551 0 1 .448 1 1v5h-58v-5c0-.552.449-1 1-1zm-1 39v-31h16v32h-15c-.551 0-1-.448-1-1zm28-7h24v4h-23-1zm25-2h-26c-.551 0-1-.448-1-1v-4c0-.552.449-1 1-1h26c.551 0 1 .448 1 1v4c0 .552-.449 1-1 1zm-1-14h-30v-1c0-.552.449-1 1-1h17.414l1.707-1.707c.189-.189.441-.293.708-.293h8.171c.551 0 1 .448 1 1zm-30 2h30v4h-25c-1.654 0-3 1.346-3 3v4c0 1.302.839 2.402 2 2.816v4.184h-3c-.551 0-1-.448-1-1zm6 32v-4h24v4zm26 7c0 .552-.449 1-1 1h-26c-.551 0-1-.448-1-1v-4c0-.552.449-1 1-1h26c.551 0 1 .448 1 1zm0-14c0 .552-.449 1-1 1h-26c-.551 0-1-.448-1-1v-4c0-.552.449-1 1-1h2 24c.551 0 1 .448 1 1zm3-3h-1v-1c0-1.302-.839-2.402-2-2.816v-4.369c1.161-.414 2-1.514 2-2.816v-4c0-1.302-.839-2.402-2-2.816v-9.183c0-1.654-1.346-3-3-3h-8.171c-.801 0-1.555.313-2.122.879l-1.121 1.121h-16.586c-1.654 0-3 1.346-3 3v20c0 1.654 1.346 3 3 3h1.184c-.112.314-.184.648-.184 1v1h-6v-32h40v31c0 .552-.449 1-1 1z"/><path d="m9 5h2v2h-2z"/><path d="m5 5h2v2h-2z"/><path d="m13 5h2v2h-2z"/><path d="m5 13v8h12v-8zm10 6h-8v-4h8z"/><path d="m5 31h12v-8h-12zm2-6h8v4h-8z"/><path d="m5 41h12v-8h-12zm2-6h8v4h-8z"/></g></g></svg>