<svg id="Layer_5" enable-background="new 0 0 64 64" height="512" viewBox="0 0 64 64" width="512" xmlns="http://www.w3.org/2000/svg"><g><g><g><path d="m12 23c-6.065 0-11-4.935-11-11s4.935-11 11-11 11 4.935 11 11-4.935 11-11 11z" fill="#f0bc5e"/></g></g><g><g><path d="m47 17c-4.411 0-8-3.589-8-8s3.589-8 8-8 8 3.589 8 8-3.589 8-8 8zm0-11c-1.654 0-3 1.346-3 3s1.346 3 3 3 3-1.346 3-3-1.346-3-3-3z" fill="#f0bc5e"/></g></g><g><path d="m33 47c.552 0 1 .449 1 1h2c0-1.654-1.346-3-3-3v-2h-2v2h-3v3c0 1.654 1.346 3 3 3h2c.552 0 1 .449 1 1v1h-3c-.552 0-1-.449-1-1h-2c0 1.654 1.346 3 3 3v2h2v-2h3v-3c0-1.654-1.346-3-3-3h-2c-.552 0-1-.449-1-1v-1z"/><path d="m11 15c-.552 0-1-.449-1-1h-2c0 1.654 1.346 3 3 3v2h2v-2h3v-3c0-1.654-1.346-3-3-3h-2c-.552 0-1-.449-1-1v-1h3c.552 0 1 .449 1 1h2c0-1.654-1.346-3-3-3v-2h-2v2h-3v3c0 1.654 1.346 3 3 3h2c.552 0 1 .449 1 1v1z"/><path d="m47 13c2.206 0 4-1.794 4-4s-1.794-4-4-4-4 1.794-4 4 1.794 4 4 4zm0-6c1.103 0 2 .897 2 2s-.897 2-2 2-2-.897-2-2 .897-2 2-2z"/><path d="m60 37h-20c-.94 0-1.786.436-2.339 1.125l-.305-.267 4.845-6.459c.515-.688.799-1.54.799-2.399 0-2.206-1.794-4-4-4-.682 0-1.198.213-1.603.491l1.134-3.779c.127-.425.512-.712.957-.712h13.613c.465 2.279 2.484 4 4.899 4 2.757 0 5-2.243 5-5s-2.243-5-5-5c-2.414 0-4.434 1.721-4.899 4h-13.613c-1.335 0-2.49.859-2.874 2.138l-1.692 5.639c-.121-.103-.25-.236-.425-.436-.148-.169-.325-.365-.533-.555l2.721-14.965c.086-.476.501-.821.984-.821h1.401c-.042-.328-.07-.661-.07-1s.028-.672.069-1h-1.401c-1.451 0-2.692 1.036-2.951 2.463l-2.644 14.543c-.027-.001-.051-.006-.079-.006-.255 0-.48.037-.692.089l-2.954-11.816c-.333-1.338-1.531-2.273-2.91-2.273h-2.489c.03.33.051.662.051 1s-.021.67-.051 1h2.489c.46 0 .858.312.971.758l3.132 12.529c-.016.018-.034.038-.049.055-.434.497-.608.658-.996.658s-.561-.161-.995-.658c-.467-.534-1.173-1.342-2.501-1.342-2.206 0-4 1.794-4 4 0 .859.284 1.711.8 2.4l4.844 6.458-3.309 2.895c-.766.67-1.431 1.43-2.006 2.247h-17.329c-1.654 0-3 1.346-3 3v2c0 .771.301 1.468.78 2-.479.532-.78 1.229-.78 2v2c0 .771.301 1.468.78 2-.479.532-.78 1.229-.78 2v2c0 1.654 1.346 3 3 3h20c.959 0 1.822-.458 2.376-1.183 1.62.752 3.417 1.183 5.317 1.183h.613c1.9 0 3.697-.431 5.317-1.183.554.725 1.418 1.183 2.377 1.183h20c1.654 0 3-1.346 3-3v-2c0-.771-.301-1.468-.78-2 .48-.532.78-1.229.78-2v-2c0-.771-.301-1.468-.78-2 .48-.532.78-1.229.78-2v-2c0-.771-.301-1.468-.78-2 .48-.532.78-1.229.78-2v-2c0-1.654-1.346-3-3-3zm-2-20c1.654 0 3 1.346 3 3s-1.346 3-3 3-3-1.346-3-3 1.346-3 3-3zm-18 22h1v2h2v-2h2v2h2v-2h2v2h2v-2h2v2h2v-2h2v2h2v-2h1c.552 0 1 .449 1 1v2c0 .551-.448 1-1 1h-17.329c-.576-.817-1.24-1.576-2.006-2.247l-1.487-1.301c.181-.269.478-.452.822-.452zm21 7v2c0 .551-.448 1-1 1h-15.07c-.144-1.393-.517-2.743-1.096-4h1.166v2h2v-2h2v2h2v-2h2v2h2v-2h2v2h2v-2h1c.552 0 1 .449 1 1zm0 6v2c0 .551-.448 1-1 1h-15.91c.499-1.249.798-2.594.875-4h.035v2h2v-2h2v2h2v-2h2v2h2v-2h2v2h2v-2h1c.552 0 1 .449 1 1zm-38-23c0-1.103.897-2 2-2 .388 0 .561.161.995.658.467.534 1.173 1.342 2.501 1.342s2.034-.808 2.502-1.342c.435-.497.608-.658.996-.658.389 0 .563.161.999.659.468.534 1.174 1.341 2.504 1.341 1.329 0 2.035-.807 2.503-1.341.437-.498.61-.659 1-.659 1.103 0 2 .897 2 2 0 .43-.142.856-.399 1.2l-5.101 6.8h-7l-5.1-6.8c-.258-.344-.4-.77-.4-1.2zm-20 17c0-.551.448-1 1-1h1v2h2v-2h2v2h2v-2h2v2h2v-2h2v2h2v-2h1.166c-.579 1.257-.952 2.607-1.096 4h-15.07c-.552 0-1-.449-1-1zm1 9c-.552 0-1-.449-1-1v-2c0-.551.448-1 1-1h1v2h2v-2h2v2h2v-2h2v2h2v-2h2v2h2v-2h.035c.077 1.406.376 2.751.875 4zm20 6h-20c-.552 0-1-.449-1-1v-2c0-.551.448-1 1-1h1v2h2v-2h2v2h2v-2h2v2h2v-2h2v2h2v-2h1.928c.941 1.508 2.18 2.812 3.648 3.81-.165.117-.362.19-.576.19zm7.693 0c-5.896 0-10.693-4.797-10.693-10.694 0-3.083 1.331-6.017 3.651-8.048l3.725-3.258h7.248l3.725 3.258c2.32 2.031 3.651 4.965 3.651 8.048 0 5.897-4.797 10.694-10.693 10.694zm29.307-1c0 .551-.448 1-1 1h-20c-.214 0-.412-.073-.577-.189 1.468-.998 2.707-2.302 3.648-3.811h1.929v2h2v-2h2v2h2v-2h2v2h2v-2h2v2h2v-2h1c.552 0 1 .449 1 1z"/></g></g></svg>