<svg id="Layer_5" enable-background="new 0 0 64 64" height="512" viewBox="0 0 64 64" width="512" xmlns="http://www.w3.org/2000/svg"><g><g><path d="m56.92 52h.08c2.76 0 5 2.24 5 5s-2.24 5-5 5h-24c-2.76 0-5-2.24-5-5s2.24-5 5-5c.08 0 .17 0 .25.01-.16-.64-.25-1.32-.25-2.01 0-.71.1-1.4.28-2.06 4.26-.33 8.04-2.33 10.7-5.35 2.18.89 3.88 2.67 4.62 4.91.73-.32 1.55-.5 2.4-.5 2.98 0 5.44 2.16 5.92 5z" fill="#e6e9ed"/><path d="m15 45 4 4 1 1-10.76 10.76c-.79.79-1.87 1.24-3 1.24-1.17 0-2.23-.48-3-1.24-.76-.77-1.24-1.83-1.24-3 0-1.13.45-2.21 1.24-3l10.76-10.76z" fill="#b27946"/><path d="m22.86 45.14-3.86 3.86-4-4 3.86-3.86c1.09 1.56 2.44 2.91 4 4z" fill="#ccd1d9"/><path d="m22.86 45.14c-1.56-1.09-2.91-2.44-4-4-1.8-2.59-2.86-5.74-2.86-9.14 0-8.84 7.16-16 16-16 1.59 0 3.12.23 4.57.67l.88 2.06c-.94.4-1.79.96-2.53 1.64-.93-.23-1.91-.37-2.92-.37-6.63 0-12 5.37-12 12s5.37 12 12 12c5.35 0 9.87-3.5 11.43-8.33v-.01c1.8-.5 3.38-1.55 4.53-2.96-.16 3.79-1.63 7.23-3.98 9.89-2.66 3.02-6.44 5.02-10.7 5.35-.42.04-.85.06-1.28.06-3.4 0-6.55-1.06-9.14-2.86z" fill="#fcd770"/><path d="m41 36c.84 0 1.65-.12 2.43-.33-1.56 4.83-6.08 8.33-11.43 8.33-6.63 0-12-5.37-12-12s5.37-12 12-12c1.01 0 1.99.14 2.92.37-1.8 1.64-2.92 4-2.92 6.63 0 4.97 4.03 9 9 9z" fill="#69d6f4"/><g fill="#ff826e"><path d="m58 2c2.21 0 4 1.79 4 4s-1.79 4-4 4c-.95 0-1.83-.34-2.52-.89-.91-.74-1.48-1.86-1.48-3.11 0-2.21 1.79-4 4-4z"/><path d="m33.57 9.67c-.48.21-1.01.33-1.57.33-2.21 0-4-1.79-4-4s1.79-4 4-4 4 1.79 4 4c0 1.65-1 3.07-2.43 3.67z"/><path d="m50 27c0 2.16-.77 4.15-2.04 5.7-1.15 1.41-2.73 2.46-4.53 2.96v.01c-.78.21-1.59.33-2.43.33-4.97 0-9-4.03-9-9 0-2.63 1.12-4.99 2.92-6.63.74-.68 1.59-1.24 2.53-1.64 1.09-.47 2.29-.73 3.55-.73 2.14 0 4.12.75 5.66 2.01 2.04 1.65 3.34 4.17 3.34 6.99z"/></g></g><g><path d="m57.719 51.047c-.854-2.967-3.557-5.047-6.719-5.047-.622 0-1.232.081-1.826.242-.769-1.668-2.042-3.049-3.638-3.98 1.952-2.581 3.184-5.739 3.398-9.2 1.29-1.684 2.066-3.782 2.066-6.062 0-2.774-1.137-5.286-2.967-7.099l7.676-9.483c.69.359 1.461.582 2.291.582 2.757 0 5-2.243 5-5s-2.243-5-5-5c-2.414 0-4.434 1.721-4.899 4h-16.202c-.465-2.279-2.485-4-4.899-4-2.757 0-5 2.243-5 5s2.243 5 5 5c.346 0 .684-.036 1.011-.103l1.868 4.359c-.949-.164-1.91-.256-2.879-.256-9.374 0-17 7.626-17 17 0 3.302.961 6.377 2.597 8.989l-2.597 2.597-1-1-11.464 11.464c-.991.99-1.536 2.306-1.536 3.708 0 2.89 2.352 5.242 5.243 5.242 1.399 0 2.716-.545 3.707-1.535l11.464-11.465-1-1 2.597-2.597c2.612 1.636 5.687 2.597 8.989 2.597.023 0 .045-.003.068-.003-.039.336-.068.672-.068 1.003 0 .362.025.722.068 1.08-2.866.45-5.068 2.929-5.068 5.92 0 3.309 2.691 6 6 6h24c3.309 0 6-2.691 6-6 0-3.065-2.311-5.596-5.281-5.953zm-8.719-24.047c0 4.411-3.589 8-8 8s-8-3.589-8-8 3.589-8 8-8 8 3.589 8 8zm-7.181 9.958c-1.846 3.673-5.603 6.042-9.819 6.042-6.065 0-11-4.935-11-11s4.935-11 11-11c.319 0 .646.032.972.063-1.233 1.663-1.972 3.713-1.972 5.937 0 5.514 4.486 10 10 10 .276 0 .548-.019.819-.042zm16.181-33.958c1.654 0 3 1.346 3 3s-1.346 3-3 3-3-1.346-3-3 1.346-3 3-3zm-29 3c0-1.654 1.346-3 3-3s3 1.346 3 3-1.346 3-3 3-3-1.346-3-3zm7.899 1h16.202c.166.813.546 1.54 1.055 2.158l-7.678 9.485c-1.575-1.035-3.456-1.643-5.478-1.643-1.045 0-2.053.163-3 .461l-3.154-7.359c1.037-.722 1.792-1.821 2.053-3.102zm-28.363 53.05c-.613.613-1.428.95-2.293.95-1.788 0-3.243-1.454-3.243-3.242 0-.867.337-1.681.95-2.293l10.05-10.051 4.586 4.586zm10.464-12.464-2.586-2.586 2.353-2.353c.767.952 1.634 1.818 2.586 2.586zm-2-15.586c0-8.271 6.729-15 15-15 1.303 0 2.594.179 3.847.513l.317.74c-.545.303-1.061.653-1.538 1.048-.886-.185-1.768-.301-2.626-.301-7.168 0-13 5.832-13 13s5.832 13 13 13c5.496 0 10.325-3.41 12.197-8.533.863-.292 1.676-.692 2.416-1.196-1.491 6.751-7.466 11.729-14.613 11.729-8.271 0-15-6.729-15-15zm40 29h-24c-2.206 0-4-1.794-4-4s1.794-4 4-4c.874 0 1.704.276 2.399.8l1.201-1.6c-.747-.562-1.6-.925-2.502-1.091-.058-.366-.098-.735-.098-1.109 0-.375.046-.759.112-1.145 3.949-.488 7.47-2.323 10.098-5.046 1.63.842 2.867 2.27 3.438 4.007l.344 1.045 1.008-.441c.635-.278 1.308-.42 2-.42 2.1 0 3.911 1.288 4.646 3.172-.807.186-1.571.521-2.247 1.029l1.201 1.6c.696-.525 1.526-.801 2.4-.801 2.206 0 4 1.794 4 4s-1.794 4-4 4z"/><path d="m38 57h2v2h-2z"/><path d="m50 57h2v2h-2z"/><path d="m34 57h2v2h-2z"/><path d="m42 57h2v2h-2z"/><path d="m46 57h2v2h-2z"/><path d="m54 57h2v2h-2z"/><path d="m41 31v2c3.309 0 6-2.691 6-6h-2c0 2.206-1.794 4-4 4z"/><path d="m5 5h12v2h-12z"/><path d="m19 5h4v2h-4z"/><path d="m5 9h18v2h-18z"/><path d="m21 13h2v2h-2z"/><path d="m17 13h2v2h-2z"/><path d="m5 13h10v2h-10z"/><path d="m25 32h-2c0 4.963 4.038 9 9 9v-2c-3.86 0-7-3.141-7-7z"/></g></g></svg>