<svg id="Layer_5" enable-background="new 0 0 64 64" height="512" viewBox="0 0 64 64" width="512" xmlns="http://www.w3.org/2000/svg"><g><g><g fill="#aab2bd"><path d="m50 14h6v4h-6z"/><path d="m8 14h6v4h-6z"/><path d="m8 58h6v4h-6z"/><path d="m50 58h6v4h-6z"/></g><path d="m46 14c-1.1 0-2-.9-2-2v-2h18v2c0 1.1-.9 2-2 2h-4-6-3z" fill="#ccd1d9"/><path d="m20 12c0 1.1-.9 2-2 2h-1-3-6-4c-1.1 0-2-.9-2-2v-2h18z" fill="#ccd1d9"/><path d="m20 54v2c0 1.1-.9 2-2 2h-4-6-4c-1.1 0-2-.9-2-2v-2z" fill="#ccd1d9"/><path d="m62 54v2c0 1.1-.9 2-2 2h-4-6-4c-1.1 0-2-.9-2-2v-2z" fill="#ccd1d9"/><path d="m62 48v6h-18v-6c0-1.1.9-2 2-2h14c1.1 0 2 .9 2 2z" fill="#69d6f4"/><path d="m20 48v6h-18v-6c0-1.1.9-2 2-2h14c1.1 0 2 .9 2 2z" fill="#69d6f4"/><path d="m20 4v6h-18v-6c0-1.1.9-2 2-2h14c1.1 0 2 .9 2 2z" fill="#69d6f4"/><path d="m62 4v6h-18v-6c0-1.1.9-2 2-2h14c1.1 0 2 .9 2 2z" fill="#69d6f4"/><circle cx="32" cy="6" fill="#ff826e" r="4"/><circle cx="6" cy="32" fill="#ff826e" r="4"/><circle cx="32" cy="32" fill="#69d6f4" r="14"/><circle cx="32" cy="58" fill="#ff826e" r="4"/><circle cx="58" cy="32" fill="#ff826e" r="4"/></g><path d="m60 15c1.654 0 3-1.346 3-3v-8c0-1.654-1.346-3-3-3h-14c-1.654 0-3 1.346-3 3v8c0 1.395.962 2.561 2.254 2.895l-3.57 5.67c-2.376-2.016-5.386-3.295-8.685-3.514v-6.152c2.279-.465 4-2.484 4-4.899 0-2.757-2.243-5-5-5s-5 2.243-5 5c0 2.414 1.721 4.434 4 4.899v6.152c-3.299.219-6.308 1.498-8.685 3.514l-3.57-5.67c1.294-.334 2.256-1.5 2.256-2.895v-8c0-1.654-1.346-3-3-3h-14c-1.654 0-3 1.346-3 3v8c0 1.654 1.346 3 3 3h3v2h-2v2h12v-2h-2v-2h1.448l4.406 6.997c-2.178 2.425-3.574 5.553-3.803 9.003h-6.152c-.465-2.279-2.485-4-4.899-4-2.757 0-5 2.243-5 5s2.243 5 5 5c2.414 0 4.434-1.721 4.899-4h6.152c.225 3.383 1.569 6.457 3.674 8.861l-3.139 3.139h-13.586c-1.654 0-3 1.346-3 3v8c0 1.654 1.346 3 3 3h3v2h-2v2h12v-2h-2v-2h3c1.654 0 3-1.346 3-3v-8c0-.977-.476-1.837-1.201-2.385l2.34-2.34c2.404 2.105 5.478 3.449 8.861 3.674v6.152c-2.279.465-4 2.484-4 4.899 0 2.757 2.243 5 5 5s5-2.243 5-5c0-2.414-1.721-4.434-4-4.899v-6.152c3.383-.225 6.457-1.569 8.861-3.674l2.34 2.34c-.725.548-1.201 1.408-1.201 2.385v8c0 1.654 1.346 3 3 3h3v2h-2v2h12v-2h-2v-2h3c1.654 0 3-1.346 3-3v-8c0-1.654-1.346-3-3-3h-13.586l-3.139-3.139c2.105-2.404 3.449-5.478 3.674-8.861h6.152c.465 2.279 2.484 4 4.899 4 2.757 0 5-2.243 5-5s-2.243-5-5-5c-2.414 0-4.434 1.721-4.899 4h-6.152c-.229-3.45-1.625-6.578-3.803-9.003l4.406-6.997h1.448v2h-2v2h12v-2h-2v-2zm-54 20c-1.654 0-3-1.346-3-3s1.346-3 3-3 3 1.346 3 3-1.346 3-3 3zm52-6c1.654 0 3 1.346 3 3s-1.346 3-3 3-3-1.346-3-3 1.346-3 3-3zm-12-26h14c.552 0 1 .449 1 1v5h-16v-5c0-.551.448-1 1-1zm-1 8h16v1c0 .551-.448 1-1 1h-14c-.552 0-1-.449-1-1zm-13 34c-1.401 0-2.891-1.882-3.878-5h7.756c-.987 3.118-2.477 5-3.878 5zm-4.401-7c-.316-1.489-.522-3.169-.578-5h9.957c-.056 1.831-.262 3.511-.578 5zm-8.548-5h5.971c.05 1.782.226 3.466.521 5h-5.064c-.793-1.517-1.291-3.208-1.428-5zm16.827-9h-7.756c.987-3.118 2.477-5 3.878-5s2.891 1.882 3.878 5zm.523 2c.316 1.489.522 3.169.578 5h-9.957c.056-1.831.262-3.511.578-5zm-10.378-2h-4.248c1.564-1.995 3.692-3.521 6.148-4.335-.769 1.142-1.413 2.614-1.9 4.335zm-.48 2c-.296 1.534-.471 3.218-.521 5h-5.971c.137-1.792.635-3.483 1.428-5zm13.435 7h5.971c-.137 1.792-.635 3.483-1.428 5h-5.064c.295-1.534.471-3.218.521-5zm0-2c-.05-1.782-.226-3.466-.521-5h5.064c.793 1.517 1.291 3.208 1.428 5zm-1.001-7c-.488-1.721-1.131-3.193-1.899-4.335 2.456.814 4.584 2.341 6.148 4.335zm-8.977-18c0-1.654 1.346-3 3-3s3 1.346 3 3-1.346 3-3 3-3-1.346-3-3zm-25-3h14c.552 0 1 .449 1 1v5h-16v-5c0-.551.448-1 1-1zm-1 9v-1h16v1c0 .551-.448 1-1 1h-14c-.552 0-1-.449-1-1zm10 5h-4v-2h4zm-9 30h14c.552 0 1 .448 1 1v5h-16v-5c0-.552.448-1 1-1zm9 14h-4v-2h4zm5-4h-14c-.552 0-1-.448-1-1v-1h16v1c0 .552-.448 1-1 1zm3.775-17h4.248c.487 1.721 1.131 3.193 1.899 4.335-2.456-.814-4.584-2.341-6.147-4.335zm13.225 18c0 1.654-1.346 3-3 3s-3-1.346-3-3 1.346-3 3-3 3 1.346 3 3zm1.078-13.665c.768-1.142 1.411-2.614 1.899-4.335h4.248c-1.563 1.994-3.691 3.521-6.147 4.335zm18.922 16.665h-4v-2h4zm5-4h-14c-.552 0-1-.448-1-1v-1h16v1c0 .552-.448 1-1 1zm1-9v5h-16v-5c0-.552.448-1 1-1h14c.552 0 1 .448 1 1zm-6-31h-4v-2h4z"/></g></svg>