<svg id="Layer_5" enable-background="new 0 0 64 64" height="512" viewBox="0 0 64 64" width="512" xmlns="http://www.w3.org/2000/svg"><g><g><path d="m59.197 20.217 4.217-4.217-4.707-4.707-10.414 10.414 4.707 4.707 4.217-4.217-1-2 .98-.98z" fill="#f0bc5e"/></g><g><g><path d="m22 63c-11.579 0-21-9.421-21-21s9.421-21 21-21 21 9.421 21 21-9.421 21-21 21zm0-37c-8.822 0-16 7.178-16 16s7.178 16 16 16 16-7.178 16-16-7.178-16-16-16z" fill="#f0bc5e"/></g></g><g><path d="m56 1h-.414l-22.934 22.934c.587.348 1.155.722 1.704 1.124l15.644-15.644 4.586 4.586-15.644 15.644c.402.549.776 1.117 1.124 1.704l22.934-22.934v-.414c0-3.859-3.141-7-7-7zm0 11.586-4.586-4.586 4.984-4.984c2.44.193 4.393 2.146 4.586 4.586z"/><path d="m59.97 50.462-1.176-.294-1.553-5.179c-.895-2.984-3.59-4.989-6.705-4.989h-7.637c.062.659.101 1.325.101 2h7.536c2.225 0 4.149 1.433 4.789 3.563l1.881 6.269 2.279.569c.892.224 1.515 1.022 1.515 1.942v2.657c0 .552-.448 1-1 1h-2.142c-.364-1.399-1.459-2.495-2.858-2.858v-4.304l-1.596-4.787c-.409-1.227-1.552-2.051-2.845-2.051h-7.66c-.064.677-.164 1.343-.291 2h1.392v4h-2.592c-.283.684-.594 1.354-.946 2h3.538v6h-3.142c-.338-1.3-1.307-2.346-2.562-2.78-.525.646-1.091 1.256-1.688 1.835.13-.026.259-.055.392-.055 1.103 0 2 .897 2 2s-.897 2-2 2-2-.897-2-2c0-.214.043-.42.109-.621-.644.517-1.324.987-2.027 1.426.373 1.821 1.988 3.195 3.918 3.195 1.859 0 3.411-1.279 3.858-3h9.284c.447 1.721 1.999 3 3.858 3s3.411-1.279 3.858-3h2.142c1.654 0 3-1.346 3-3v-2.657c0-1.839-1.246-3.436-3.03-3.881zm-13.97-4.462h4.559c.431 0 .813.274.949.684l1.105 3.316h-6.613zm4.142 12h-4.142v-6h7v3.142c-1.399.363-2.495 1.459-2.858 2.858zm3.858 3c-1.103 0-2-.897-2-2s.897-2 2-2 2 .897 2 2-.897 2-2 2z"/><path d="m21 21.051v-6.051h-12v10.539c.637-.504 1.307-.965 2-1.394v-7.145h8v4.24c.658-.095 1.324-.157 2-.189z"/><path d="m14.999 7.876 9.103 7.447c.27.22.574.389.898.504l-.001 5.412c.678.098 1.344.226 2 .387l.001-5.816c.508-.181.97-.481 1.32-.91 1.048-1.279.858-3.174-.423-4.224l-10.997-8.996c-1.066-.877-2.737-.874-3.8-.003l-11.001 9.002c-1.28 1.049-1.469 2.941-.423 4.219.347.426.815.721 1.324.893l-.001 17.325c.562-1.198 1.231-2.333 2-3.394l.001-13.922c.32-.107.628-.258.898-.476zm-10.364 5.896c-.42.339-1.075.271-1.411-.141-.349-.426-.284-1.057.142-1.405l11.003-9.003c.351-.289.906-.29 1.265.003l10.998 8.998c.428.351.491.982.142 1.409-.336.408-.993.478-1.405.141l-10.37-8.482z"/><path d="m39 42c0-9.374-7.626-17-17-17s-17 7.626-17 17 7.626 17 17 17 17-7.626 17-17zm-32 0c0-8.271 6.729-15 15-15s15 6.729 15 15c0 3.923-1.526 7.488-4 10.164v-.329c0-2.397-1.709-4.464-4.063-4.912l-3.937-.75v-.133c.198-.146.395-.293.571-.47.458-.458.812-.991 1.054-1.57h.375c1.654 0 3-1.346 3-3v-4.636c0-4.06-3.304-7.364-7.364-7.364-1.956 0-3.796.758-5.185 2.135-2.074.798-3.451 2.788-3.451 5.027v4.838c0 1.654 1.346 3 3 3h.426c.346.786.897 1.455 1.574 1.968v.205l-3.937.75c-2.354.448-4.063 2.515-4.063 4.912v.329c-2.474-2.676-4-6.241-4-10.164zm10 0c-.552 0-1-.448-1-1s.448-1 1-1zm.184-4h-.184c-.352 0-.686.072-1 .184v-2.022c0-1.46.931-2.751 2.316-3.214l.224-.074.303-.303c.999-.999 2.381-1.571 3.793-1.571 2.958 0 5.364 2.406 5.364 5.364v1.82c-.314-.112-.648-.184-1-.184h-1-1.172c-1.534 0-3.036-.622-4.121-1.707l-.293-.293h-.414c-1.302 0-2.402.839-2.816 2zm9.816 2c.552 0 1 .448 1 1s-.448 1-1 1zm-2.843 4.156c-.544.544-1.267.844-2.037.844h-.1c-1.666 0-3.02-1.346-3.02-3v-3c0-.435.279-.806.667-.943 1.418 1.24 3.271 1.943 5.161 1.943h.172v2.119c0 .77-.299 1.493-.843 2.037zm-2.137 2.844h.101c.272 0 .538-.035.801-.078l-.922 1.842-.93-1.859c.308.059.625.095.95.095zm-9.02 6.972v-2.137c0-1.438 1.025-2.679 2.438-2.947l4.005-.764 2.557 5.112 2.556-5.112 4.005.764c1.414.268 2.439 1.508 2.439 2.947v2.137c-2.51 1.892-5.621 3.028-9 3.028s-6.49-1.136-9-3.028z"/></g></g></svg>