<svg id="Layer_5" enable-background="new 0 0 64 64" height="512" viewBox="0 0 64 64" width="512" xmlns="http://www.w3.org/2000/svg"><g><g><g><path d="m49 62h-34c0-1.1.45-2.1 1.17-2.83.73-.72 1.73-1.17 2.83-1.17h1 24 1c2.21 0 4 1.79 4 4z" fill="#969faa"/></g><g><path d="m42 52 2 6h-24l2-6z" fill="#aab2bd"/></g><g><path d="m62 16v32c0 2.21-1.79 4-4 4h-16-20-16c-2.21 0-4-1.79-4-4v-32c0-2.21 1.79-4 4-4h27c-2.42 0-4.44 1.72-4.9 4h-21.1c-.55 0-1 .45-1 1v15 8 3c0 .55.45 1 1 1h50c.55 0 1-.45 1-1v-21.35c2.33-.81 4-3.04 4-5.65z" fill="#ccd1d9"/></g><g><path d="m45 22h-12c-2.76 0-5-2.24-5-5 0-.34.03-.68.1-1h-21.1c-.55 0-1 .45-1 1v26c0 .55.45 1 1 1h50c.55 0 1-.45 1-1v-21.35c-.63.23-1.3.35-2 .35z" fill="#69d6f4"/></g><g><path d="m57 10.09c0-.03 0-.06 0-.09 0-4.42-3.58-8-8-8-3.55 0-6.55 2.31-7.6 5.5-.73-.32-1.55-.5-2.4-.5-2.98 0-5.43 2.16-5.91 5v.01c-.03 0-.06-.01-.09-.01-2.42 0-4.44 1.72-4.9 4-.07.32-.1.66-.1 1 0 2.76 2.24 5 5 5h12 11c.7 0 1.37-.12 2-.35 2.33-.81 4-3.04 4-5.65 0-2.97-2.17-5.44-5-5.91z" fill="#e6e9ed"/></g><g><path d="m38 26h16v14h-16z" fill="#fcd770"/></g></g><g><path d="m51 47h8v2h-8z"/><path d="m47 47h2v2h-2z"/><path d="m57.972 9.288c-.364-4.631-4.249-8.288-8.972-8.288-3.553 0-6.722 2.069-8.176 5.242-.593-.161-1.203-.242-1.824-.242-3.14 0-5.831 2.058-6.7 5h-26.3c-2.757 0-5 2.243-5 5v32c0 2.757 2.243 5 5 5h14.612l-1.333 4h-.279c-2.757 0-5 2.243-5 5v1h36v-1c0-2.757-2.243-5-5-5h-.279l-1.333-4h14.612c2.757 0 5-2.243 5-5v-32c0-3.149-2.07-5.852-5.028-6.712zm-23.897 2.885c.403-2.418 2.474-4.173 4.925-4.173.692 0 1.365.141 2.001.42l1.008.441.344-1.045c.946-2.88 3.617-4.816 6.647-4.816 3.86 0 7 3.14 7 6.971l-.005.965.835.14c2.417.404 4.17 2.475 4.17 4.924 0 2.757-2.243 5-5 5h-23c-2.206 0-4-1.794-4-4 0-2.186 1.764-3.963 3.847-4h.242v-.001l.845.023zm-1.075 10.827h23c.34 0 .672-.033 1-.08v20.08h-50v-26h20c0 3.309 2.691 6 6 6zm14.829 38h-31.658c.413-1.164 1.525-2 2.829-2h26c1.304 0 2.416.836 2.829 2zm-5.217-4h-21.224l1.333-4h18.558zm18.388-9c0 1.654-1.346 3-3 3h-52c-1.654 0-3-1.346-3-3v-32c0-1.654 1.346-3 3-3h22.532c-.516.576-.911 1.257-1.175 2h-20.357c-1.103 0-2 .897-2 2v26c0 1.103.897 2 2 2h50c1.103 0 2-.897 2-2v-20.685c.749-.357 1.426-.839 2-1.425z"/><path d="m49.707 18.707 4.707-4.707-4.707-4.707-1.414 1.414 3.293 3.293-3.293 3.293z"/><path d="m43.707 17.293-3.293-3.293 3.293-3.293-1.414-1.414-4.707 4.707 4.707 4.707z"/><path d="m40.901 13h10.198v2h-10.198z" transform="matrix(.196 -.981 .981 .196 23.242 56.357)"/><path d="m11 26c0 1.654 1.346 3 3 3h1v-2h-1c-.551 0-1-.449-1-1 0-.771-.301-1.468-.78-2 .48-.532.78-1.229.78-2 0-.551.449-1 1-1h1v-2h-1c-1.654 0-3 1.346-3 3 0 .551-.449 1-1 1h-1v2h1c.551 0 1 .449 1 1z"/><path d="m33 38c0-.551.449-1 1-1h1v-2h-1c-.551 0-1-.449-1-1 0-1.654-1.346-3-3-3h-1v2h1c.551 0 1 .449 1 1 0 .771.301 1.468.78 2-.48.532-.78 1.229-.78 2 0 .551-.449 1-1 1h-1v2h1c1.654 0 3-1.346 3-3z"/><path d="m17 19h2v2h-2z"/><path d="m21 19h4v2h-4z"/><path d="m17 23h8v2h-8z"/><path d="m17 27h8v2h-8z"/><path d="m25 39h2v2h-2z"/><path d="m21 39h2v2h-2z"/><path d="m9 39h10v2h-10z"/><path d="m9 35h18v2h-18z"/><path d="m9 31h2v2h-2z"/><path d="m13 31h14v2h-14z"/><path d="m55 25h-18v16h18zm-2 14h-14v-12h14z"/></g></g></svg>