<svg id="Layer_5" enable-background="new 0 0 64 64" height="512" viewBox="0 0 64 64" width="512" xmlns="http://www.w3.org/2000/svg"><g><g><path d="m62 28v30c0 1.1-.45 2.1-1.17 2.83-.73.72-1.73 1.17-2.83 1.17-2.21 0-4-1.79-4-4h4v-30h-23c0-1.38-.19-2.73-.54-4h23.54c2.21 0 4 1.79 4 4z" fill="#f0d0b4"/><path d="m32.86 35.72c1.36-2.25 2.14-4.9 2.14-7.72h23v30h-4v-18c0-2.21-1.79-4-4-4h-17z" fill="#fcd770"/><path d="m16 40h38v18c0 2.21 1.79 4 4 4h-38c-2.21 0-4-1.79-4-4v-15.54z" fill="#e6e9ed"/><path d="m30 55v2c0 .55-.45 1-1 1h-8c-.55 0-1-.45-1-1v-2c0-.55.45-1 1-1h8c.55 0 1 .45 1 1z" fill="#5cd6b3"/><g fill="#ff826e"><circle cx="4" cy="60" r="2"/><circle cx="10" cy="54" r="2"/><circle cx="50" cy="4" r="2"/><circle cx="56" cy="10" r="2"/></g><path d="m16 40v-4c0-2.21 1.79-4 4-4h5.78 2.75c1.51 0 2.9.86 3.58 2.21l.742 1.495c1.355-2.254 2.148-4.884 2.148-7.705 0-8.284-6.716-15-15-15-.079 0-.155.011-.234.012-.915 4-4.488 6.988-8.766 6.988-1.153 0-2.251-.225-3.264-.62-1.718 2.44-2.736 5.409-2.736 8.62 0 6.897 4.661 12.691 11 14.444z" fill="#69d6f4"/><path d="m54 40h-38v-4c0-2.21 1.79-4 4-4h5.78 2.75c1.51 0 2.9.86 3.58 2.21l.75 1.51.14.28h17c2.21 0 4 1.79 4 4z" fill="#ff826e"/><circle cx="11" cy="11" fill="#e6e9ed" r="9"/><path d="m11 12c3.22 0 5.84 2.53 5.99 5.71-1.59 1.43-3.69 2.29-5.99 2.29-1.16 0-2.27-.22-3.28-.62s-1.93-.97-2.72-1.68l.01-.01c.08-1.59.77-3.01 1.85-4.03 1.08-1.03 2.54-1.66 4.14-1.66z" fill="#fcd770"/><circle cx="11" cy="9" fill="#f0d0b4" r="3"/></g><g><path d="m58 23h-22.811c-2.011-6.092-7.584-10.561-14.245-10.952.036-.345.056-.694.056-1.048 0-5.514-4.486-10-10-10s-10 4.486-10 10c0 3.799 2.131 7.109 5.259 8.802-1.48 2.473-2.259 5.283-2.259 8.198 0 3.419 1.105 6.642 3 9.293v7.121l2 2v4.77c-1.161.414-2 1.514-2 2.816 0 1.654 1.346 3 3 3s3-1.346 3-3c0-1.302-.839-2.402-2-2.816v-5.598l-2-2v-3.975c1.678 1.595 3.717 2.826 6 3.578v14.811c0 2.757 2.243 5 5 5h38c2.757 0 5-2.243 5-5v-30c0-2.757-2.243-5-5-5zm-1 6v28h-2v-17c0-2.757-2.243-5-5-5h-15.618c.912-1.873 1.454-3.91 1.584-6zm-50.958 0h6.986c.055 2.098.277 4.13.659 6h-5.791c-1.045-1.804-1.699-3.846-1.854-6zm2.958-20c0-1.103.897-2 2-2s2 .897 2 2-.897 2-2 2-2-.897-2-2zm2 4c2.513 0 4.578 1.854 4.926 4.29-1.36 1.067-3.068 1.71-4.926 1.71s-3.566-.642-4.926-1.71c.348-2.435 2.417-4.29 4.926-4.29zm12.766 6h-6.791c1.634-1.223 2.884-2.927 3.531-4.908 1.19.398 2.396 2.166 3.26 4.908zm.528 2c.382 1.752.628 3.777.687 6h-9.952c.058-2.116.296-4.154.703-6zm9.655 6h-6.97c-.053-2.164-.277-4.184-.645-6h5.772c1.039 1.789 1.689 3.825 1.843 6zm-1.086 6.532c-.889-1.564-2.52-2.532-4.335-2.532h-1.659c.052-.66.087-1.326.104-2h6.99c-.112 1.567-.483 3.099-1.1 4.532zm-7.89-4.532c-.018.675-.055 1.341-.11 2h-4.863c-1.992 0-3.702 1.18-4.505 2.87-.27-1.534-.421-3.182-.467-4.87zm-7.973 7c0-1.654 1.346-3 3-3h8.528c1.143 0 2.171.636 2.683 1.658l1.171 2.342h17.618c1.302 0 2.402.839 2.816 2h-35.816zm13.708-17h-4.853c-.51-1.777-1.175-3.281-1.956-4.436 2.691.782 5.05 2.346 6.809 4.436zm-27.708-8c0-4.411 3.589-8 8-8s8 3.589 8 8c0 1.696-.534 3.267-1.438 4.563-.641-1.732-1.944-3.128-3.599-3.9.638-.709 1.037-1.637 1.037-2.663 0-2.206-1.794-4-4-4s-4 1.794-4 4c0 1.027.4 1.955 1.037 2.663-1.653.773-2.958 2.169-3.599 3.9-.904-1.295-1.438-2.867-1.438-4.563zm8 10h2.687c-.382 1.87-.604 3.902-.659 6h-6.99c.161-2.291.88-4.48 2.1-6.422.908.271 1.867.422 2.862.422zm-1 34c-.552 0-1-.448-1-1s.448-1 1-1 1 .448 1 1-.448 1-1 1zm-.702-18h5.702v4.075c-2.254-.863-4.199-2.285-5.702-4.075zm10.702 24c-1.654 0-3-1.346-3-3v-17h36v17c0 1.125.373 2.164 1.002 3zm41-3c0 1.654-1.346 3-3 3-1.302 0-2.402-.839-2.816-2h3.816v-32h-23.051c-.042-.678-.117-1.347-.241-2h22.292c1.654 0 3 1.346 3 3z"/><path d="m27 35h2v2h-2z"/><path d="m19 35h2v2h-2z"/><path d="m23 35h2v2h-2z"/><path d="m37 31h2v2h-2z"/><path d="m41 31h14v2h-14z"/><path d="m29 53h-8c-1.103 0-2 .897-2 2v2c0 1.103.897 2 2 2h8c1.103 0 2-.897 2-2v-2c0-1.103-.897-2-2-2zm0 4h-8v-2h8z"/><path d="m49 51h2v2h-2z"/><path d="m49 43h2v2h-2z"/><path d="m49 47h2v2h-2z"/><path d="m43.586 9-2 2h-13.586v2h14.414l2-2h8.77c.414 1.161 1.514 2 2.816 2 1.654 0 3-1.346 3-3s-1.346-3-3-3c-1.302 0-2.402.839-2.816 2zm12.414 0c.552 0 1 .448 1 1s-.448 1-1 1-1-.448-1-1 .448-1 1-1z"/><path d="m41.414 5h5.77c.414 1.161 1.514 2 2.816 2 1.654 0 3-1.346 3-3s-1.346-3-3-3c-1.302 0-2.402.839-2.816 2h-6.598l-2 2h-8.586v2h9.414zm8.586-2c.552 0 1 .448 1 1s-.448 1-1 1-1-.448-1-1 .448-1 1-1z"/><path d="m26 5h2v2h-2z"/><path d="m22 5h2v2h-2z"/><path d="m5 57.184v-9.598l-2-2v-8.586h-2v9.414l2 2v8.77c-1.161.414-2 1.514-2 2.816 0 1.654 1.346 3 3 3s3-1.346 3-3c0-1.302-.839-2.402-2-2.816zm-1 3.816c-.552 0-1-.448-1-1s.448-1 1-1 1 .448 1 1-.448 1-1 1z"/><path d="m1 33h2v2h-2z"/><path d="m1 29h2v2h-2z"/></g></g></svg>