<svg id="Layer_5" enable-background="new 0 0 64 64" height="512" viewBox="0 0 64 64" width="512" xmlns="http://www.w3.org/2000/svg"><g><g><g><path d="m62 10v14c0 1.1-.9 2-2 2h-12-12c-1.1 0-2-.9-2-2v-7-7z" fill="#e6e9ed"/></g><g><path d="m34 54v-14h28v14c0 1.1-.9 2-2 2h-24c-1.1 0-2-.9-2-2z" fill="#e6e9ed"/></g><g><path d="m48 44h10v8h-10z" fill="#ffeaa7"/></g><g><path d="m38 14h6v8h-6z" fill="#ffeaa7"/></g><g><path d="m34 40v-6c0-1.1.9-2 2-2h12 12c1.1 0 2 .9 2 2v6z" fill="#5cd6b3"/></g><g><path d="m34 10v-6c0-1.1.9-2 2-2h24c1.1 0 2 .9 2 2v6z" fill="#5cd6b3"/></g><g><ellipse cx="16" cy="40" fill="#ffeaa7" rx="14" ry="4"/></g><g><path d="m30 46v6c0 2.21-6.27 4-14 4s-14-1.79-14-4v-6c0 2.21 6.27 4 14 4s14-1.79 14-4z" fill="#ffc729"/></g><g><path d="m30 52v6c0 2.21-6.27 4-14 4s-14-1.79-14-4v-6c0 2.21 6.27 4 14 4s14-1.79 14-4z" fill="#fcd770"/></g><g><path d="m16 44c7.73 0 14-1.79 14-4v6c0 2.21-6.27 4-14 4s-14-1.79-14-4v-6c0 2.21 6.27 4 14 4z" fill="#fcd770"/></g><g><path d="m16 23c3.31 0 6-2.69 6-6s-2.69-6-6-6-6 2.69-6 6 2.69 6 6 6zm10-6v2l-1.35.48c-.19.66-.45 1.3-.78 1.89l.62 1.29-2.83 2.83-1.29-.62c-.59.33-1.23.59-1.89.78l-.48 1.35h-2-2l-.48-1.35c-.66-.19-1.3-.45-1.89-.78l-1.29.62-2.83-2.83.62-1.29c-.33-.59-.59-1.23-.78-1.89l-1.35-.48v-4l1.35-.48c.19-.66.45-1.3.78-1.89l-.62-1.29 2.83-2.83 1.29.62c.59-.33 1.23-.59 1.89-.78l.48-1.35h4l.48 1.35c.66.19 1.3.45 1.89.78l1.29-.62 2.83 2.83-.62 1.29c.33.59.59 1.23.78 1.89l1.35.48z" fill="#48cfad"/></g></g><g><path d="m16 10c-3.859 0-7 3.141-7 7s3.141 7 7 7 7-3.141 7-7-3.141-7-7-7zm0 12c-2.757 0-5-2.243-5-5s2.243-5 5-5 5 2.243 5 5-2.243 5-5 5z"/><path d="m7 39h2v2h-2z"/><path d="m15 39h2v2h-2z"/><path d="m19 39h2v2h-2z"/><path d="m11 39h2v2h-2z"/><path d="m23 39h2v2h-2z"/><path d="m60 27c1.654 0 3-1.346 3-3v-20c0-1.654-1.346-3-3-3h-24c-1.654 0-3 1.346-3 3v12h-6v-1.709l-1.55-.544c-.133-.39-.289-.769-.466-1.133l.709-1.478-3.83-3.83-1.478.709c-.364-.177-.743-.333-1.133-.466l-.543-1.549h-5.418l-.544 1.55c-.39.133-.769.289-1.133.466l-1.478-.709-3.83 3.83.709 1.478c-.177.364-.333.743-.466 1.133l-1.549.543v5.417l1.549.545c.134.39.29.769.467 1.133l-.709 1.478 3.83 3.83 1.478-.709c.364.177.743.333 1.133.467l.544 1.548h1.708v7.014c-6.924.137-14 1.708-14 4.986v18c0 3.436 7.775 5 15 5s15-1.564 15-5v-18c0-3.278-7.076-4.849-14-4.986v-7.014h1.708l.545-1.549c.39-.134.769-.29 1.133-.467l1.478.709 3.83-3.83-.709-1.478c.177-.364.333-.743.467-1.133l1.548-.544v-1.708h6v6c0 1.654 1.346 3 3 3h11v4h-11c-1.654 0-3 1.346-3 3v20c0 1.654 1.346 3 3 3h24c1.654 0 3-1.346 3-3v-20c0-1.654-1.346-3-3-3h-11v-4zm-44 34c-8.577 0-13-2.103-13-3v-3.333c2.775 1.588 8.018 2.333 13 2.333s10.225-.745 13-2.333v3.333c0 .897-4.423 3-13 3zm0-6c-8.577 0-13-2.103-13-3v-3.333c2.775 1.588 8.018 2.333 13 2.333s10.225-.745 13-2.333v3.333c0 .897-4.423 3-13 3zm0-6c-8.577 0-13-2.103-13-3v-3.333c2.775 1.588 8.018 2.333 13 2.333s10.225-.745 13-2.333v3.333c0 .897-4.423 3-13 3zm13-9c0 .897-4.423 3-13 3s-13-2.103-13-3 4.423-3 13-3 13 2.103 13 3zm-4-21.708-1.172.411-.141.497c-.171.596-.404 1.161-.693 1.68l-.253.453.537 1.118-1.826 1.826-1.118-.537-.453.253c-.519.289-1.084.522-1.68.693l-.497.142-.412 1.172h-2.584l-.411-1.172-.497-.141c-.596-.171-1.161-.404-1.68-.693l-.453-.253-1.118.537-1.826-1.826.537-1.118-.253-.454c-.289-.519-.522-1.084-.693-1.68l-.142-.497-1.172-.411v-2.583l1.174-.413.142-.497c.169-.595.401-1.159.691-1.679l.253-.453-.537-1.118 1.826-1.826 1.118.537.453-.253c.52-.29 1.084-.522 1.679-.691l.497-.142.413-1.174h2.582l.413 1.174.497.142c.595.169 1.159.401 1.679.691l.453.253 1.118-.537 1.826 1.826-.537 1.118.253.453c.29.52.522 1.084.691 1.679l.142.497 1.174.413zm35 36.708h-24c-.552 0-1-.448-1-1v-13h26v13c0 .552-.448 1-1 1zm1-21v5h-26v-5c0-.552.448-1 1-1h24c.552 0 1 .448 1 1zm-25-31h24c.552 0 1 .448 1 1v5h-26v-5c0-.552.448-1 1-1zm-1 21v-13h26v13c0 .552-.448 1-1 1h-24c-.552 0-1-.448-1-1z"/><path d="m45 5h2v2h-2z"/><path d="m37 5h2v2h-2z"/><path d="m41 5h2v2h-2z"/><path d="m37 35h2v2h-2z"/><path d="m41 35h2v2h-2z"/><path d="m45 35h2v2h-2z"/><path d="m37 23h8v-10h-8zm2-8h4v6h-4z"/><path d="m47 13h2v2h-2z"/><path d="m51 13h8v2h-8z"/><path d="m47 17h12v2h-12z"/><path d="m47 21h12v2h-12z"/><path d="m47 53h12v-10h-12zm2-8h8v6h-8z"/><path d="m37 43h8v2h-8z"/><path d="m37 47h8v2h-8z"/><path d="m37 51h8v2h-8z"/></g></g></svg>