<svg id="Layer_5" enable-background="new 0 0 64 64" height="512" viewBox="0 0 64 64" width="512" xmlns="http://www.w3.org/2000/svg"><g><g><g><path d="m44 45c-6.065 0-11-4.935-11-11s4.935-11 11-11 11 4.935 11 11-4.935 11-11 11z" fill="#f0bc5e"/></g></g><g><path d="m43 37c-.551 0-1-.448-1-1h-2c0 1.654 1.346 3 3 3v2h2v-2h3v-3c0-1.654-1.346-3-3-3h-2c-.551 0-1-.448-1-1v-1h3c.551 0 1 .448 1 1h2c0-1.654-1.346-3-3-3v-2h-2v2h-3v3c0 1.654 1.346 3 3 3h2c.551 0 1 .448 1 1v1z"/><path d="m53 22h2v2h-2z"/><path d="m33 23h2v2h-2z"/><path d="m33 43h2v2h-2z"/><path d="m53 43h2v2h-2z"/><path d="m10 37h2v-19h-3.259l5.259-9.016 5.259 9.016h-3.259v17h2v-15h4.741l-8.741-14.984-8.741 14.984h4.741z"/><path d="m10 39h2v2h-2z"/><path d="m16 37h2v2h-2z"/><path d="m16 41h2v2h-2z"/><path d="m59 45.004v-23.004c0-1.654-1.346-3-3-3v-6c0-6.617-5.383-12-12-12s-12 5.383-12 12v6c-1.654 0-3 1.346-3 3v26.138c-.021.014-.045.023-.066.038l-1.237.824h-2.697v-2h-24v16h24v-2h25.835c2.934 0 5.69-1.435 7.373-3.839l4.061-5.802c.478-.682.731-1.484.731-2.318 0-2.214-1.791-4.014-4-4.037zm-44 15.996h-12v-12h12zm8 0h-2v-8h-2v8h-2v-12h2v2h2v-2h2zm11-48c0-5.514 4.486-10 10-10s10 4.486 10 10v6h-4v-6c0-3.309-2.691-6-6-6s-6 2.691-6 6v6h-4zm14 0v6h-8v-6c0-2.206 1.794-4 4-4s4 1.794 4 4zm-17 9c0-.552.449-1 1-1h24c.551 0 1 .448 1 1v23.325c-.668.274-1.271.703-1.712 1.292l-1.788 2.383h-4.685c-.414-1.161-1.514-2-2.816-2h-13.183c-.62 0-1.227.093-1.816.252zm21 29-.6.8c-.563.752-1.461 1.2-2.4 1.2h-1.023c.451-.597.775-1.271.922-2zm8.631-.788-4.062 5.803c-1.308 1.869-3.452 2.985-5.734 2.985h-25.835v-8h3.303l1.74-1.16c.824-.55 1.783-.84 2.773-.84h13.184c.551 0 1 .448 1 1 0 .802-.313 1.557-.88 2.124-.56.559-1.302.868-2.093.876h-2.027v.002l-4.34-.001c-.001 0-.003 0-.005 0-1.335 0-2.59.521-3.535 1.465l-.827.827 1.414 1.414.827-.827c.567-.566 1.32-.879 2.122-.879h.002l6.337.002h.002c.01 0 .02-.003.03-.003h4.973c1.565 0 3.061-.747 4-2l3.887-5.183c.384-.511.995-.817 1.634-.817h.438c1.125 0 2.041.916 2.041 2.041 0 .421-.127.826-.369 1.171z"/></g></g></svg>