<svg id="Layer_5" enable-background="new 0 0 64 64" height="512" viewBox="0 0 64 64" width="512" xmlns="http://www.w3.org/2000/svg"><g><g><g fill="#69d6f4"><path d="m38 40h22c1.105 0 2 .895 2 2v12h-26v-12c0-1.105.895-2 2-2z"/><path d="m4 40h22c1.105 0 2 .895 2 2v12h-26v-12c0-1.105.895-2 2-2z"/><path d="m21 6h22c1.105 0 2 .895 2 2v12h-26v-12c0-1.105.895-2 2-2z"/></g><path d="m27 24h10v4h-10z" fill="#aab2bd"/><path d="m10 58h10v4h-10z" fill="#aab2bd"/><path d="m44 58h10v4h-10z" fill="#aab2bd"/><path d="m45 20v2c0 1.1-.9 2-2 2h-6-10-6c-1.1 0-2-.9-2-2v-2h4 18z" fill="#ccd1d9"/><path d="m28 54v2c0 1.1-.9 2-2 2h-6-10-6c-1.1 0-2-.9-2-2v-2h4 18z" fill="#ccd1d9"/><path d="m62 54v2c0 1.1-.9 2-2 2h-6-10-6c-1.1 0-2-.9-2-2v-2h4 18z" fill="#ccd1d9"/><path d="m24 53v1h-18v-1c0-4.97 4.03-9 9-9 2.48 0 4.74 1.01 6.36 2.64 1.63 1.62 2.64 3.88 2.64 6.36z" fill="#fcd770"/><path d="m58 53v1h-18v-1c0-4.97 4.03-9 9-9 2.48 0 4.74 1.01 6.36 2.64 1.63 1.62 2.64 3.88 2.64 6.36z" fill="#fcd770"/><path d="m41 19v1h-18v-1c0-4.97 4.03-9 9-9 2.48 0 4.74 1.01 6.36 2.64 1.63 1.62 2.64 3.88 2.64 6.36z" fill="#ff826e"/><circle cx="32" cy="6" fill="#f0d0b4" r="4"/><circle cx="15" cy="40" fill="#f0d0b4" r="4"/><circle cx="49" cy="40" fill="#f0d0b4" r="4"/></g><g><path d="m21 25h5v2h-2v2h16v-2h-2v-2h5c1.654 0 3-1.346 3-3v-14c0-1.654-1.346-3-3-3h-6.101c-.465-2.279-2.485-4-4.899-4s-4.434 1.721-4.899 4h-6.101c-1.654 0-3 1.346-3 3v14c0 1.654 1.346 3 3 3zm15 2h-8v-2h8zm7-4h-22c-.551 0-1-.449-1-1v-1h24v1c0 .551-.449 1-1 1zm-19-4c0-4.411 3.589-8 8-8s8 3.589 8 8zm12.899-12h6.101c.551 0 1 .449 1 1v11h-2c0-4.308-2.743-7.977-6.569-9.381.73-.693 1.259-1.596 1.468-2.619zm-4.899-4c1.654 0 3 1.346 3 3s-1.346 3-3 3-3-1.346-3-3 1.346-3 3-3zm-11 4h6.101c.209 1.023.738 1.926 1.468 2.619-3.826 1.404-6.569 5.073-6.569 9.381h-2v-11c0-.551.449-1 1-1z"/><path d="m26 39h-6.101c-.465-2.279-2.484-4-4.899-4s-4.434 1.721-4.899 4h-6.101c-1.654 0-3 1.346-3 3v14c0 1.654 1.346 3 3 3h5v2h-2v2h16v-2h-2v-2h5c1.654 0 3-1.346 3-3v-14c0-1.654-1.346-3-3-3zm-6.101 2h6.101c.551 0 1 .449 1 1v11h-2c0-4.308-2.743-7.977-6.569-9.381.73-.693 1.259-1.596 1.468-2.619zm-12.899 12c0-4.411 3.589-8 8-8s8 3.589 8 8zm8-16c1.654 0 3 1.346 3 3s-1.346 3-3 3-3-1.346-3-3 1.346-3 3-3zm-11 4h6.101c.209 1.023.738 1.926 1.468 2.619-3.826 1.404-6.569 5.073-6.569 9.381h-2v-11c0-.551.449-1 1-1zm15 20h-8v-2h8zm7-4h-22c-.551 0-1-.449-1-1v-1h24v1c0 .551-.449 1-1 1z"/><path d="m60 39h-6.101c-.465-2.279-2.484-4-4.899-4s-4.434 1.721-4.899 4h-6.101c-1.654 0-3 1.346-3 3v14c0 1.654 1.346 3 3 3h5v2h-2v2h16v-2h-2v-2h5c1.654 0 3-1.346 3-3v-14c0-1.654-1.346-3-3-3zm-6.101 2h6.101c.551 0 1 .449 1 1v11h-2c0-4.308-2.743-7.977-6.569-9.381.73-.693 1.259-1.596 1.468-2.619zm-12.899 12c0-4.411 3.589-8 8-8s8 3.589 8 8zm8-16c1.654 0 3 1.346 3 3s-1.346 3-3 3-3-1.346-3-3 1.346-3 3-3zm-11 4h6.101c.209 1.023.738 1.926 1.468 2.619-3.826 1.404-6.569 5.073-6.569 9.381h-2v-11c0-.551.449-1 1-1zm15 20h-8v-2h8zm7-4h-22c-.551 0-1-.449-1-1v-1h24v1c0 .551-.449 1-1 1z"/><path d="m7 32c0-5.983 2.093-11.642 5.924-16.152l.408 2.858 1.979-.283-.813-5.692-5.692-.813-.283 1.979 3.065.438c-4.257 4.907-6.588 11.105-6.588 17.665z"/><path d="m54.6 28.2-1.2 1.6 4.6 3.45 4.6-3.45-1.2-1.6-2.476 1.857c-.471-6.72-3.375-12.917-8.309-17.614l-1.379 1.448c4.503 4.287 7.179 9.923 7.673 16.041z"/></g></g></svg>