<svg id="Layer_5" enable-background="new 0 0 64 64" height="512" viewBox="0 0 64 64" width="512" xmlns="http://www.w3.org/2000/svg"><g><g><g><path d="m22 44c1.1 0 2 .9 2 2v12c0 1.1-.45 2.1-1.17 2.83-.73.72-1.73 1.17-2.83 1.17-2.21 0-4-1.79-4-4v-12c0-1.1.9-2 2-2h1 2z" fill="#969faa"/></g><g><path d="m23 37.74v4.26c0 1.1-.9 2-2 2h-2c-1.1 0-2-.9-2-2v-4.26c.97.17 1.98.26 3 .26s2.03-.09 3-.26z" fill="#ccd1d9"/></g><g><circle cx="20" cy="20" fill="#e6e9ed" r="18"/></g><g><path d="m20 6c7.73 0 14 6.27 14 14s-6.27 14-14 14-14-6.27-14-14 6.27-14 14-14z" fill="#69d6f4"/></g><g><path d="m62 36v4c0 1.09-.81 2.1-2.24 2.97-2.93 1.81-8.44 3.03-14.76 3.03s-11.83-1.22-14.76-3.03c-1.43-.87-2.24-1.89-2.24-2.97v-3.87c.19 3.25 7.73 5.87 17 5.87 9.39 0 17-2.69 17-6z" fill="#fcd770"/></g><g><path d="m62 48v4c0 3.31-7.61 6-17 6s-17-2.69-17-6v-4c0 3.31 7.61 6 17 6s17-2.69 17-6z" fill="#fcd770"/></g><g><path d="m59.78 45.04c1.41.88 2.22 1.89 2.22 2.96 0 3.31-7.61 6-17 6s-17-2.69-17-6c0-1.07.81-2.08 2.22-2.96 1.23 2.81 7.38 4.96 14.78 4.96s13.55-2.15 14.78-4.96z" fill="#ffeaa7"/></g><g><path d="m59.78 33.04c1.41.88 2.22 1.89 2.22 2.96 0 3.31-7.61 6-17 6-9.27 0-16.81-2.62-17-5.87v-.01c1.09-.53 2.11-1.18 3.05-1.91 2.2 2.22 7.62 3.79 13.95 3.79 7.4 0 13.55-2.15 14.78-4.96z" fill="#ffeaa7"/></g><g><path d="m45 46c6.32 0 11.83-1.22 14.76-3.03.15.33.24.68.24 1.03s-.08.7-.22 1.04c-1.23 2.81-7.38 4.96-14.78 4.96s-13.55-2.15-14.78-4.96c-.14-.34-.22-.69-.22-1.04s.09-.7.24-1.03c2.93 1.81 8.44 3.03 14.76 3.03z" fill="#5cd6b3"/></g><g><path d="m59.78 33.04c-1.23 2.81-7.38 4.96-14.78 4.96-6.33 0-11.75-1.57-13.95-3.79.75-.58 1.45-1.22 2.09-1.91 3.07 1.05 7.25 1.7 11.86 1.7 6.32 0 11.83-1.22 14.76-3.03.15.33.24.68.24 1.03s-.08.7-.22 1.04z" fill="#5cd6b3"/></g><g><path d="m62 24v4c0 1.09-.81 2.1-2.24 2.97-2.93 1.81-8.44 3.03-14.76 3.03-4.61 0-8.79-.65-11.86-1.7.94-1 1.76-2.11 2.45-3.3 2.7.63 5.93 1 9.41 1 9.39 0 17-2.69 17-6z" fill="#fcd770"/></g><g><path d="m45 18c-2.52 0-4.91.19-7.06.54l-.011.05c.036.467.071.934.071 1.41 0 3.263-.881 6.315-2.4 8.954l-.01.046c2.7.63 5.93 1 9.41 1 9.39 0 17-2.69 17-6s-7.61-6-17-6z" fill="#ffeaa7"/></g><g><path d="m52 22c1.1 0 2 .9 2 2 0 .55-.22 1.05-.59 1.41-.36.37-.86.59-1.41.59h-15.02c.44-1.27.76-2.61.91-4z" fill="#48cfad"/></g></g><g><path d="m35 20c0-8.271-6.729-15-15-15s-15 6.729-15 15 6.729 15 15 15 15-6.729 15-15zm-28 0c0-7.168 5.832-13 13-13s13 5.832 13 13-5.832 13-13 13-13-5.832-13-13z"/><path d="m13 16h-2c-1.103 0-2 .897-2 2v4c0 1.103.897 2 2 2h2c1.103 0 2-.897 2-2v-4c0-1.103-.897-2-2-2zm0 6h-2v-4h2z"/><path d="m23 22v-4c0-1.103-.897-2-2-2h-2c-1.103 0-2 .897-2 2v4c0 1.103.897 2 2 2h2c1.103 0 2-.897 2-2zm-4-4h2v4h-2z"/><path d="m25 16h2v8h-2z"/><path d="m29 16h2v8h-2z"/><path d="m63 28v-4c0-4.547-9.274-7-18-7-2.146 0-4.221.144-6.198.411-1.269-9.253-9.206-16.411-18.802-16.411-10.477 0-19 8.523-19 19 0 9.104 6.439 16.725 15 18.568v3.432c0 .537.153 1.034.401 1.471-.839.532-1.401 1.464-1.401 2.529v12c0 2.757 2.243 5 5 5s5-2.243 5-5v-12c0-1.065-.562-1.997-1.401-2.529.248-.437.401-.934.401-1.471v-3.432c1.035-.223 2.035-.537 3-.921v2.353c0 1.302.779 2.427 2.07 3.377-.041.209-.07.417-.07.623 0 .211.029.418.067.624-1.681 1.246-2.067 2.503-2.067 3.376v4c0 4.547 9.274 7 18 7s18-2.453 18-7v-4c0-.873-.386-2.13-2.067-3.376.038-.206.067-.413.067-.624 0-.206-.029-.414-.07-.623 1.291-.95 2.07-2.075 2.07-3.377v-4c0-.873-.386-2.13-2.067-3.376.038-.206.067-.413.067-.624 0-.206-.029-.414-.07-.623 1.291-.95 2.07-2.075 2.07-3.377zm-18-9c9.913 0 16 2.912 16 5s-6.087 5-16 5c-2.802 0-5.501-.258-7.923-.725.203-.418.397-.841.57-1.275h14.353c1.654 0 3-1.346 3-3s-1.346-3-3-3h-13.051c.018-.333.051-.662.051-1 0-.2-.024-.395-.03-.594 1.918-.264 3.937-.406 6.03-.406zm-6.261 4h13.261c.552 0 1 .449 1 1s-.448 1-1 1h-13.69c.179-.654.321-1.32.429-2zm-35.739-3c0-9.374 7.626-17 17-17s17 7.626 17 17-7.626 17-17 17-17-7.626-17-17zm20 38c0 1.654-1.346 3-3 3s-3-1.346-3-3v-12c0-.551.448-1 1-1h1 2 1c.552 0 1 .449 1 1zm-1-16c0 .551-.448 1-1 1h-2c-.552 0-1-.449-1-1v-3.107c.658.069 1.324.107 2 .107s1.342-.038 2-.107zm23 15c-9.913 0-16-2.912-16-5v-.676c3.191 2.402 9.728 3.676 16 3.676s12.809-1.274 16-3.676v.676c0 2.088-6.087 5-16 5zm16-9c0 2.088-6.087 5-16 5s-16-2.912-16-5c0-.484.338-1.016.961-1.541 2.182 2.703 7.918 4.541 15.039 4.541s12.858-1.838 15.039-4.541c.623.525.961 1.057.961 1.541zm-16 1c-7.613 0-13.085-2.244-13.887-4.448 3.513 1.604 8.787 2.448 13.887 2.448s10.374-.844 13.887-2.448c-.802 2.204-6.274 4.448-13.887 4.448zm0-4c-9.913 0-16-2.912-16-5v-.687c3.204 2.409 9.774 3.687 16 3.687 6.272 0 12.809-1.274 16-3.676v.676c0 2.088-6.087 5-16 5zm16-9c0 2.088-6.087 5-16 5-8.519 0-14.777-2.201-15.83-4.37.628-.348 1.229-.738 1.811-1.153 2.728 2.158 8.077 3.523 14.019 3.523 7.121 0 12.858-1.838 15.039-4.541.623.525.961 1.057.961 1.541zm-16 1c-5.184 0-9.948-1.105-12.408-2.811.28-.249.566-.49.83-.755 3.211 1.008 7.284 1.566 11.578 1.566 5.1 0 10.374-.844 13.887-2.448-.802 2.204-6.274 4.448-13.887 4.448zm0-4c-3.718 0-7.245-.43-10.122-1.218.424-.534.814-1.093 1.18-1.672 2.705.575 5.768.89 8.942.89 6.272 0 12.809-1.274 16-3.676v.676c0 2.088-6.087 5-16 5z"/></g></g></svg>