<svg id="Layer_5" enable-background="new 0 0 64 64" height="512" viewBox="0 0 64 64" width="512" xmlns="http://www.w3.org/2000/svg"><g><g><g><path d="m49 55v3c0 2.21-1.79 4-4 4h-26c-2.21 0-4-1.79-4-4v-3-24-17c0-2.21 1.79-4 4-4h26c2.21 0 4 1.79 4 4v17zm-4 2v-7-12-12-11c0-.55-.45-1-1-1h-24c-.55 0-1 .45-1 1v11 12 12 7c0 .55.45 1 1 1h24c.55 0 1-.45 1-1z" fill="#aab2bd"/></g><g><path d="m19 57v-7h26v7c0 .55-.45 1-1 1h-24c-.55 0-1-.45-1-1z" fill="#ffeaa7"/></g><g><path d="m44 14h-24c-.55 0-1 .45-1 1v35h26v-35c0-.55-.45-1-1-1z" fill="#fcd770"/></g><g><path d="m39 18h-14c-.55 0-1.05.22-1.41.59-.37.36-.59.86-.59 1.41 0 1.1.9 2 2 2h14c.55 0 1.05-.22 1.41-.59.37-.36.59-.86.59-1.41 0-1.1-.9-2-2-2z" fill="#69d6f4"/></g><g><path d="m39 30h-14c-.55 0-1.05.22-1.41.59-.37.36-.59.86-.59 1.41 0 1.1.9 2 2 2h14c.55 0 1.05-.22 1.41-.59.37-.36.59-.86.59-1.41 0-1.1-.9-2-2-2z" fill="#69d6f4"/></g><g><path d="m39 42h-14c-.55 0-1.05.22-1.41.59-.37.36-.59.86-.59 1.41 0 1.1.9 2 2 2h14c.55 0 1.05-.22 1.41-.59.37-.36.59-.86.59-1.41 0-1.1-.9-2-2-2z" fill="#69d6f4"/></g><g><path d="m4 6c-1.1 0-2-.9-2-2s.9-2 2-2 2 .9 2 2c0 .55-.22 1.05-.59 1.41-.36.37-.86.59-1.41.59z" fill="#ff826e"/></g><g><path d="m4 14c-1.1 0-2-.9-2-2s.9-2 2-2 2 .9 2 2c0 .55-.22 1.05-.59 1.41-.36.37-.86.59-1.41.59z" fill="#ff826e"/></g><g><path d="m4 22c-1.1 0-2-.9-2-2s.9-2 2-2 2 .9 2 2c0 .55-.22 1.05-.59 1.41-.36.37-.86.59-1.41.59z" fill="#ff826e"/></g><g><path d="m4 30c-1.1 0-2-.9-2-2s.9-2 2-2 2 .9 2 2c0 .55-.22 1.05-.59 1.41-.36.37-.86.59-1.41.59z" fill="#ff826e"/></g><g><path d="m4 38c-1.1 0-2-.9-2-2s.9-2 2-2 2 .9 2 2c0 .55-.22 1.05-.59 1.41-.36.37-.86.59-1.41.59z" fill="#ff826e"/></g><g><path d="m4 46c-1.1 0-2-.9-2-2s.9-2 2-2 2 .9 2 2c0 .55-.22 1.05-.59 1.41-.36.37-.86.59-1.41.59z" fill="#ff826e"/></g><g><path d="m58.59 29.41c-.37-.36-.59-.86-.59-1.41 0-1.1.9-2 2-2s2 .9 2 2-.9 2-2 2c-.55 0-1.05-.22-1.41-.59z" fill="#ff826e"/></g><g><path d="m58.59 37.41c-.37-.36-.59-.86-.59-1.41 0-1.1.9-2 2-2s2 .9 2 2-.9 2-2 2c-.55 0-1.05-.22-1.41-.59z" fill="#ff826e"/></g><g><path d="m58.59 5.41c-.37-.36-.59-.86-.59-1.41 0-1.1.9-2 2-2s2 .9 2 2-.9 2-2 2c-.55 0-1.05-.22-1.41-.59z" fill="#ff826e"/></g><g><path d="m58.59 13.41c-.37-.36-.59-.86-.59-1.41 0-1.1.9-2 2-2s2 .9 2 2-.9 2-2 2c-.55 0-1.05-.22-1.41-.59z" fill="#ff826e"/></g><g><path d="m58.59 21.41c-.37-.36-.59-.86-.59-1.41 0-1.1.9-2 2-2s2 .9 2 2-.9 2-2 2c-.55 0-1.05-.22-1.41-.59z" fill="#ff826e"/></g><g><path d="m58.59 45.41c-.37-.36-.59-.86-.59-1.41 0-1.1.9-2 2-2s2 .9 2 2-.9 2-2 2c-.55 0-1.05-.22-1.41-.59z" fill="#ff826e"/></g></g><g><path d="m44 13h-24c-1.103 0-2 .897-2 2v42c0 1.103.897 2 2 2h24c1.103 0 2-.897 2-2v-42c0-1.103-.897-2-2-2zm0 2v10h-24v-10zm-24 22v-10h24v10zm24.001 2v10h-24.001v-10zm-24.001 18v-6h24.001v6z"/><path d="m25 23h14c1.654 0 3-1.346 3-3s-1.346-3-3-3h-14c-1.654 0-3 1.346-3 3s1.346 3 3 3zm5-2v-2h4v2zm10-1c0 .551-.449 1-1 1h-3v-2h3c.551 0 1 .449 1 1zm-15-1h3v2h-3c-.551 0-1-.449-1-1s.449-1 1-1z"/><path d="m39 29h-14c-1.654 0-3 1.346-3 3s1.346 3 3 3h14c1.654 0 3-1.346 3-3s-1.346-3-3-3zm-5 2v2h-4v-2zm-10 1c0-.551.449-1 1-1h3v2h-3c-.551 0-1-.449-1-1zm15 1h-3v-2h3c.551 0 1 .449 1 1s-.449 1-1 1z"/><path d="m25 47h14c1.654 0 3-1.346 3-3s-1.346-3-3-3h-14c-1.654 0-3 1.346-3 3s1.346 3 3 3zm5-2v-2h4v2zm10-1c0 .551-.449 1-1 1h-3v-2h3c.551 0 1 .449 1 1zm-15-1h3v2h-3c-.551 0-1-.449-1-1s.449-1 1-1z"/><path d="m22 53h2v2h-2z"/><path d="m26 53h2v2h-2z"/><path d="m30 53h2v2h-2z"/><path d="m55 18.414 3.715-3.715c.391.188.823.301 1.285.301 1.654 0 3-1.346 3-3s-1.346-3-3-3-3 1.346-3 3c0 .462.113.894.301 1.285l-2.301 2.301v-5.172l3.715-3.715c.391.188.823.301 1.285.301 1.654 0 3-1.346 3-3s-1.346-3-3-3-3 1.346-3 3c0 .462.113.894.301 1.285l-4.301 4.301v16l-3 3v-14.586c0-2.757-2.243-5-5-5h-26c-2.757 0-5 2.243-5 5v14.586l-3-3v-16l-4.301-4.301c.188-.391.301-.823.301-1.285 0-1.654-1.346-3-3-3s-3 1.346-3 3 1.346 3 3 3c.462 0 .894-.113 1.285-.301l3.715 3.715v5.172l-2.301-2.301c.188-.391.301-.823.301-1.285 0-1.654-1.346-3-3-3s-3 1.346-3 3 1.346 3 3 3c.462 0 .894-.113 1.285-.301l3.715 3.715v5.172l-2.301-2.301c.188-.391.301-.823.301-1.285 0-1.654-1.346-3-3-3s-3 1.346-3 3 1.346 3 3 3c.462 0 .894-.113 1.285-.301l8.715 8.715v21.172l-3-3v-16l-4.301-4.301c.188-.391.301-.823.301-1.285 0-1.654-1.346-3-3-3s-3 1.346-3 3 1.346 3 3 3c.462 0 .894-.113 1.285-.301l3.715 3.715v5.172l-2.301-2.301c.188-.391.301-.823.301-1.285 0-1.654-1.346-3-3-3s-3 1.346-3 3 1.346 3 3 3c.462 0 .894-.113 1.285-.301l3.715 3.715v5.172l-2.301-2.301c.188-.391.301-.823.301-1.285 0-1.654-1.346-3-3-3s-3 1.346-3 3 1.346 3 3 3c.462 0 .894-.113 1.285-.301l8.715 8.715v2.586c0 2.757 2.243 5 5 5h26c2.757 0 5-2.243 5-5v-2.586l8.715-8.715c.391.188.823.301 1.285.301 1.654 0 3-1.346 3-3s-1.346-3-3-3-3 1.346-3 3c0 .462.113.894.301 1.285l-2.301 2.301v-5.172l3.715-3.715c.391.188.823.301 1.285.301 1.654 0 3-1.346 3-3s-1.346-3-3-3-3 1.346-3 3c0 .462.113.894.301 1.285l-2.301 2.301v-5.172l3.715-3.715c.391.188.823.301 1.285.301 1.654 0 3-1.346 3-3s-1.346-3-3-3-3 1.346-3 3c0 .462.113.894.301 1.285l-4.301 4.301v16l-3 3v-21.172l8.715-8.715c.391.188.823.301 1.285.301 1.654 0 3-1.346 3-3s-1.346-3-3-3-3 1.346-3 3c0 .462.113.894.301 1.285l-2.301 2.301zm5-7.414c.551 0 1 .449 1 1s-.449 1-1 1-1-.449-1-1 .449-1 1-1zm0-8c.551 0 1 .449 1 1s-.449 1-1 1-1-.449-1-1 .449-1 1-1zm-57 1c0-.551.449-1 1-1s1 .449 1 1-.449 1-1 1-1-.449-1-1zm0 8c0-.551.449-1 1-1s1 .449 1 1-.449 1-1 1-1-.449-1-1zm0 8c0-.551.449-1 1-1s1 .449 1 1-.449 1-1 1-1-.449-1-1zm0 8c0-.551.449-1 1-1s1 .449 1 1-.449 1-1 1-1-.449-1-1zm0 8c0-.551.449-1 1-1s1 .449 1 1-.449 1-1 1-1-.449-1-1zm0 8c0-.551.449-1 1-1s1 .449 1 1-.449 1-1 1-1-.449-1-1zm57-9c.551 0 1 .449 1 1s-.449 1-1 1-1-.449-1-1 .449-1 1-1zm0-8c.551 0 1 .449 1 1s-.449 1-1 1-1-.449-1-1 .449-1 1-1zm0 16c.551 0 1 .449 1 1s-.449 1-1 1-1-.449-1-1 .449-1 1-1zm-12 15c0 1.654-1.346 3-3 3h-26c-1.654 0-3-1.346-3-3v-44c0-1.654 1.346-3 3-3h26c1.654 0 3 1.346 3 3zm12-39c.551 0 1 .449 1 1s-.449 1-1 1-1-.449-1-1 .449-1 1-1z"/></g></g></svg>