<svg id="Layer_5" enable-background="new 0 0 64 64" height="512" viewBox="0 0 64 64" width="512" xmlns="http://www.w3.org/2000/svg"><g><g><g><path d="m59 6v36.71c-1.13-.87-2.51-1.46-4-1.65v-11.06-12-11c0-.55-.45-1-1-1h-28c-.55 0-1 .45-1 1v11 12 9.63c-1.15-1.11-2.5-2.01-4-2.63v-31c0-2.21 1.79-4 4-4h30c2.21 0 4 1.79 4 4z" fill="#aab2bd"/></g><g><path d="m54 6h-28c-.55 0-1 .45-1 1v32.63c1.53 1.46 2.71 3.3 3.37 5.37h16.7c1.13 0 2.21-.47 2.96-1.31 1.46-1.65 3.59-2.69 5.97-2.69.34 0 .67.02 1 .06v-34.06c0-.55-.45-1-1-1z" fill="#fcd770"/></g><g><path d="m39 11v2c0 .55-.45 1-1 1h-8c-.55 0-1-.45-1-1v-2c0-.55.45-1 1-1h8c.55 0 1 .45 1 1z" fill="#69d6f4"/></g><g><path d="m51 23v2c0 .55-.45 1-1 1h-8c-.55 0-1-.45-1-1v-2c0-.55.45-1 1-1h8c.55 0 1 .45 1 1z" fill="#69d6f4"/></g><g><path d="m39 35v2c0 .55-.45 1-1 1h-8c-.55 0-1-.45-1-1v-2c0-.55.45-1 1-1h8c.55 0 1 .45 1 1z" fill="#69d6f4"/></g><g><path d="m28.37 45c.41 1.26.63 2.61.63 4s-.22 2.74-.63 4c-1.68 5.22-6.58 9-12.37 9-7.18 0-13-5.82-13-13s5.82-13 13-13c1.77 0 3.46.36 5 1 1.5.62 2.85 1.52 4 2.63 1.53 1.46 2.71 3.3 3.37 5.37z" fill="#e6e9ed"/></g><g><path d="m25 47v4l-1.39.47c-.13.4-.3.79-.48 1.15l.65 1.33-2.83 2.83-1.33-.65c-.36.18-.75.35-1.15.48l-.47 1.39h-4l-.47-1.39c-.4-.13-.79-.3-1.15-.48l-1.33.65-2.83-2.83.65-1.33c-.18-.36-.35-.75-.48-1.15l-1.39-.47v-4l1.39-.47c.13-.4.3-.79.48-1.15l-.65-1.33 2.83-2.83 1.33.65c.36-.18.75-.35 1.15-.48l.47-1.39h4l.47 1.39c.4.13.79.3 1.15.48l1.33-.65 2.83 2.83-.65 1.33c.18.36.35.75.48 1.15zm-5 2c0-2.21-1.79-4-4-4s-4 1.79-4 4 1.79 4 4 4 4-1.79 4-4z" fill="#5cd6b3"/></g><g><path d="m61 45h-3c-2.21 0-4 1.79-4 4s1.79 4 4 4h3c-1.38 2.39-4.04 4-7 4-2.38 0-4.51-1.04-5.97-2.69-.75-.84-1.83-1.31-2.96-1.31h-16.7c.41-1.26.63-2.61.63-4s-.22-2.74-.63-4h16.7c1.13 0 2.21-.47 2.96-1.31 1.46-1.65 3.59-2.69 5.97-2.69.34 0 .67.02 1 .06 1.49.19 2.87.78 4 1.65v.01c.81.62 1.49 1.4 2 2.28z" fill="#cf9e76"/></g></g><g><path d="m21.151 40.008-1.535.755c-.116-.052-.232-.101-.35-.146l-.55-1.617h-5.432l-.551 1.617c-.117.046-.233.095-.35.146l-1.535-.755-3.84 3.841.755 1.534c-.052.116-.101.233-.146.35l-1.617.551v5.432l1.617.551c.046.117.095.233.146.35l-.754 1.533 3.84 3.841 1.535-.755c.116.052.232.101.35.146l.55 1.618h5.432l.551-1.617c.117-.046.233-.095.35-.146l1.535.755 3.84-3.841-.755-1.534c.052-.116.101-.233.146-.35l1.617-.551v-5.432l-1.617-.551c-.046-.117-.095-.233-.146-.35l.755-1.534zm2.849 10.276-1.19.405-.155.476c-.108.334-.25.672-.419 1.006l-.228.446.558 1.133-1.816 1.816-1.133-.558-.447.228c-.332.169-.67.311-1.004.42l-.476.155-.406 1.189h-2.568l-.405-1.19-.476-.155c-.334-.109-.672-.25-1.004-.42l-.447-.228-1.133.558-1.816-1.816.558-1.133-.228-.446c-.169-.333-.311-.672-.419-1.006l-.156-.475-1.19-.405v-2.568l1.19-.405.155-.476c.108-.334.25-.672.419-1.006l.228-.446-.558-1.133 1.816-1.816 1.133.558.447-.228c.332-.169.67-.311 1.004-.42l.476-.155.406-1.189h2.568l.405 1.19.476.155c.334.109.672.25 1.004.42l.447.228 1.133-.558 1.816 1.816-.558 1.133.228.446c.169.333.311.672.419 1.006l.155.476 1.191.404z"/><path d="m16 44c-2.757 0-5 2.243-5 5s2.243 5 5 5 5-2.243 5-5-2.243-5-5-5zm0 8c-1.654 0-3-1.346-3-3s1.346-3 3-3 3 1.346 3 3-1.346 3-3 3z"/><path d="m55 49c0-1.654 1.346-3 3-3h4.735l-.87-1.501c-.496-.855-1.137-1.596-1.865-2.232v-36.267c0-2.757-2.243-5-5-5h-30c-2.757 0-5 2.243-5 5v29.59c-1.269-.38-2.61-.59-4-.59-7.72 0-14 6.28-14 14s6.28 14 14 14c5.957 0 11.042-3.746 13.061-9h16.013c.851 0 1.654.356 2.206.977 1.707 1.921 4.157 3.023 6.72 3.023 3.244 0 6.258-1.724 7.865-4.499l.87-1.501h-4.735c-1.654 0-3-1.346-3-3zm-33-43c0-1.654 1.346-3 3-3h30c1.654 0 3 1.346 3 3v34.941c-.635-.309-1.303-.546-2-.703v-33.238c0-1.103-.897-2-2-2h-28c-1.103 0-2 .897-2 2v30.527c-.63-.441-1.3-.823-2-1.157zm4 33.221v-8.221h28v9c-2.563 0-5.013 1.102-6.72 3.023-.551.621-1.356.977-2.206.977h-16.013c-.692-1.8-1.736-3.424-3.061-4.779zm28-22.221h-28v-10h28zm-28 2h28v10h-28zm-10 42c-6.617 0-12-5.383-12-12s5.383-12 12-12 12 5.383 12 12-5.383 12-12 12zm38-5c-1.992 0-3.897-.857-5.225-2.352-.93-1.047-2.279-1.648-3.701-1.648h-15.406c.212-.968.332-1.97.332-3s-.12-2.032-.332-3h15.406c1.421 0 2.77-.601 3.7-1.648 1.329-1.495 3.234-2.352 5.226-2.352 1.878 0 3.656.738 4.96 2h-.96c-2.757 0-5 2.243-5 5s2.243 5 5 5h.96c-1.304 1.262-3.082 2-4.96 2z"/><path d="m30 15h8c1.103 0 2-.897 2-2v-2c0-1.103-.897-2-2-2h-8c-1.103 0-2 .897-2 2v2c0 1.103.897 2 2 2zm0-4h8l.001 2h-8.001z"/><path d="m50 21h-8c-1.103 0-2 .897-2 2v2c0 1.103.897 2 2 2h8c1.103 0 2-.897 2-2v-2c0-1.103-.897-2-2-2zm-8 4v-2h8l.001 2z"/><path d="m38 33h-8c-1.103 0-2 .897-2 2v2c0 1.103.897 2 2 2h8c1.103 0 2-.897 2-2v-2c0-1.103-.897-2-2-2zm-8 4v-2h8l.001 2z"/><path d="m50 13h2v2h-2z"/><path d="m50 9h2v2h-2z"/><path d="m46 9h2v2h-2z"/><path d="m46 13h2v2h-2z"/><path d="m32 25h2v2h-2z"/><path d="m32 21h2v2h-2z"/><path d="m28 21h2v2h-2z"/><path d="m28 25h2v2h-2z"/><path d="m50 37h2v2h-2z"/><path d="m50 33h2v2h-2z"/><path d="m46 33h2v2h-2z"/><path d="m46 37h2v2h-2z"/></g></g></svg>