<svg id="Layer_5" enable-background="new 0 0 64 64" height="512" viewBox="0 0 64 64" width="512" xmlns="http://www.w3.org/2000/svg"><g><g><path d="m2 58h44c0 2.21-1.79 4-4 4h-36c-2.21 0-4-1.79-4-4z" fill="#969faa"/><path d="m2 46v4 4 4h44v-4-4-4z" fill="#aab2bd"/><path d="m42 22h-36c-2.21 0-4 1.79-4 4v20h44v-9-11c0-2.21-1.79-4-4-4z" fill="#ccd1d9"/><path d="m41 26h-34c-.55 0-1 .45-1 1v14c0 .55.45 1 1 1h34c.55 0 1-.45 1-1v-4-10c0-.55-.45-1-1-1z" fill="#69d6f4"/><circle cx="24" cy="26" fill="#48cfad" r="12"/><circle cx="53" cy="10" fill="#ffeaa7" r="8"/><circle cx="53" cy="12" fill="#ff826e" r="2"/></g><g><path d="m13 49h2v2h-2z"/><path d="m5 49h2v2h-2z"/><path d="m9 49h2v2h-2z"/><path d="m33 49h2v2h-2z"/><path d="m41 49h2v2h-2z"/><path d="m29 49h2v2h-2z"/><path d="m37 49h2v2h-2z"/><path d="m25 49h2v2h-2z"/><path d="m17 49h2v2h-2z"/><path d="m21 49h2v2h-2z"/><path d="m37 53h2v2h-2z"/><path d="m29 53h2v2h-2z"/><path d="m33 53h2v2h-2z"/><path d="m5 53h2v2h-2z"/><path d="m25 53h2v2h-2z"/><path d="m13 53h2v2h-2z"/><path d="m9 53h2v2h-2z"/><path d="m41 53h2v2h-2z"/><path d="m17 53h2v2h-2z"/><path d="m21 53h2v2h-2z"/><path d="m21 25h2v2h-2z"/><path d="m25 25h2v2h-2z"/><path d="m63 36h-2v-14h-2v14h-2v-10h-2v10h-2v-6h-2v6h-4v-10c0-2.757-2.243-5-5-5h-6.003c-.507-1.212-1.192-2.33-2.023-3.324l10.917-3.798c1.453 3.024 4.536 5.122 8.109 5.122 4.963 0 9-4.038 9-9s-4.037-9-9-9-9 4.038-9 9c0 .685.084 1.35.23 1.992l-11.821 4.112c-2.269-1.931-5.203-3.104-8.409-3.104-2.454 0-4.743.696-6.704 1.883l-5.882-5.883h-10.414v2h9.586l5.057 5.057c-1.575 1.326-2.833 3.016-3.64 4.943h-6.003c-2.757 0-5 2.243-5 5v32c0 2.757 2.243 5 5 5h36c2.757 0 5-2.243 5-5v-20h16zm-10-33c3.859 0 7 3.14 7 7s-3.141 7-7 7-7-3.14-7-7 3.141-7 7-7zm-11 20c1.654 0 3 1.346 3 3v10h-2v-9c0-1.103-.897-2-2-2h-4.051c-.052-.683-.158-1.35-.313-2zm-30.949 4c.514 6.701 6.119 12 12.949 12s12.435-5.299 12.949-12h4.051v7.586l-2.293-2.293-1.414 1.414 3.707 3.707v3.586h-34v-14zm8.949-1c0-1.146.072-2.238.197-3.26 1.216.164 2.49.26 3.803.26s2.587-.096 3.803-.26c.125 1.022.197 2.114.197 3.26s-.072 2.238-.197 3.26c-1.216-.164-2.49-.26-3.803-.26s-2.587.096-3.803.26c-.125-1.022-.197-2.114-.197-3.26zm4-11c1.311 0 2.729 2.271 3.473 5.766-1.112.147-2.278.234-3.473.234s-2.361-.087-3.473-.234c.744-3.495 2.162-5.766 3.473-5.766zm-5.453 5.424c-1.244-.279-2.356-.653-3.267-1.103 1.273-1.658 3.004-2.94 5.006-3.662-.748 1.242-1.344 2.866-1.739 4.765zm5.453 10.576c1.195 0 2.361.087 3.473.234-.744 3.495-2.162 5.766-3.473 5.766s-2.729-2.271-3.473-5.766c1.112-.147 2.278-.234 3.473-.234zm5.453.576c1.244.279 2.356.653 3.267 1.103-1.273 1.658-3.004 2.94-5.006 3.662.748-1.242 1.344-2.866 1.739-4.765zm-9.167 4.765c-2.002-.721-3.732-2.004-5.006-3.662.91-.45 2.023-.824 3.267-1.103.395 1.899.991 3.523 1.739 4.765zm13.509-5.36c-1.12-.58-2.492-1.042-4.016-1.377.141-1.138.221-2.342.221-3.604s-.08-2.466-.221-3.604c1.524-.335 2.896-.797 4.016-1.377.765 1.498 1.205 3.187 1.205 4.981s-.44 3.483-1.205 4.981zm-1.075-11.66c-.91.45-2.023.824-3.267 1.103-.396-1.899-.991-3.523-1.739-4.765 2.002.722 3.733 2.004 5.006 3.662zm-18.515 1.698c1.12.58 2.492 1.042 4.016 1.377-.141 1.138-.221 2.342-.221 3.604s.08 2.466.221 3.604c-1.524.335-2.896.797-4.016 1.377-.765-1.498-1.205-3.187-1.205-4.981s.44-3.483 1.205-4.981zm-11.205 35.981v-10h42v10zm39 4h-36c-1.302 0-2.402-.839-2.816-2h41.631c-.413 1.161-1.513 2-2.815 2zm3-16h-42v-19c0-1.654 1.346-3 3-3h5.363c-.154.65-.26 1.317-.313 2h-4.05c-1.103 0-2 .897-2 2v14c0 1.103.897 2 2 2h34c1.103 0 2-.897 2-2v-3h2z"/><path d="m53 9c-1.654 0-3 1.346-3 3s1.346 3 3 3 3-1.346 3-3-1.346-3-3-3zm0 4c-.552 0-1-.449-1-1s.448-1 1-1 1 .449 1 1-.448 1-1 1z"/><path d="m53 7c1.335 0 2.591.52 3.535 1.464l1.414-1.414c-1.322-1.322-3.079-2.05-4.949-2.05s-3.627.728-4.949 2.05l1.414 1.414c.944-.944 2.2-1.464 3.535-1.464z"/><path d="m3 13h8v2h-8z"/><path d="m3 17h8v2h-8z"/></g></g></svg>