<svg id="Layer_5" enable-background="new 0 0 64 64" height="512" viewBox="0 0 64 64" width="512" xmlns="http://www.w3.org/2000/svg"><g><g><g><path d="m50 27c-7.168 0-13-5.832-13-13s5.832-13 13-13 13 5.832 13 13-5.832 13-13 13z" fill="#f0bc5e"/></g></g><g><g><path d="m46 63c-4.411 0-8-3.589-8-8s3.589-8 8-8 8 3.589 8 8-3.589 8-8 8zm0-11c-1.654 0-3 1.346-3 3s1.346 3 3 3 3-1.346 3-3-1.346-3-3-3z" fill="#f0bc5e"/></g></g><g><g><path d="m20 63c-7.72 0-14-6.28-14-14s6.28-14 14-14 14 6.28 14 14-6.28 14-14 14zm0-23c-4.963 0-9 4.037-9 9s4.037 9 9 9 9-4.037 9-9-4.037-9-9-9z" fill="#f0bc5e"/></g></g><g><g><path d="m46 63c-4.411 0-8-3.589-8-8s3.589-8 8-8 8 3.589 8 8-3.589 8-8 8zm0-11c-1.654 0-3 1.346-3 3s1.346 3 3 3 3-1.346 3-3-1.346-3-3-3z" fill="#f0bc5e"/></g></g><g><path d="m50 19c-1.103 0-2-.897-2-2h-2c0 1.858 1.28 3.411 3 3.858v2.142h2v-2h3v-4c0-2.206-1.794-4-4-4-1.103 0-2-.897-2-2v-2h2c1.103 0 2 .897 2 2h2c0-1.858-1.28-3.411-3-3.858v-2.142h-2v2h-3v4c0 2.206 1.794 4 4 4 1.103 0 2 .897 2 2v2z"/><path d="m32.106 56c-.41.707-.874 1.378-1.397 2h7.881c-.256-.631-.432-1.302-.52-2z"/><path d="m33.061 54h5.008c.088-.698.263-1.369.52-2h-4.921c-.151.688-.359 1.354-.607 2z"/><path d="m60 52v-4c0-6.065-4.935-11-11-11h-4.174c-.424-1.166-1.599-1.994-2.927-1.999-.336-1.652-1.492-3.005-3.02-3.628-.734-5.465-5.102-9.761-10.747-10.275l-.132-.011v-1.087c1.654 0 3-1.346 3-3v-.382l2.165-1.083-1.627-6.505c-.251-1.006-.876-1.83-1.696-2.367l.087-.035c-1.368-3.419-4.632-5.628-8.314-5.628h-.661c-4.937 0-8.954 4.017-8.954 8.954v5.116c-.261-.043-.527-.07-.798-.07h-7.202c-.882 0-1.716.386-2.288 1.06-.571.673-.816 1.563-.671 2.44.234 1.425 1.554 2.5 3.071 2.5h6.649l3.089 15.442c.608-.299 1.235-.565 1.889-.774l-3.017-15.06c-.185-.931-1.011-1.608-1.961-1.608h-6.649c-.539 0-1.021-.362-1.097-.825-.05-.302.029-.593.223-.821.19-.225.469-.354.762-.354h7.202c1.398 0 2.63.991 2.93 2.357l2.913 13.271.019-.004c.12.947.506 1.808 1.075 2.515.61-.082 1.228-.139 1.861-.139 2.624 0 5.073.739 7.174 2h14.714c.539 0 1.021.362 1.097.825.05.302-.029.593-.223.821-.19.225-.469.354-.762.354h-12.221c.625.611 1.191 1.281 1.693 2h9.878l2.77 6.232c.604-.146 1.232-.232 1.88-.232.071 0 .14.009.21.011l-2.828-6.362c.339-.177.651-.409.905-.709.237-.28.404-.602.524-.94h4.189c4.962 0 9 4.038 9 9v4h-4.589c.256.631.432 1.302.52 2h6.069c.551 0 1 .449 1 1s-.449 1-1 1h-6.069c-.088.698-.263 1.369-.52 2h6.589c1.654 0 3-1.346 3-3s-1.346-3-3-3zm-23.203-21h-11.797v-6.465l2.261-1.507.69.063c4.476.407 7.993 3.669 8.846 7.909zm-7.199-21.485 1.238 4.949-1.836.918v1.618c0 .551-.449 1-1 1h-4v2h2v1.465l-1.356.904c-.492-1.095-1.463-1.92-2.644-2.227v-5.142h-1c-.551 0-1-.449-1-1s.449-1 1-1h.618l1.146-2.292 4.513-2.708h.381c.919 0 1.717.623 1.94 1.515zm-6.598 14.485v4h-4v-4c0-1.103.897-2 2-2s2 .897 2 2zm-5.937-.618-.978-4.454c-.279-1.274-1.056-2.338-2.085-3.041v-5.933c0-3.834 3.12-6.954 6.954-6.954h.661c2.326 0 4.422 1.148 5.7 3h-.592l-5.487 3.292-.89 1.779c-1.341.3-2.346 1.499-2.346 2.929 0 1.304.836 2.416 2 2.829v3.313c-1.524.396-2.69 1.662-2.937 3.24zm4.933 11.618c-1.653-.003-2.996-1.347-2.996-3v-2h4v1c0 1.103.897 2 2 2h12c1.304 0 2.416.836 2.829 2z"/><path d="m20 39c-5.514 0-10 4.486-10 10s4.486 10 10 10 10-4.486 10-10-4.486-10-10-10zm0 12c-1.103 0-2-.897-2-2s.897-2 2-2 2 .897 2 2-.897 2-2 2zm2.019-5.433c-.316-.186-.656-.33-1.019-.425v-4.073c1.458.183 2.792.759 3.898 1.619zm-3.019-.425c-.363.094-.704.238-1.019.425l-2.878-2.878c1.106-.86 2.44-1.436 3.898-1.619v4.072zm-2.433 1.839c-.186.316-.33.656-.425 1.019h-4.073c.183-1.458.759-2.792 1.619-3.898zm-.425 3.019c.094.363.238.704.425 1.019l-2.878 2.878c-.86-1.106-1.436-2.44-1.619-3.898h4.072zm1.839 2.433c.316.186.656.33 1.019.425v4.073c-1.458-.183-2.792-.759-3.898-1.619zm3.019.425c.363-.094.704-.238 1.019-.425l2.878 2.878c-1.106.86-2.44 1.436-3.898 1.619v-4.072zm2.433-1.839c.186-.316.33-.656.425-1.019h4.073c-.183 1.458-.759 2.792-1.619 3.898zm.425-3.019c-.094-.363-.238-.704-.425-1.019l2.878-2.878c.86 1.106 1.436 2.44 1.619 3.898h-4.072z"/><path d="m46 51c-2.206 0-4 1.794-4 4s1.794 4 4 4 4-1.794 4-4-1.794-4-4-4zm0 6c-1.103 0-2-.897-2-2s.897-2 2-2 2 .897 2 2-.897 2-2 2z"/></g></g></svg>