<svg id="Layer_5" enable-background="new 0 0 64 64" height="512" viewBox="0 0 64 64" width="512" xmlns="http://www.w3.org/2000/svg"><g><g><g><path d="m47 31c-8.271 0-15-6.729-15-15s6.729-15 15-15 15 6.729 15 15-6.729 15-15 15zm0-25c-5.514 0-10 4.486-10 10s4.486 10 10 10 10-4.486 10-10-4.486-10-10-10z" fill="#f0bc5e"/></g></g><g><path d="m10 62h6v-15.6l-6 1.2z" fill="#f0bc5e"/></g><g><path d="m28 62h6v-14.4l-6-1.2z" fill="#f0bc5e"/></g><g><path d="m22 38c-1.103 0-2-.897-2-2h-2c0 2.206 1.794 4 4 4s4-1.794 4-4h-2c0 1.103-.897 2-2 2z"/><circle cx="25" cy="32" r="1"/><circle cx="19" cy="32" r="1"/><path d="m48 13c.551 0 1 .449 1 1h2c0-1.654-1.346-3-3-3v-2h-2v2h-3v3c0 1.654 1.346 3 3 3h2c.551 0 1 .449 1 1v1h-3c-.551 0-1-.449-1-1h-2c0 1.654 1.346 3 3 3v2h2v-2h3v-3c0-1.654-1.346-3-3-3h-2c-.551 0-1-.449-1-1v-1z"/><path d="m47 5c-6.065 0-11 4.935-11 11s4.935 11 11 11 11-4.935 11-11-4.935-11-11-11zm0 20c-4.962 0-9-4.038-9-9s4.038-9 9-9 9 4.038 9 9-4.038 9-9 9z"/><path d="m36.597 47.318c1.553-1.893 2.403-4.095 2.403-6.318 0-2.403-1.038-4.961-2.137-7.669-1.176-2.899-2.489-6.137-2.796-9.769-1.305-2.224-2.067-4.803-2.067-7.562v6.299c-1.493.51-5.465 1.701-10 1.701-4.522 0-8.504-1.192-10-1.702v-6.298h20c0-.68.061-1.344.149-2h-22.149-2v-2h24.558c.191-.687.421-1.356.703-2h-25.261c-1.103 0-2 .897-2 2v2c0 1.103.897 2 2 2h2v6c0 4.273-1.521 8.022-2.863 11.331-1.099 2.708-2.137 5.266-2.137 7.669 0 2.222.849 4.426 2.403 6.319-3.216 1.409-5.403 4.618-5.403 8.24v7.441h40v-7.441c0-3.622-2.188-6.832-5.403-8.241zm-4.448-22.96c.414 3.653 1.695 6.851 2.86 9.724 1.069 2.632 1.991 4.905 1.991 6.918 0 2.001-.894 4.006-2.51 5.678l-7.64-1.528-.489-2.444c2.253-1.519 3.639-4.273 3.639-7.706v-7h-1c-1.11 0-2.186-.326-3.109-.941l-1.722-1.148c3.484-.255 6.417-1.048 7.98-1.553zm-10.149 28.794.565.323 1.255 7.525h-3.64l1.254-7.525zm0-2.955-2.938-4.408.435-2.172c.775.25 1.613.383 2.503.383s1.728-.133 2.504-.383l.435 2.172zm0-8.197c-3.645 0-6-2.748-6-7v-5h1.395c2.332 0 4.596-.624 6.59-1.809l.797.531c.974.649 2.071 1.061 3.219 1.212v5.066c-.001 4.252-2.356 7-6.001 7zm-13.01-7.918c1.166-2.874 2.446-6.072 2.86-9.724 1.881.607 5.727 1.642 10.15 1.642.608 0 1.202-.023 1.785-.058l-.339.226c-1.799 1.199-3.891 1.832-6.051 1.832h-3.395v7c0 3.433 1.386 6.187 3.639 7.707l-.489 2.443-7.641 1.528c-1.615-1.672-2.509-3.678-2.509-5.678 0-2.013.922-4.286 1.99-6.918zm-4.99 21.477c0-3.326 2.367-6.212 5.627-6.864l7.912-1.583 3.034 4.551-6.07 3.469.992 1.736 3.698-2.113-1.04 6.245h-14.153zm36 5.441h-14.153l-1.041-6.245 3.698 2.113.992-1.736-6.07-3.469 3.034-4.551 7.912 1.583c3.261.651 5.628 3.538 5.628 6.864z"/></g></g></svg>