<svg id="Layer_5" enable-background="new 0 0 64 64" height="512" viewBox="0 0 64 64" width="512" xmlns="http://www.w3.org/2000/svg"><g><g><g><path d="m61 8-11 6v-4h-38c-1.1 0-2 .9-2 2v38h-4v-38c0-3.31 2.69-6 6-6h38v-4z" fill="#fcd770"/></g><g><path d="m62 52v8c0 1.1-.9 2-2 2h-56c-1.1 0-2-.9-2-2v-8c0-1.1.9-2 2-2h2 4 2c1.1 0 2 .9 2 2v2h11.27c2.64 1.28 5.6 2 8.73 2s6.09-.72 8.73-2h13.27v-2c0-1.1.9-2 2-2h2c1.1 0 2 .9 2 2z" fill="#969faa"/></g><g><circle cx="8" cy="56" fill="#5cd6b3" r="2"/></g><g><path d="m37.67 45.3 5.72 8.35c-.21.13-.43.24-.66.35-2.64 1.28-5.6 2-8.73 2s-6.09-.72-8.73-2c-6.67-3.24-11.27-10.08-11.27-18 0-3.41.85-6.62 2.37-9.43l8.39 5.6c-.49 1.18-.76 2.47-.76 3.83 0 5.52 4.48 10 10 10 1.3 0 2.53-.25 3.67-.7z" fill="#e6e9ed"/></g><g><path d="m54 36c0 3.39-.85 6.59-2.35 9.39l-8.35-5.72c.45-1.14.7-2.37.7-3.67 0-5.52-4.48-10-10-10-1.36 0-2.65.27-3.83.76l-5.6-8.39c2.81-1.52 6.02-2.37 9.43-2.37 11.05 0 20 8.95 20 20z" fill="#e6e9ed"/></g><g><path d="m34 30c3.31 0 6 2.69 6 6s-2.69 6-6 6-6-2.69-6-6 2.69-6 6-6zm2 6c0-1.1-.9-2-2-2s-2 .9-2 2 .9 2 2 2 2-.9 2-2z" fill="#ffeaa7"/></g><g><path d="m43.3 39.67c-.5 1.29-1.27 2.44-2.23 3.4s-2.11 1.73-3.4 2.23c-1.14.45-2.37.7-3.67.7-5.52 0-10-4.48-10-10 0-1.36.27-2.65.76-3.83.51-1.22 1.25-2.32 2.17-3.24s2.02-1.66 3.24-2.17c1.18-.49 2.47-.76 3.83-.76 5.52 0 10 4.48 10 10 0 1.3-.25 2.53-.7 3.67zm-3.3-3.67c0-3.31-2.69-6-6-6s-6 2.69-6 6 2.69 6 6 6 6-2.69 6-6z" fill="#fcd770"/></g><g><path d="m19.86 21.86 7.07 7.07c-.92.92-1.66 2.02-2.17 3.24l-8.39-5.6c.92-1.74 2.11-3.33 3.49-4.71z" fill="#ff826e"/></g><g><path d="m30.17 26.76c-1.22.51-2.32 1.25-3.24 2.17l-7.07-7.07c1.38-1.38 2.97-2.57 4.71-3.49z" fill="#ff826e"/></g><g><path d="m43.3 39.67 8.35 5.72c-.93 1.76-2.12 3.36-3.51 4.75l-7.07-7.07c.96-.96 1.73-2.11 2.23-3.4z" fill="#ff826e"/></g><g><path d="m41.07 43.07 7.07 7.07c-1.39 1.39-2.99 2.58-4.75 3.51l-5.72-8.35c1.29-.5 2.44-1.27 3.4-2.23z" fill="#ff826e"/></g></g><g><path d="m60 49h-2c-1.654 0-3 1.346-3 3v1h-8.721c5.272-3.819 8.721-10.007 8.721-17 0-11.579-9.421-21-21-21s-21 9.421-21 21c0 6.993 3.449 13.181 8.721 17h-6.721v-1c0-1.654-1.346-3-3-3h-1v-37c0-.552.448-1 1-1h37v4.685l14.088-7.685-14.088-7.685v4.685h-37c-3.859 0-7 3.141-7 7v37h-1c-1.654 0-3 1.346-3 3v8c0 1.654 1.346 3 3 3h56c1.654 0 3-1.346 3-3v-8c0-1.654-1.346-3-3-3zm-33.034-21.448-5.654-5.654c.912-.821 1.901-1.553 2.959-2.188l4.435 6.653c-.618.341-1.201.74-1.74 1.189zm-1.414 1.414c-.45.539-.848 1.121-1.189 1.74l-6.653-4.435c.634-1.058 1.367-2.047 2.188-2.959zm8.448-1.966c4.963 0 9 4.037 9 9s-4.037 9-9 9-9-4.037-9-9 4.037-9 9-9zm8.448 16.034c.48-.575.901-1.201 1.257-1.866l6.609 4.522c-.64 1.073-1.38 2.075-2.212 2.998zm-1.414 1.414 5.654 5.654c-.923.832-1.926 1.572-2.998 2.212l-4.522-6.609c.665-.356 1.29-.777 1.866-1.257zm11.966-8.448c0 2.825-.636 5.497-1.747 7.909l-6.756-4.622c.326-1.039.503-2.142.503-3.287 0-6.065-4.935-11-11-11-1.198 0-2.349.199-3.429.555l-4.524-6.787c2.423-1.123 5.111-1.768 7.953-1.768 10.477 0 19 8.523 19 19zm-38 0c0-2.842.645-5.53 1.768-7.953l6.787 4.524c-.356 1.08-.555 2.231-.555 3.429 0 6.065 4.935 11 11 11 1.145 0 2.248-.177 3.287-.503l4.622 6.756c-2.412 1.111-5.084 1.747-7.909 1.747-10.477 0-19-8.523-19-19zm-8-24c0-2.757 2.243-5 5-5h39v-3.315l7.912 4.315-7.912 4.315v-3.315h-39c-1.654 0-3 1.346-3 3v37h-2zm54 48c0 .552-.448 1-1 1h-56c-.552 0-1-.448-1-1v-8c0-.552.448-1 1-1h8c.552 0 1 .448 1 1v3h12.114c2.703 1.269 5.707 2 8.886 2s6.183-.731 8.886-2h14.114v-3c0-.552.448-1 1-1h2c.552 0 1 .448 1 1z"/><path d="m34 39c1.654 0 3-1.346 3-3s-1.346-3-3-3-3 1.346-3 3 1.346 3 3 3zm0-4c.552 0 1 .448 1 1s-.448 1-1 1-1-.448-1-1 .448-1 1-1z"/><path d="m34 43c3.859 0 7-3.141 7-7s-3.141-7-7-7-7 3.141-7 7 3.141 7 7 7zm0-12c2.757 0 5 2.243 5 5s-2.243 5-5 5-5-2.243-5-5 2.243-5 5-5z"/><path d="m8 53c-1.654 0-3 1.346-3 3s1.346 3 3 3 3-1.346 3-3-1.346-3-3-3zm0 4c-.552 0-1-.448-1-1s.448-1 1-1 1 .448 1 1-.448 1-1 1z"/><path d="m17 57h2v2h-2z"/><path d="m21 57h2v2h-2z"/><path d="m13 57h2v2h-2z"/><path d="m49 36h2c0-.711-.044-1.426-.132-2.124l-1.984.248c.077.616.116 1.248.116 1.876z"/><path d="m48.527 32.249 1.938-.498c-1.129-4.383-4.031-8.201-7.964-10.476l-1.002 1.73c3.472 2.01 6.033 5.378 7.028 9.244z"/></g></g></svg>