<svg id="Layer_5" enable-background="new 0 0 64 64" height="512" viewBox="0 0 64 64" width="512" xmlns="http://www.w3.org/2000/svg"><g><g><path d="m60 48h-56c-1.105 0-2-.895-2-2v-36h60v36c0 1.105-.895 2-2 2z" fill="#e6e9ed"/><path d="m16 24h14v4h-14z" fill="#fcd770"/><path d="m6 24h6v4h-6z" fill="#4fc1e9"/><path d="m6 14h24v6h-24z" fill="#fcd770"/><path d="m2 10v-6c0-1.1.9-2 2-2h56c1.1 0 2 .9 2 2v6z" fill="#5cd6b3"/><path d="m52.62 48 3.38 11-5-3-3 5-3-12c1.25 0 2.35-.59 3.09-1.48 1.08.41 2.33.36 3.41-.26.27-.16.51-.34.72-.54z" fill="#ffeaa7"/><path d="m38.5 47.26c1.08.62 2.33.67 3.41.26.74.89 1.84 1.48 3.09 1.48l-3 12-3-5-5 3 3.38-11 .4-1.28c.21.2.45.38.72.54z" fill="#ffeaa7"/><path d="m37.78 46.72c-.66-.61-1.07-1.42-1.21-2.29-1.15-.19-2.2-.85-2.83-1.93-.62-1.08-.67-2.33-.26-3.41-.89-.74-1.48-1.84-1.48-3.09s.59-2.35 1.48-3.09c-.41-1.08-.36-2.33.26-3.41.63-1.08 1.68-1.74 2.83-1.93.19-1.15.85-2.2 1.93-2.83 1.08-.62 2.33-.67 3.41-.26.74-.89 1.84-1.48 3.09-1.48s2.35.59 3.09 1.48c1.08-.41 2.33-.36 3.41.26 1.08.63 1.74 1.68 1.93 2.83 1.15.19 2.2.85 2.83 1.93.62 1.08.67 2.33.26 3.41.89.74 1.48 1.84 1.48 3.09s-.59 2.35-1.48 3.09c.41 1.08.36 2.33-.26 3.41-.63 1.08-1.68 1.74-2.83 1.93-.14.87-.55 1.68-1.21 2.29-.21.2-.45.38-.72.54-1.08.62-2.33.67-3.41.26-.74.89-1.84 1.48-3.09 1.48s-2.35-.59-3.09-1.48c-1.08.41-2.33.36-3.41-.26-.27-.16-.51-.34-.72-.54z" fill="#ff826e"/><circle cx="45" cy="36" fill="#fcd770" r="8"/></g><g><path d="m60 1h-56c-1.654 0-3 1.346-3 3v42c0 1.654 1.346 3 3 3h32.031l-3.754 12.2 6.38-3.828 3.728 6.212 2.615-10.46 2.615 10.461 3.728-6.212 6.38 3.828-3.754-12.201h6.031c1.654 0 3-1.346 3-3v-42c0-1.654-1.346-3-3-3zm-56 2h56c.551 0 1 .449 1 1v5h-58v-5c0-.551.449-1 1-1zm30.116 35.312c-.709-.58-1.116-1.422-1.116-2.312s.407-1.732 1.116-2.312l.558-.456-.255-.673c-.325-.856-.256-1.789.189-2.56s1.218-1.297 2.122-1.444l.711-.115.115-.711c.147-.904.673-1.677 1.444-2.122.771-.444 1.704-.514 2.56-.189l.673.255.456-.558c.579-.708 1.421-1.115 2.311-1.115s1.732.407 2.312 1.116l.456.558.673-.255c.855-.326 1.789-.256 2.56.189s1.297 1.218 1.444 2.122l.115.711.711.115c.904.147 1.677.673 2.122 1.444s.514 1.704.189 2.56l-.255.673.558.456c.708.579 1.115 1.421 1.115 2.311s-.407 1.732-1.116 2.312l-.558.456.255.673c.325.856.255 1.789-.189 2.56s-1.218 1.297-2.122 1.444l-.711.115-.115.711c-.133.82-.591 1.52-1.248 1.977l-.151.046.016.053c-.022.013-.039.032-.061.045-.77.446-1.703.515-2.56.189l-.673-.255-.456.558c-.579.709-1.421 1.116-2.311 1.116s-1.732-.407-2.312-1.116l-.456-.558-.673.255c-.857.324-1.79.255-2.56-.189-.022-.013-.039-.032-.061-.045l.016-.053-.151-.046c-.658-.457-1.115-1.157-1.248-1.977l-.115-.711-.711-.115c-.904-.147-1.677-.673-2.122-1.444s-.514-1.704-.189-2.56l.255-.673zm7.499 20.104-2.272-3.788-3.62 2.172 2.621-8.518c1.017.487 2.159.628 3.266.371.613.574 1.357.962 2.154 1.17zm9.042-3.788-2.272 3.788-2.148-8.594c.797-.208 1.54-.596 2.154-1.17 1.107.257 2.249.115 3.266-.371l2.621 8.518zm9.343-7.628h-6.646l-.009-.029c.409-.501.725-1.077.917-1.709 1.209-.367 2.229-1.167 2.862-2.262.632-1.095.814-2.379.528-3.61.864-.922 1.348-2.125 1.348-3.39s-.484-2.468-1.348-3.39c.287-1.23.104-2.515-.528-3.61-.633-1.095-1.653-1.895-2.862-2.262-.367-1.209-1.167-2.229-2.262-2.862-1.096-.632-2.379-.816-3.61-.528-.922-.864-2.125-1.348-3.39-1.348s-2.468.484-3.39 1.348c-1.231-.287-2.514-.104-3.61.528-1.095.633-1.895 1.653-2.262 2.862-1.209.367-2.229 1.167-2.862 2.262-.632 1.095-.814 2.379-.528 3.61-.864.922-1.348 2.125-1.348 3.39s.484 2.468 1.348 3.39c-.287 1.23-.104 2.515.528 3.61.633 1.095 1.653 1.895 2.862 2.262.192.632.508 1.208.917 1.709l-.009.029h-32.646c-.551 0-1-.449-1-1v-35h58v35c0 .551-.449 1-1 1z"/><path d="m45 45c4.962 0 9-4.038 9-9s-4.038-9-9-9-9 4.038-9 9 4.038 9 9 9zm0-16c3.86 0 7 3.14 7 7s-3.14 7-7 7-7-3.14-7-7 3.14-7 7-7z"/><path d="m9 5h2v2h-2z"/><path d="m13 5h2v2h-2z"/><path d="m5 5h2v2h-2z"/><path d="m5 21h26v-8h-26zm2-6h22v4h-22z"/><path d="m13 23h-8v6h8zm-2 4h-4v-2h4z"/><path d="m15 29h16v-6h-16zm2-4h12v2h-12z"/><path d="m5 31h24v2h-24z"/><path d="m5 35h24v2h-24z"/><path d="m5 39h24v2h-24z"/><path d="m5 43h12v2h-12z"/><path d="m23 43h2v2h-2z"/><path d="m19 43h2v2h-2z"/><path d="m27 43h2v2h-2z"/><path d="m57 17h2v2h-2z"/><path d="m57 21h2v2h-2z"/><path d="m57 13h2v2h-2z"/><path d="m57 25h2v2h-2z"/></g></g></svg>