<svg id="Layer_5" enable-background="new 0 0 64 64" height="512" viewBox="0 0 64 64" width="512" xmlns="http://www.w3.org/2000/svg"><g><g><g><path d="m46 32v1c0 1.1-.9 2-2 2v4c1.1 0 2 .9 2 2v2c0 1.1-.9 2-2 2h-1-23c-1.1 0-2-.9-2-2v-2c0-1.1.9-2 2-2v-4c-1.1 0-2-.9-2-2v-1h-12c0 14.36 11.64 26 26 26 5.62 0 10.83-1.79 15.08-4.83 6.61-4.71 10.92-12.43 10.92-21.17z" fill="#ccd1d9"/></g><g><path d="m16.92 10.83c-6.61 4.71-10.92 12.43-10.92 21.17h12v-1c0-1.1.9-2 2-2v-4c-1.1 0-2-.9-2-2v-2c0-1.1.9-2 2-2h1 11v-13c-5.62 0-10.83 1.79-15.08 4.83z" fill="#ff826e"/></g><g><path d="m62 28h-18v-3c1.1 0 2-.9 2-2v-2c0-1.1-.9-2-2-2h-8v-17c14.36 0 26 11.64 26 26z" fill="#e6e9ed"/></g><g><circle cx="59" cy="59" fill="#ff826e" r="3"/></g><g><path d="m46 41v2c0 1.1-.9 2-2 2h-1-23c-1.1 0-2-.9-2-2v-2c0-1.1.9-2 2-2h24c1.1 0 2 .9 2 2z" fill="#fcd770"/></g><g><path d="m46 32v1c0 1.1-.9 2-2 2h-24c-1.1 0-2-.9-2-2v-1-1c0-1.1.9-2 2-2h24c1.1 0 2 .9 2 2z" fill="#fcd770"/></g><g><path d="m46 21v2c0 1.1-.9 2-2 2h-24c-1.1 0-2-.9-2-2v-2c0-1.1.9-2 2-2h1 11 4 8c1.1 0 2 .9 2 2z" fill="#fcd770"/></g><g><path d="m20 35h24v4h-24z" fill="#5cd6b3"/></g><g><path d="m44 28v1h-24v-4h24z" fill="#5cd6b3"/></g><g><circle cx="5" cy="5" fill="#ff826e" r="3"/></g></g><g><path d="m63 28c0-14.888-12.112-27-27-27h-1v17h-2v-13h-1c-5.418 0-10.465 1.61-14.698 4.369l-2.684-5.369h-5.76c-.447-1.72-1.999-3-3.858-3-2.206 0-4 1.794-4 4s1.794 4 4 4c1.859 0 3.411-1.28 3.858-3h4.524l2.267 4.534c-6.467 4.937-10.649 12.721-10.649 21.466 0 14.888 12.112 27 27 27 5.418 0 10.465-1.61 14.698-4.369l2.684 5.369h5.76c.447 1.721 1.999 3 3.858 3 2.206 0 4-1.794 4-4s-1.794-4-4-4c-1.859 0-3.411 1.279-3.858 3h-4.524l-2.267-4.534c6.467-4.937 10.649-12.721 10.649-21.466v-1h-12c0-.771-.301-1.468-.78-2h16.78zm-58-21c-1.103 0-2-.897-2-2s.897-2 2-2 2 .897 2 2-.897 2-2 2zm54 50c1.103 0 2 .897 2 2s-.897 2-2 2-2-.897-2-2 .897-2 2-2zm-39-13c-.552 0-1-.448-1-1v-2c0-.552.448-1 1-1h24c.552 0 1 .448 1 1v2c0 .552-.448 1-1 1zm23-8v2h-22v-2zm1-2h-24c-.552 0-1-.448-1-1v-2c0-.551.448-1 1-1h24c.552 0 1 .449 1 1v2c0 .552-.448 1-1 1zm-23-6v-2h22v2zm23-4h-24c-.552 0-1-.449-1-1v-2c0-.551.448-1 1-1h24c.552 0 1 .449 1 1v2c0 .551-.448 1-1 1zm-13-16.98v10.98h-9.382l-3.416-6.832c3.698-2.457 8.08-3.962 12.798-4.148zm-14.441 5.333 2.853 5.706c-1.374.275-2.412 1.488-2.412 2.941v2c0 1.302.839 2.402 2 2.816v2.369c-1.161.414-2 1.514-2 2.816h-9.975c.299-7.555 3.962-14.259 9.534-18.648zm15.441 44.647c-13.45 0-24.447-10.677-24.975-24h9.975c0 1.302.839 2.402 2 2.816v2.369c-1.161.414-2 1.514-2 2.816v2c0 1.654 1.346 3 3 3h22.382l3.417 6.834c-3.958 2.629-8.702 4.165-13.799 4.165zm24.98-24c-.299 7.555-3.968 14.256-9.54 18.645l-2.852-5.704c1.374-.275 2.412-1.488 2.412-2.941v-2c0-1.302-.839-2.402-2-2.816v-2.369c1.161-.414 2-1.514 2-2.816h9.98zm-11.98-6v-1.184c1.161-.414 2-1.514 2-2.816v-2c0-1.654-1.346-3-3-3h-7v-14.98c12.991.513 23.467 10.988 23.98 23.98z"/><path d="m7 59h2v2h-2z"/><path d="m11 59h2v2h-2z"/><path d="m3 59h2v2h-2z"/><path d="m3 55h10v2h-10z"/><path d="m11.194 29.135c.086-.633.201-1.264.344-1.876l-1.949-.451c-.155.672-.282 1.364-.377 2.057z"/><path d="m12.73 23.637-1.836-.795c-.277.642-.528 1.299-.743 1.952l1.898.627c.198-.597.427-1.197.681-1.784z"/><path d="m14.563 20.295-1.66-1.116c-.386.574-.751 1.174-1.086 1.785l1.754.962c.305-.559.639-1.107.992-1.631z"/><path d="m12.72 44.546c.469.72.986 1.423 1.537 2.091l1.543-1.273c-.504-.61-.977-1.253-1.404-1.909z"/><path d="m17.587 47.272-1.373 1.455c4.285 4.045 9.891 6.273 15.786 6.273v-2c-5.382 0-10.501-2.034-14.413-5.728z"/><path d="m53.849 39.205-1.898-.627c-.197.597-.426 1.197-.681 1.784l1.836.795c.277-.642.528-1.299.743-1.952z"/><path d="m54.788 35.136-1.982-.271c-.086.634-.202 1.266-.344 1.877l1.949.451c.155-.672.282-1.364.377-2.057z"/><path d="m52.184 43.036-1.754-.961c-.308.561-.641 1.108-.991 1.629l1.658 1.117c.384-.57.75-1.171 1.087-1.785z"/><path d="m51.272 13.587c2.079 2.202 3.685 4.875 4.643 7.731l1.896-.636c-1.05-3.129-2.808-6.057-5.084-8.468z"/><path d="m56.806 25.134 1.982-.269c-.095-.7-.225-1.403-.385-2.092l-1.947.452c.146.629.264 1.271.35 1.909z"/></g></g></svg>