<svg id="Layer_5" enable-background="new 0 0 64 64" height="512" viewBox="0 0 64 64" width="512" xmlns="http://www.w3.org/2000/svg"><g><g><path d="m17 28v12h-6v-12l1-2v-22c0-.55.22-1.05.59-1.41.36-.37.86-.59 1.41-.59 1.1 0 2 .9 2 2v22z" fill="#ffeaa7"/><path d="m53 28v12h-6v-12l1-2v-22c0-.55.22-1.05.59-1.41.36-.37.86-.59 1.41-.59 1.1 0 2 .9 2 2v22z" fill="#ffeaa7"/><circle cx="32" cy="21" fill="#ff826e" r="2"/><path d="m58 58v2c0 1.1-.9 2-2 2h-48c-1.1 0-2-.9-2-2v-2z" fill="#969faa"/><path d="m58 42v2h-52v-2c0-1.1.9-2 2-2h3 6 30 6 3c1.1 0 2 .9 2 2z" fill="#969faa"/><path d="m62 48v6c0 2.21-1.79 4-4 4h-52c-2.21 0-4-1.79-4-4v-6c0-2.21 1.79-4 4-4h52c2.21 0 4 1.79 4 4z" fill="#ccd1d9"/><circle cx="19" cy="51" fill="#fcd770" r="3"/><circle cx="29" cy="51" fill="#fcd770" r="3"/><path d="m58 50v2c0 1.1-.9 2-2 2h-18c-1.1 0-2-.9-2-2v-2c0-1.1.9-2 2-2h18c1.1 0 2 .9 2 2z" fill="#5cd6b3"/><circle cx="9" cy="51" fill="#ff826e" r="3"/></g><g><path d="m59 43.101v-1.101c0-1.654-1.346-3-3-3h-2v-11.236l-1-2v-21.764c0-1.654-1.346-3-3-3s-3 1.346-3 3v21.764l-1 2v11.236h-28v-11.236l-1-2v-21.764c0-1.654-1.346-3-3-3s-3 1.346-3 3v21.764l-1 2v11.236h-2c-1.654 0-3 1.346-3 3v1.101c-2.279.465-4 2.485-4 4.899v6c0 2.414 1.721 4.434 4 4.899v1.101c0 1.654 1.346 3 3 3h48c1.654 0 3-1.346 3-3v-1.101c2.279-.465 4-2.484 4-4.899v-6c0-2.414-1.721-4.434-4-4.899zm-11-14.865 1-2v-22.236c0-.552.449-1 1-1s1 .448 1 1v22.236l1 2v10.764h-4zm-36 0 1-2v-22.236c0-.552.449-1 1-1s1 .448 1 1v22.236l1 2v10.764h-4zm-4 12.764h48c.551 0 1 .448 1 1v1h-50v-1c0-.552.449-1 1-1zm48 20h-48c-.551 0-1-.448-1-1v-1h50v1c0 .552-.449 1-1 1zm5-7c0 1.654-1.346 3-3 3h-52c-1.654 0-3-1.346-3-3v-6c0-1.654 1.346-3 3-3h52c1.654 0 3 1.346 3 3z"/><path d="m9 47c-2.206 0-4 1.794-4 4s1.794 4 4 4 4-1.794 4-4-1.794-4-4-4zm0 6c-1.103 0-2-.897-2-2 0-.737.405-1.375 1-1.722v1.722h2v-1.722c.595.347 1 .985 1 1.722 0 1.103-.897 2-2 2z"/><path d="m19 47c-2.206 0-4 1.794-4 4s1.794 4 4 4 4-1.794 4-4-1.794-4-4-4zm0 6c-1.103 0-2-.897-2-2s.897-2 2-2 2 .897 2 2-.897 2-2 2z"/><path d="m29 47c-2.206 0-4 1.794-4 4s1.794 4 4 4 4-1.794 4-4-1.794-4-4-4zm0 6c-1.103 0-2-.897-2-2s.897-2 2-2 2 .897 2 2-.897 2-2 2z"/><path d="m56 47h-18c-1.654 0-3 1.346-3 3v2c0 1.654 1.346 3 3 3h18c1.654 0 3-1.346 3-3v-2c0-1.654-1.346-3-3-3zm1 5c0 .552-.449 1-1 1h-18c-.551 0-1-.448-1-1v-2c0-.552.449-1 1-1h18c.551 0 1 .448 1 1z"/><path d="m29 21c0 1.654 1.346 3 3 3s3-1.346 3-3-1.346-3-3-3-3 1.346-3 3zm4 0c0 .552-.449 1-1 1s-1-.448-1-1 .449-1 1-1 1 .448 1 1z"/><path d="m37 21h2c0-3.859-3.14-7-7-7s-7 3.141-7 7h2c0-2.757 2.243-5 5-5s5 2.243 5 5z"/><path d="m32 12c4.962 0 9 4.037 9 9h2c0-6.065-4.935-11-11-11s-11 4.935-11 11h2c0-4.963 4.038-9 9-9z"/></g></g></svg>