<svg id="Layer_5" enable-background="new 0 0 64 64" height="512" viewBox="0 0 64 64" width="512" xmlns="http://www.w3.org/2000/svg"><g><g><path d="m22 28v-4h2v-4h3c0-7.168-5.832-13-13-13s-13 5.832-13 13 5.832 13 13 13c3.676 0 7.201-1.579 9.671-4.332l.123-.138.203-.53z" fill="#f0bc5e"/></g><g><path d="m50 7c-7.168 0-13 5.832-13 13h3v4h2v4h-1.997l.204.53.123.138c2.469 2.753 5.994 4.332 9.67 4.332 7.168 0 13-5.832 13-13s-5.832-13-13-13z" fill="#f0bc5e"/></g><g><path d="m33 37v-2h-2v2h-4v6c0 2.206 1.794 4 4 4h2c1.103 0 2 .897 2 2v4h-4c-1.103 0-2-.897-2-2v-1h-2v1c0 2.206 1.794 4 4 4v2h2v-2h4v-6c0-2.206-1.794-4-4-4h-2c-1.103 0-2-.897-2-2v-4h4c1.103 0 2 .897 2 2v1h2v-1c0-2.206-1.794-4-4-4z"/><path d="m41 31.594v-2.594h2v-6h-2v-4h-8v-10h5c3.86 0 7-3.141 7-7v-1h-7c-2.548 0-4.775 1.373-6 3.413-1.225-2.04-3.452-3.413-6-3.413h-7v1c0 3.859 3.14 7 7 7h5v10h-8v4h-2v6h2v2.594c-4.949 3.098-8 8.564-8 14.406 0 9.374 7.626 17 17 17s17-7.626 17-17c0-5.842-3.051-11.309-8-14.406zm-3-28.594h4.899c-.464 2.279-2.484 4-4.899 4h-4.899c.464-2.279 2.484-4 4.899-4zm-12 4c-2.415 0-4.435-1.721-4.899-4h4.899c2.415 0 4.435 1.721 4.899 4zm-1 14h14v2h-14zm-2 4h18v2h-18zm9 36c-8.271 0-15-6.729-15-15 0-5.324 2.875-10.296 7.501-12.977l.499-.289v-3.734h14v3.734l.499.289c4.626 2.681 7.501 7.653 7.501 12.977 0 8.271-6.729 15-15 15z"/><path d="m15 29v-2h3v-4c0-2.206-1.794-4-4-4-1.103 0-2-.897-2-2v-2h2c1.103 0 2 .897 2 2v1h2v-1c0-1.859-1.28-3.411-3-3.858v-2.142h-2v2h-3v4c0 2.206 1.794 4 4 4 1.103 0 2 .897 2 2v2h-2c-1.103 0-2-.897-2-2v-1h-2v1c0 1.859 1.28 3.411 3 3.858v2.142z"/><path d="m54 18v-1c0-1.859-1.28-3.411-3-3.858v-2.142h-2v2h-3v4c0 2.206 1.794 4 4 4 1.103 0 2 .897 2 2v2h-2c-1.103 0-2-.897-2-2v-1h-2v1c0 1.859 1.28 3.411 3 3.858v2.142h2v-2h3v-4c0-2.206-1.794-4-4-4-1.103 0-2-.897-2-2v-2h2c1.103 0 2 .897 2 2v1z"/></g></g></svg>