<svg id="Layer_5" enable-background="new 0 0 64 64" height="512" viewBox="0 0 64 64" width="512" xmlns="http://www.w3.org/2000/svg"><g><g><path d="m20 40c1.1 0 2 .9 2 2v16c0 1.1-.45 2.1-1.17 2.83-.73.72-1.73 1.17-2.83 1.17-2.21 0-4-1.79-4-4v-16c0-1.1.9-2 2-2h1 2z" fill="#b27946"/><path d="m21 33.71v4.29c0 1.1-.9 2-2 2h-2c-1.1 0-2-.9-2-2v-4.28c.97.18 1.98.28 3 .28 1.03 0 2.03-.1 3-.29z" fill="#ccd1d9"/><path d="m15 33.72c-7.4-1.4-13-7.9-13-15.72 0-8.84 7.16-16 16-16s16 7.16 16 16v2h-4v-8h-1.61c-2.07-3.59-5.95-6-10.39-6-6.63 0-12 5.37-12 12s5.37 12 12 12c3.55 0 6.75-1.54 8.94-4h4.92c-2.29 3.95-6.22 6.84-10.86 7.71-.97.19-1.97.29-3 .29-1.02 0-2.03-.1-3-.28z" fill="#e6e9ed"/><path d="m28.39 12h-4.39v8h-1c-.83 0-1.58.34-2.12.88s-.88 1.29-.88 2.12c0 1.66 1.34 3 3 3h3.94c-2.19 2.46-5.39 4-8.94 4-6.63 0-12-5.37-12-12s5.37-12 12-12c4.44 0 8.32 2.41 10.39 6z" fill="#69d6f4"/><g fill="#fcd770"><path d="m60 20v.01h-6v-.01-16h6z"/><path d="m50 20v.01h-6v-.01-14h6z"/><path d="m40 8v12h-6v-2-10z"/><path d="m30 12v8h-6v-8h4.39z"/></g><path d="m50 36v6c-4.42 0-8 3.58-8 8v-6c0-4.42 3.58-8 8-8z" fill="#aab2bd"/><path d="m62 44v6c0-4.42-3.58-8-8-8v-6c4.42 0 8 3.58 8 8z" fill="#aab2bd"/><path d="m54 36v6c0 1.1-.9 2-2 2-.55 0-1.05-.22-1.41-.59-.37-.36-.59-.86-.59-1.41v-6h2z" fill="#5cd6b3"/><path d="m52 44c1.1 0 2-.9 2-2 4.42 0 8 3.58 8 8v2c0 5.52-4.48 10-10 10s-10-4.48-10-10v-2c0-4.42 3.58-8 8-8 0 .55.22 1.05.59 1.41.36.37.86.59 1.41.59z" fill="#ccd1d9"/><circle cx="52" cy="56" fill="#ff826e" r="2"/></g><g><path d="m22.999 21 40.001.007v-2h-2v-16.007h-8v16.006h-2v-14.006h-8v14.004h-2v-12.004h-8v3.017c-2.864-5.359-8.511-9.017-15-9.017-9.374 0-17 7.626-17 17 0 7.994 5.553 14.699 13 16.505v3.495c0 .537.153 1.034.401 1.471-.839.532-1.401 1.464-1.401 2.529v16c0 2.757 2.243 5 5 5s5-2.243 5-5v-16c0-1.065-.562-1.997-1.401-2.529.248-.437.401-.934.401-1.471v-3.49c4.271-1.041 8.039-3.716 10.414-7.51h16.586c1.103 0 2 .897 2 2v6h-1c-4.963 0-9 4.038-9 9v8c0 6.065 4.935 11 11 11s11-4.935 11-11v-8c0-4.962-4.037-9-9-9h-1v-6c0-2.206-1.794-4-4-4h-26c-1.103 0-2-.897-2-2 0-.534.208-1.037.586-1.415.378-.377.88-.585 1.413-.585zm30.001 35c0 .551-.448 1-1 1s-1-.449-1-1 .448-1 1-1 1 .449 1 1zm-1-13c-.552 0-1-.449-1-1v-5h2v5c0 .551-.448 1-1 1zm-9 1c0-3.519 2.614-6.432 6-6.92v3.979c-2.417.269-4.547 1.498-6 3.297zm18 8c0 4.962-4.037 9-9 9s-9-4.038-9-9v-2c0-3.589 2.716-6.552 6.2-6.951.31.824.969 1.47 1.8 1.766v8.369c-1.161.414-2 1.514-2 2.816 0 1.654 1.346 3 3 3s3-1.346 3-3c0-1.302-.839-2.402-2-2.816v-8.369c.831-.296 1.49-.942 1.8-1.766 3.484.399 6.2 3.362 6.2 6.951zm0-8v.356c-1.453-1.799-3.583-3.028-6-3.297v-3.979c3.386.488 6 3.401 6 6.92zm-32-31v6.002l-4-.001v-6.001zm26-8h4v14.007l-4-.001zm-10 2h4v12.005l-4-.001zm-10 2h4v10.003l-4-.001zm-14 49c0 1.654-1.346 3-3 3s-3-1.346-3-3v-16c0-.551.448-1 1-1h1 2 1c.552 0 1 .449 1 1zm-1-20c0 .551-.448 1-1 1h-2c-.552 0-1-.449-1-1v-3.128c.657.077 1.322.128 2 .128.673 0 1.34-.047 2-.125zm-2-5c-8.271 0-15-6.729-15-15s6.729-15 15-15 15 6.729 15 15v1.002h-2v-8.002h-2.052c-2.38-3.713-6.518-6-10.948-6-7.168 0-13 5.832-13 13s5.832 13 13 13c3.536 0 6.913-1.46 9.358-4h2.636c-2.813 3.737-7.26 6-11.994 6zm5-6h1.307c-1.835 1.284-4.033 2-6.307 2-6.065 0-11-4.935-11-11s4.935-11 11-11c3.294 0 6.389 1.505 8.461 4h-3.461v8s0 0-.001 0c-1.067 0-2.072.416-2.827 1.171-.756.756-1.172 1.761-1.172 2.829 0 2.206 1.794 4 4 4z"/><path d="m10 17h7v2h-7z"/><path d="m10 13h7v2h-7z"/><path d="m10 21h7v2h-7z"/></g></g></svg>