<svg id="Layer_5" enable-background="new 0 0 64 64" height="512" viewBox="0 0 64 64" width="512" xmlns="http://www.w3.org/2000/svg"><g><g><g><path d="m52 23c-6.065 0-11-4.935-11-11s4.935-11 11-11 11 4.935 11 11-4.935 11-11 11z" fill="#f0bc5e"/></g></g><g><path d="m56 44h4v4h-4z" fill="#f0bc5e"/></g><g><path d="m48 37h4v6h-4z" fill="#f0bc5e"/></g><g><path d="m40 35h4v8h-4z" fill="#f0bc5e"/></g><g><path d="m32 46h4v6h-4z" fill="#f0bc5e"/></g><g><path d="m24 46h4v8h-4z" fill="#f0bc5e"/></g><g><path d="m15.22 31c.665 0 1.331-.157 1.924-.454 4.846-2.423 7.856-7.293 7.856-12.711v-10.835h-3.395c-1.506 0-2.965-.442-4.219-1.277-1.417-.945-3.356-.945-4.773 0-1.253.835-2.712 1.277-4.218 1.277h-3.395v10.835c0 5.417 3.01 10.288 7.855 12.71.594.298 1.26.455 1.925.455zm-8.22-13.165v-8.835h1.395c1.903 0 3.745-.558 5.328-1.613.759-.506 1.796-.506 2.555 0 1.582 1.055 3.425 1.613 5.327 1.613h1.395v8.835c0 4.655-2.586 8.84-6.75 10.922-.318.159-.674.243-1.03.243h-.44c-.356 0-.712-.084-1.03-.243-4.164-2.082-6.75-6.267-6.75-10.922z"/><path d="m16 25v-2h3v-3c0-1.654-1.346-3-3-3h-2c-.551 0-1-.449-1-1v-1h3c.551 0 1 .449 1 1h2c0-1.654-1.346-3-3-3v-2h-2v2h-3v3c0 1.654 1.346 3 3 3h2c.551 0 1 .449 1 1v1h-3c-.551 0-1-.449-1-1h-2c0 1.654 1.346 3 3 3v2z"/><path d="m49 30h2v7h-2z"/><path d="m51 15c-.551 0-1-.449-1-1h-2c0 1.654 1.346 3 3 3v2h2v-2h3v-3c0-1.654-1.346-3-3-3h-2c-.551 0-1-.449-1-1v-1h3c.551 0 1 .449 1 1h2c0-1.654-1.346-3-3-3v-2h-2v2h-3v3c0 1.654 1.346 3 3 3h2c.551 0 1 .449 1 1v1z"/><path d="m16 61v-22h16.509l8-11h6.905l5.022-5.022c-.146.006-.289.022-.436.022-.751 0-1.484-.077-2.193-.221l-3.221 3.221h-7.095l-8 11h-15.491v-2.046c1.019-.097 2.021-.373 2.934-.83 6.209-3.105 10.066-9.347 10.066-16.289v-14.835h-7.395c-.714 0-1.405-.209-1.999-.605-2.737-1.826-6.477-1.824-9.212 0-.594.396-1.286.605-1.999.605h-7.395v14.835c0 6.942 3.856 13.183 10.064 16.288.914.457 1.917.734 2.936.831v28.046h49v-2zm-13-43.165v-12.835h5.395c1.11 0 2.185-.326 3.109-.941 2.076-1.385 4.915-1.385 6.993 0 .924.616 1.999.941 3.108.941h5.395v12.835c0 6.18-3.434 11.735-8.961 14.5-.87.435-1.844.665-2.819.665h-.44c-.975 0-1.95-.23-2.82-.666-5.527-2.763-8.96-8.319-8.96-14.499z"/><path d="m57 39h2v5h-2z"/><path d="m57 48h2v9h-2z"/><path d="m49 43h2v5h-2z"/><path d="m41 30h2v5h-2z"/><path d="m41 43h2v5h-2z"/><path d="m33 41h2v5h-2z"/><path d="m33 52h2v7h-2z"/><path d="m25 41h2v5h-2z"/><path d="m25 54h2v5h-2z"/></g></g></svg>