<svg id="Layer_5" enable-background="new 0 0 64 64" height="512" viewBox="0 0 64 64" width="512" xmlns="http://www.w3.org/2000/svg"><g><g><g><path d="m32 23c-6.065 0-11-4.935-11-11s4.935-11 11-11 11 4.935 11 11-4.935 11-11 11z" fill="#f0bc5e"/></g></g><g><path d="m31 15c-.551 0-1-.448-1-1h-2c0 1.654 1.346 3 3 3v2h2v-2h3v-3c0-1.654-1.346-3-3-3h-2c-.551 0-1-.448-1-1v-1h3c.551 0 1 .448 1 1h2c0-1.654-1.346-3-3-3v-2h-2v2h-3v3c0 1.654 1.346 3 3 3h2c.551 0 1 .448 1 1v1z"/><path d="m63 46c0-1.654-1.346-3-3-3h-14.529l.364-2h.165c1.103 0 2-.897 2-2v-2c0-1.103-.897-2-2-2h-13v-2-1-1h9c3.86 0 7-3.141 7-7v-1h-11c-1.958 0-3.728.81-5 2.111v-2.161c-.33.029-.662.05-1 .05s-.67-.021-1-.051v4.161c-1.272-1.3-3.042-2.11-5-2.11h-11v1c0 3.859 3.14 7 7 7h9v2h-13c-1.103 0-2 .897-2 2v2c0 1.103.897 2 2 2h.165l1.455 8h-15.62c-1.654 0-3 1.346-3 3v2c0 .771.301 1.468.78 2-.479.532-.78 1.229-.78 2v2c0 1.654 1.346 3 3 3h18 2 16 2 18c1.654 0 3-1.346 3-3v-2c0-.771-.301-1.468-.78-2 .48-.532.78-1.229.78-2v-2c0-.771-.301-1.468-.78-2 .48-.532.78-1.229.78-2zm-25-21h8.899c-.464 2.279-2.485 4-4.899 4h-8.899c.464-2.279 2.484-4 4.899-4zm-16 6c-2.415 0-4.435-1.721-4.899-4h8.899c2.415 0 4.435 1.721 4.899 4zm-4 8v-2h28l.001 2zm7 21c0 .552-.449 1-1 1h-2-18c-.551 0-1-.448-1-1v-2c0-.552.449-1 1-1h1v2h2v-2h2v2h2v-2h2v2h2v-2h2v2h2v-2h2v2h2v-2h1c.551 0 1 .448 1 1zm0-6c0 .552-.449 1-1 1h-20c-.551 0-1-.448-1-1v-2c0-.552.449-1 1-1h1v2h2v-2h2v2h2v-2h2v2h2v-2h2v2h2v-2h2v2h2v-2h1c.551 0 1 .448 1 1zm12.78-4c-.48.532-.78 1.229-.78 2v2c0 .771.301 1.468.78 2-.48.532-.78 1.229-.78 2v2c0 .352.072.686.184 1h-10.368c.112-.314.184-.648.184-1v-2c0-.771-.301-1.468-.78-2 .48-.532.78-1.229.78-2v-2c0-1.654-1.346-3-3-3h-2.347l-1.455-8h23.604l-.364 2h-3.438c-1.654 0-3 1.346-3 3v2c0 .771.301 1.468.78 2zm23.22 10c0 .552-.449 1-1 1h-18-2c-.551 0-1-.448-1-1v-2c0-.552.449-1 1-1h1v2h2v-2h2v2h2v-2h2v2h2v-2h2v2h2v-2h2v2h2v-2h1c.551 0 1 .448 1 1zm0-6c0 .552-.449 1-1 1h-20c-.551 0-1-.448-1-1v-2c0-.552.449-1 1-1h1v2h2v-2h2v2h2v-2h2v2h2v-2h2v2h2v-2h2v2h2v-2h1c.551 0 1 .448 1 1zm0-6c0 .552-.449 1-1 1h-20c-.551 0-1-.448-1-1v-2c0-.552.449-1 1-1h1v2h2v-2h2v2h2v-2h2v2h2v-2h2v2h2v-2h2v2h2v-2h1c.551 0 1 .448 1 1z"/></g></g></svg>