<svg id="Layer_5" enable-background="new 0 0 64 64" height="512" viewBox="0 0 64 64" width="512" xmlns="http://www.w3.org/2000/svg"><g><g><g><path d="m60 54h2c0 2.21-.9 4.21-2.34 5.66-1.45 1.44-3.45 2.34-5.66 2.34h-44c-4.42 0-8-3.58-8-8h2 19c0 2.21 1.79 4 4 4h10c2.21 0 4-1.79 4-4z" fill="#969faa"/></g><g><path d="m56 14h-48c-2.21 0-4 1.79-4 4v36h19 18 19v-36c0-2.21-1.79-4-4-4z" fill="#e6e9ed"/></g><g><path d="m23 54h18c0 2.21-1.79 4-4 4h-10c-2.21 0-4-1.79-4-4z" fill="#fcd770"/></g><g><path d="m55 18h-46c-.55 0-1 .45-1 1v30c0 .55.45 1 1 1h46c.55 0 1-.45 1-1v-30c0-.55-.45-1-1-1z" fill="#69d6f4"/></g><g><path d="m52 18v28h-40v-28-4-4h8v-8h32v12z" fill="#e6e9ed"/></g><g><path d="m48 20v20h-32v-20z" fill="#ffeaa7"/></g><g><path d="m34 28h10v8h-10z" fill="#48cfad"/></g><g><path d="m20 2v8h-8z" fill="#5cd6b3"/></g></g><g><path d="m61 53v-35c0-2.757-2.243-5-5-5h-3v-12h-33.414l-8.586 8.586v3.414h-3c-2.757 0-5 2.243-5 5v35h-2v1c0 4.963 4.038 9 9 9h44c4.962 0 9-4.037 9-9v-1zm-8-6v-28h2v30h-46v-30h2v28zm-2-2h-38v-34h8v-8h30zm-36.586-36 4.586-4.586v4.586zm-9.414 9c0-1.654 1.346-3 3-3h3v2h-2c-1.103 0-2 .897-2 2v30c0 1.103.897 2 2 2h46c1.103 0 2-.897 2-2v-30c0-1.103-.897-2-2-2h-2v-2h3c1.654 0 3 1.346 3 3v35h-54zm34.816 37c-.414 1.161-1.514 2-2.816 2h-10c-1.302 0-2.402-.839-2.816-2zm14.184 6h-44c-3.521 0-6.442-2.612-6.929-6h19.03c.465 2.279 2.484 4 4.899 4h10c2.414 0 4.434-1.721 4.899-4h19.03c-.487 3.388-3.408 6-6.929 6z"/><path d="m29 17v-2h-4v-8h-2v10z"/><path d="m33 17h2c1.103 0 2-.897 2-2v-6c0-1.103-.897-2-2-2h-2c-1.103 0-2 .897-2 2v6c0 1.103.897 2 2 2zm0-8h2l.001 6h-2.001z"/><path d="m42 17h2c1.654 0 3-1.346 3-3v-3h-4v2h2v1c0 .552-.449 1-1 1h-2c-.551 0-1-.448-1-1v-4c0-.552.449-1 1-1h2c.551 0 1 .448 1 1h2c0-1.654-1.346-3-3-3h-2c-1.654 0-3 1.346-3 3v4c0 1.654 1.346 3 3 3z"/><path d="m15 41h34v-22h-34zm2-20h30v18h-30z"/><path d="m19 23h2v2h-2z"/><path d="m23 23h22v2h-22z"/><path d="m33 37h12v-10h-12zm2-8h8v6h-8z"/><path d="m19 27h12v2h-12z"/><path d="m19 31h12v2h-12z"/><path d="m19 35h12v2h-12z"/></g></g></svg>