<svg id="Layer_5" enable-background="new 0 0 64 64" height="512" viewBox="0 0 64 64" width="512" xmlns="http://www.w3.org/2000/svg"><g><g><path d="m32 14c9.94 0 18 8.06 18 18s-8.06 18-18 18c-6.98 0-13.01-3.98-16-9.78v-19.06c1.18-.52 2.24-1.26 3.14-2.17 3.24-3.12 8.01-4.99 12.86-4.99z" fill="#ffeaa7"/><path d="m54 38v3.57c-.69 1.59-1.54 3.09-2.54 4.47l1.75 2.93-4.24 4.24-2.93-1.75c-2.96 2.14-6.44 3.63-10.21 4.23l-.83 3.31h-6l-.83-3.31c-3.77-.6-7.25-2.09-10.21-4.23l-2.93 1.75-4.24-4.24 1.18-1.97h.03c1.1 0 2.1-.45 2.83-1.17.72-.73 1.17-1.73 1.17-2.83v-2.78c2.99 5.8 9.02 9.78 16 9.78 9.94 0 18-8.06 18-18s-8.06-18-18-18c-4.85 0-9.62 1.87-12.86 4.99 1.77-1.8 2.86-4.26 2.86-6.99 0-.6-.05-1.18-.16-1.74 1.98-.92 4.1-1.6 6.33-1.95l.83-3.31h6l.83 3.31c3.77.6 7.25 2.09 10.21 4.23l2.93-1.75 4.24 4.24-1.75 2.93c1 1.38 1.85 2.88 2.54 4.47v1.57z" fill="#fcd770"/><path d="m58 24h-4v14h4 4v-14z" fill="#5cd6b3"/><path d="m62 22v2h-4-4v-1.57-.43c0-2.21 1.79-4 4-4 1.1 0 2.1.45 2.83 1.17.72.73 1.17 1.73 1.17 2.83z" fill="#aab2bd"/><path d="m62 38v4h-2-4-2v-.43-3.57h4z" fill="#aab2bd"/><path d="m61 55-1 7h-4l-1-7 1-1v-12h4v12z" fill="#e6e9ed"/><path d="m21.84 10.26c.11.56.16 1.14.16 1.74 0 2.73-1.09 5.19-2.86 6.99-.9.91-1.96 1.65-3.14 2.17v19.06 2.78c0 1.1-.45 2.1-1.17 2.83-.73.72-1.73 1.17-2.83 1.17-.01 0-.02 0-.03 0-2.2-.02-3.97-1.8-3.97-4v-21.84c-3.53-1.54-6-5.06-6-9.16s2.47-7.46 6-9v8l5 1.25 3 .75v-10c3.02 1.32 5.26 3.96 5.84 7.26z" fill="#aab2bd"/><g fill="#ff826e"><circle cx="39" cy="37" r="3"/><circle cx="32" cy="23" r="3"/><circle cx="25" cy="31" r="3"/></g></g><g><path d="m11 38h2v2h-2z"/><path d="m11 42h2v2h-2z"/><path d="m11 34h2v2h-2z"/><path d="m31 26.858v20.142h2v-20.142c1.721-.447 3-1.999 3-3.858s-1.279-3.411-3-3.858v-2.142h-2v2.142c-1.721.447-3 1.999-3 3.858s1.279 3.411 3 3.858zm1-5.858c1.103 0 2 .897 2 2s-.897 2-2 2-2-.897-2-2 .897-2 2-2z"/><path d="m24 34.858v10.142h2v-10.142c1.721-.447 3-1.999 3-3.858s-1.279-3.411-3-3.858v-7.142h-2v7.142c-1.721.447-3 1.999-3 3.858s1.279 3.411 3 3.858zm1-5.858c1.103 0 2 .897 2 2s-.897 2-2 2-2-.897-2-2 .897-2 2-2z"/><path d="m35 37c0 1.859 1.279 3.411 3 3.858v4.142h2v-4.142c1.721-.447 3-1.999 3-3.858s-1.279-3.411-3-3.858v-13.142h-2v13.142c-1.721.447-3 1.999-3 3.858zm4-2c1.103 0 2 .897 2 2s-.897 2-2 2-2-.897-2-2 .897-2 2-2z"/><path d="m63 43v-21c0-2.757-2.243-5-5-5-1.868 0-3.48 1.042-4.339 2.563-.322-.562-.652-1.118-1.013-1.649l1.823-3.04-5.346-5.346-3.04 1.822c-2.839-1.938-6.08-3.282-9.446-3.916l-.859-3.434h-7.56l-.86 3.435c-1.642.309-3.254.797-4.818 1.439-.902-2.982-3.087-5.454-6.141-6.79l-1.401-.612v10.247l-6-1.5v-8.747l-1.4.612c-4.072 1.78-6.6 5.58-6.6 9.916 0 4.147 2.334 7.922 6 9.795v21.205c0 2.186 1.42 4.03 3.379 4.707l-.851 1.419 5.346 5.346 3.04-1.822c2.839 1.938 6.08 3.282 9.446 3.916l.86 3.434h7.561l.859-3.435c3.366-.634 6.607-1.978 9.446-3.916l3.04 1.822 5.346-5.346-1.823-3.04c.662-.972 1.237-2.014 1.763-3.086h.588v10.586l-1.061 1.061 1.194 8.354h5.734l1.193-8.354-1.06-1.06v-10.586zm-8-2v-2h6v2zm6-16v12h-2v-12zm-4 12h-2v-12h2zm1-18c1.654 0 3 1.346 3 3v1h-6v-1c0-1.654 1.346-3 3-3zm-38.162.712c3.059-2.95 7.606-4.712 12.162-4.712 9.374 0 17 7.626 17 17s-7.626 17-17 17c-6.31 0-12.033-3.459-15-9.037v-18.168c1.068-.546 2.006-1.268 2.823-2.098zm-10.838 23.288v-22.492l-.6-.262c-3.28-1.434-5.4-4.672-5.4-8.246 0-3.004 1.499-5.695 4-7.328v7.109l10 2.5v-9.609c2.501 1.633 4 4.324 4 7.328 0 3.574-2.12 6.812-5.4 8.246l-.6.262v22.492c0 1.654-1.346 3-3 3s-3-1.346-3-3zm42.954 5.815-3.139 3.139-2.824-1.694-.534.387c-2.894 2.093-6.277 3.496-9.788 4.059l-.651.104-.798 3.19h-4.44l-.798-3.19-.651-.104c-3.511-.562-6.895-1.966-9.788-4.059l-.534-.387-2.824 1.694-3.139-3.139.524-.873c2.301-.266 4.114-2.083 4.374-4.385 3.558 4.654 9.068 7.443 15.056 7.443 10.477 0 19-8.523 19-19s-8.523-19-19-19c-3.35 0-6.691.878-9.567 2.419.357-1.088.567-2.234.567-3.419 0-.378-.026-.749-.064-1.117 1.742-.75 3.551-1.292 5.395-1.588l.651-.104.798-3.191h4.439l.798 3.19.651.104c3.511.562 6.895 1.966 9.788 4.059l.534.387 2.824-1.694 3.139 3.139-1.694 2.824.387.534c.914 1.265 1.703 2.646 2.354 4.105v18.704c-.651 1.459-1.44 2.84-2.354 4.105l-.387.534zm7.985 6.539-.806 5.646h-2.266l-.807-5.646.94-.94v-11.414h2v11.414z"/></g></g></svg>