<svg id="Layer_5" enable-background="new 0 0 64 64" height="512" viewBox="0 0 64 64" width="512" xmlns="http://www.w3.org/2000/svg"><g><g><path d="m34.53 7.41c1.91-3.24 5.44-5.41 9.47-5.41 6.08 0 11 4.92 11 11 0 .34-.02.67-.05 1h.05c3.87 0 7 3.13 7 7s-3.13 7-7 7h-4-6-2-11v-2c0-2.21-1.79-4-4-4h-13.93c-.05-.33-.07-.66-.07-1 0-3.87 3.13-7 7-7 .34 0 .67.02 1 .08v-.01c0-.02 0-.05 0-.07 0-4.42 3.58-8 8-8 1.68 0 3.24.52 4.53 1.41z" fill="#e6e9ed"/><path d="m32 42v16c0 2.21-1.79 4-4 4h-22c-2.21 0-4-1.79-4-4v-32c0-2.21 1.79-4 4-4h8.07 13.93c2.21 0 4 1.79 4 4v2z" fill="#aab2bd"/><g fill="#ff826e"><path d="m28 51v6c0 .55-.45 1-1 1h-20c-.55 0-1-.45-1-1v-6c0-.55.45-1 1-1h20c.55 0 1 .45 1 1z"/><path d="m28 27v6c0 .55-.45 1-1 1h-20c-.55 0-1-.45-1-1v-6c0-.55.45-1 1-1h20c.55 0 1 .45 1 1z"/><path d="m28 39v6c0 .55-.45 1-1 1h-20c-.55 0-1-.45-1-1v-6c0-.55.45-1 1-1h20c.55 0 1 .45 1 1z"/></g><path d="m62 38v2c0 1.1-.9 2-2 2h-18c-1.1 0-2-.9-2-2v-2c0-1.1.9-2 2-2h9 9c1.1 0 2 .9 2 2z" fill="#fcd770"/><path d="m62 48v2c0 1.1-.9 2-2 2h-18c-1.1 0-2-.9-2-2v-2c0-1.1.9-2 2-2h18c1.1 0 2 .9 2 2z" fill="#fcd770"/><path d="m62 58v2c0 1.1-.9 2-2 2h-18c-1.1 0-2-.9-2-2v-2c0-1.1.9-2 2-2h18c1.1 0 2 .9 2 2z" fill="#fcd770"/><path d="m42 52h18v4h-18z" fill="#5cd6b3"/><path d="m42 42h18v4h-18z" fill="#5cd6b3"/></g><g><path d="m5 27v6c0 1.103.897 2 2 2h20c1.103 0 2-.897 2-2v-6c0-1.103-.897-2-2-2h-20c-1.103 0-2 .897-2 2zm2 0h20l.001 6h-20.001z"/><path d="m13 29h2v2h-2z"/><path d="m9 29h2v2h-2z"/><path d="m23 29h2v2h-2z"/><path d="m27 37h-20c-1.103 0-2 .897-2 2v6c0 1.103.897 2 2 2h20c1.103 0 2-.897 2-2v-6c0-1.103-.897-2-2-2zm0 8h-20v-6h20z"/><path d="m19 41h2v2h-2z"/><path d="m23 41h2v2h-2z"/><path d="m9 41h2v2h-2z"/><path d="m27 49h-20c-1.103 0-2 .897-2 2v6c0 1.103.897 2 2 2h20c1.103 0 2-.897 2-2v-6c0-1.103-.897-2-2-2zm-20 8v-6h20l.001 6z"/><path d="m13 53h2v2h-2z"/><path d="m9 53h2v2h-2z"/><path d="m23 53h2v2h-2z"/><path d="m60 35h-8v-6h3c4.411 0 8-3.589 8-8 0-4.059-3.038-7.422-7-7.931 0-.023 0-.046 0-.069 0-6.617-5.383-12-12-12-3.883 0-7.526 1.927-9.764 5.064-1.263-.678-2.705-1.064-4.236-1.064-4.626 0-8.444 3.509-8.942 8.005-.019 0-.038-.005-.058-.005-4.411 0-8 3.589-8 8h-7c-2.757 0-5 2.243-5 5v32c0 2.757 2.243 5 5 5h22c2.757 0 5-2.243 5-5v-15h1c1.654 0 3-1.346 3-3v-6c0-.551.449-1 1-1h7c1.654 0 3-1.346 3-3s-1.346-3-3-3h-12v-1c0-2.757-2.243-5-5-5h-13c0-3.309 2.691-6 6-6 2.669 0 5.042 1.791 5.772 4.354l1.924-.547c-.781-2.745-2.984-4.802-5.66-5.515.356-3.528 3.343-6.292 6.964-6.292 3.86 0 7 3.14 7 7h2c0-2.716-1.214-5.149-3.123-6.8 1.867-2.603 4.896-4.2 8.123-4.2 5.514 0 10 4.486 10 10 0 .308-.02.612-.047.913l-.047 1.087h1.094c3.309 0 6 2.691 6 6s-2.691 6-6 6h-5v8h-8c-1.654 0-3 1.346-3 3v2c0 1.302.839 2.402 2 2.816v2.369c-1.161.414-2 1.514-2 2.816v2c0 1.302.839 2.402 2 2.816v2.369c-1.161.414-2 1.514-2 2.816v2c0 1.654 1.346 3 3 3h18c1.654 0 3-1.346 3-3v-2c0-1.302-.839-2.402-2-2.816v-2.369c1.161-.414 2-1.514 2-2.816v-2c0-1.302-.839-2.402-2-2.816v-2.369c1.161-.414 2-1.514 2-2.816v-2c0-1.654-1.346-3-3-3zm-15-6c.551 0 1 .449 1 1s-.449 1-1 1h-7c-1.654 0-3 1.346-3 3v6c0 .551-.449 1-1 1h-1v-12zm-14-3v32c0 1.654-1.346 3-3 3h-22c-1.654 0-3-1.346-3-3v-32c0-1.654 1.346-3 3-3h22c1.654 0 3 1.346 3 3zm12 19v-2h16v2zm0 10v-2h16v2zm18 5c0 .551-.449 1-1 1h-18c-.551 0-1-.449-1-1v-2c0-.551.449-1 1-1h18c.551 0 1 .449 1 1zm0-10c0 .551-.449 1-1 1h-18c-.551 0-1-.449-1-1v-2c0-.551.449-1 1-1h18c.551 0 1 .449 1 1zm0-10c0 .551-.449 1-1 1h-18c-.551 0-1-.449-1-1v-2c0-.551.449-1 1-1h18c.551 0 1 .449 1 1z"/><path d="m43 25h12c2.206 0 4-1.794 4-4h-2c0 1.103-.897 2-2 2h-12z"/><path d="m39 23h2v2h-2z"/><path d="m35 23h2v2h-2z"/><path d="m51.668 15.286c.22-.739.332-1.508.332-2.286 0-4.411-3.589-8-8-8v2c3.309 0 6 2.691 6 6 0 .585-.083 1.162-.249 1.714z"/><path d="m30 9v2c1.654 0 3 1.346 3 3h2c0-2.757-2.243-5-5-5z"/></g></g></svg>