<svg id="Layer_5" enable-background="new 0 0 64 64" height="512" viewBox="0 0 64 64" width="512" xmlns="http://www.w3.org/2000/svg"><g><g><g><path d="m52 3 9 13h-4v15h-6-4v-11-4h-4l1.49-2.15z" fill="#ff826e"/></g><g><path d="m47 16v4h-34v8h-4c-3.87 0-7-3.13-7-7s3.13-7 7-7c0-6.63 5.37-12 12-12 4.84 0 9 2.87 10.9 7 1.23-.64 2.62-1 4.1-1 3.67 0 6.83 2.2 8.23 5.36l.26.49-1.49 2.15z" fill="#e6e9ed"/></g><g><path d="m13 62v-34-8h34v11h4v21h-10v10z" fill="#f0d0b4"/></g><g><path d="m17 52h20v6h-20z" fill="#e6e9ed"/></g><g><path d="m33 40h14v8h-14z" fill="#fcd770"/></g><g><path d="m17 24h14v12h-14z" fill="#5cd6b3"/></g><g><path d="m51 52-10 10v-10z" fill="#5cd6b3"/></g></g><g><path d="m52 1.243-7.399 10.687c-1.783-3.022-5.037-4.93-8.601-4.93-1.261 0-2.483.232-3.645.691-2.279-4.094-6.634-6.691-11.355-6.691-6.852 0-12.482 5.328-12.966 12.058-3.958.478-7.034 3.858-7.034 7.942 0 4.411 3.589 8 8 8h3v34h29.414l10.586-10.586v-20.414h6v-15h4.909zm-43 25.757c-3.309 0-6-2.691-6-6s2.691-6 6-6h1v-1c0-6.065 4.935-11 11-11 4.275 0 8.196 2.518 9.988 6.414l.437.949.929-.478c1.143-.587 2.37-.885 3.646-.885 3.146 0 6.002 1.852 7.323 4.777l-2.232 3.223h4.909v2h-34v8zm33 32.586v-6.586h6.586zm8-8.586h-10v10h-26v-40h32v11h4zm6-36v15h-8v-15h-3.091l7.091-10.243 7.091 10.243z"/><path d="m16 59h22v-8h-22zm2-6h18v4h-18z"/><path d="m32 23h-16v14h16zm-2 12h-12v-10h12z"/><path d="m34 23h10v2h-10z"/><path d="m34 27h10v2h-10z"/><path d="m34 31h10v2h-10z"/><path d="m34 35h2v2h-2z"/><path d="m38 35h10v2h-10z"/><path d="m32 49h16v-10h-16zm2-8h12v6h-12z"/><path d="m16 39h14v2h-14z"/><path d="m16 43h14v2h-14z"/><path d="m16 47h2v2h-2z"/><path d="m20 47h10v2h-10z"/><path d="m7 21h-2c0 2.206 1.794 4 4 4v-2c-1.103 0-2-.897-2-2z"/><path d="m14.054 14.876c-.035-.287-.054-.579-.054-.876 0-3.859 3.14-7 7-7v-2c-4.962 0-9 4.037-9 9 0 .377.023.755.07 1.124z"/><path d="m39.2 14.601 1.6-1.201c-1.145-1.525-2.895-2.4-4.8-2.4v2c1.27 0 2.437.583 3.2 1.601z"/></g></g></svg>