<svg id="Layer_5" enable-background="new 0 0 64 64" height="512" viewBox="0 0 64 64" width="512" xmlns="http://www.w3.org/2000/svg"><g><g><g><path d="m32 49c-8.822 0-16-7.178-16-16s7.178-16 16-16 16 7.178 16 16-7.178 16-16 16zm0-27c-6.066 0-11 4.934-11 11s4.934 11 11 11 11-4.935 11-11-4.935-11-11-11z" fill="#f0bc5e"/></g></g><g><path d="m32 15c8.241 0 17-2.453 17-7s-8.759-7-17-7-17 2.453-17 7 8.759 7 17 7zm0-12c8.585 0 15 2.64 15 5s-6.415 5-15 5-15-2.64-15-5 6.415-5 15-5z"/><path d="m32 11c3.608 0 12-.292 12-3s-8.392-3-12-3-12 .292-12 3 8.392 3 12 3zm0-4c4.849 0 8.022.54 9.395 1-1.373.46-4.546 1-9.395 1s-8.022-.54-9.395-1c1.373-.46 4.546-1 9.395-1z"/><path d="m53 24h2v2h-2z"/><path d="m57 49h2v2h-2z"/><path d="m57 45h2v2h-2z"/><path d="m57 53h2v2h-2z"/><path d="m49 53h2v2h-2z"/><path d="m49 49h2v2h-2z"/><path d="m49 45h2v2h-2z"/><path d="m41 53h2v2h-2z"/><path d="m41 49h2v2h-2z"/><path d="m41 45h2v2h-2z"/><path d="m53.328 10c-2.394 0-4.692.882-6.47 2.483l-7.196 6.476c.608.333 1.183.717 1.741 1.124l6.793-6.113c1.411-1.271 3.233-1.97 5.132-1.97 4.23 0 7.672 3.441 7.672 7.672v41.257c-3.388-.486-6-3.408-6-6.929v-26h-2v26 6.929c-3.388-.486-6-3.408-6-6.929v-15.485c-.5 1.355-1.172 2.622-2 3.777v11.708 6.929c-3.388-.486-6-3.408-6-6.929v-6.635c-.645.316-1.31.596-2 .823v5.812c0 4.963 4.038 9 9 9h1v-3.356c1.651 2.044 4.174 3.356 7 3.356h1v-3.356c1.651 2.044 4.174 3.356 7 3.356h1v-43.328c0-5.333-4.339-9.672-9.672-9.672z"/><path d="m33 30c.551 0 1 .448 1 1h2c0-1.654-1.346-3-3-3v-3h-2v3h-3v3c0 1.654 1.346 3 3 3h2c.551 0 1 .448 1 1v1h-3c-.551 0-1-.448-1-1h-2c0 1.654 1.346 3 3 3v3h2v-3h3v-3c0-1.654-1.346-3-3-3h-2c-.551 0-1-.448-1-1v-1z"/><path d="m44 33c0-6.617-5.383-12-12-12s-12 5.383-12 12 5.383 12 12 12 12-5.383 12-12zm-12 10c-5.514 0-10-4.486-10-10s4.486-10 10-10 10 4.486 10 10-4.486 10-10 10z"/><path d="m25 54c0 3.521-2.612 6.442-6 6.929v-6.929-11.708c-.828-1.155-1.5-2.423-2-3.777v15.485c0 3.521-2.612 6.442-6 6.929v-6.929-26h-2v26c0 3.521-2.612 6.442-6 6.929v-41.257c0-4.231 3.442-7.672 7.672-7.672 1.899 0 3.721.699 5.132 1.97l6.793 6.113c.557-.407 1.132-.79 1.741-1.124l-7.196-6.476c-1.778-1.601-4.076-2.483-6.47-2.483-5.333 0-9.672 4.339-9.672 9.672v43.328h1c2.826 0 5.349-1.312 7-3.356v3.356h1c2.826 0 5.349-1.312 7-3.356v3.356h1c4.962 0 9-4.037 9-9v-5.811c-.69-.228-1.355-.508-2-.824z"/><path d="m9 24h2v2h-2z"/><path d="m21 45h2v2h-2z"/><path d="m21 53h2v2h-2z"/><path d="m21 49h2v2h-2z"/><path d="m13 53h2v2h-2z"/><path d="m13 45h2v2h-2z"/><path d="m13 49h2v2h-2z"/><path d="m5 45h2v2h-2z"/><path d="m5 49h2v2h-2z"/><path d="m5 53h2v2h-2z"/></g></g></svg>