<svg id="Layer_5" enable-background="new 0 0 64 64" height="512" viewBox="0 0 64 64" width="512" xmlns="http://www.w3.org/2000/svg"><g><g><path d="m34 60v2h-24v-2c0-1.1.9-2 2-2h2 16 2c1.1 0 2 .9 2 2z" fill="#aab2bd"/><path d="m14 54h16v4h-16z" fill="#aab2bd"/><path d="m42 48v2c0 2.21-1.79 4-4 4h-8-16-8c-2.21 0-4-1.79-4-4v-2z" fill="#ccd1d9"/><path d="m38 26h-32c-2.21 0-4 1.79-4 4v14 4h40v-2-2-4-10c0-2.21-1.79-4-4-4z" fill="#69d6f4"/><circle cx="22" cy="28" fill="#48cfad" r="12"/><path d="m54 42v2c0 1.1-.9 2-2 2h-10v-2-4h6 4c1.1 0 2 .9 2 2z" fill="#ccd1d9"/><path d="m50 6.49c-2.21 0-4 1.79-4 4 0 1.47.8 2.77 2 3.46v26.05h4v-26.05c1.2-.69 2-1.99 2-3.46 0-2.21-1.79-4-4-4z" fill="#fc6e51"/></g><g><path d="m19 27h2v2h-2z"/><path d="m23 27h2v2h-2z"/><path d="m5 43h2v2h-2z"/><path d="m9 43h30v2h-30z"/><path d="m5 39h6v2h-6z"/><path d="m33 39h6v2h-6z"/><path d="m56.364 4.122-1.414 1.414c2.729 2.729 2.729 7.17 0 9.899l1.414 1.414c3.509-3.509 3.509-9.219 0-12.727z"/><path d="m59.192 1.293-1.414 1.414c4.289 4.289 4.289 11.268 0 15.557l1.414 1.414c5.069-5.069 5.069-13.316 0-18.385z"/><path d="m43.636 16.849 1.414-1.414c-2.729-2.729-2.729-7.17 0-9.899l-1.414-1.414c-3.509 3.508-3.509 9.218 0 12.727z"/><path d="m42.222 18.264c-4.289-4.289-4.289-11.268 0-15.557l-1.414-1.414c-5.068 5.069-5.068 13.316 0 18.385z"/><path d="m53 39.184v-24.719c1.246-.939 2-2.417 2-3.979 0-2.757-2.243-5-5-5s-5 2.243-5 5c0 1.563.754 3.04 2 3.979v24.535h-4v-9c0-2.757-2.243-5-5-5h-3.363c-1.36-5.724-6.503-10-12.637-10s-11.277 4.276-12.637 10h-3.363c-2.757 0-5 2.243-5 5v20c0 2.757 2.243 5 5 5h7v2h-1c-1.654 0-3 1.346-3 3v3h26v-3c0-1.654-1.346-3-3-3h-1v-2h7c2.757 0 5-2.243 5-5v-3h9c1.654 0 3-1.346 3-3v-2c0-1.302-.839-2.402-2-2.816zm-4.497-26.118c-.941-.548-1.503-1.513-1.503-2.581 0-1.654 1.346-3 3-3s3 1.346 3 3c0 1.068-.562 2.033-1.503 2.581l-.497.29v25.644h-2v-25.644zm-29.976 20.168c1.112-.147 2.278-.234 3.473-.234s2.361.087 3.473.234c-.744 3.495-2.162 5.766-3.473 5.766s-2.729-2.271-3.473-5.766zm-.241 5.107c-2.002-.721-3.733-2.004-5.006-3.662.91-.45 2.023-.824 3.267-1.103.395 1.899.991 3.523 1.739 4.765zm-.286-10.341c0-1.146.072-2.238.197-3.26 1.216.164 2.49.26 3.803.26s2.587-.096 3.803-.26c.125 1.022.197 2.114.197 3.26s-.072 2.238-.197 3.26c-1.216-.164-2.49-.26-3.803-.26s-2.587.096-3.803.26c-.125-1.022-.197-2.114-.197-3.26zm4-11c1.311 0 2.729 2.271 3.473 5.766-1.112.147-2.278.234-3.473.234s-2.361-.087-3.473-.234c.744-3.495 2.162-5.766 3.473-5.766zm5.453 16.576c1.244.279 2.356.652 3.267 1.103-1.273 1.658-3.004 2.94-5.006 3.662.748-1.242 1.344-2.866 1.739-4.765zm4.342-.595c-1.12-.58-2.492-1.042-4.016-1.377.141-1.138.221-2.342.221-3.604s-.08-2.466-.221-3.604c1.524-.335 2.896-.797 4.016-1.377.765 1.498 1.205 3.187 1.205 4.981s-.44 3.484-1.205 4.981zm-1.075-11.66c-.91.45-2.023.824-3.267 1.103-.396-1.899-.991-3.523-1.739-4.765 2.002.722 3.733 2.004 5.006 3.662zm-12.434-3.662c-.748 1.241-1.343 2.865-1.739 4.765-1.244-.279-2.356-.653-3.267-1.103 1.273-1.658 3.004-2.94 5.006-3.662zm-6.081 5.36c1.12.58 2.492 1.042 4.016 1.377-.141 1.138-.221 2.342-.221 3.604s.08 2.466.221 3.604c-1.524.335-2.896.797-4.016 1.377-.765-1.497-1.205-3.187-1.205-4.981s.44-3.483 1.205-4.981zm-6.205 3.981h3.051c-.026.331-.051.662-.051 1 0 7.168 5.832 13 13 13s13-5.832 13-13c0-.338-.025-.669-.051-1h3.051c1.654 0 3 1.346 3 3v17h-38v-17c0-1.654 1.346-3 3-3zm27 33v1h-22v-1c0-.551.448-1 1-1h20c.552 0 1 .449 1 1zm-4-3h-14v-2h14zm9-4h-32c-1.654 0-3-1.346-3-3v-1h38v1c0 1.654-1.346 3-3 3zm15-9c0 .551-.448 1-1 1h-9v-4h9c.552 0 1 .449 1 1z"/></g></g></svg>