<svg id="Layer_5" enable-background="new 0 0 64 64" height="512" viewBox="0 0 64 64" width="512" xmlns="http://www.w3.org/2000/svg"><g><g><g><path d="m2 10v36c0 1.1.9 2 2 2h58v-38z" fill="#ffeaa7"/></g><g><circle cx="48" cy="48" fill="#e6e9ed" r="14"/></g><g><path d="m58 16v12c0 1.1-.9 2-2 2h-42c-1.1 0-2-.9-2-2v-12c0-1.1.9-2 2-2h42c1.1 0 2 .9 2 2z" fill="#e6e9ed"/></g><g><path d="m28 36v6c0 1.1-.9 2-2 2h-18c-1.1 0-2-.9-2-2v-6c0-1.1.9-2 2-2h18c1.1 0 2 .9 2 2z" fill="#ff826e"/></g><g><path d="m58.47 57.29c-2.57 2.89-6.31 4.71-10.47 4.71-4.17 0-7.91-1.82-10.47-4.72l.03-.03c.55-.96 1.5-1.67 2.65-1.9l3.61-.73c.36-.1.69-.26.97-.48l3.21 3.86 3.21-3.86c.28.22.61.38.97.48l3.61.73c1.17.24 2.13.97 2.68 1.94z" fill="#fcd770"/></g><g><path d="m51.21 54.14-3.21 3.86-3.21-3.86c.57-.42.97-1.03 1.13-1.72v-.01c.61.38 1.32.59 2.08.59s1.47-.21 2.08-.59v.01c.16.69.56 1.3 1.13 1.72z" fill="#f0d0b4"/></g><g><path d="m54.41 46.59c.37.36.59.86.59 1.41 0 1.1-.9 2-2 2h-1.13c.09-.32.13-.65.13-1v-3h1c.55 0 1.05.22 1.41.59z" fill="#f0d0b4"/></g><g><path d="m51.87 50c-.26 1.02-.91 1.88-1.79 2.41-.61.38-1.32.59-2.08.59s-1.47-.21-2.08-.59c-.27-.16-.52-.36-.75-.58-.49-.5-.86-1.13-1.04-1.83-.09-.32-.13-.65-.13-1v-2c0-.36.1-.71.27-1 .35-.6.99-1 1.73-1 1.32.66 2.77 1 4.24 1h1.76v3c0 .35-.04.68-.13 1z" fill="#f0d0b4"/></g><g><path d="m43 46h1.27c-.17.29-.27.64-.27 1v2c0 .35.04.68.13 1h-1.13c-.55 0-1.05-.22-1.41-.59-.37-.36-.59-.86-.59-1.41 0-1.1.9-2 2-2z" fill="#f0d0b4"/></g><g><path d="m55 45v3c0-.55-.22-1.05-.59-1.41-.36-.37-.86-.59-1.41-.59h-1-1.76c-1.47 0-2.92-.34-4.24-1-.74 0-1.38.4-1.73 1h-1.27c-1.1 0-2 .9-2 2v-3c0-3.87 3.13-7 7-7 1.94 0 3.68.78 4.95 2.05s2.05 3.01 2.05 4.95z" fill="#656d78"/></g><g><path d="m62 4v6h-60v-6c0-1.1.9-2 2-2h56c1.1 0 2 .9 2 2z" fill="#5cd6b3"/></g></g><g><path d="m60 1h-56c-1.654 0-3 1.346-3 3v42c0 1.654 1.346 3 3 3h29.051c.518 7.805 7.016 14 14.949 14 8.271 0 15-6.729 15-15v-44c0-1.654-1.346-3-3-3zm-56 2h56c.551 0 1 .449 1 1v5h-58v-5c0-.551.449-1 1-1zm34.834 54.209c.42-.442.965-.754 1.571-.877l3.694-.749c.154-.044.303-.101.449-.162l3.452 4.142 3.455-4.146c.168.072.343.135.523.186l3.616.729c.608.123 1.151.436 1.57.878-2.352 2.34-5.591 3.79-9.164 3.79s-6.813-1.45-9.166-3.791zm4.166-8.209c-.551 0-1-.448-1-1s.449-1 1-1zm.78-4h-.78c-.352 0-.686.072-1 .184v-.184c0-3.309 2.691-6 6-6s6 2.691 6 6v.184c-.314-.112-.648-.184-1-.184h-1-1.764c-1.308 0-2.618-.31-3.789-.895l-.211-.105h-.236c-.883 0-1.67.391-2.22 1zm9.22 2c.551 0 1 .448 1 1s-.449 1-1 1zm-8 2v-2c0-.486.349-.893.81-.981 1.38.642 2.904.981 4.426.981h.764v2c0 1.654-1.346 3-3 3s-3-1.346-3-3zm3 5c.541 0 1.052-.108 1.541-.268.096.165.204.321.322.47l-1.863 2.236-1.861-2.233c.118-.15.226-.307.322-.472.487.159.998.267 1.539.267zm10.454 1.695c-.678-.656-1.52-1.133-2.464-1.324l-3.539-.71c-.502-.144-.914-.48-1.171-.918.548-.481.999-1.067 1.296-1.743h.424c1.654 0 3-1.346 3-3v-3c0-4.411-3.589-8-8-8s-8 3.589-8 8v3c0 1.654 1.346 3 3 3h.424c.297.677.749 1.263 1.297 1.744-.252.436-.649.768-1.094.897l-3.617.729c-.942.191-1.785.666-2.464 1.323-1.593-2.157-2.546-4.812-2.546-7.693 0-7.168 5.832-13 13-13s13 5.832 13 13c0 2.881-.954 5.537-2.546 7.695zm-10.454-22.695c-7.933 0-14.431 6.195-14.949 14h-29.051c-.551 0-1-.448-1-1v-35h58v29.548c-2.591-4.503-7.442-7.548-13-7.548z"/><path d="m13 5h2v2h-2z"/><path d="m9 5h2v2h-2z"/><path d="m5 5h2v2h-2z"/><path d="m53 24.376c0 .344-.28.624-.624.624-.307 0-.565-.219-.616-.521l-.609-3.657c-.177-1.056-1.081-1.822-2.151-1.822s-1.974.766-2.151 1.822l-.609 3.657c-.051.302-.309.521-.616.521-.344 0-.624-.28-.624-.624v-7.376h-2v7.376c0 1.447 1.177 2.624 2.624 2.624 1.288 0 2.377-.922 2.588-2.192l.609-3.656c.029-.176.327-.175.356 0l.609 3.656c.211 1.271 1.3 2.193 2.588 2.193 1.449-.001 2.626-1.178 2.626-2.625v-7.376h-2z"/><path d="m39 24.376c0 .344-.28.624-.624.624-.307 0-.565-.219-.616-.521l-.609-3.657c-.177-1.056-1.081-1.822-2.151-1.822s-1.974.766-2.151 1.822l-.609 3.657c-.051.302-.309.521-.616.521-.344 0-.624-.28-.624-.624v-7.376h-2v7.376c0 1.447 1.177 2.624 2.624 2.624 1.288 0 2.377-.922 2.588-2.192l.609-3.656c.029-.176.327-.175.356 0l.609 3.656c.211 1.271 1.3 2.193 2.588 2.193 1.449-.001 2.626-1.178 2.626-2.625v-7.376h-2z"/><path d="m25 24.376c0 .344-.28.624-.624.624-.307 0-.565-.219-.616-.521l-.609-3.657c-.177-1.056-1.081-1.822-2.151-1.822s-1.974.766-2.151 1.822l-.609 3.657c-.051.302-.309.521-.616.521-.344 0-.624-.28-.624-.624v-7.376h-2v7.376c0 1.447 1.177 2.624 2.624 2.624 1.288 0 2.377-.922 2.588-2.192l.609-3.656c.029-.176.327-.175.356 0l.609 3.656c.211 1.271 1.3 2.193 2.588 2.193 1.449-.001 2.626-1.178 2.626-2.625v-7.376h-2z"/><path d="m56 13h-42c-1.654 0-3 1.346-3 3v12c0 1.654 1.346 3 3 3h42c1.654 0 3-1.346 3-3v-12c0-1.654-1.346-3-3-3zm1 15c0 .551-.449 1-1 1h-42c-.551 0-1-.449-1-1v-12c0-.551.449-1 1-1h42c.551 0 1 .449 1 1z"/><path d="m26 33h-18c-1.654 0-3 1.346-3 3v6c0 1.654 1.346 3 3 3h18c1.654 0 3-1.346 3-3v-6c0-1.654-1.346-3-3-3zm1 9c0 .552-.449 1-1 1h-18c-.551 0-1-.448-1-1v-6c0-.552.449-1 1-1h18c.551 0 1 .448 1 1z"/></g></g></svg>